<svg xmlns="http://www.w3.org/2000/svg" viewBox="0 0 62.09 78.27"><defs><style>.cls-1{fill:#2cdeb4;}</style></defs><g id="Layer_2" data-name="Layer 2"><g id="Layer_1-2" data-name="Layer 1"><g id="Group_1944" data-name="Group 1944"><path id="Path_1558" data-name="Path 1558" class="cls-1" d="M56.58,14.9a20.93,20.93,0,0,0-2.66-5.61c-1.23-1.76-7.13-7.29-8.73-8a2.62,2.62,0,0,0-.91-.21.86.86,0,0,0-.9.66,2.12,2.12,0,0,0,.88,2.48C53.71,9,55.23,18,55.08,23.44S51.85,34.2,47.75,38a20.3,20.3,0,0,1-6.93,4.27,21.63,21.63,0,0,1-4,1,23.4,23.4,0,0,1-3.13.21c-.32,0-.65,0-1,0a20.48,20.48,0,0,1-14.37-6.72c-2.7-3.07-4.1-8-3.87-13.5A24.39,24.39,0,0,1,16,16l.06-.16,0-.08h0l.19-.46.12-.32h0l.05-.13a22.76,22.76,0,0,1,3-5.31,20.36,20.36,0,0,1,5.29-4.89,23.32,23.32,0,0,1,6.7-2.84,24.79,24.79,0,0,1,5.88-.73,22.7,22.7,0,0,1,5.32.63A18.21,18.21,0,0,0,37.78.26,22.4,22.4,0,0,0,34.41,0,21.57,21.57,0,0,0,15.76,10.77a27,27,0,0,0-3.4,16.57,22.59,22.59,0,0,0,2.2,7.71v0l.29.54c.07.12.13.24.21.36s0,0,0,0l.14.23v-.05A19.06,19.06,0,0,0,20.79,42a24,24,0,0,0,12.94,4.12l.8,0c1.51-.1,2.88-.21,2.88-.21l.51-.08c.4-.06.75-.12,1.07-.19a22.29,22.29,0,0,0,8.8-3.86,23.1,23.1,0,0,0,2-1.59l.54-.52h0l.23-.22v0a5.57,5.57,0,0,0,.55-.55l0,0,.26-.29.34-.39a25.08,25.08,0,0,0,2.63-3.53,23.49,23.49,0,0,0,3.3-9.59A24.24,24.24,0,0,0,56.58,14.9"/><path id="Path_1559" data-name="Path 1559" class="cls-1" d="M33.41,17.62a12.91,12.91,0,0,1,1.32-1c.24-.17.5-.33.76-.5l.39-.25s0,0,0,0h0a0,0,0,0,1,0,0h0s0,0,0,0l0,0h0l0,.39-.09.76q-.36,3.06-.65,6.13c-.38,4.09-.66,8.19-.9,12.28,0,.06.17.09.19,0,1-4,2.08-8,3.16-12,.54-2,1.07-4,1.57-6l.18-.75.09-.37.13-.67.54-2.8.54-3L41,8.42l.13-.78.06-.36,0-.34L37.75,9.66l-.86.67c-.28.21-.55.38-.82.58-.55.37-1.09.71-1.64,1.07l-.8.52-.43.29-.85.62a14.06,14.06,0,0,0-1.68,1.5A1,1,0,0,0,30.51,16a2.34,2.34,0,0,0,.86,1,4.41,4.41,0,0,0,1.18.61c.36.12.67.14.86,0"/><path id="Path_1560" data-name="Path 1560" class="cls-1" d="M42.31,32.62c-2.56.2-5.12-.1-7.69-.11a22.07,22.07,0,0,0-3.45-.24,3.59,3.59,0,0,0-1.87.87,3.16,3.16,0,0,0-1,2.72.89.89,0,0,0,.15.31,2.41,2.41,0,0,1,1.33-.64,8.75,8.75,0,0,1,1.77-.14,24,24,0,0,1,3.69.31c1.33.2,2.66.52,4,.78.69.14,1.38.23,2.07.35.42.07.84.38,1.22-.76.3-.9.17-3.47-.18-3.45"/><path id="Path_1561" data-name="Path 1561" class="cls-1" d="M22.11,13.32a76.85,76.85,0,0,0,.43,9s.05,0,.05,0a75,75,0,0,0,.48-9c0-.38-.95-.36-1,0"/><path id="Path_1562" data-name="Path 1562" class="cls-1" d="M24.84,12.7a54.52,54.52,0,0,0,.49,9.12s0,0,0,0c.1-3,.55-6.09.43-9.11,0-.38-.94-.39-1,0"/><path id="Path_1563" data-name="Path 1563" class="cls-1" d="M28.28,14.06c-1.46.25-2.9.47-4.39.71a31.67,31.67,0,0,0-4.39,1s0,.05,0,0c1.49-.17,3-.26,4.48-.28A20.4,20.4,0,0,0,28.47,15c.37-.09.17-1-.2-.94"/><path id="Path_1564" data-name="Path 1564" class="cls-1" d="M19.93,19.73l4.74-.83c1.58-.27,3.18-.49,4.77-.71,0,0,0-.05,0-.05-1.61,0-3.23-.08-4.87,0a25.28,25.28,0,0,0-4.83.65c-.4.1-.21,1,.19.95"/><path id="Path_1565" data-name="Path 1565" class="cls-1" d="M33.67,46.51a111.12,111.12,0,0,1-6.32,15,74.59,74.59,0,0,1-4.16,6.92c-.38.56-.76,1.11-1.16,1.66s-.78,1.1-1.2,1.63l-.37.48-.11.13a2.09,2.09,0,0,1-.2.22c0-.12,0-.24-.08-.36l0-.08L20,71.9c-.12-.38-.24-.75-.37-1.13-.5-1.5-1.06-3-1.6-4.4S17,63.53,16.56,62.1c-.21-.71-.4-1.42-.58-2.14,0-.18-.09-.36-.12-.55l-.17-.79-.39-2.15-.14-.8-.07-.4,0-.1s0-.09,0-.06l-.19.09-1.49.66-1.5.65L10.78,57c-1.06.43-2.13.84-3.23,1.23l-1.65.57-.2.06H5.62s-.06,0,0,0l.07-.06h0l.14-.21c.18-.29.37-.58.54-.88.35-.58.71-1.17,1-1.76a72.75,72.75,0,0,0,3.67-7.27,50.09,50.09,0,0,0,4-14.9c0-.22-.22-.18-.29,0A103.67,103.67,0,0,1,8.94,48.09c-1.16,2.32-2.39,4.59-3.72,6.82l-1,1.66L3,58.49Q1.53,60.72,0,63l0,0,.18,0,.35-.1.72-.21,1.43-.42c.95-.28,1.91-.58,2.9-.91l1.3-.44L8,60.49l2.13-.79,1.07-.41,1-.42.6-.24.29-.12.14-.06s.06,0,.07,0v.08l.1.64c0,.1,0,.21.05.31l.08.42c.16.76.33,1.51.53,2.26.63,2.4,1.5,4.71,2.3,7,.4,1.13.78,2.26,1.11,3.41l.16.53c.07.24.14.48.2.72l.38,1.47c.25,1,.48,2,.73,3,.05,0,.12-.12.18-.19l.19-.24.39-.47.78-1,1.58-1.94L23.27,73c.32-.4.62-.82.93-1.23,1.24-1.63,2.4-3.33,3.5-5.07a87.81,87.81,0,0,0,6.43-12.5c1.13-2.64,2.31-5.2,2.37-7.89,0-2.13-2.07-1.94-2.83.23"/><path id="Path_1566" data-name="Path 1566" class="cls-1" d="M49.36,40.53c2.45,7,4.72,14,6.87,21.11L57.82,67l.2.66,0,.2,0,0,0,.2,0,.19s0,0,0,0l0,0-.1-.05L57.45,68c-.85-.35-1.69-.7-2.53-1.07q-2.54-1.08-5-2.27c-.71-.33-1.42-.69-2.13-1l-3.7-1.92L43,64.46l-.43,1-.31.72-1.28,2.87L39.6,72s0,0,0,0,0,0,0,0h0s0,0,0-.08l-.12-.3c-.18-.4-.35-.8-.5-1.23C38.22,68.7,37.65,67,37,65.23s-1.25-3.45-2-5.09a17,17,0,0,0-2.8-4.44c-.13-.14-.27,0-.19.21a26.57,26.57,0,0,1,1.83,4.91c.49,1.72.93,3.48,1.39,5.23s.93,3.53,1.54,5.27c.14.44.33.87.49,1.3l.14.35c.06.14.13.27.2.4l.4.81c.07.13.12.28.2.4l.23.36.45.71c.16.24.34.47.51.7l.26.36.07.08s0,.08.06.06l.1,0c.62-1.28,1.23-2.56,1.83-3.86.46-1,.89-1.94,1.33-2.91s.85-2,1.27-2.93l.95-2.23,1.16.62,1.82.93c1.24.62,2.48,1.23,3.74,1.81.88.41,1.76.82,2.64,1.21l1.33.59.67.29,1,.4,4.26,1.69.13,0,.07,0h0v0L62,72.24l-.14-.54-.3-1.08L61,68.41l-1.68-6.1-1.56-5.57c-1.1-3.84-2.27-7.67-3.45-11.49-.72-2.35-1.28-4.71-2.8-6.52-1.2-1.44-2.78-.09-2.11,1.8"/></g></g></g></svg>