<svg xmlns="http://www.w3.org/2000/svg" viewBox="0 0 86.32 66.1"><defs><style>.cls-1{fill:#2cdeb4;}</style></defs><g id="Layer_2" data-name="Layer 2"><g id="Layer_1-2" data-name="Layer 1"><path id="Path_1542" data-name="Path 1542" class="cls-1" d="M14.93,53.65c0-.33.06-.66,0-1a9.87,9.87,0,0,0-.1-1.21,6.46,6.46,0,0,1-.07-1,1.61,1.61,0,0,0-.06-.44,8.32,8.32,0,0,1-.1-1.11,10,10,0,0,0-.07-1.09,3.81,3.81,0,0,1,0-1c.05-.38,0-.76,0-1.14a15.32,15.32,0,0,0,0-1.66,10.79,10.79,0,0,1-.06-1.61c0-.34,0-.69,0-1s.06-.73.13-1.09.31-.37.82-.4a5.3,5.3,0,0,1,.8,0c.23,0,.33.07.34.2,0,1.14.11,2.29.11,3.43,0,.8.06,1.6.12,2.4s.06,1.57.12,2.35c0,.56,0,1.12.09,1.67a14.59,14.59,0,0,1,0,1.75c0,1.16,0,2.32,0,3.48,0,.87.06,1.73,0,2.6,0,.41-.05.82,0,1.23s0,.83,0,1.24-.09.35-.66.41a6,6,0,0,1-.95,0c-.2,0-.27-.07-.27-.17,0-.31,0-.62-.05-.93a15.14,15.14,0,0,0,0-2,4.57,4.57,0,0,1,0-.83c0-.75-.13-1.5-.16-2.26,0-.25,0-.5,0-.75"/><g id="Group_1942" data-name="Group 1942"><path id="Path_1530" data-name="Path 1530" class="cls-1" d="M28.54,17.72l0,.31v6.68L31.1,23l1.59-1,3.16-2.08L39,17.77,43.09,15,35.92,8.91,28.36,2.59c-.08,1.16-.17,2.31-.24,3.47a10.16,10.16,0,0,0,.27,4l-.15.58a4.59,4.59,0,0,0-.83-.1c-3.95-.15-18.12-.32-22.1-.51L2.67,9.94l-.49-.13a.68.68,0,0,0-.52.07H1.59a3.47,3.47,0,0,0-.72,0,.36.36,0,0,0-.26.23,1.34,1.34,0,0,0,0,.35l-.06.74c-.17,2-.33,4.05-.5,6.08,6.11.15,22.42.3,28.53.44m3.1,3.06,0-.08c.15-.29.28-.59.4-.89,0,.06.06.12.09.17a.63.63,0,0,0,.25.26l-.79.54m8.6-5.9-.28.2a.53.53,0,0,0,0-.28.89.89,0,0,0-.06-.2l.33.28m-1.17.8-2.11,1.45.15-.39a.84.84,0,0,0,.79-.64,1.93,1.93,0,0,1,.3-.87s.12-.08.15-.12h0a.79.79,0,0,0,.68.57m-.5-2.21a1.86,1.86,0,0,0-.7.07v-.25a.82.82,0,0,0-.87-.75l-.11,0a8.18,8.18,0,0,0-.9-1.28l2.59,2.2M36,14.41c-.06.3-.12.6-.2.89-.13-.37-.24-.74-.34-1.12l0-.06.57.29m-1.43-.83.08.06H34.6Zm-.34-3.74a.27.27,0,0,0-.12-.06.11.11,0,0,0,0,0h0a.53.53,0,0,1,.14.12m-.19,8.85a.79.79,0,0,0,.67-.64c0-.24.11-.47.16-.7l.31.64a.55.55,0,0,0,.17.2l-1.49,1a5.52,5.52,0,0,0,.18-.53m-2.51-2.43a2.2,2.2,0,0,0,.84.2,1.92,1.92,0,0,0,1.07-.29s0,.08,0,.12a.69.69,0,0,0-.7.65V17a.8.8,0,0,0-1.06-.36l-.14.09c0-.15,0-.31,0-.47m-2.15-3.75v0a.78.78,0,0,0,.21.3c-.06.16-.1.32-.16.47l-.19-.08-.11,0c.09-.23.17-.45.24-.68m.5,3.61a30.59,30.59,0,0,0,.18,4.28.84.84,0,0,0,.94.74h.05L30,21.92v-.13l0-1.48-.06-3.93h-1a10.65,10.65,0,0,0,1.08-.27M27.4,11a4.88,4.88,0,0,0,.76,0c0,.15-.09.29-.14.44A3.13,3.13,0,0,0,26.8,11l.6,0M26,11l-.22,0c-.92.08-1.83.21-2.74.31l-.43,0a.89.89,0,0,0-.16-.49L26,11m-8.95,5,.19,0,3.54.33H16.91a.85.85,0,0,0,.18-.37m-.42-1v0l0,0ZM2.79,11.66l.45.11L3,11.83l-.24,0a.66.66,0,0,1,0-.14m-.21,4.65c.3,0,.61.06.91.09h-1a.43.43,0,0,0,.1-.09M1,15.36a.8.8,0,0,0,.08.16L1,15.61a.56.56,0,0,0,0,.12Zm0,.7a.85.85,0,0,0,.14.34H.91Z"/><path id="Path_1536" data-name="Path 1536" class="cls-1" d="M71,10.16a3.46,3.46,0,0,1-2.5,1.65c0,1.06,0,2.13,0,3.19a3.76,3.76,0,0,0,.67-.12,8.52,8.52,0,0,0,2.14-.7h0c0-1.9,0-3.79,0-5.69A4.06,4.06,0,0,1,71,10.16m3.26-3.6c-.38-1.33-.45-2.76-1.46-4.12l0,0a4.32,4.32,0,0,0-1.36-1.19,3.24,3.24,0,0,0-.8-.31c-.33-.08-.57,0-.64.31,0,.07,0,.14,0,.22a.86.86,0,0,0-.58-1A5,5,0,0,0,68.57.2,13.92,13.92,0,0,0,67,0a8,8,0,0,0-2.33.32l-.15,0a6.69,6.69,0,0,0-3.13,1.83,8.54,8.54,0,0,0-2.1,3.34A7.12,7.12,0,0,0,59,8.36a4.59,4.59,0,0,0,.81,2.39,11.45,11.45,0,0,0,1.6,1.88,7.29,7.29,0,0,0,2,1.38c.3.11.59.25.89.37l.16.07A5.55,5.55,0,0,0,66.4,15c.46,0,.92,0,1.37,0a4.06,4.06,0,0,0,.7,0,5.07,5.07,0,0,0,.68-.11,8.94,8.94,0,0,0,2.14-.7h0a6,6,0,0,0,1.36-1l.06-.06a5.57,5.57,0,0,0,.83-1.1,5.64,5.64,0,0,0,.53-1.3,10.75,10.75,0,0,0,.3-2.46,6.22,6.22,0,0,0-.13-1.72M71.37,8c0,.14,0,.3,0,.44A4.4,4.4,0,0,1,71,10.16a3.49,3.49,0,0,1-2.5,1.65,3.42,3.42,0,0,1-1.15,0,7.32,7.32,0,0,1-2.23-.86,6.42,6.42,0,0,1-.65-.41A7.61,7.61,0,0,1,63.26,9.4a3.39,3.39,0,0,1-.73-1.26,3.28,3.28,0,0,1-.08-1.36,3.85,3.85,0,0,1,1.68-2.65l.36-.21a6.78,6.78,0,0,1,4.06-.65l.59.11c.2,0,.32-.08.46-.4a4,4,0,0,0,.24-1,4.28,4.28,0,0,0,0,.62c.06.88.07,1,.18,1.06a2.57,2.57,0,0,1,.76,1,5.39,5.39,0,0,1,.47,1.8A10,10,0,0,1,71.36,8Z"/><path id="Path_1537" data-name="Path 1537" class="cls-1" d="M78.47,64.23c0,1.52-.12,1.74-1,1.86a3.2,3.2,0,0,1-1.43-.27c-.3-.1-.4-.43-.42-.91l-.1-4.58c-.11-3.2.06-6.41-.16-9.62,0-.1,0-.2,0-.3-.06-.86-.08-1.73-.1-2.6,0-.49,0-1,0-1.48-.07-3.7-.29-7.4-.4-11.1,0-.64,0-1.28,0-1.91s0-1.2,0-1.8,0-1.42,0-2.14c0-.91,0-1.82,0-2.71s-.05-2-.13-2.9c0,0,0-.08,0-.12a0,0,0,0,1,0,0,3.77,3.77,0,0,0-.29-1.19h0a1.12,1.12,0,0,0-.39-.52,3.31,3.31,0,0,0-1.4-.49h0l-1.29-.21-1-.12a10.07,10.07,0,0,0-1.82,0l-.12,0a5.28,5.28,0,0,0-3.69,1.58.76.76,0,0,0-.11.14,7,7,0,0,0-1.38,3.81c-.07.89-.12,1.81-.15,2.77,0,.61,0,1.24,0,1.88s0,1.45,0,2.18c0,1.14.07,2.29.07,3.43,0,2.73.07,5.45.17,8.18,0,1,.09,2,.13,3s.1,2.22.11,3.33c0,.53,0,1.06,0,1.6,0,1.68.16,3.4.11,5.08s0,3.57-.08,5.35c0,1.33-.41,1.88-1.17,2.08a2.51,2.51,0,0,1-1.2.24c-.36-.08-.51-.31-.54-1-.18-5.66-.44-11.32-.55-17-.07-3.95-.25-7.92-.41-11.88,0-.8-.06-1.59-.09-2.39s0-1.72-.07-2.59c0-.28,0-.57,0-.86v-.6a20.24,20.24,0,0,1,.69-5.7,10,10,0,0,1,.64-1.59,5,5,0,0,1,.39-.72,7.59,7.59,0,0,1,1.78-2,6.62,6.62,0,0,1,1.58-1,7.52,7.52,0,0,1,.78-.32,10.18,10.18,0,0,1,2.5-.5l.69,0a17.49,17.49,0,0,1,2.8.19L72.5,18l.1,0a8.37,8.37,0,0,1,2.55.77,4.61,4.61,0,0,1,1.39,1.14,5.13,5.13,0,0,1,.82,1.46,6.7,6.7,0,0,1,.3,1.06h0A10.75,10.75,0,0,1,77.84,24c0,.4,0,.76,0,1.12V26.2L78,29.31v.09l0,1.11,0,2.77.1,5.85c.06,4.3.2,8.59.22,12.88,0,2,0,4.08,0,6.11s.07,4.08.09,6.12"/><path id="Path_1538" data-name="Path 1538" class="cls-1" d="M76.34,48.94c0,.48-.06,1-.1,1.42,0,.29-.07.39-.14.39s-.45,0-.67,0h-.05c-.46,0-.91-.27-1.38-.12a1.47,1.47,0,0,1-.59,0,14.35,14.35,0,0,0-1.61.1c-.18,0-.35,0-.53,0s-.47-.13-.7-.08-.58,0-.86.1a2.07,2.07,0,0,1-.7.09.68.68,0,0,0-.31.08,2.29,2.29,0,0,1-.78.14,4,4,0,0,0-.77.12,1.26,1.26,0,0,1-.72,0,4.29,4.29,0,0,0-.8,0,4.66,4.66,0,0,0-1.18.08,4.36,4.36,0,0,1-1,.18h-.1c-.25,0-.49.13-.73.07a7.38,7.38,0,0,1-.78-.12c-.2-.06-.31-.43-.4-1.19-.05-.4-.12-.77-.14-1.2s0-.5.1-.52c.65-.11,1.3-.27,1.95-.35.18,0,.36,0,.55-.06a12.62,12.62,0,0,0,1.74-.28c.57-.11,1.15-.13,1.72-.22.41-.07.82-.06,1.23-.13a5.07,5.07,0,0,1,1.29,0c.85.06,1.7.06,2.55.13.64,0,1.28,0,1.91.14a7,7,0,0,0,.9.15h.06a8,8,0,0,1,.84.1c.23,0,.26.17.24,1"/><path id="Path_1539" data-name="Path 1539" class="cls-1" d="M63,23.45c-.14.26-.28.51-.4.78-.25.59-.78,1-.9,1.69a3.06,3.06,0,0,1-.33.71c-.33.63-.51,1.33-.8,2a6.25,6.25,0,0,1-.33.63,1.62,1.62,0,0,1-.1.18,2.63,2.63,0,0,0-.36.63c-.08.3-.26.55-.34.85a2,2,0,0,0,0,.24,3.39,3.39,0,0,1-.3.88,1.43,1.43,0,0,0-.09.41,4.59,4.59,0,0,1-.3,1l0,0a7.6,7.6,0,0,0-.3.92,2,2,0,0,1-.4.86q-.22.48-.42,1A8.62,8.62,0,0,0,57,37.73a7.38,7.38,0,0,1-.45,1.45c-.16.28-.15.64-.33.91s-.32.61-.53.9-.55.18-1.28-.05c-.38-.12-.76-.21-1.15-.37s-.45-.23-.41-.35c.31-1.07.56-2.15,1-3.18.28-.72.47-1.48.68-2.22.12-.44.27-.86.43-1.28s.21-.58.3-.88c.15-.52.38-1,.53-1.53a9.34,9.34,0,0,1,.73-1.53.67.67,0,0,0,.06-.12c.5-.95.94-1.94,1.45-2.9.39-.73.72-1.51,1.17-2.22q.33-.49.63-1a10.59,10.59,0,0,1,.58-1,.29.29,0,0,1,.36-.16,5.7,5.7,0,0,1,.72.29,13.73,13.73,0,0,1,1.25.69c.25.14.32.25.27.33"/><path id="Path_1540" data-name="Path 1540" class="cls-1" d="M85.58,37.85a13.93,13.93,0,0,1-1.23.71c-.26.14-.37.14-.42.06-.15-.24-.29-.49-.45-.73-.36-.51-.45-1.19-.92-1.63a2.59,2.59,0,0,1-.42-.65c-.33-.61-.8-1.14-1.18-1.72-.12-.2-.21-.42-.32-.62l0,0a4.87,4.87,0,0,0-.38-.8,5.29,5.29,0,0,0-.65-.92,3.23,3.23,0,0,1-.53-.74,1.18,1.18,0,0,0-.27-.32,3.85,3.85,0,0,1-.62-.82L78,29.4a.41.41,0,0,0,0-.09h0a2.54,2.54,0,0,0-.36-.5,1.87,1.87,0,0,1-.42-.83,10.53,10.53,0,0,0-.52-.93,8.32,8.32,0,0,0-.76-1.33,6.44,6.44,0,0,1-.81-1.26c-.11-.29-.37-.5-.46-.81a0,0,0,0,1,0,0c-.08-.33-.26-.63-.32-1a.29.29,0,0,1,0-.22h0a2.23,2.23,0,0,1,.85-.7c.34-.2.66-.43,1-.61s.47-.19.54-.08l.9,1.36h0c.29.43.57.86.82,1.3a17.42,17.42,0,0,0,1.24,1.84c.43.59.78,1.21,1.2,1.81.31.41.56.87.87,1.28a4,4,0,0,1,.46.81l.3.61c.49,1,1,1.87,1.53,2.82l.18.31c.33.59.69,1.16,1,1.79a10.74,10.74,0,0,0,.49,1,9.72,9.72,0,0,1,.55,1c.13.25,0,.36-.68.84"/><path id="Path_1541" data-name="Path 1541" class="cls-1" d="M35.79,45.54c0,1.54-.08,3.09,0,4.6,0,1.9,0,3.79.07,5.68,0,.76,0,1.52,0,2.29v2.07c0,.17,0,.34,0,.51a1.85,1.85,0,0,1-1,1.4,2.62,2.62,0,0,1-.87.24h-.41l-.26,0c-1.72.12-3.46.11-5.19.17s-3.37.05-5.06.14-3.13.07-4.7.06c-1.77,0-3.54.07-5.32.07l-2.7,0-3.8.07c-.09-1.14-.19-2.29-.28-3.43C6,57,5.83,54.48,5.81,52c0-1.6-.13-3.24-.08-4.85s.07-3.41.19-5.1c.08-1.28.36-1.78.87-1.94.27-.08.53-.3.81-.18s.33.33.31.93c-.13,5.35,0,10.69.32,16l.16,2.4.09,1.09,0,.37h.66l1.61,0,3.22-.1,11-.29,7.87-.2h.66V58.68l0-4.1L33.67,41h-.48c-4.07,0-8.14.09-12.21.08-1.93,0-3.87,0-5.79,0s-3.87,0-5.8,0c-1.44,0-1.64-.09-1.76-.66a1.65,1.65,0,0,1,.27-1c.1-.2.4-.26.87-.27l4.34-.05c3.14-.06,6.27.09,9.42-.06,1.28-.06,2.58-.05,3.87-.06s2.8,0,4.2-.07l5.19-.11,0,3.14Z"/><path id="Path_1543" data-name="Path 1543" class="cls-1" d="M12,58.47c-.13-.13-.2-.33-.34-.44a1.42,1.42,0,0,1-.25-.24l-.13-.11c-.05,0-.05,0-.08,0s-.08,0-.12,0,0,0,0,0-.05.07-.06.12,0,0,0,.08,0,.1-.1.16l-.23.2a4.23,4.23,0,0,0-.44.51,4.48,4.48,0,0,0-.62.76,3.53,3.53,0,0,1-.56.77c-.15.13-.21.35-.38.47s-.32.3-.5.41-.38,0-.78-.33a7.25,7.25,0,0,1-.64-.49c-.17-.16-.23-.25-.19-.31.4-.55.76-1.13,1.19-1.66a10.66,10.66,0,0,0,.82-1.17c.13-.2.26-.38.4-.57l.22-.28c.14-.18.27-.36.42-.52a2,2,0,0,1,1.6-.7,1.6,1.6,0,0,1,.86.33,9.59,9.59,0,0,1,.72.7c.48.54,1,1.06,1.41,1.63a13.18,13.18,0,0,1,1,1.3c.13.22.24.46.38.67a4.71,4.71,0,0,1,.4.65c.08.17,0,.24-.45.56a8.73,8.73,0,0,1-.81.49c-.17.1-.25.1-.28.06a4.17,4.17,0,0,0-.29-.44c-.23-.3-.31-.72-.63-1a1.52,1.52,0,0,1-.3-.37,10.89,10.89,0,0,0-.88-.92c-.1-.1-.18-.22-.27-.33"/><path id="Path_1544" data-name="Path 1544" class="cls-1" d="M11.88,47.4a3.83,3.83,0,0,0-.1.59,3.65,3.65,0,0,0,0,.74,2.41,2.41,0,0,1,0,.6.63.63,0,0,0,0,.27,3.07,3.07,0,0,1,0,.68,3.65,3.65,0,0,0,0,.66,1.22,1.22,0,0,1-.06.6,5.31,5.31,0,0,0,0,.69,4.28,4.28,0,0,0,0,1,4.51,4.51,0,0,1,0,1q0,.32,0,.63c-.06.22,0,.44-.12.65s-.3.23-.82.25c-.26,0-.52,0-.8,0s-.33-.05-.34-.13c0-.7-.13-1.41-.12-2.12A12.56,12.56,0,0,0,9.57,52c0-.48,0-1,0-1.46s0-.7,0-1a5.68,5.68,0,0,1,.11-1.09c.1-.71.14-1.43.25-2.14.07-.54.09-1.07.21-1.6a6.38,6.38,0,0,0,.15-.76,6.54,6.54,0,0,1,.13-.75c0-.19.13-.2.7-.16.32,0,.63.08.94.14s.25.08.24.14-.05.37-.06.56A5.43,5.43,0,0,0,12,45.07a1.67,1.67,0,0,1,0,.5c-.06.46,0,.92,0,1.37,0,.16,0,.3-.06.46"/><path id="Path_1545" data-name="Path 1545" class="cls-1" d="M28.11,31.83a2.58,2.58,0,0,0-1.85-.9c-.33,0-.66,0-1,0a2.32,2.32,0,0,0-.46.07c-.38.12-.75.13-1.09.26a2.26,2.26,0,0,0-.85.42c-.2.2-.4.32-.59.5a2.49,2.49,0,0,0-.45.87,6.08,6.08,0,0,0-.32,1.74,15.48,15.48,0,0,1-.13,1.92c-.08.4,0,.83-.13,1.24s-.14.86-.26,1.29-.35.42-.86.41a3.57,3.57,0,0,1-.8,0c-.23-.05-.32-.11-.31-.27.1-1.39.14-2.77.29-4.16A15.1,15.1,0,0,1,19.77,32a4.53,4.53,0,0,1,.9-1.6,4.9,4.9,0,0,1,1.5-1.13,7.2,7.2,0,0,1,2.37-.65,6.5,6.5,0,0,1,2.48.21,5.68,5.68,0,0,1,2.34,1.23,6.54,6.54,0,0,1,1.54,2,8.58,8.58,0,0,1,.91,3.43c0,.54,0,1.07,0,1.59s0,1-.07,1.54-.12.42-.7.43A4.93,4.93,0,0,1,30.1,39c-.2,0-.26-.11-.26-.23,0-.37,0-.74,0-1.1a8.37,8.37,0,0,0-.07-2.29c-.08-.29-.11-.59-.18-.88a5.21,5.21,0,0,0-1.05-2.07,5.08,5.08,0,0,0-.47-.57"/><path id="Path_1546" data-name="Path 1546" class="cls-1" d="M22.63,32.34a2.1,2.1,0,0,0-.7-.47,2.87,2.87,0,0,0-1.12-.19c-.32.05-.65,0-1,0a3.12,3.12,0,0,0-.44.09c-.36.14-.73.17-1.07.3a4.14,4.14,0,0,0-1,.43,5.73,5.73,0,0,1-.8.46,3,3,0,0,0-.68.7A2.19,2.19,0,0,0,15.39,35c-.05.5,0,1.11-.05,1.73-.05.39,0,.8-.05,1.19s-.08.83-.17,1.25-.31.42-.83.45a3.55,3.55,0,0,1-.8,0c-.23,0-.33-.09-.33-.24,0-1.35-.05-2.66,0-4a7.83,7.83,0,0,1,.25-1.61,5.23,5.23,0,0,1,.78-1.59,6.43,6.43,0,0,1,2.61-2A9.28,9.28,0,0,1,19,29.51a6.74,6.74,0,0,1,2.37,0,5.76,5.76,0,0,1,2.39,1,5,5,0,0,1,1.59,2A8.14,8.14,0,0,1,26,35.91c0,.51-.06,1-.05,1.48l0,1.4c0,.33-.08.38-.65.46a5,5,0,0,1-.95,0c-.2,0-.27-.09-.28-.21,0-.38,0-.76,0-1.13a12.4,12.4,0,0,0,0-2.28c-.07-.29-.08-.58-.12-.86a4.21,4.21,0,0,0-.88-2,4.81,4.81,0,0,0-.42-.48"/></g></g></g></svg>