<svg xmlns="http://www.w3.org/2000/svg" viewBox="0 0 83 54.27"><defs><style>.cls-1{fill:#2cdeb4;}</style></defs><g id="Layer_2" data-name="Layer 2"><g id="Layer_1-2" data-name="Layer 1"><path id="Path_1549" data-name="Path 1549" class="cls-1" d="M66.65,6.19l4.81-1.12,1.21-.27.19,0H73a.44.44,0,0,1,.36.28s.06.14.12.3l.16.5L74,7l.71,2.34Q75.39,11.67,76,14c.83,3.15,1.57,6.33,2.23,9.52l.48,2.39.38,2c0,.24.1.37,0,.41l-.93.3c-1.36.43-2.74.84-4.15,1.25l-.53.15-.12,0h0l-.08,0s-.06-.08,0-.12a.13.13,0,0,1,0-.06l-.3-1.06-.62-2.15c-.42-1.44-.85-2.87-1.32-4.28-1.87-5.67-4.22-11.1-8.11-15.63-.12-.14-.41,0-.36.19,1.92,6.06,3.75,12.12,5.56,18.19l1.35,4.55.34,1.14c.14.42.3,1,.48,1.5a2.76,2.76,0,0,0,.83,1.25,2,2,0,0,0,1.45.33,8.14,8.14,0,0,0,1.55-.37l1.24-.37,2.29-.67,2.28-.66c.45-.14,1.1-.3,1.6-.5a2.38,2.38,0,0,0,1.28-.95,2.49,2.49,0,0,0,.18-1.7L82.71,27l-.4-2.56q-.44-2.55-.9-5.1c-.65-3.39-1.36-6.77-2.2-10.13-.44-1.76-.89-3.43-1.42-5.25a8.89,8.89,0,0,0-.32-.86A6,6,0,0,0,76.87,2a4.4,4.4,0,0,0-4.3-2c-1,.15-1.21.22-1.71.3-2.15.38-4.31.5-5.94,2.2-1.29,1.33,0,4.06,1.73,3.65"/><path id="Path_1550" data-name="Path 1550" class="cls-1" d="M69.1,29.93c-1.33-.16-3-1.34-4.49-2.73s-3.15-3-4.66-4.61-3-3.17-4.5-4.87a29.1,29.1,0,0,0-2.58-2.51,20,20,0,0,0-17.65-4.06,49.65,49.65,0,0,0-6.47,2.49,9.46,9.46,0,0,1-2.56.66,4.35,4.35,0,0,1-1.08,0l-.22,0-.09-.05a.24.24,0,0,1-.08-.3.3.3,0,0,1,0-.08s.12-.21.2-.32a6.28,6.28,0,0,1,.66-.79,33.46,33.46,0,0,1,4.26-3.52C33,7,36.34,5.24,39.5,5s6.83.86,10.65,1.86a30.7,30.7,0,0,0,5.87,1A12.11,12.11,0,0,0,61.6,7c.2-.09.07-.41-.13-.4a16.5,16.5,0,0,1-5.84-.78c-2-.58-3.92-1.39-5.92-2.16a35.23,35.23,0,0,0-6.26-2,15.38,15.38,0,0,0-6.75.12,23.1,23.1,0,0,0-6.1,2.64,39.14,39.14,0,0,0-5.33,3.81c-.85.72-1.66,1.48-2.44,2.28A8.82,8.82,0,0,0,21.74,12a5.18,5.18,0,0,0-.67,2.1,3.24,3.24,0,0,0,.6,2.11,3.89,3.89,0,0,0,1.83,1.31,7.54,7.54,0,0,0,2,.39,9,9,0,0,0,1.87-.1c2.61-.43,4.73-1.61,6.77-2.34A16.06,16.06,0,0,1,43.4,15a15,15,0,0,1,2.91,1,14.19,14.19,0,0,1,2.63,1.55,15.76,15.76,0,0,1,2.29,2c1.48,1.6,3.05,3.56,4.68,5.33s3.3,3.57,5,5.3a16.65,16.65,0,0,0,3.8,3.14,7.33,7.33,0,0,0,2.57.88,5.11,5.11,0,0,0,2.86-.38,1.68,1.68,0,0,0,1-1.3,1.86,1.86,0,0,0-.39-1.26A5.64,5.64,0,0,0,70,30.4a1.58,1.58,0,0,0-.86-.46"/><path id="Path_1551" data-name="Path 1551" class="cls-1" d="M64.33,32.82a4.78,4.78,0,0,1-.07,1.92,2,2,0,0,1-.85,1,5.75,5.75,0,0,1-1.7.8,1.72,1.72,0,0,1-1.05.06,1.52,1.52,0,0,1-.32-.3c-.17-.2-.42-.49-.61-.75A16.22,16.22,0,0,0,58.45,34c-1-1-2.28-1.63-5.3-2.2-.1,0-.39.11-.37.15a40.53,40.53,0,0,0,3.11,4.58,26.66,26.66,0,0,0,1.79,2.06,7.83,7.83,0,0,0,1.13,1,4.48,4.48,0,0,0,1.68.68A7.57,7.57,0,0,0,64,40a8,8,0,0,0,3.15-1.73,6,6,0,0,0,1.32-1.81,9,9,0,0,0,.63-2c.15-.77.47-1.5-.86-2-1.05-.38-4,0-3.93.4"/><path id="Path_1552" data-name="Path 1552" class="cls-1" d="M58.7,38.89a2.86,2.86,0,0,1-.16,1.36,1.18,1.18,0,0,1-.6.68,3.15,3.15,0,0,1-2.32,0c-.71-.22-1.2-1.14-2-1.76s-2.26-1.15-5.14-.67c-.09,0-.35.21-.32.24,1.12,1,2.07,2.1,3.15,3.18a14.45,14.45,0,0,0,1.78,1.54,8,8,0,0,0,2.26,1.15,7.42,7.42,0,0,0,2.92.38,5.55,5.55,0,0,0,3.18-1.3,6.59,6.59,0,0,0,1.94-3.12c.21-.65.6-1.39-.72-1.91-1-.39-4,0-3.94.22"/><path id="Path_1553" data-name="Path 1553" class="cls-1" d="M52.36,44.08a2.84,2.84,0,0,1-1.09,2.15,1.92,1.92,0,0,1-.87.36,1.5,1.5,0,0,1-.7-.08c-.44-.14-.73-.95-1.48-1.58s-2.18-1.18-4.95-.49c-.09,0-.34.22-.32.25a18.47,18.47,0,0,1,2.77,2.82A13.64,13.64,0,0,0,47.24,49a5.85,5.85,0,0,0,2.15,1.13,6.09,6.09,0,0,0,5.5-1.35,8.16,8.16,0,0,0,1.82-2.42c.27-.52.76-1.09-.44-1.8a8.32,8.32,0,0,0-3.92-.51"/><path id="Path_1554" data-name="Path 1554" class="cls-1" d="M46,47.14a4.23,4.23,0,0,1-3.32,1.44,4.31,4.31,0,0,1-3.19-1.75A4.45,4.45,0,0,1,39,46a11.33,11.33,0,0,0-.72-1.54,4.43,4.43,0,0,0-.9-1.08,4.11,4.11,0,0,0-1.47-.79l-.56-.13-.1,0a.25.25,0,0,1-.09,0,.31.31,0,0,1-.12-.16L34.93,42l-.21-.62c-.08-.22-.17-.49-.28-.77a6.37,6.37,0,0,0-.55-1.11A4.5,4.5,0,0,0,32,37.74a5,5,0,0,0-1.62-.39,2.74,2.74,0,0,1-.75-.08l-.12-.12a4.28,4.28,0,0,1-.4-.45l-.62-.79c-.12-.15-.25-.32-.41-.5a5.85,5.85,0,0,0-.61-.61,5.38,5.38,0,0,0-1.79-1l-.51-.14c-.17,0-.34,0-.52-.06a3.36,3.36,0,0,0-1.05,0,7,7,0,0,0-1,.23h0a.07.07,0,0,1-.06,0c.09.22-.35-.45-1-1a5,5,0,0,0-2.12-1.06,6.63,6.63,0,0,0-1.83-.11,13.4,13.4,0,0,0-2.88.67,6,6,0,0,1-1.46.28,3.62,3.62,0,0,1-1.79-.44c-.15-.08-.39.14-.3.27a4.22,4.22,0,0,0,1.6,1.34,6.61,6.61,0,0,0,1.68.49c1.05.16,2,.17,2.8.29a3.54,3.54,0,0,1,2,.77,4.82,4.82,0,0,1,.36.43l.24.33c.09.13.18.25.28.37a2.92,2.92,0,0,0,1.48,1,3,3,0,0,0,1.4,0c.23-.05.45-.12.68-.19a2.37,2.37,0,0,1,.36-.09,1.34,1.34,0,0,1,1.24.4,6,6,0,0,1,.59.64l.69.84a7.4,7.4,0,0,0,.89.88,4,4,0,0,0,1.29.72,7.24,7.24,0,0,0,1.22.21,1.61,1.61,0,0,1,.53.15,1.11,1.11,0,0,1,.36.32,1.62,1.62,0,0,1,.17.35c0,.1.1.29.17.52.12.44.24.94.45,1.55a4.33,4.33,0,0,0,1.34,1.92,4,4,0,0,0,1.07.55,5.66,5.66,0,0,0,.59.15,1.31,1.31,0,0,1,.28.09s0,0,0,0,.13-.33.07-.18l-.1.14,0,.06h0v0l0,.13c.1.23.22.67.46,1.28a8.55,8.55,0,0,0,2.36,3.22A8.74,8.74,0,0,0,41.44,53a8.91,8.91,0,0,0,4.35-.21,6.62,6.62,0,0,0,2.39-1.15,2.82,2.82,0,0,0,1.1-2.36c0-.8-.84-1.41-1.61-1.8s-1.5-.61-1.72-.37"/><path id="Path_1555" data-name="Path 1555" class="cls-1" d="M35.59,49.08a.72.72,0,0,1-.3.4.54.54,0,0,1-.4.12,2.24,2.24,0,0,1-.77-.39c-.36-.25-.81-.64-1.36-1.07a7.18,7.18,0,0,0-2.28-1.26,5.42,5.42,0,0,0-1.6-.22H28.5a.3.3,0,0,1-.17-.12l-.38-.6-.41-.64a9.53,9.53,0,0,0-.61-.81,4.73,4.73,0,0,0-2.11-1.44,4.44,4.44,0,0,0-.88-.18l-.45,0h-.38a3,3,0,0,1-.49,0,.08.08,0,0,1-.06,0s0-.05-.1-.15-.5-.87-.94-1.69a7.84,7.84,0,0,0-2.33-2.78,6.1,6.1,0,0,0-1.44-.73,2.62,2.62,0,0,0-.4-.11c-.1,0-.12,0-.2,0a.89.89,0,0,1-.55-.11,2.29,2.29,0,0,1-.68-.83c-.44-.77-.83-1.84-1.35-3-.05-.11-.37-.19-.39-.11a13.67,13.67,0,0,0-.52,2.91,5.54,5.54,0,0,0,.16,1.67,3.77,3.77,0,0,0,.87,1.56,17.52,17.52,0,0,0,2.49,1.68,7.23,7.23,0,0,1,1.46,2,7,7,0,0,0,2.1,2.59,4,4,0,0,0,1.88.59,2.84,2.84,0,0,1,1,.14l.18.11a1.61,1.61,0,0,1,.43.54c.17.29.35.65.57,1.05a6.24,6.24,0,0,0,.39.66,4.61,4.61,0,0,0,.66.8,3.62,3.62,0,0,0,1.8,1,3.81,3.81,0,0,0,.82.09h.39l.16,0a1.11,1.11,0,0,1,.3.17,8,8,0,0,1,1,.9,13.28,13.28,0,0,0,1.38,1.21,6,6,0,0,0,2.39,1.12A5.37,5.37,0,0,0,37,54a4.64,4.64,0,0,0,2.19-1.47,2.38,2.38,0,0,0,.28-2.57c-.39-.71-1.41-.79-2.27-.79H36.05c-.3,0-.46-.06-.47,0"/><path id="Path_1556" data-name="Path 1556" class="cls-1" d="M10.75,4.77a18.46,18.46,0,0,1,3.81.8,9.25,9.25,0,0,1,1.6.73,1.6,1.6,0,0,1,.31.22.39.39,0,0,1,.11.17A23.52,23.52,0,0,1,16,9.59l-.83,3.92-1.68,7.85-.84,3.92-.42,2c-.14.66-.29,1.3-.44,1.83a5.61,5.61,0,0,1-.52,1.3,1.84,1.84,0,0,1-.61.63,3.88,3.88,0,0,1-2.4.27,15.62,15.62,0,0,1-3.7-1,2.84,2.84,0,0,1-1-.67c-.1-.19,0-.08,0-.3A10.4,10.4,0,0,1,4,27.71l.69-2.22C5.17,24,5.6,22.51,6,21,7.55,15,8.44,8.89,7.45,2.85a.23.23,0,0,0-.29-.14A.2.2,0,0,0,7,2.83c-1.48,6.39-3.17,12.7-5,19l-1.4,4.7A12.07,12.07,0,0,0,0,29.1a3.85,3.85,0,0,0,1.06,3,6.76,6.76,0,0,0,2.46,1.55,21.23,21.23,0,0,0,2.5.76,10.19,10.19,0,0,0,5.53.16,5.4,5.4,0,0,0,2.77-2.06,9.69,9.69,0,0,0,1.26-2.85c.5-1.79.88-3.46,1.33-5.2l2.6-10.33.94-3.82.46-1.91a6.3,6.3,0,0,0,.13-3.11,4.86,4.86,0,0,0-1.68-2.46,8.55,8.55,0,0,0-1-.7c-.28-.18-.57-.34-.86-.49C15,.38,12.53-.29,10.34.74c-1.75.83-1.34,3.83.41,4"/><path id="Path_1557" data-name="Path 1557" class="cls-1" d="M26,6.66a10.19,10.19,0,0,1-3.89-.21c-.56-.07-1.06-.63-1.66-.57S19.05,6.64,17.66,9a1,1,0,0,0-.11.39,7.82,7.82,0,0,1,4.41.76c.77.31,1.56.72,2.4,1q.64.21,1.32.36c.27.07.58.39.7-.93A13.64,13.64,0,0,0,26,6.66"/></g></g></svg>