<svg xmlns="http://www.w3.org/2000/svg" xmlns:xlink="http://www.w3.org/1999/xlink" viewBox="0 0 46.2 69.12"><defs><style>.cls-1{fill:none;}.cls-2{isolation:isolate;}.cls-3{fill:#004849;}.cls-4{clip-path:url(#clip-path);}.cls-5{fill:#fcfcfc;}.cls-6{fill:#2cdeb4;}</style><clipPath id="clip-path" transform="translate(-0.02 0)"><rect class="cls-1" width="46.21" height="54.24"/></clipPath></defs><g id="Layer_2" data-name="Layer 2"><g id="Layer_1-2" data-name="Layer 1"><g id="bisabolol" class="cls-2"><g class="cls-2"><path class="cls-3" d="M4.13,60.74v4a2,2,0,0,1,1.49-.68,2.08,2.08,0,0,1,1.61.72,2.85,2.85,0,0,1,0,3.59,2.08,2.08,0,0,1-1.62.72,2.06,2.06,0,0,1-1.47-.64V69H3V60.74Zm2.61,5.9a1.64,1.64,0,0,0-.37-1.11,1.19,1.19,0,0,0-.94-.44,1.25,1.25,0,0,0-1,.43,1.57,1.57,0,0,0-.37,1.09,1.6,1.6,0,0,0,.37,1.11,1.22,1.22,0,0,0,1,.42,1.22,1.22,0,0,0,1-.42A1.6,1.6,0,0,0,6.74,66.64Z" transform="translate(-0.02 0)"/><path class="cls-3" d="M8.86,62.26a.67.67,0,0,1,.21-.5.71.71,0,0,1,1,0,.66.66,0,0,1,.21.5.69.69,0,0,1-.21.51.67.67,0,0,1-.5.21.72.72,0,0,1-.72-.72Zm1.27,2V69H9V64.23Z" transform="translate(-0.02 0)"/><path class="cls-3" d="M14.28,65l-.91.49c-.14-.3-.32-.44-.53-.44a.35.35,0,0,0-.26.1.33.33,0,0,0-.11.25c0,.19.22.37.64.55a4,4,0,0,1,1.18.69,1.19,1.19,0,0,1,.3.85,1.51,1.51,0,0,1-.51,1.16A1.82,1.82,0,0,1,11.19,68l.94-.44a1.93,1.93,0,0,0,.3.44.68.68,0,0,0,.48.18c.37,0,.56-.17.56-.5s-.15-.38-.43-.55l-.34-.16-.33-.16a2.25,2.25,0,0,1-.68-.47,1.21,1.21,0,0,1-.25-.77,1.37,1.37,0,0,1,.43-1,1.49,1.49,0,0,1,1.05-.41A1.45,1.45,0,0,1,14.28,65Z" transform="translate(-0.02 0)"/><path class="cls-3" d="M19.08,64.23h1.1V69h-1.1v-.5a2.12,2.12,0,0,1-1.46.64A2.09,2.09,0,0,1,16,68.41a2.62,2.62,0,0,1-.64-1.81A2.57,2.57,0,0,1,16,64.81a2.08,2.08,0,0,1,1.6-.71,2,2,0,0,1,1.49.68ZM16.47,66.6a1.69,1.69,0,0,0,.37,1.11,1.2,1.2,0,0,0,.95.43,1.26,1.26,0,0,0,1-.42,1.78,1.78,0,0,0,0-2.2,1.21,1.21,0,0,0-1-.43,1.23,1.23,0,0,0-.95.43A1.6,1.6,0,0,0,16.47,66.6Z" transform="translate(-0.02 0)"/><path class="cls-3" d="M22.67,60.74v4a2,2,0,0,1,1.49-.68,2.08,2.08,0,0,1,1.61.72,2.85,2.85,0,0,1,0,3.59,2.08,2.08,0,0,1-1.62.72,2.06,2.06,0,0,1-1.47-.64V69h-1.1V60.74Zm2.61,5.9a1.64,1.64,0,0,0-.37-1.11,1.19,1.19,0,0,0-.94-.44,1.25,1.25,0,0,0-1,.43,1.57,1.57,0,0,0-.37,1.09A1.6,1.6,0,0,0,23,67.72a1.31,1.31,0,0,0,1.92,0A1.6,1.6,0,0,0,25.28,66.64Z" transform="translate(-0.02 0)"/><path class="cls-3" d="M27.34,66.58a2.38,2.38,0,0,1,.74-1.76,2.47,2.47,0,0,1,1.8-.72,2.44,2.44,0,0,1,1.8.73,2.53,2.53,0,0,1,0,3.58,2.52,2.52,0,0,1-1.82.72,2.51,2.51,0,0,1-2.52-2.55Zm1.13,0a1.55,1.55,0,0,0,.38,1.12,1.49,1.49,0,0,0,2.06,0,1.81,1.81,0,0,0,0-2.22,1.35,1.35,0,0,0-1-.42,1.33,1.33,0,0,0-1,.42A1.53,1.53,0,0,0,28.47,66.6Z" transform="translate(-0.02 0)"/><path class="cls-3" d="M34.68,60.74V69h-1.1V60.74Z" transform="translate(-0.02 0)"/><path class="cls-3" d="M35.84,66.58a2.38,2.38,0,0,1,.74-1.76,2.47,2.47,0,0,1,1.8-.72,2.44,2.44,0,0,1,1.8.73,2.53,2.53,0,0,1,0,3.58,2.52,2.52,0,0,1-1.82.72,2.51,2.51,0,0,1-2.52-2.55Zm1.13,0a1.55,1.55,0,0,0,.38,1.12,1.49,1.49,0,0,0,2.06,0,1.81,1.81,0,0,0,0-2.22,1.35,1.35,0,0,0-1-.42,1.33,1.33,0,0,0-1,.42A1.53,1.53,0,0,0,37,66.6Z" transform="translate(-0.02 0)"/><path class="cls-3" d="M43.18,60.74V69h-1.1V60.74Z" transform="translate(-0.02 0)"/></g></g><g id="Group_2339" data-name="Group 2339"><g class="cls-4"><g id="Group_2338" data-name="Group 2338"><path id="Path_2120" data-name="Path 2120" class="cls-5" d="M19.23,5.18a5.62,5.62,0,0,1,2.45-3.37.38.38,0,0,1,.23-.06.31.31,0,0,1,.18.16,4.5,4.5,0,0,1,.56,2.59,9.85,9.85,0,0,1-1.17,5,.87.87,0,0,1-.38.38,1,1,0,0,1-.54,0c-1.23-.34-1.51-.32-1.6-1.65-.07-1,.27-2,.27-3" transform="translate(-0.02 0)"/><path id="Path_2121" data-name="Path 2121" class="cls-3" d="M20.92,10.57a1.77,1.77,0,0,1-.52-.08l-.22-.06c-1.17-.31-1.73-.53-1.84-2.15a8,8,0,0,1,.14-1.83,9,9,0,0,0,.12-1.27l0-.16a6.25,6.25,0,0,1,2.74-3.75A1,1,0,0,1,22,1.14a.94.94,0,0,1,.59.42,5.21,5.21,0,0,1,.67,2.94A10.33,10.33,0,0,1,22,9.86a1.41,1.41,0,0,1-.7.64.92.92,0,0,1-.4.07m-1.06-5.3a10.42,10.42,0,0,1-.14,1.37,6.8,6.8,0,0,0-.12,1.56c.05.79.05.79.91,1l.23.06.15,0,.06-.11A9.1,9.1,0,0,0,22,4.49a4.66,4.66,0,0,0-.3-2,5,5,0,0,0-1.87,2.75" transform="translate(-0.02 0)"/><path id="Path_2122" data-name="Path 2122" class="cls-5" d="M8.78,28.39a1.21,1.21,0,0,0,.22.9,1,1,0,0,0,.49.25c1.18.26,2.29-.6,3.12-1.47A20.17,20.17,0,0,0,16,23.26c.67-1.32.61-2.81-.86-3.57-1.22-.63-2.34.32-3.15,1.18a11.74,11.74,0,0,0-3.2,7.52" transform="translate(-0.02 0)"/><path id="Path_2123" data-name="Path 2123" class="cls-3" d="M9.93,30.21a2.17,2.17,0,0,1-.57-.07,1.43,1.43,0,0,1-.81-.43,1.78,1.78,0,0,1-.39-1.35,12.34,12.34,0,0,1,3.37-7.92c.57-.61,2.1-2.23,3.89-1.3,1.61.83,2.06,2.56,1.13,4.4a20.87,20.87,0,0,1-3.49,5,4.53,4.53,0,0,1-3.13,1.71m-.47-1.35a.51.51,0,0,0,.17.07c.71.16,1.56-.28,2.52-1.29A19.52,19.52,0,0,0,15.44,23,1.88,1.88,0,0,0,15,20.35a1,1,0,0,0-.17-.1c-.66-.35-1.38,0-2.4,1.05a11.06,11.06,0,0,0-3,7.11c0,.35,0,.43.05.45" transform="translate(-0.02 0)"/><path id="Path_2124" data-name="Path 2124" class="cls-5" d="M16.91.8a1.11,1.11,0,0,0-.85-.14c-.52.18-.61.88-.57,1.43A33.19,33.19,0,0,0,17,9a.92.92,0,0,0,.36.58.85.85,0,0,0,.59,0,1.63,1.63,0,0,0,.88-.43c.55-.61.35-2,.4-2.75a11.21,11.21,0,0,0,.09-2A5.13,5.13,0,0,0,16.91.8" transform="translate(-0.02 0)"/><path id="Path_2125" data-name="Path 2125" class="cls-3" d="M17.58,10.24a1,1,0,0,1-.5-.11,1.44,1.44,0,0,1-.68-1,33.8,33.8,0,0,1-1.53-7c-.07-1.08.29-1.83,1-2.07a1.68,1.68,0,0,1,1.33.18A5.73,5.73,0,0,1,19.93,4.3a6.79,6.79,0,0,1,0,1.56c0,.19,0,.37,0,.55a6,6,0,0,0,0,.6,3.76,3.76,0,0,1-.56,2.53,2.29,2.29,0,0,1-1.18.62,2.25,2.25,0,0,1-.52.08m-1.3-9h0c-.07,0-.18.28-.14.8a32.72,32.72,0,0,0,1.47,6.77c0,.07.05.13.07.2s.09-.06.12-.07a1.49,1.49,0,0,0,.58-.24A3.33,3.33,0,0,0,18.59,7c0-.26,0-.5,0-.7s0-.4,0-.6a6.07,6.07,0,0,0,0-1.28,4.47,4.47,0,0,0-2.07-3.09h0a.68.68,0,0,0-.32-.11" transform="translate(-0.02 0)"/><path id="Path_2126" data-name="Path 2126" class="cls-5" d="M4.91,20.75c-.67.53-1.41,1.18-1.4,2a.8.8,0,0,0,.31.69,1.07,1.07,0,0,0,.7.13,12.77,12.77,0,0,0,7.76-3.13c.88-.77,1.92-2.13.45-3-.9-.52-2.45.05-3.31.39a18.2,18.2,0,0,0-4.5,2.84" transform="translate(-0.02 0)"/><path id="Path_2127" data-name="Path 2127" class="cls-3" d="M4.36,24.25a1.59,1.59,0,0,1-.9-.25,1.45,1.45,0,0,1-.58-1.2,3.46,3.46,0,0,1,1.65-2.54,18.68,18.68,0,0,1,4.66-2.93c1.32-.51,2.8-.95,3.85-.35a1.84,1.84,0,0,1,1,1.43A3.39,3.39,0,0,1,12.7,21a13.41,13.41,0,0,1-8.14,3.29h-.2m7.48-6.31a6.85,6.85,0,0,0-2.19.55A17.78,17.78,0,0,0,5.3,21.24c-.61.48-1.17,1-1.17,1.54a.35.35,0,0,0,0,.2,1.13,1.13,0,0,0,.32,0,12.21,12.21,0,0,0,7.38-3c.62-.54,1-1.12,1-1.47,0-.07,0-.25-.41-.48a1.23,1.23,0,0,0-.59-.12" transform="translate(-0.02 0)"/><path id="Path_2128" data-name="Path 2128" class="cls-5" d="M14.48,10.29a1.72,1.72,0,0,0,.75.58,1.35,1.35,0,0,0,1.58-1,3.51,3.51,0,0,0-.2-2c-.44-1.38-.88-2.73-1.2-4.15a3.1,3.1,0,0,0-1.07-2.12C13.42,1,12,1,11.74,2.2a8.78,8.78,0,0,0,.5,4.09,11.3,11.3,0,0,0,2.24,4" transform="translate(-0.02 0)"/><path id="Path_2129" data-name="Path 2129" class="cls-3" d="M15.53,11.55a1.69,1.69,0,0,1-.5-.08,2.46,2.46,0,0,1-1-.77,11.89,11.89,0,0,1-2.36-4.22,9.17,9.17,0,0,1-.52-4.4A1.81,1.81,0,0,1,12.21.73,2.75,2.75,0,0,1,14.67,1,3.45,3.45,0,0,1,16,3.4c.33,1.41.72,2.64,1.13,4l.09.27a4.06,4.06,0,0,1,.2,2.41,2.21,2.21,0,0,1-1.07,1.31,1.75,1.75,0,0,1-.81.19M13.1,1.8a1.14,1.14,0,0,0-.41.07.59.59,0,0,0-.34.45,8,8,0,0,0,.48,3.78A10.71,10.71,0,0,0,15,9.88h0a1.31,1.31,0,0,0,.48.39.39.39,0,0,0,.33,0,.94.94,0,0,0,.45-.55A3,3,0,0,0,16,8l-.09-.27c-.4-1.27-.82-2.58-1.13-3.93-.18-.8-.33-1.43-.8-1.73a1.79,1.79,0,0,0-.9-.27" transform="translate(-0.02 0)"/><path id="Path_2130" data-name="Path 2130" class="cls-5" d="M23.87,5.24A14.25,14.25,0,0,1,27,3.08a1.16,1.16,0,0,1,.85-.21c.42.12.56.67.51,1.1C28.17,5.3,27,6.2,26,7.16A9.38,9.38,0,0,0,24.38,9.5a8.34,8.34,0,0,1-.91,1.66.91.91,0,0,1-.43.32c-.39.08-.7-.3-.86-.66s-.31-.79-.68-.91c-.6-.2,2.08-4.4,2.37-4.67" transform="translate(-0.02 0)"/><path id="Path_2131" data-name="Path 2131" class="cls-3" d="M22.93,12.12a1.54,1.54,0,0,1-1.32-1c-.1-.23-.23-.54-.31-.57a.76.76,0,0,1-.49-.55c-.25-1.14,2.49-5,2.62-5.16h0a15.25,15.25,0,0,1,3.25-2.26A1.77,1.77,0,0,1,28,2.27a1.56,1.56,0,0,1,1,1.78,5.36,5.36,0,0,1-1.95,3l-.54.53a9,9,0,0,0-1.54,2.19l-.19.4a6.13,6.13,0,0,1-.8,1.38,1.41,1.41,0,0,1-.78.53l-.24,0m-.84-2.59a2.27,2.27,0,0,1,.63,1,1.31,1.31,0,0,0,.21.36l.06-.07a5.63,5.63,0,0,0,.63-1.12l.2-.43a10,10,0,0,1,1.77-2.5l.56-.56a4.35,4.35,0,0,0,1.58-2.27.64.64,0,0,0-.08-.43,1.37,1.37,0,0,0-.37.17,14,14,0,0,0-3,2,22.73,22.73,0,0,0-2.22,3.86" transform="translate(-0.02 0)"/><path id="Path_2132" data-name="Path 2132" class="cls-5" d="M6.74,15.66a7.43,7.43,0,0,0-4.53,2.67,1.11,1.11,0,0,0-.23.46,1,1,0,0,0,.46.89,2.93,2.93,0,0,0,2.73.15,23.2,23.2,0,0,0,2.49-1.38,10.73,10.73,0,0,1,3-1c.67-.14,1.17-.3.91-1.09-.55-1.67-3.64-.95-4.85-.7" transform="translate(-0.02 0)"/><path id="Path_2133" data-name="Path 2133" class="cls-3" d="M3.84,20.72a3,3,0,0,1-1.76-.54,1.55,1.55,0,0,1-.72-1.5A1.67,1.67,0,0,1,1.71,18,8,8,0,0,1,6.61,15l.13,0c1.42-.3,4.74-1,5.45,1.14a1.44,1.44,0,0,1,0,1.17,1.87,1.87,0,0,1-1.33.73A10.22,10.22,0,0,0,8,19c-.29.16-.57.33-.84.5a11.21,11.21,0,0,1-1.71.91,4.38,4.38,0,0,1-1.56.31m5.6-4.8A13.37,13.37,0,0,0,7,16.24l-.13,0A6.76,6.76,0,0,0,2.71,18.7a.82.82,0,0,0-.12.2.56.56,0,0,0,.22.28,2.29,2.29,0,0,0,2.13.07,9.58,9.58,0,0,0,1.51-.82c.3-.18.6-.36.91-.53a11.2,11.2,0,0,1,3.19-1.06A2.75,2.75,0,0,0,11,16.7s0-.07,0-.14c-.16-.49-.81-.64-1.56-.64" transform="translate(-0.02 0)"/><path id="Path_2134" data-name="Path 2134" class="cls-5" d="M30,5.29c.38-.07.85-.08,1.05.25a.89.89,0,0,1-.06.81c-1,2.18-3.52,3.16-5.15,4.91a8.51,8.51,0,0,1-2.06,2,2.61,2.61,0,0,1-.25-2.48A12.53,12.53,0,0,1,26.25,7,7.15,7.15,0,0,1,30,5.29" transform="translate(-0.02 0)"/><path id="Path_2135" data-name="Path 2135" class="cls-3" d="M23.56,14.05l-.31-.4a3.2,3.2,0,0,1-.34-3.09,12.76,12.76,0,0,1,2.89-4,7.55,7.55,0,0,1,4-1.9c1.09-.21,1.54.24,1.71.54a1.43,1.43,0,0,1,0,1.39A9.18,9.18,0,0,1,28.29,10a14.92,14.92,0,0,0-2,1.69c-.17.18-.32.37-.48.56A5.63,5.63,0,0,1,24,13.81Zm6.9-8.2s-.15,0-.37.06h0A6.43,6.43,0,0,0,26.7,7.45,12.48,12.48,0,0,0,24.08,11a2.31,2.31,0,0,0-.1,1.35,9,9,0,0,0,.84-.9c.17-.21.35-.41.53-.61A15.55,15.55,0,0,1,27.55,9a8.19,8.19,0,0,0,2.83-2.9.73.73,0,0,0,.08-.25" transform="translate(-0.02 0)"/><path id="Path_2136" data-name="Path 2136" class="cls-5" d="M1.15,14.85c-.39-.35-.7-.94-.41-1.38a1,1,0,0,1,.46-.35,4.63,4.63,0,0,1,2-.31,40,40,0,0,1,9.25,1,5.5,5.5,0,0,1-.46,2c-.07.15-.18.33-.35.34s-.29-.15-.4-.26c-.69-.72-1.84-.64-2.83-.5a27.46,27.46,0,0,1-3.93.52c-.5,0-3.3-.26-3.3-1.07" transform="translate(-0.02 0)"/><path id="Path_2137" data-name="Path 2137" class="cls-3" d="M11.61,16.78a1.1,1.1,0,0,1-.81-.42A2.75,2.75,0,0,0,8.47,16c-.41.06-.83.13-1.24.21a13.78,13.78,0,0,1-2.78.32S1,16.5.58,15.16a1.66,1.66,0,0,1-.36-2,1.66,1.66,0,0,1,.71-.57,5.41,5.41,0,0,1,2.25-.37,43,43,0,0,1,9.39,1l.5.12,0,.51a6,6,0,0,1-.51,2.22,1,1,0,0,1-.89.71h0m-2.12-2.1a3,3,0,0,1,2,.62,4,4,0,0,0,.26-1,39.78,39.78,0,0,0-8.57-.89,4.22,4.22,0,0,0-1.72.26.45.45,0,0,0-.2.12c0,.07,0,.34.31.58l.21.19v.17a7.24,7.24,0,0,0,2.68.54A13.55,13.55,0,0,0,7,15l1.3-.21a9.55,9.55,0,0,1,1.19-.1" transform="translate(-0.02 0)"/><path id="Path_2138" data-name="Path 2138" class="cls-5" d="M33,8.08c.62,0,1.38.14,1.59.72s-.29,1.18-.8,1.53a17.87,17.87,0,0,1-3.36,1.53,15.44,15.44,0,0,0-3.37,2,1.66,1.66,0,0,1-.6.36,1.73,1.73,0,0,1-1.21-.31,1.46,1.46,0,0,1-.77-.72,1.38,1.38,0,0,1,.42-1.23A10.38,10.38,0,0,1,33,8.08" transform="translate(-0.02 0)"/><path id="Path_2139" data-name="Path 2139" class="cls-3" d="M26.19,14.86a2.81,2.81,0,0,1-1.28-.42,2.05,2.05,0,0,1-1.06-1.07,2,2,0,0,1,.53-1.83A11.08,11.08,0,0,1,33,7.45a2.09,2.09,0,0,1,2.18,1.14,2,2,0,0,1-1,2.25,11.6,11.6,0,0,1-2.56,1.23l-.92.37a14.58,14.58,0,0,0-3.23,1.9,2.4,2.4,0,0,1-.82.47,1.75,1.75,0,0,1-.4,0M33,8.7h0a9.79,9.79,0,0,0-7.62,3.63c-.35.43-.33.6-.31.64s.33.29.48.37a1.5,1.5,0,0,0,.74.26,1.69,1.69,0,0,0,.36-.23,15.31,15.31,0,0,1,3.53-2.08l1-.39a10.31,10.31,0,0,0,2.3-1.09c.39-.27.63-.61.56-.8s-.48-.31-1-.31" transform="translate(-0.02 0)"/><path id="Path_2140" data-name="Path 2140" class="cls-5" d="M5.65,11.33a12.34,12.34,0,0,1-1.44-.95,2.27,2.27,0,0,1-.81-1,1.05,1.05,0,0,1,.27-1.18,1.58,1.58,0,0,1,1.45,0,44.52,44.52,0,0,1,7.2,3.29c.39.22.84.6.69,1a.76.76,0,0,1-.36.39,3.51,3.51,0,0,1-2.36.26,9.31,9.31,0,0,1-2.44-.51c-.75-.36-1.47-.93-2.2-1.36" transform="translate(-0.02 0)"/><path id="Path_2141" data-name="Path 2141" class="cls-3" d="M11.23,13.91a7.18,7.18,0,0,1-1-.1l-.6-.08a6.35,6.35,0,0,1-2-.48,12.15,12.15,0,0,1-1.47-.88c-.27-.18-.52-.35-.78-.5l.32-.54-.33.53a14.94,14.94,0,0,1-1.5-1,3,3,0,0,1-1-1.26A1.64,1.64,0,0,1,3.3,7.72a2.17,2.17,0,0,1,2-.07A45.31,45.31,0,0,1,12.64,11c.83.46,1.19,1.13,1,1.77a1.41,1.41,0,0,1-.64.72,3.3,3.3,0,0,1-1.73.43M6,10.8c.28.17.56.35.83.54a15,15,0,0,0,1.32.8,5.66,5.66,0,0,0,1.63.36c.22,0,.43.05.64.09a2.92,2.92,0,0,0,1.93-.18l.11-.08s-.16-.11-.42-.25a43.78,43.78,0,0,0-7.1-3.25c-.45-.16-.75-.19-.87-.1a.45.45,0,0,0,0,.46,1.79,1.79,0,0,0,.6.71A12.56,12.56,0,0,0,6,10.8l-.32.54Z" transform="translate(-0.02 0)"/><path id="Path_2142" data-name="Path 2142" class="cls-5" d="M34.85,12.91a2.41,2.41,0,0,1,1.07.9,1.27,1.27,0,0,1,0,1.34,1.45,1.45,0,0,1-.92.51c-1.62.32-3.14-.89-4.78-1.06a3.9,3.9,0,0,0-2.49.58,1.09,1.09,0,0,1-.49.22c-.47,0-.75-.5-.88-1a.8.8,0,0,1,0-.57.83.83,0,0,1,.3-.29,8.35,8.35,0,0,1,8.21-.67" transform="translate(-0.02 0)"/><path id="Path_2143" data-name="Path 2143" class="cls-3" d="M34.45,16.35a7.27,7.27,0,0,1-2.47-.6,7.61,7.61,0,0,0-1.82-.53,3.31,3.31,0,0,0-2.08.49,1.65,1.65,0,0,1-.76.32c-.34,0-1.14,0-1.55-1.4a1.36,1.36,0,0,1,0-1,1.38,1.38,0,0,1,.53-.54,9,9,0,0,1,8.82-.7,3,3,0,0,1,1.33,1.14,1.89,1.89,0,0,1,0,2,2.07,2.07,0,0,1-1.31.77,3.82,3.82,0,0,1-.68.06M29.83,14l.46,0a8.57,8.57,0,0,1,2.12.6,4.74,4.74,0,0,0,2.48.48.86.86,0,0,0,.53-.26.65.65,0,0,0,0-.66,1.87,1.87,0,0,0-.81-.66,7.67,7.67,0,0,0-7.59.65l-.06,0a.25.25,0,0,1,0,.11,1.05,1.05,0,0,0,.28.53s.05-.07.11-.1A4.64,4.64,0,0,1,29.83,14" transform="translate(-0.02 0)"/><path id="Path_2144" data-name="Path 2144" class="cls-5" d="M9.25,2.67c-.44-.42-1.14-.82-1.6-.42a1.26,1.26,0,0,0-.3,1,11.33,11.33,0,0,0,.9,4.44,6.32,6.32,0,0,0,1,1.66A8.77,8.77,0,0,0,11.41,11l2.06,1.25,1.07-1a.78.78,0,0,0,.24-.3.67.67,0,0,0-.1-.6c-.41-.67-1.2-1-1.61-1.66s-.44-1.23-.72-1.8a14.71,14.71,0,0,0-3.1-4.24" transform="translate(-0.02 0)"/><path id="Path_2145" data-name="Path 2145" class="cls-3" d="M13.54,13l-2.45-1.49A9.42,9.42,0,0,1,8.76,9.73,6.9,6.9,0,0,1,7.68,7.9a12.13,12.13,0,0,1-1-4.68,1.82,1.82,0,0,1,.52-1.45c.63-.54,1.59-.37,2.44.44h0a15.34,15.34,0,0,1,3.24,4.42,9,9,0,0,1,.33.86,3.94,3.94,0,0,0,.35.88,2.84,2.84,0,0,0,.67.67,4,4,0,0,1,.94,1,1.26,1.26,0,0,1,.15,1.16,1.41,1.41,0,0,1-.4.53ZM8.11,2.71h0s-.09.1-.09.5a11,11,0,0,0,.86,4.2,5.68,5.68,0,0,0,.88,1.5,8.12,8.12,0,0,0,2,1.52l1.67,1,.73-.65.1-.1a6.14,6.14,0,0,0-.75-.69,4,4,0,0,1-.94-1,5.29,5.29,0,0,1-.47-1.13c-.08-.25-.17-.48-.27-.72a14.11,14.11,0,0,0-3-4,1.35,1.35,0,0,0-.71-.41" transform="translate(-0.02 0)"/><path id="Path_2146" data-name="Path 2146" class="cls-6" d="M22.46,11c-.11-.22-.1-.51-.26-.7a.84.84,0,0,0-.42-.21l-2.05-.6a3.27,3.27,0,0,0-.89-.17,3.16,3.16,0,0,0-.95.24,24.25,24.25,0,0,0-3.18,1.49,1.67,1.67,0,0,0-.75.69c-.06.14-.08.3-.15.44-.26.51-1.07.47-1.41.93s0,1.07-.07,1.62c0,.74-.64,1.57-.15,2.12.23.26.65.36.74.7.05.19,0,.4,0,.6.07.54.85.65,1.12,1.12.06.14.13.27.2.4a1.14,1.14,0,0,0,.55.3l1.88.55a15,15,0,0,0,3.43.74,5.22,5.22,0,0,0,3.35-.84,3.84,3.84,0,0,0,1.07-1.2A4.91,4.91,0,0,0,25,18a4.51,4.51,0,0,0-.42-3.9,12.89,12.89,0,0,1-.7-1.78c-.3-.67-1.11-.66-1.41-1.26" transform="translate(-0.02 0)"/><path id="Path_2147" data-name="Path 2147" class="cls-3" d="M20.49,21.9h-.44a15.66,15.66,0,0,1-3.58-.77l-1.88-.55a1.37,1.37,0,0,1-1.06-.88,1.12,1.12,0,0,0-.39-.36,1.58,1.58,0,0,1-.86-1.1,1.55,1.55,0,0,1,0-.43c0-.06-.08-.12-.14-.16a2,2,0,0,1-.45-.37,1.89,1.89,0,0,1-.15-1.93,3.48,3.48,0,0,0,.14-.64,2.49,2.49,0,0,0,0-.47,1.91,1.91,0,0,1,.23-1.49,2,2,0,0,1,1-.64,1.25,1.25,0,0,0,.4-.2s0-.08,0-.12a2.76,2.76,0,0,1,.08-.27,2.2,2.2,0,0,1,1-1A24.33,24.33,0,0,1,17.67,9a3.34,3.34,0,0,1,1.16-.28,4,4,0,0,1,1.08.2L22,9.5a1.46,1.46,0,0,1,.7.38,1.38,1.38,0,0,1,.32.68.75.75,0,0,0,0,.16h0c.06.12.2.2.42.33a2.05,2.05,0,0,1,1,.95,4.9,4.9,0,0,1,.29.81,3.29,3.29,0,0,0,.37.89,5.2,5.2,0,0,1,.5,4.4,5.44,5.44,0,0,1-.55,1.42,4.54,4.54,0,0,1-1.25,1.4,5.57,5.57,0,0,1-3.31,1M18.87,10h0a2.32,2.32,0,0,0-.74.2A21.87,21.87,0,0,0,15,11.6c-.15.09-.42.24-.48.38a.53.53,0,0,0,0,.12,2.35,2.35,0,0,1-.14.37,1.76,1.76,0,0,1-1,.8,1.41,1.41,0,0,0-.42.22,1.14,1.14,0,0,0,0,.58,3.3,3.3,0,0,1,0,.7,4.17,4.17,0,0,1-.2.93c-.09.3-.19.64-.1.74l.2.14A1.23,1.23,0,0,1,13.54,18c0,.13.18.24.28.3a2.16,2.16,0,0,1,.75.69,2.68,2.68,0,0,1,.12.24.44.44,0,0,0,.26.16l1.89.56a15.34,15.34,0,0,0,3.29.72,4.57,4.57,0,0,0,2.94-.73,3.31,3.31,0,0,0,.9-1,4.38,4.38,0,0,0,.42-1.11,3.92,3.92,0,0,0-.32-3.4,4.2,4.2,0,0,1-.53-1.23,4.83,4.83,0,0,0-.22-.64c-.08-.16-.23-.25-.48-.39a2.12,2.12,0,0,1-.93-.85,2.16,2.16,0,0,1-.14-.43s0-.1,0-.15-.07,0-.11,0l-2.05-.6a2.73,2.73,0,0,0-.69-.14" transform="translate(-0.02 0)"/><path id="Path_2148" data-name="Path 2148" class="cls-6" d="M27.12,49.46c.8.45,1.6-1,2.48-.81.49.13.68.7.83,1.18s.41,1,.91,1.07.71-.29,1-.53.8-.42,1.08-.13a.81.81,0,0,1,.17.39A3.65,3.65,0,0,0,34,51.8a.79.79,0,0,0,1.07.29c.2-.16.35-.5.61-.45a.53.53,0,0,1,.28.23L36.8,53a1.53,1.53,0,0,0,.58.55.51.51,0,0,0,.68-.23c.11-.3-.15-.74.13-.9a1.84,1.84,0,0,1,.76.5c.24.19.61.3.83.09s.14-.58.35-.77a.8.8,0,0,1,.69-.06,2.1,2.1,0,0,0,1.48-.15,1,1,0,0,0,.4-1.29c-.39-.59-1.47-.45-1.73-1.1a15,15,0,0,0,1.76-.28c.27-.06.61-.23.56-.5s-.21-.26-.37-.33l-2.41-1.13c.08-.48.92-.2,1.26-.56a.63.63,0,0,0-.09-.82,3.48,3.48,0,0,0-.78-.48c-1.56-.89-1.82-3.09-3.12-4.34a6.74,6.74,0,0,0-3.91-1.44c-1.63-.22-3.52-.32-4.7.84s-1.11,3.18-1.58,4.73c-.26.88-1.58,3.49-.48,4.11" transform="translate(-0.02 0)"/><path id="Path_2149" data-name="Path 2149" class="cls-3" d="M37.6,54.24a1.28,1.28,0,0,1-.47-.1,2,2,0,0,1-.84-.75l-.7-1-.15.14a1.16,1.16,0,0,1-.94.23,1.58,1.58,0,0,1-1-.66A3.08,3.08,0,0,1,33.06,51L33,50.78a.84.84,0,0,1,0-.1s-.12.09-.24.17l-.13.1a1.83,1.83,0,0,1-1.32.56c-.48,0-1.11-.32-1.47-1.51-.05-.18-.2-.7-.38-.75s-.45.18-.71.36A1.77,1.77,0,0,1,26.8,50c-1.36-.78-.56-2.85,0-4.22a5.38,5.38,0,0,0,.22-.62,11.72,11.72,0,0,0,.3-1.43,6.21,6.21,0,0,1,1.44-3.56c1.35-1.33,3.4-1.27,5.22-1a7.3,7.3,0,0,1,4.27,1.61,7.69,7.69,0,0,1,1.41,2.15A4.72,4.72,0,0,0,41.21,45l.2.11a2.83,2.83,0,0,1,.71.47,1.25,1.25,0,0,1,.1,1.69l-.18.16,1.14.53a1.13,1.13,0,0,1,.71.78c.12.57-.3,1.07-1,1.23l-.07,0a1.6,1.6,0,0,1,.41.41,1.4,1.4,0,0,1,.19,1.09,1.75,1.75,0,0,1-.79,1.09,2.64,2.64,0,0,1-1.91.22l-.15,0v0a1.33,1.33,0,0,1-.33.67,1.21,1.21,0,0,1-1.56,0v0a1,1,0,0,1-.56.59,1.16,1.16,0,0,1-.49.1m-2-3.22h.17a1.12,1.12,0,0,1,.67.47l.85,1.15.13.18a.94.94,0,0,1,.44-.93l.2-.12.23,0a1.84,1.84,0,0,1,.87.49l.15.13,0,0a1.23,1.23,0,0,1,.36-.67,1.33,1.33,0,0,1,1.23-.21,1.52,1.52,0,0,0,1-.07.47.47,0,0,0,.21-.29c-.07-.22-.32-.3-.54-.38a1.85,1.85,0,0,1-1.26-1l-.31-.78.84-.08c.4,0,.81-.1,1.22-.17l-2.32-1.08.08-.47c.13-.73.83-.81,1.16-.85l.12,0a1.16,1.16,0,0,0-.32-.2l-.25-.14a5.68,5.68,0,0,1-2.08-2.61,6.59,6.59,0,0,0-1.17-1.82,6.26,6.26,0,0,0-3.56-1.27c-1.52-.2-3.21-.29-4.17.67A5.11,5.11,0,0,0,28.53,44a14.3,14.3,0,0,1-.33,1.58c-.06.18-.15.42-.26.71-.62,1.62-.8,2.52-.51,2.68h0a1.86,1.86,0,0,0,.58-.33,2.08,2.08,0,0,1,1.75-.54c.85.23,1.11,1.12,1.26,1.6s.3.63.35.63.3-.17.45-.29l.15-.11a1.27,1.27,0,0,1,2.24.6l.07.29a1.81,1.81,0,0,0,.22.68.3.3,0,0,0,.2.13h0s0,0,0-.08a1.13,1.13,0,0,1,.85-.48" transform="translate(-0.02 0)"/><path id="Path_2150" data-name="Path 2150" class="cls-5" d="M27.93,41.18a8.23,8.23,0,0,0,.66,1.73l1.64,3.46a2.68,2.68,0,0,0,.78,1.1A1.75,1.75,0,0,0,33.29,47a3.7,3.7,0,0,0,.6-2.44,14.41,14.41,0,0,0-2.32-6.33,2.08,2.08,0,0,0-.59-.7c-.64-.4-2.41-.4-2.91.27s-.33,2.56-.14,3.4" transform="translate(-0.02 0)"/><path id="Path_2151" data-name="Path 2151" class="cls-3" d="M31.79,48.34A2,2,0,0,1,30.64,48a3.31,3.31,0,0,1-1-1.34L28,43.18a8.39,8.39,0,0,1-.71-1.86c-.14-.64-.54-2.81.25-3.9s2.85-1,3.74-.43a2.5,2.5,0,0,1,.8.91,14.85,14.85,0,0,1,2.4,6.61,4.21,4.21,0,0,1-.73,2.86,2.62,2.62,0,0,1-2,1m-3.25-7.29a7.58,7.58,0,0,0,.62,1.6L30.8,46.1a2.27,2.27,0,0,0,.57.86,1.14,1.14,0,0,0,1.43-.37,2.93,2.93,0,0,0,.46-2,13.71,13.71,0,0,0-2.23-6,1.47,1.47,0,0,0-.37-.48,2.45,2.45,0,0,0-2.08.1,4.86,4.86,0,0,0,0,2.9" transform="translate(-0.02 0)"/><path id="Path_2152" data-name="Path 2152" class="cls-5" d="M27,46.37c-.32.7-.8,1.5-1.57,1.57a1.75,1.75,0,0,1-1.61-1.26,5,5,0,0,1,0-3.11c.26-1,.7-2,1-3a10.72,10.72,0,0,0,.38-2.31c0-.37.09-.83.44-.93a.86.86,0,0,1,.32,0l1.35.14a.92.92,0,0,1,.51.15c.3.26.15.74,0,1.11a4.47,4.47,0,0,0,0,2.12,11.07,11.07,0,0,1,.59,2c0,1.1-.94,2.59-1.4,3.58" transform="translate(-0.02 0)"/><path id="Path_2153" data-name="Path 2153" class="cls-3" d="M25.29,48.57a2.41,2.41,0,0,1-2.09-1.66,5.59,5.59,0,0,1-.05-3.5,16.47,16.47,0,0,1,.53-1.64c.16-.45.32-.91.45-1.38a10,10,0,0,0,.36-2.18c.05-.83.35-1.33.9-1.49a1.5,1.5,0,0,1,.56,0l1.35.13a1.5,1.5,0,0,1,.84.3,1.56,1.56,0,0,1,.26,1.72,3.63,3.63,0,0,0,0,1.85,5.08,5.08,0,0,0,.23.69A4,4,0,0,1,29,42.78a7,7,0,0,1-1.08,3.1c-.14.27-.27.53-.38.76-.22.5-.83,1.81-2.08,1.92H25.3m.51-10.65a.76.76,0,0,0-.06.36,11.31,11.31,0,0,1-.41,2.45c-.14.49-.31,1-.48,1.46s-.36,1-.5,1.54a4.54,4.54,0,0,0,0,2.73c.18.44.6.9,1,.86s.7-.43,1.06-1.21h0c.11-.24.26-.51.41-.8a6.58,6.58,0,0,0,.93-2.5,3.28,3.28,0,0,0-.27-1,6.51,6.51,0,0,1-.3-.88,5,5,0,0,1,0-2.41,2.78,2.78,0,0,0,.11-.5s-.09,0-.12,0l-1.36-.14v0" transform="translate(-0.02 0)"/><path id="Path_2154" data-name="Path 2154" class="cls-5" d="M21,45.08a2.24,2.24,0,0,1-2.27-1.18,2.86,2.86,0,0,1-.18-.95A4.66,4.66,0,0,1,19,40.51,6.37,6.37,0,0,1,20.3,39l3-2.94a1.94,1.94,0,0,0,1.5.89.38.38,0,0,1,.27.08.38.38,0,0,1,0,.24c-.07.7-.14,1.4-.2,2.11-.23,2.54-.84,5.45-3.91,5.73" transform="translate(-0.02 0)"/><path id="Path_2155" data-name="Path 2155" class="cls-3" d="M20.79,45.71a2.78,2.78,0,0,1-2.6-1.57A3.08,3.08,0,0,1,18,43a5.16,5.16,0,0,1,.5-2.76,6.94,6.94,0,0,1,1.4-1.7L23.45,35l.41.66a1.3,1.3,0,0,0,1,.59,1,1,0,0,1,.71.31.92.92,0,0,1,.18.7l-.19,2.1c-.17,1.77-.55,5.93-4.48,6.29l-.3,0m2.52-8.78-2.57,2.49a6.17,6.17,0,0,0-1.17,1.38,4,4,0,0,0-.36,2.11,2.26,2.26,0,0,0,.14.74,1.62,1.62,0,0,0,1.63.8c2.54-.23,3.11-2.61,3.35-5.16l.16-1.79a2.74,2.74,0,0,1-1.18-.56" transform="translate(-0.02 0)"/><path id="Path_2156" data-name="Path 2156" class="cls-5" d="M18.54,36.69a11.48,11.48,0,0,0-3,3.23c-.23.42-.37,1,0,1.32a1,1,0,0,0,.6.14A3.24,3.24,0,0,0,17.53,41a6.17,6.17,0,0,0,1.2-.9l3.44-3.06,1.16-1a.74.74,0,0,0,.32-.47c0-.64-1.6-1.37-2.1-1.16a15,15,0,0,0-3,2.3" transform="translate(-0.02 0)"/><path id="Path_2157" data-name="Path 2157" class="cls-3" d="M16.11,42a1.52,1.52,0,0,1-.91-.27A1.6,1.6,0,0,1,15,39.62a12.31,12.31,0,0,1,3.13-3.42c.23-.18.47-.4.72-.61a9.55,9.55,0,0,1,2.45-1.78,2.78,2.78,0,0,1,2.22.55,1.41,1.41,0,0,1,.74,1.22,1.31,1.31,0,0,1-.52.9l-4.61,4.1a7.11,7.11,0,0,1-1.32,1,3.84,3.84,0,0,1-1.63.43h-.08M16,40.74h.18a2.55,2.55,0,0,0,1.08-.28,5.73,5.73,0,0,0,1.07-.82l4.6-4.1.05,0A2.17,2.17,0,0,0,21.75,35a8.92,8.92,0,0,0-2.07,1.54c-.26.23-.51.46-.75.65a10.94,10.94,0,0,0-2.82,3.05,1,1,0,0,0-.15.53h0" transform="translate(-0.02 0)"/><path id="Path_2158" data-name="Path 2158" class="cls-5" d="M14.53,38A1.9,1.9,0,0,1,13.18,37a1.49,1.49,0,0,1,.28-1.29,3.71,3.71,0,0,1,1-.9,17,17,0,0,1,4.86-2.17,3.47,3.47,0,0,1,1.78-.14,1.43,1.43,0,0,1,1.16,1.21.59.59,0,0,1-.12.43,1,1,0,0,1-.27.17,15,15,0,0,0-4,2.67c-1,.94-1.92,1.56-3.39,1.1" transform="translate(-0.02 0)"/><path id="Path_2159" data-name="Path 2159" class="cls-3" d="M15.48,38.81a3.67,3.67,0,0,1-1.14-.18,2.42,2.42,0,0,1-1.75-1.5A2.12,2.12,0,0,1,13,35.28a4.27,4.27,0,0,1,1.2-1,17.32,17.32,0,0,1,5-2.26,4.12,4.12,0,0,1,2.09-.15,2.06,2.06,0,0,1,1.64,1.8,1.19,1.19,0,0,1-.29.88,1.38,1.38,0,0,1-.47.31,14.4,14.4,0,0,0-3.81,2.56,4.19,4.19,0,0,1-2.87,1.43m-.76-1.38c1.12.36,1.78,0,2.78-1a15.46,15.46,0,0,1,4.14-2.79c0-.3-.33-.55-.65-.63a3,3,0,0,0-1.48.14,16,16,0,0,0-4.67,2.1A3.08,3.08,0,0,0,14,36a.9.9,0,0,0-.19.74c.12.38.7.6.94.68" transform="translate(-0.02 0)"/><path id="Path_2160" data-name="Path 2160" class="cls-5" d="M36.74,42a7.26,7.26,0,0,0,2.67,1.65,2.5,2.5,0,0,0,.94.07A2.13,2.13,0,0,0,42,42.14a3.23,3.23,0,0,0-.45-2.33A7,7,0,0,0,39.89,38a18.34,18.34,0,0,0-5.26-3c-.59-.21-1.38-.35-1.75.17-.11.16-.16.36-.26.52-.32.51-1.46.63-1.54,1.28s1.09,1.21,1.46,1.53L36.74,42" transform="translate(-0.02 0)"/><path id="Path_2161" data-name="Path 2161" class="cls-3" d="M40.07,44.4a3.24,3.24,0,0,1-.82-.11,7.79,7.79,0,0,1-2.91-1.77L32.14,39l-.31-.22c-.62-.44-1.48-1-1.38-1.86s.71-1,1.16-1.24a2.41,2.41,0,0,0,.48-.3,1,1,0,0,0,.07-.15,3,3,0,0,1,.21-.4c.47-.65,1.37-.79,2.48-.39a18.9,18.9,0,0,1,5.44,3.12,7.83,7.83,0,0,1,1.78,1.94,3.78,3.78,0,0,1,.51,2.8,2.71,2.71,0,0,1-2.14,2.09,2.34,2.34,0,0,1-.38,0m-6.37-8.95a.36.36,0,0,0-.3.09,1.3,1.3,0,0,0-.08.17,1.75,1.75,0,0,1-1.13,1.06,1.93,1.93,0,0,0-.49.31,7.84,7.84,0,0,0,.86.66L33,38l4.2,3.53a6.61,6.61,0,0,0,2.42,1.52,1.62,1.62,0,0,0,.69.06A1.49,1.49,0,0,0,41.37,42,2.56,2.56,0,0,0,41,40.13a6.42,6.42,0,0,0-1.5-1.62,17.6,17.6,0,0,0-5.08-2.91,2.26,2.26,0,0,0-.73-.15" transform="translate(-0.02 0)"/><path id="Path_2162" data-name="Path 2162" class="cls-5" d="M14,29a3.58,3.58,0,0,1-1.47-1.23,1.07,1.07,0,0,1-.08-1.13,1.33,1.33,0,0,1,.91-.45,6.63,6.63,0,0,1,3.13,0A7.79,7.79,0,0,1,18.2,27a15.09,15.09,0,0,1,3.08,1.81c.77.76,0,1.37-.81,1.54-2,.41-4.78-.46-6.51-1.37" transform="translate(-0.02 0)"/><path id="Path_2163" data-name="Path 2163" class="cls-3" d="M19.37,31.1a13.36,13.36,0,0,1-5.7-1.54A4.32,4.32,0,0,1,12,28.1a1.69,1.69,0,0,1-.07-1.81,1.91,1.91,0,0,1,1.31-.71,7.32,7.32,0,0,1,3.42,0,8.6,8.6,0,0,1,1.89.89c.28.16.6.32.93.48a8.62,8.62,0,0,1,2.28,1.44,1.34,1.34,0,0,1,.45,1.39A2,2,0,0,1,20.6,31a6.33,6.33,0,0,1-1.23.12M15,26.62a8.62,8.62,0,0,0-1.6.18c-.29.06-.46.12-.51.19a.54.54,0,0,0,.1.46,3.05,3.05,0,0,0,1.22,1h0c1.69.89,4.33,1.67,6.09,1.31a1.09,1.09,0,0,0,.63-.32,1,1,0,0,0-.13-.16,8,8,0,0,0-1.95-1.2c-.36-.17-.7-.34-1-.52a7.75,7.75,0,0,0-1.62-.77A4.75,4.75,0,0,0,15,26.62" transform="translate(-0.02 0)"/><path id="Path_2164" data-name="Path 2164" class="cls-5" d="M35.36,45.6a2.43,2.43,0,0,0,2,.41,1.1,1.1,0,0,0,.42-.24,1,1,0,0,0,.26-.48,3.22,3.22,0,0,0-.64-2.8,9.26,9.26,0,0,0-2.23-2L32,38.27c-.1,1.33.9,2.45,1.36,3.7.23.65.19,1.41.47,2a4.45,4.45,0,0,0,1.51,1.6" transform="translate(-0.02 0)"/><path id="Path_2165" data-name="Path 2165" class="cls-3" d="M36.83,46.72a3.22,3.22,0,0,1-1.82-.6,5.23,5.23,0,0,1-1.73-1.86A4.65,4.65,0,0,1,33,43a3.88,3.88,0,0,0-.18-.82A8.2,8.2,0,0,0,32.24,41a5.06,5.06,0,0,1-.84-2.8l.09-1.09,4.1,2.9A10.05,10.05,0,0,1,38,42.13a3.79,3.79,0,0,1,.74,3.35,1.75,1.75,0,0,1-.41.73,1.57,1.57,0,0,1-.68.4,2.53,2.53,0,0,1-.77.12m-1.12-1.64a1.81,1.81,0,0,0,1.51.33.61.61,0,0,0,.18-.09.81.81,0,0,0,.1-.21A2.6,2.6,0,0,0,37,42.88a8.67,8.67,0,0,0-2.09-1.82L33,39.72c.11.23.24.47.37.72A10,10,0,0,1,34,41.76a5.41,5.41,0,0,1,.23,1.06,3.74,3.74,0,0,0,.22.92,4.06,4.06,0,0,0,1.29,1.35" transform="translate(-0.02 0)"/><path id="Path_2166" data-name="Path 2166" class="cls-5" d="M12.94,31.07c-.61.34-1.24,1-1.06,1.64a1.55,1.55,0,0,0,1.34.94c2.32.4,4.58-1.06,6.93-1,.55,0,1.27,0,1.46-.53a1.2,1.2,0,0,0-.32-1,1.46,1.46,0,0,0-.67-.63,1.42,1.42,0,0,0-.68,0,7.87,7.87,0,0,1-1.75.07c-.55-.05-1-.3-1.57-.34a6.8,6.8,0,0,0-3.68.95" transform="translate(-0.02 0)"/><path id="Path_2167" data-name="Path 2167" class="cls-3" d="M14.05,34.34a5.86,5.86,0,0,1-.94-.07,2.13,2.13,0,0,1-1.84-1.41,2.22,2.22,0,0,1,1.36-2.34,7.41,7.41,0,0,1,4-1,4.79,4.79,0,0,1,.93.19,3.92,3.92,0,0,0,.66.15,7.1,7.1,0,0,0,1.6-.07,2.07,2.07,0,0,1,1,0,2,2,0,0,1,1,.87,1.83,1.83,0,0,1,.4,1.62c-.35,1-1.52.94-2.06.94h0a11,11,0,0,0-2.89.54,11.66,11.66,0,0,1-3.16.57m-.79-2.73c-.43.24-.85.64-.77.94s.47.42.84.49a8.42,8.42,0,0,0,3.55-.47A12.19,12.19,0,0,1,20.1,32h.13c.58,0,.75-.06.8-.11s0-.1-.25-.49c-.09-.13-.25-.35-.36-.39A1,1,0,0,0,20,31a8.59,8.59,0,0,1-1.9.07,5.38,5.38,0,0,1-.87-.18,2.65,2.65,0,0,0-.69-.15,6.21,6.21,0,0,0-3.31.86" transform="translate(-0.02 0)"/><path id="Path_2168" data-name="Path 2168" class="cls-5" d="M37.07,35.88A8.89,8.89,0,0,0,39,37.08a6,6,0,0,0,1.69.24,3.12,3.12,0,0,0,2-.36,6.41,6.41,0,0,1,.52-.39c.56-.31,1.36,0,1.84-.46A1,1,0,0,0,45.18,35a2.11,2.11,0,0,0-.79-.91A6.77,6.77,0,0,0,41.49,33a26,26,0,0,0-3.06-.28l-4.21-.2a.54.54,0,0,0-.28.05c-.47.27-.21,1.8.2,2.08a9.71,9.71,0,0,0,1.47.48,6.64,6.64,0,0,1,1.46.79" transform="translate(-0.02 0)"/><path id="Path_2169" data-name="Path 2169" class="cls-3" d="M41.12,38h-.5a4.84,4.84,0,0,1-3.44-1.21l-.46-.34h0a5.71,5.71,0,0,0-1.33-.72,2.85,2.85,0,0,0-.5-.14,3.2,3.2,0,0,1-1.08-.4,2.49,2.49,0,0,1-.72-2A1.27,1.27,0,0,1,33.63,32a1,1,0,0,1,.62-.12l4.21.2a25.43,25.43,0,0,1,3.14.28,7.54,7.54,0,0,1,3.16,1.21,2.78,2.78,0,0,1,1,1.2,1.65,1.65,0,0,1-.38,1.82A2.09,2.09,0,0,1,44,37a1.8,1.8,0,0,0-.6.1,1.73,1.73,0,0,0-.21.17l-.24.18a3.19,3.19,0,0,1-1.86.49m-3.68-2.59.49.36a5.16,5.16,0,0,0,1.25.76,5.07,5.07,0,0,0,1.5.2,2.54,2.54,0,0,0,1.58-.24l.15-.12a2.11,2.11,0,0,1,1.54-.56,1.33,1.33,0,0,0,.62-.13.44.44,0,0,0,0-.43,1.61,1.61,0,0,0-.57-.64,6.35,6.35,0,0,0-2.64-1,22.9,22.9,0,0,0-3-.26l-4.15-.2a2.57,2.57,0,0,0,.27,1,3.38,3.38,0,0,0,.62.18,5.75,5.75,0,0,1,.71.2,7.83,7.83,0,0,1,1.58.87" transform="translate(-0.02 0)"/><path id="Path_2170" data-name="Path 2170" class="cls-5" d="M18.53,25.61c-1.05-.76-2-1.66-3-2.45-.56-.42-1.23-1-1.05-1.69s.89-.84,1.51-.85c2,0,3.74,1.27,5.26,2.55A5.18,5.18,0,0,1,23.29,26a.3.3,0,0,1,0,.21.37.37,0,0,1-.17.16c-.85.54-1.17.81-2.2.51a7.39,7.39,0,0,1-2.38-1.23" transform="translate(-0.02 0)"/><path id="Path_2171" data-name="Path 2171" class="cls-3" d="M21.65,27.59a3.47,3.47,0,0,1-.91-.15,7.82,7.82,0,0,1-2.58-1.33c-.6-.43-1.17-.91-1.72-1.37s-.86-.73-1.32-1.08-1.58-1.2-1.27-2.35A2,2,0,0,1,16,20c2.27,0,4.11,1.38,5.67,2.69a5.73,5.73,0,0,1,2.28,3.16.89.89,0,0,1-.46,1l-.18.12a3,3,0,0,1-1.61.61M16,21.25h0c-.4,0-.86.14-.92.38s.6.87.83,1c.46.35.91.73,1.36,1.11s1.09.92,1.65,1.32l0,0a6.79,6.79,0,0,0,2.17,1.12c.68.2.82.11,1.5-.32l0,0a5,5,0,0,0-1.81-2.25c-1.39-1.16-3-2.4-4.81-2.4" transform="translate(-0.02 0)"/><path id="Path_2172" data-name="Path 2172" class="cls-5" d="M42.87,33.72a1.52,1.52,0,0,0,1-.43,1,1,0,0,0,.1-1,1.92,1.92,0,0,0-.72-.8,6.19,6.19,0,0,0-2.46-.86,17.45,17.45,0,0,0-6.24.08.54.54,0,0,0-.34.16.76.76,0,0,0-.06.2c-.1.54-.5,1.6-.06,2.06s2,.56,2.72.66a20.45,20.45,0,0,0,6,0" transform="translate(-0.02 0)"/><path id="Path_2173" data-name="Path 2173" class="cls-3" d="M39.73,34.6a21.36,21.36,0,0,1-3-.21l-.47,0a4.34,4.34,0,0,1-2.63-.79c-.59-.62-.35-1.56-.18-2.25,0-.13.06-.25.08-.35a1,1,0,0,1,.9-.87A18,18,0,0,1,40.9,30a6.84,6.84,0,0,1,2.7,1A2.5,2.5,0,0,1,44.55,32a1.67,1.67,0,0,1-.18,1.68,2.15,2.15,0,0,1-1.4.66,20.83,20.83,0,0,1-3.25.25m-5-3.31c0,.1,0,.21-.07.31s-.23.93-.12,1.08a4.7,4.7,0,0,0,1.84.41l.52.06a19.51,19.51,0,0,0,5.86,0h0a1.24,1.24,0,0,0,.62-.21.41.41,0,0,0,0-.39,1.41,1.41,0,0,0-.5-.53,5.64,5.64,0,0,0-2.21-.75,16.58,16.58,0,0,0-6,.06" transform="translate(-0.02 0)"/><path id="Path_2174" data-name="Path 2174" class="cls-5" d="M13.87,23.05a1.3,1.3,0,0,0-.67.13A1.07,1.07,0,0,0,13,24.59a2.55,2.55,0,0,0,1.51,1.12c.61.21,1.26.3,1.87.5,1.82.6,3.22,2.12,5.06,2.66l.66-1.15a.55.55,0,0,0,.1-.4c-.05-.16-.23-.23-.39-.29a15.15,15.15,0,0,1-4.14-2.26,6.29,6.29,0,0,0-3.79-1.72" transform="translate(-0.02 0)"/><path id="Path_2175" data-name="Path 2175" class="cls-3" d="M21.71,29.6l-.47-.14A10.41,10.41,0,0,1,18.47,28a10.6,10.6,0,0,0-2.3-1.23c-.29-.09-.58-.16-.87-.23s-.68-.16-1-.27a3.18,3.18,0,0,1-1.86-1.41,1.69,1.69,0,0,1,.45-2.25,2,2,0,0,1,1-.22A6.77,6.77,0,0,1,18,24.27a15.09,15.09,0,0,0,4,2.17,1,1,0,0,1,.8,1.17,1,1,0,0,1-.19.43Zm-7.88-5.93a.83.83,0,0,0-.31,0c-.09.06-.12.34,0,.58a2.14,2.14,0,0,0,1.17.83c.29.1.59.16.9.24s.65.15,1,.25A11.57,11.57,0,0,1,19.16,27a11.66,11.66,0,0,0,2,1.11l.31-.53a16.37,16.37,0,0,1-4.17-2.31,5.74,5.74,0,0,0-3.41-1.59h0Z" transform="translate(-0.02 0)"/><path id="Path_2176" data-name="Path 2176" class="cls-5" d="M38.56,30.35a10,10,0,0,0,1.64-.11,8.57,8.57,0,0,0,2.2-.82c.53-.26,1.06-.53,1.58-.82a3.53,3.53,0,0,0,1.37-1.11,1.3,1.3,0,0,0-.11-1.64,1.53,1.53,0,0,0-.89-.32c-2.1-.23-4.05,1-6.09,1.62a31.91,31.91,0,0,1-3.9.73c-1,.17-.47,2,.24,2.37,1,.51,2.82.12,3.95.1" transform="translate(-0.02 0)"/><path id="Path_2177" data-name="Path 2177" class="cls-3" d="M36.08,31.14a4.22,4.22,0,0,1-1.75-.32A2.55,2.55,0,0,1,33.2,28.4a1.26,1.26,0,0,1,1.06-1.14l1-.16a20.1,20.1,0,0,0,2.78-.55c.59-.18,1.17-.41,1.78-.66a9.58,9.58,0,0,1,4.56-1,2.2,2.2,0,0,1,1.23.47,1.9,1.9,0,0,1,.23,2.44,4,4,0,0,1-1.6,1.33c-.53.3-1.06.58-1.61.84a9,9,0,0,1-2.35.87,10.3,10.3,0,0,1-1.75.12c-.3,0-.63,0-1,.07a14.91,14.91,0,0,1-1.5.09m7.75-5a9.93,9.93,0,0,0-3.5.93c-.61.25-1.24.5-1.88.69a19.88,19.88,0,0,1-3,.59l-1,.16s-.07.21,0,.5a1.21,1.21,0,0,0,.4.7,5.81,5.81,0,0,0,2.59.11c.39,0,.76-.07,1.08-.07h0a10,10,0,0,0,1.54-.11,8.22,8.22,0,0,0,2-.76c.52-.25,1-.52,1.55-.8a3.27,3.27,0,0,0,1.15-.9.72.72,0,0,0,0-.84,1,1,0,0,0-.55-.17,3.4,3.4,0,0,0-.45,0" transform="translate(-0.02 0)"/><path id="Path_2178" data-name="Path 2178" class="cls-5" d="M18.87,18.51a.65.65,0,0,1,0-.39.53.53,0,0,1,.52-.21c.2,0,.38.09.58.11.56.08,1.16-.26,1.69,0a1.42,1.42,0,0,1,.59.55,9,9,0,0,1,.91,1.81,16.69,16.69,0,0,1,1.09,3.52A1.24,1.24,0,0,1,24.06,25a.9.9,0,0,1-1,0,3.31,3.31,0,0,1-.76-.78c-.66-.83-1.56-1.42-2.15-2.3a7.33,7.33,0,0,1-1.26-3.43" transform="translate(-0.02 0)"/><path id="Path_2179" data-name="Path 2179" class="cls-3" d="M23.59,25.81a1.62,1.62,0,0,1-.88-.26,3.16,3.16,0,0,1-.84-.83l-.08-.1a9,9,0,0,0-.91-.94,8.81,8.81,0,0,1-1.27-1.39,8,8,0,0,1-1.36-3.72,1.24,1.24,0,0,1,.12-.76,1.13,1.13,0,0,1,1.12-.53,3,3,0,0,1,.41.08l.19,0a1.94,1.94,0,0,0,.54,0,2.3,2.3,0,0,1,1.3,0,2.09,2.09,0,0,1,.87.77,9.3,9.3,0,0,1,1,1.94,17.13,17.13,0,0,1,1.12,3.65,1.82,1.82,0,0,1-.44,1.74,1.41,1.41,0,0,1-.88.31M19.5,18.55a6.68,6.68,0,0,0,1.15,3,7.17,7.17,0,0,0,1.09,1.18,9.58,9.58,0,0,1,1,1.08l.08.1a2.38,2.38,0,0,0,.52.53.33.33,0,0,0,.29.06s.1-.09,0-.58a16.25,16.25,0,0,0-1.06-3.39,8.32,8.32,0,0,0-.84-1.69,1.12,1.12,0,0,0-.32-.33,1.22,1.22,0,0,0-.6,0,2.92,2.92,0,0,1-.93.06l-.34-.07-.09,0" transform="translate(-0.02 0)"/><path id="Path_2180" data-name="Path 2180" class="cls-5" d="M43.35,23.23A1.6,1.6,0,0,0,42,22.49a5.78,5.78,0,0,0-3.13.66,23.51,23.51,0,0,0-2.74,1.74c-1.13.77-2.29,1.5-3.48,2.17a1.31,1.31,0,0,0,1,.68A3.87,3.87,0,0,0,35,27.62a47.76,47.76,0,0,0,6.12-1.57c1-.36,2.88-1.56,2.26-2.83" transform="translate(-0.02 0)"/><path id="Path_2181" data-name="Path 2181" class="cls-3" d="M34,28.38l-.38,0a1.92,1.92,0,0,1-1.5-1.05l-.23-.52.5-.28c1.16-.65,2.31-1.37,3.42-2.13l.42-.3a21.29,21.29,0,0,1,2.4-1.49,6.31,6.31,0,0,1,3.49-.72A2.16,2.16,0,0,1,43.93,23a1.8,1.8,0,0,1,0,1.49,4.82,4.82,0,0,1-2.67,2.19,41.27,41.27,0,0,1-5.58,1.47l-.61.13a5.2,5.2,0,0,1-1.11.15m-.18-1.26a3.26,3.26,0,0,0,1-.11l.61-.13a41.92,41.92,0,0,0,5.42-1.42A3.69,3.69,0,0,0,42.8,24a.52.52,0,0,0,0-.47,1,1,0,0,0-.82-.39,5.1,5.1,0,0,0-2.79.6,17.86,17.86,0,0,0-2.24,1.4l-.43.3c-.88.6-1.78,1.18-2.69,1.72" transform="translate(-0.02 0)"/><path id="Path_2182" data-name="Path 2182" class="cls-5" d="M21.29,14.37A4.36,4.36,0,0,1,24,16.69a13.13,13.13,0,0,1,1,3.51l.62,3.18a2.07,2.07,0,0,1,0,1,.71.71,0,0,1-.78.52c-.3-.08-.46-.4-.58-.68a15.57,15.57,0,0,1-1-2.8,6.32,6.32,0,0,0-.85-2.74,6.18,6.18,0,0,0-1.7-1.25c-1.16-.78-1.5-3.56.53-3.08" transform="translate(-0.02 0)"/><path id="Path_2183" data-name="Path 2183" class="cls-3" d="M25,25.56a1,1,0,0,1-.29,0,1.65,1.65,0,0,1-1-1,16.09,16.09,0,0,1-1-2.92c-.05-.22-.08-.44-.12-.67a4.09,4.09,0,0,0-.6-1.82,3.27,3.27,0,0,0-1-.77L20.42,18a3,3,0,0,1-1-3.35,1.66,1.66,0,0,1,2.06-.86,5,5,0,0,1,3.11,2.65,13.41,13.41,0,0,1,1.1,3.67l.62,3.17a2.65,2.65,0,0,1,0,1.34,1.38,1.38,0,0,1-1.25,1M20.86,14.94c-.25,0-.3.12-.33.19a1.81,1.81,0,0,0,.59,1.8c.16.11.33.2.49.3A4.31,4.31,0,0,1,23,18.31a5.1,5.1,0,0,1,.85,2.38c0,.2.07.41.11.61a14.28,14.28,0,0,0,1,2.68,1.82,1.82,0,0,0,.16.31s0-.06,0-.09a1.7,1.7,0,0,0-.05-.71l-.62-3.18a12.5,12.5,0,0,0-1-3.33,3.64,3.64,0,0,0-2.29-2,.92.92,0,0,0-.29,0" transform="translate(-0.02 0)"/><path id="Path_2184" data-name="Path 2184" class="cls-5" d="M42.08,18a1.23,1.23,0,0,0-.12-.37,1,1,0,0,0-.84-.33,5.07,5.07,0,0,0-3,1.6A42.53,42.53,0,0,0,32,25.16a.45.45,0,0,0-.07.64l.05.05.39.53a1,1,0,0,0,.37.34c.33.15.7-.11,1-.34a18.28,18.28,0,0,1,4.06-2.56c2.21-1,4.83-3,4.35-5.82" transform="translate(-0.02 0)"/><path id="Path_2185" data-name="Path 2185" class="cls-3" d="M32.9,27.39a1.17,1.17,0,0,1-.45-.09,1.5,1.5,0,0,1-.62-.55l-.39-.53a1.28,1.28,0,0,1-.27-.59,1.26,1.26,0,0,1,.29-.85,43.27,43.27,0,0,1,6.27-6.35,5.7,5.7,0,0,1,3.37-1.75,1.51,1.51,0,0,1,1.38.62,1.61,1.61,0,0,1,.22.6h0c.42,2.51-1.34,4.94-4.71,6.49a17,17,0,0,0-3.92,2.47,2,2,0,0,1-1.17.53m-.43-1.87.36.48.12.15s.09-.07.32-.26a18.91,18.91,0,0,1,4.2-2.64c1.06-.49,4.48-2.3,4-5.15a.65.65,0,0,0,0-.13.57.57,0,0,0-.29,0,4.52,4.52,0,0,0-2.58,1.44,41.18,41.18,0,0,0-6.09,6.15" transform="translate(-0.02 0)"/><path id="Path_2186" data-name="Path 2186" class="cls-5" d="M26.89,15.23a5.86,5.86,0,0,1,.58,2.26A54.37,54.37,0,0,1,27.59,24a.5.5,0,0,1-.35.61.41.41,0,0,1-.19,0,1.54,1.54,0,0,1-1.33-.26,1.2,1.2,0,0,1-.28-.52,9.07,9.07,0,0,1-.21-2.08,13.45,13.45,0,0,0-.59-3.27c-.3-.93-.88-1.8-1.12-2.74a1.42,1.42,0,0,1,1-1.71h0a2.13,2.13,0,0,1,2.29,1.18" transform="translate(-0.02 0)"/><path id="Path_2187" data-name="Path 2187" class="cls-3" d="M26.59,25.29a1.78,1.78,0,0,1-1.32-.48,1.8,1.8,0,0,1-.42-.78,6.91,6.91,0,0,1-.23-1.81l0-.41A12.25,12.25,0,0,0,24,18.69a10,10,0,0,0-.49-1.17,8.28,8.28,0,0,1-.63-1.61,2,2,0,0,1,1.48-2.47h0a2.71,2.71,0,0,1,3,1.48,6.4,6.4,0,0,1,.66,2.5A51.46,51.46,0,0,1,28.21,24a1.31,1.31,0,0,1-.36,1,1.28,1.28,0,0,1-.73.27,4.73,4.73,0,0,1-.53,0M25,14.6a1.07,1.07,0,0,0-.25,0,.8.8,0,0,0-.65.93.43.43,0,0,1,0,0A8.1,8.1,0,0,0,24.68,17a9.64,9.64,0,0,1,.55,1.32,13.73,13.73,0,0,1,.62,3.43l0,.43a6.33,6.33,0,0,0,.17,1.5.75.75,0,0,0,.13.27c.13.14.59.09.79.07v0a53.21,53.21,0,0,0-.11-6.44,5.47,5.47,0,0,0-.51-2A1.7,1.7,0,0,0,25,14.6" transform="translate(-0.02 0)"/><path id="Path_2188" data-name="Path 2188" class="cls-5" d="M31.46,19.91a12.17,12.17,0,0,1,4.37-2.8,3.16,3.16,0,0,1,1.42-.31,1.19,1.19,0,0,1,1.09.84,1.38,1.38,0,0,1-.09.75,7.15,7.15,0,0,1-2.47,2.79,27.75,27.75,0,0,0-4,4.1,1.12,1.12,0,0,1-.39.36c-.71.31-1.93-1.39-1.89-2a6.71,6.71,0,0,1,2-3.7" transform="translate(-0.02 0)"/><path id="Path_2189" data-name="Path 2189" class="cls-3" d="M31.2,26.31a1.62,1.62,0,0,1-.9-.33,3.54,3.54,0,0,1-1.43-2.42A7.52,7.52,0,0,1,31,19.47a12.72,12.72,0,0,1,4.59-2.94,3.72,3.72,0,0,1,1.71-.35A1.79,1.79,0,0,1,39,17.52a2,2,0,0,1-.12,1.08,7,7,0,0,1-2.41,2.86l-.25.21a27,27,0,0,0-3.91,4,1.73,1.73,0,0,1-.63.54,1.12,1.12,0,0,1-.44.09m.71-6a6,6,0,0,0-1.79,3.31,2.5,2.5,0,0,0,1.09,1.4s0-.1.08-.15a27.53,27.53,0,0,1,4.1-4.19l.25-.21a6,6,0,0,0,2-2.33.77.77,0,0,0,.07-.4.58.58,0,0,0-.53-.34,2.36,2.36,0,0,0-1.14.26,11.65,11.65,0,0,0-4.15,2.65" transform="translate(-0.02 0)"/><path id="Path_2190" data-name="Path 2190" class="cls-5" d="M27.39,18.24a6.88,6.88,0,0,1,.19-1.86,2.58,2.58,0,0,1,1-1.51,2.64,2.64,0,0,1,1.45-.37,2.27,2.27,0,0,1,1,.22A2,2,0,0,1,32,16.65a5.83,5.83,0,0,1-.72,2.14c-.8,1.58-1.68,3.22-1.6,5,0,.8-.79.95-1.43.66a1.18,1.18,0,0,1-.69-1.07,35.14,35.14,0,0,1-.16-5.13" transform="translate(-0.02 0)"/><path id="Path_2191" data-name="Path 2191" class="cls-3" d="M28.84,25.2A2.15,2.15,0,0,1,28,25a1.8,1.8,0,0,1-1.05-1.55A27.45,27.45,0,0,1,26.75,19v-.78a8.07,8.07,0,0,1,.22-2,3.14,3.14,0,0,1,1.3-1.88,3.3,3.3,0,0,1,1.79-.46,2.65,2.65,0,0,1,1.27.28,2.62,2.62,0,0,1,1.27,2.53,6.18,6.18,0,0,1-.78,2.38l-.12.22a9.68,9.68,0,0,0-1.42,4.46,1.33,1.33,0,0,1-.57,1.2,1.5,1.5,0,0,1-.87.25M28,18.25V19a26.15,26.15,0,0,0,.16,4.24c.06.43.14.51.32.59a.64.64,0,0,0,.54,0,10.67,10.67,0,0,1,1.57-5.18l.11-.22a5.19,5.19,0,0,0,.66-1.9,1.44,1.44,0,0,0-.6-1.34,1.61,1.61,0,0,0-.71-.14A1.89,1.89,0,0,0,29,15.4a1.94,1.94,0,0,0-.76,1.15,6.5,6.5,0,0,0-.17,1.7" transform="translate(-0.02 0)"/><path id="Path_2192" data-name="Path 2192" class="cls-6" d="M25,25.18c-.4.23-1-.08-1.34.26s-.15.6-.34.84-.8.24-1,.58a1.79,1.79,0,0,0-.11.55c-.09.43-.53.74-.52,1.17,0,.18.08.34.09.51,0,.63-.9,1.2-.54,1.71a2.72,2.72,0,0,0,.3.29c.27.34.05.85.18,1.26s.54.62.68,1,0,1.18.39,1.47c.18.11.4.1.58.22.42.29.16,1,.45,1.43s1.3.23,1.91.52c.39.19.83.65,1.16.37.08-.08.14-.19.24-.24s.39.18.57.34a1.39,1.39,0,0,0,1.21.12,4.3,4.3,0,0,0,2.13-.87,3.23,3.23,0,0,1,.64-.58c.31-.17.73-.18.94-.47s.14-.51.26-.75c.19-.4.72-.56.85-1a2.68,2.68,0,0,0,0-.8c0-.66.56-1.22.55-1.87s-.35-.95-.4-1.46.21-1.1-.11-1.5-.68-.34-.95-.59c-.57-.52-.3-1.76-1.05-2-.25-.07-.53,0-.77-.07s-.39-.43-.52-.69-.39-.54-.68-.46-.31.27-.51.33c-.35.1-.76-.29-1.1-.36a5.58,5.58,0,0,0-1.08,0,8.85,8.85,0,0,0-1,0c-.55.09-.64.38-1.08.64" transform="translate(-0.02 0)"/><path id="Path_2193" data-name="Path 2193" class="cls-3" d="M28.35,38.27a1.47,1.47,0,0,1-1-.36l0,0a1.3,1.3,0,0,1-1.52-.17,1.65,1.65,0,0,0-.25-.15,1.84,1.84,0,0,0-.61-.09,1.77,1.77,0,0,1-1.56-.66,1.89,1.89,0,0,1-.26-1,1.26,1.26,0,0,0,0-.33,1.29,1.29,0,0,1-.53-.18A1.51,1.51,0,0,1,21.9,34a1.21,1.21,0,0,0,0-.42,1.42,1.42,0,0,0-.21-.29,2,2,0,0,1-.48-.74,2.16,2.16,0,0,1-.07-.76c0-.1,0-.2,0-.3a1.62,1.62,0,0,1-.32-.32,1.38,1.38,0,0,1,.2-1.61,1.42,1.42,0,0,0,.23-.44,2.18,2.18,0,0,1-.09-.51,1.69,1.69,0,0,1,.37-1,1.87,1.87,0,0,0,.17-.31,1.7,1.7,0,0,1,.17-.73,1.42,1.42,0,0,1,.85-.6l.21-.08a.32.32,0,0,1,0-.14,1.26,1.26,0,0,1,1.51-1.08,1.08,1.08,0,0,0,.31,0,1.86,1.86,0,0,0,.28-.21,1.86,1.86,0,0,1,1-.5,4,4,0,0,1,.77,0h.34l.32,0a3.32,3.32,0,0,1,.89,0,2.22,2.22,0,0,1,.6.24l.28.13a.71.71,0,0,1,.44-.32,1.24,1.24,0,0,1,1.42.77l.06.12a1.59,1.59,0,0,0,.15.29.9.9,0,0,1,.28,0,1.33,1.33,0,0,1,.4.05A1.67,1.67,0,0,1,33,26.6a1.71,1.71,0,0,0,.24.65,1.51,1.51,0,0,0,.28.15,1.53,1.53,0,0,1,1,1.92,2.07,2.07,0,0,0,0,.43,2,2,0,0,0,.16.52,2.29,2.29,0,0,1-.09,2.2,1.72,1.72,0,0,0-.22.66,1.49,1.49,0,0,0,0,.21,1.52,1.52,0,0,1-.68,1.6,1.18,1.18,0,0,0-.25.25,1.39,1.39,0,0,0-.06.19,1.4,1.4,0,0,1-1.15,1.21,1.3,1.3,0,0,0-.25.1,1.29,1.29,0,0,0-.3.27,2.18,2.18,0,0,1-.22.21,4.85,4.85,0,0,1-2.42,1,4.43,4.43,0,0,1-.72.09m-1.1-1.8a1.17,1.17,0,0,1,.81.43c.13.12.29.15.75.06a3.74,3.74,0,0,0,1.83-.72l.16-.16a2.58,2.58,0,0,1,.6-.5,2.82,2.82,0,0,1,.48-.19,1.53,1.53,0,0,0,.27-.11,1,1,0,0,0,0-.18A1.7,1.7,0,0,1,32.92,34a1.36,1.36,0,0,0,.24-.24.76.76,0,0,0,0-.26c0-.12,0-.23,0-.35A2.75,2.75,0,0,1,33.46,32a1.7,1.7,0,0,0,.21-.67,1.73,1.73,0,0,0-.15-.55,3.35,3.35,0,0,1-.24-.86,3.72,3.72,0,0,1,0-.67,1.4,1.4,0,0,0,0-.5,1.51,1.51,0,0,0-.28-.15,2.51,2.51,0,0,1-.61-.36,2.42,2.42,0,0,1-.61-1.29,1.72,1.72,0,0,0-.18-.54h-.17a1.35,1.35,0,0,1-1.46-1l-.09-.15a1,1,0,0,1-.4.24,1.54,1.54,0,0,1-1.16-.23l-.25-.11a2,2,0,0,0-.54,0l-.4,0h-.43a2.36,2.36,0,0,0-.53,0,.71.71,0,0,0-.4.21,2.25,2.25,0,0,1-.47.34,1.69,1.69,0,0,1-1,.18h-.26s0,.07,0,.12a1.59,1.59,0,0,1-.3.66,1.54,1.54,0,0,1-.76.46l-.2.08a.62.62,0,0,1,0,.33,2.08,2.08,0,0,1-.34.72,1.11,1.11,0,0,0-.17.3,2.1,2.1,0,0,1,.09.5A2,2,0,0,1,22,30.23c-.05.08-.12.18-.16.26l.21.21a1.59,1.59,0,0,1,.28,1.12,1.3,1.3,0,0,0,0,.34,1,1,0,0,0,.21.29,2.15,2.15,0,0,1,.45.66,2.63,2.63,0,0,1,.14.83,1.55,1.55,0,0,0,0,.37,1.3,1.3,0,0,1,.55.2,1.48,1.48,0,0,1,.56,1.23,1.21,1.21,0,0,0,.06.38c.05.07.36.08.57.09a2.76,2.76,0,0,1,1.1.21,3,3,0,0,1,.38.23l.19.11a1,1,0,0,1,.32-.22.72.72,0,0,1,.33-.07" transform="translate(-0.02 0)"/></g></g></g></g></g></svg>