<svg xmlns="http://www.w3.org/2000/svg" xmlns:xlink="http://www.w3.org/1999/xlink" viewBox="0 0 48.51 71.83"><defs><style>.cls-1{fill:none;}.cls-2{isolation:isolate;}.cls-3{fill:#004849;}.cls-4{clip-path:url(#clip-path);}.cls-5{fill:#fcfcfc;}.cls-6{fill:#2cdeb4;}</style><clipPath id="clip-path" transform="translate(-0.02 0)"><rect class="cls-1" width="48.52" height="56.95"/></clipPath></defs><g id="Layer_2" data-name="Layer 2"><g id="Layer_1-2" data-name="Layer 1"><g id="bisabolol" class="cls-2"><g class="cls-2"><path class="cls-3" d="M5.29,63.45v4a2,2,0,0,1,1.49-.69,2.06,2.06,0,0,1,1.6.72A2.54,2.54,0,0,1,9,69.31a2.6,2.6,0,0,1-.64,1.81,2.08,2.08,0,0,1-1.62.72,2.06,2.06,0,0,1-1.47-.64v.5H4.19V63.45ZM7.9,69.36a1.7,1.7,0,0,0-.37-1.12,1.21,1.21,0,0,0-1-.44,1.23,1.23,0,0,0-1,.43,1.57,1.57,0,0,0-.38,1.09,1.65,1.65,0,0,0,.37,1.11,1.26,1.26,0,0,0,1,.42,1.22,1.22,0,0,0,.95-.42A1.57,1.57,0,0,0,7.9,69.36Z" transform="translate(-0.02 0)"/><path class="cls-3" d="M10,65a.72.72,0,0,1,.71-.71.69.69,0,0,1,.51.21.66.66,0,0,1,.21.5A.72.72,0,1,1,10,65Zm1.26,2V71.7h-1.1V66.94Z" transform="translate(-0.02 0)"/><path class="cls-3" d="M15.44,67.75l-.91.49c-.14-.3-.32-.44-.53-.44a.34.34,0,0,0-.26.1.33.33,0,0,0-.11.25c0,.19.21.37.64.55a3.77,3.77,0,0,1,1.17.69,1.19,1.19,0,0,1,.3.85,1.54,1.54,0,0,1-.5,1.16,1.75,1.75,0,0,1-1.19.44,1.73,1.73,0,0,1-1.7-1.17l.94-.44a1.93,1.93,0,0,0,.3.44.67.67,0,0,0,.47.18c.38,0,.56-.16.56-.5s-.14-.38-.43-.55l-.33-.16-.34-.16a2.18,2.18,0,0,1-.67-.47,1.15,1.15,0,0,1-.25-.77,1.36,1.36,0,0,1,.42-1,1.51,1.51,0,0,1,1.06-.41A1.45,1.45,0,0,1,15.44,67.75Z" transform="translate(-0.02 0)"/><path class="cls-3" d="M20.24,66.94h1.1V71.7h-1.1v-.5a2.14,2.14,0,0,1-1.46.64,2.09,2.09,0,0,1-1.63-.72,2.62,2.62,0,0,1-.64-1.81,2.57,2.57,0,0,1,.64-1.79,2.07,2.07,0,0,1,1.6-.71,2,2,0,0,1,1.49.69Zm-2.61,2.37A1.64,1.64,0,0,0,18,70.42a1.18,1.18,0,0,0,.94.43,1.26,1.26,0,0,0,1-.42,1.78,1.78,0,0,0,0-2.2,1.23,1.23,0,0,0-1-.43,1.21,1.21,0,0,0-.94.43A1.55,1.55,0,0,0,17.63,69.31Z" transform="translate(-0.02 0)"/><path class="cls-3" d="M23.83,63.45v4a2,2,0,0,1,1.49-.69,2.06,2.06,0,0,1,1.6.72,2.54,2.54,0,0,1,.64,1.78,2.6,2.6,0,0,1-.64,1.81,2.08,2.08,0,0,1-1.62.72,2.06,2.06,0,0,1-1.47-.64v.5h-1.1V63.45Zm2.61,5.91a1.7,1.7,0,0,0-.37-1.12,1.21,1.21,0,0,0-.95-.44,1.23,1.23,0,0,0-1,.43,1.57,1.57,0,0,0-.38,1.09,1.65,1.65,0,0,0,.37,1.11,1.26,1.26,0,0,0,1,.42,1.22,1.22,0,0,0,.95-.42A1.57,1.57,0,0,0,26.44,69.36Z" transform="translate(-0.02 0)"/><path class="cls-3" d="M28.5,69.29a2.36,2.36,0,0,1,.74-1.76,2.6,2.6,0,0,1,3.6,0,2.41,2.41,0,0,1,.73,1.79,2.38,2.38,0,0,1-.74,1.79,2.5,2.5,0,0,1-1.82.72,2.41,2.41,0,0,1-1.79-.74A2.45,2.45,0,0,1,28.5,69.29Zm1.12,0A1.6,1.6,0,0,0,30,70.43a1.35,1.35,0,0,0,1,.42,1.31,1.31,0,0,0,1-.41,1.77,1.77,0,0,0,0-2.22,1.46,1.46,0,0,0-2.05,0A1.53,1.53,0,0,0,29.62,69.31Z" transform="translate(-0.02 0)"/><path class="cls-3" d="M35.83,63.45V71.7h-1.1V63.45Z" transform="translate(-0.02 0)"/><path class="cls-3" d="M37,69.29a2.36,2.36,0,0,1,.74-1.76,2.6,2.6,0,0,1,3.6,0,2.56,2.56,0,0,1,0,3.58,2.54,2.54,0,0,1-1.83.72,2.41,2.41,0,0,1-1.79-.74A2.45,2.45,0,0,1,37,69.29Zm1.12,0a1.6,1.6,0,0,0,.38,1.12,1.35,1.35,0,0,0,1,.42,1.31,1.31,0,0,0,1-.41,1.77,1.77,0,0,0,0-2.22,1.46,1.46,0,0,0-2.05,0A1.53,1.53,0,0,0,38.12,69.31Z" transform="translate(-0.02 0)"/><path class="cls-3" d="M44.33,63.45V71.7h-1.1V63.45Z" transform="translate(-0.02 0)"/></g></g><g id="Group_2361" data-name="Group 2361"><g class="cls-4"><g id="Group_2360" data-name="Group 2360"><path id="Path_2419" data-name="Path 2419" class="cls-5" d="M20.19,5.44a5.86,5.86,0,0,1,2.57-3.53A.36.36,0,0,1,23,1.84a.34.34,0,0,1,.2.17,4.82,4.82,0,0,1,.59,2.71A10.25,10.25,0,0,1,22.55,10a.78.78,0,0,1-.4.4.89.89,0,0,1-.56,0C20.3,10,20,10,19.91,8.65c-.07-1.11.28-2.14.28-3.21" transform="translate(-0.02 0)"/><path id="Path_2420" data-name="Path 2420" class="cls-3" d="M22,11.1a2.44,2.44,0,0,1-.54-.09L21.19,11c-1.22-.33-1.82-.56-1.93-2.26a8.83,8.83,0,0,1,.14-1.92,9.83,9.83,0,0,0,.14-1.33l0-.17a6.58,6.58,0,0,1,2.87-3.93,1,1,0,0,1,.69-.15,1,1,0,0,1,.62.45,5.38,5.38,0,0,1,.7,3.09,10.71,10.71,0,0,1-1.33,5.62,1.46,1.46,0,0,1-.73.68,1.16,1.16,0,0,1-.42.07M20.85,5.54A11.36,11.36,0,0,1,20.7,7a7.51,7.51,0,0,0-.13,1.64c.06.83.06.83,1,1.07l.24.07.16,0A.24.24,0,0,1,22,9.68a9.64,9.64,0,0,0,1.14-5,4.72,4.72,0,0,0-.32-2.07,5.33,5.33,0,0,0-2,2.89" transform="translate(-0.02 0)"/><path id="Path_2421" data-name="Path 2421" class="cls-5" d="M9.22,29.81a1.26,1.26,0,0,0,.23.94A.92.92,0,0,0,10,31c1.23.28,2.4-.62,3.27-1.54a21.21,21.21,0,0,0,3.55-5c.7-1.38.64-3-.9-3.75-1.29-.66-2.46.34-3.31,1.24a12.35,12.35,0,0,0-3.36,7.9" transform="translate(-0.02 0)"/><path id="Path_2422" data-name="Path 2422" class="cls-3" d="M10.43,31.72a2.46,2.46,0,0,1-.6-.07A1.64,1.64,0,0,1,9,31.2a1.91,1.91,0,0,1-.41-1.42,13,13,0,0,1,3.53-8.32c.6-.64,2.2-2.34,4.08-1.37,1.7.88,2.17,2.69,1.2,4.62a21.61,21.61,0,0,1-3.67,5.21,4.71,4.71,0,0,1-3.29,1.8m-.5-1.41a.62.62,0,0,0,.19.07c.74.17,1.64-.29,2.65-1.35a20.62,20.62,0,0,0,3.44-4.9,2,2,0,0,0-.44-2.76l-.18-.11c-.69-.36-1.45,0-2.53,1.1a11.77,11.77,0,0,0-3.18,7.47c0,.37,0,.45.06.47" transform="translate(-0.02 0)"/><path id="Path_2423" data-name="Path 2423" class="cls-5" d="M17.75.84a1.2,1.2,0,0,0-.89-.15c-.55.19-.63.93-.6,1.51a35.18,35.18,0,0,0,1.58,7.24.9.9,0,0,0,.38.6.88.88,0,0,0,.62,0,1.85,1.85,0,0,0,.92-.45c.58-.65.37-2.09.42-2.9a10.56,10.56,0,0,0,.09-2.1A5.38,5.38,0,0,0,17.75.84" transform="translate(-0.02 0)"/><path id="Path_2424" data-name="Path 2424" class="cls-3" d="M18.46,10.76a1.17,1.17,0,0,1-.52-.12,1.54,1.54,0,0,1-.73-1,35.86,35.86,0,0,1-1.6-7.38c-.08-1.13.3-1.93,1.05-2.18a1.81,1.81,0,0,1,1.4.19,6,6,0,0,1,2.87,4.25,7.59,7.59,0,0,1,0,1.65c0,.19,0,.38,0,.57s0,.4,0,.63A4,4,0,0,1,20.27,10a2.41,2.41,0,0,1-1.24.65,2.63,2.63,0,0,1-.55.09M17.11,1.31h0c-.07,0-.19.3-.15.84a35.24,35.24,0,0,0,1.55,7.11,1.8,1.8,0,0,0,.08.21s.09-.06.12-.07a1.45,1.45,0,0,0,.6-.25,3.36,3.36,0,0,0,.25-1.77c0-.27,0-.52,0-.73s0-.41,0-.62a5.55,5.55,0,0,0,0-1.35,4.71,4.71,0,0,0-2.17-3.25h0a.81.81,0,0,0-.33-.11" transform="translate(-0.02 0)"/><path id="Path_2425" data-name="Path 2425" class="cls-5" d="M5.16,21.79c-.71.55-1.49,1.24-1.48,2.14a.9.9,0,0,0,.33.73,1.18,1.18,0,0,0,.74.14,13.49,13.49,0,0,0,8.15-3.3c.92-.8,2-2.23.47-3.11-.95-.54-2.57.06-3.48.41a19.3,19.3,0,0,0-4.73,3" transform="translate(-0.02 0)"/><path id="Path_2426" data-name="Path 2426" class="cls-3" d="M4.58,25.46a1.66,1.66,0,0,1-1-.26A1.56,1.56,0,0,1,3,23.94a3.65,3.65,0,0,1,1.74-2.67,19.94,19.94,0,0,1,4.9-3.08c1.37-.53,2.93-1,4-.37a2,2,0,0,1,1.09,1.51A3.57,3.57,0,0,1,13.33,22a14,14,0,0,1-8.55,3.45h-.2m7.85-6.62a7.34,7.34,0,0,0-2.3.58,18.73,18.73,0,0,0-4.56,2.89c-.64.5-1.23,1-1.23,1.62a.35.35,0,0,0,0,.2.92.92,0,0,0,.33,0A12.68,12.68,0,0,0,12.47,21a2.48,2.48,0,0,0,1-1.55c0-.06,0-.26-.44-.5a1.31,1.31,0,0,0-.62-.13" transform="translate(-0.02 0)"/><path id="Path_2427" data-name="Path 2427" class="cls-5" d="M15.2,10.8a1.9,1.9,0,0,0,.79.61,1.42,1.42,0,0,0,1.66-1.06,3.68,3.68,0,0,0-.2-2.15c-.46-1.45-.93-2.87-1.27-4.36a3.24,3.24,0,0,0-1.12-2.22c-1-.6-2.47-.57-2.73.69a9.22,9.22,0,0,0,.52,4.29,11.7,11.7,0,0,0,2.35,4.2" transform="translate(-0.02 0)"/><path id="Path_2428" data-name="Path 2428" class="cls-3" d="M16.31,12.12a1.89,1.89,0,0,1-.53-.08,2.59,2.59,0,0,1-1.07-.81A12.46,12.46,0,0,1,12.22,6.8a9.69,9.69,0,0,1-.54-4.62A1.9,1.9,0,0,1,12.82.77a2.85,2.85,0,0,1,2.58.3,3.63,3.63,0,0,1,1.39,2.51c.34,1.48.76,2.78,1.19,4.14l.09.29a4.32,4.32,0,0,1,.21,2.54,2.32,2.32,0,0,1-1.12,1.36,2,2,0,0,1-.85.22M13.76,1.89a1.26,1.26,0,0,0-.43.08.61.61,0,0,0-.36.47,8.48,8.48,0,0,0,.5,4,11.28,11.28,0,0,0,2.22,4h0a1.36,1.36,0,0,0,.5.42.46.46,0,0,0,.36,0,1,1,0,0,0,.46-.57,3.07,3.07,0,0,0-.2-1.77l-.09-.28C16.3,6.78,15.86,5.4,15.53,4c-.19-.84-.34-1.5-.83-1.82a1.88,1.88,0,0,0-.95-.28" transform="translate(-0.02 0)"/><path id="Path_2429" data-name="Path 2429" class="cls-5" d="M25.06,5.5a15.31,15.31,0,0,1,3.27-2.27,1.3,1.3,0,0,1,.9-.22c.44.13.6.7.53,1.16-.18,1.4-1.44,2.34-2.42,3.35A9.7,9.7,0,0,0,25.6,10a8.94,8.94,0,0,1-1,1.74.81.81,0,0,1-.46.33c-.4.09-.73-.32-.89-.7s-.33-.82-.72-.95c-.63-.21,2.19-4.61,2.49-4.9" transform="translate(-0.02 0)"/><path id="Path_2430" data-name="Path 2430" class="cls-3" d="M24.08,12.72a1.6,1.6,0,0,1-1.39-1.1,1.75,1.75,0,0,0-.32-.59.8.8,0,0,1-.52-.58C21.58,9.26,24.46,5.17,24.61,5h0A15.53,15.53,0,0,1,28,2.66a1.83,1.83,0,0,1,1.39-.27,1.63,1.63,0,0,1,1,1.87,5.61,5.61,0,0,1-2.05,3.16c-.19.18-.38.37-.56.56a8.85,8.85,0,0,0-1.62,2.3l-.2.41a6.83,6.83,0,0,1-.84,1.46,1.52,1.52,0,0,1-.82.55l-.25,0M23.19,10a2.4,2.4,0,0,1,.66,1,1.48,1.48,0,0,0,.23.38l.06-.07a5.94,5.94,0,0,0,.66-1.18L25,9.68a10.2,10.2,0,0,1,1.85-2.62c.19-.2.39-.39.59-.59a4.48,4.48,0,0,0,1.65-2.38A.63.63,0,0,0,29,3.64a1.13,1.13,0,0,0-.39.17A14.56,14.56,0,0,0,25.53,6a24.26,24.26,0,0,0-2.34,4" transform="translate(-0.02 0)"/><path id="Path_2431" data-name="Path 2431" class="cls-5" d="M7.08,16.44a7.75,7.75,0,0,0-4.76,2.81,1.09,1.09,0,0,0-.24.48,1,1,0,0,0,.49.93,3,3,0,0,0,2.86.16A23.74,23.74,0,0,0,8,19.37a11.15,11.15,0,0,1,3.17-1.05c.71-.15,1.24-.31,1-1.14-.58-1.75-3.82-1-5.1-.74" transform="translate(-0.02 0)"/><path id="Path_2432" data-name="Path 2432" class="cls-3" d="M4,21.75a3.06,3.06,0,0,1-1.85-.56,1.63,1.63,0,0,1-.75-1.57,1.78,1.78,0,0,1,.36-.76A8.39,8.39,0,0,1,6.94,15.8l.14,0c1.49-.31,5-1,5.71,1.2a1.41,1.41,0,0,1,0,1.22,1.9,1.9,0,0,1-1.4.77,11,11,0,0,0-3,1l-.89.53a11.93,11.93,0,0,1-1.8,1A4.77,4.77,0,0,1,4,21.75m5.88-5a13.82,13.82,0,0,0-2.56.34l-.14,0a7.08,7.08,0,0,0-4.36,2.55.57.57,0,0,0-.13.21.51.51,0,0,0,.23.29,2.37,2.37,0,0,0,2.24.07,9.62,9.62,0,0,0,1.58-.85c.31-.19.63-.39,1-.56a11.75,11.75,0,0,1,3.36-1.11,4.91,4.91,0,0,0,.51-.15,1.27,1.27,0,0,1,0-.15c-.17-.51-.86-.67-1.64-.67" transform="translate(-0.02 0)"/><path id="Path_2433" data-name="Path 2433" class="cls-5" d="M31.46,5.56c.4-.08.9-.09,1.1.26a.92.92,0,0,1-.07.85c-1,2.28-3.69,3.31-5.4,5.15a8.62,8.62,0,0,1-2.16,2.1,2.74,2.74,0,0,1-.26-2.6,13.12,13.12,0,0,1,2.89-3.95,7.52,7.52,0,0,1,3.9-1.81" transform="translate(-0.02 0)"/><path id="Path_2434" data-name="Path 2434" class="cls-3" d="M24.74,14.75l-.33-.43a3.36,3.36,0,0,1-.36-3.23,13.35,13.35,0,0,1,3-4.18,8,8,0,0,1,4.25-2c1.14-.22,1.61.26,1.8.57a1.54,1.54,0,0,1,0,1.46,9.62,9.62,0,0,1-3.39,3.55,15.11,15.11,0,0,0-2.13,1.78c-.17.18-.34.38-.51.58a5.93,5.93,0,0,1-1.84,1.65ZM32,6.13s-.15,0-.39.07h0A6.77,6.77,0,0,0,28,7.82a13.21,13.21,0,0,0-2.75,3.72,2.46,2.46,0,0,0-.1,1.42,8.76,8.76,0,0,0,.88-1c.18-.22.37-.43.56-.64a17.75,17.75,0,0,1,2.3-1.94,8.43,8.43,0,0,0,3-3A.8.8,0,0,0,32,6.13" transform="translate(-0.02 0)"/><path id="Path_2435" data-name="Path 2435" class="cls-5" d="M1.21,15.59c-.41-.37-.74-1-.44-1.45a1.28,1.28,0,0,1,.49-.37,5.07,5.07,0,0,1,2.08-.32,42.25,42.25,0,0,1,9.71,1.07,5.79,5.79,0,0,1-.48,2.09c-.08.16-.19.35-.37.35s-.3-.14-.42-.27c-.73-.75-1.94-.67-3-.53a28.65,28.65,0,0,1-4.13.55c-.52,0-3.47-.27-3.47-1.12" transform="translate(-0.02 0)"/><path id="Path_2436" data-name="Path 2436" class="cls-3" d="M12.19,17.62a1.15,1.15,0,0,1-.85-.44,2.89,2.89,0,0,0-2.44-.37c-.43.06-.87.14-1.31.22a14.92,14.92,0,0,1-2.91.34s-3.59,0-4.07-1.45a1.77,1.77,0,0,1-.38-2.14,1.69,1.69,0,0,1,.75-.6,5.45,5.45,0,0,1,2.36-.38,44.8,44.8,0,0,1,9.86,1.08l.53.13,0,.54a6.29,6.29,0,0,1-.54,2.33,1.06,1.06,0,0,1-.94.74h0M10,15.41a3.12,3.12,0,0,1,2.1.66,4.74,4.74,0,0,0,.27-1,41.87,41.87,0,0,0-9-.94,4.63,4.63,0,0,0-1.81.27.57.57,0,0,0-.21.13c0,.07.05.35.33.6l.21.2v.18a7.8,7.8,0,0,0,2.82.57,15,15,0,0,0,2.67-.31c.46-.09.91-.17,1.37-.23a8.66,8.66,0,0,1,1.25-.1" transform="translate(-0.02 0)"/><path id="Path_2437" data-name="Path 2437" class="cls-5" d="M34.62,8.48c.65,0,1.45.15,1.67.76s-.3,1.23-.84,1.6a19.1,19.1,0,0,1-3.53,1.62,15.49,15.49,0,0,0-3.54,2.07,1.77,1.77,0,0,1-.63.38,1.82,1.82,0,0,1-1.28-.32,1.56,1.56,0,0,1-.8-.76,1.42,1.42,0,0,1,.44-1.29,10.92,10.92,0,0,1,8.51-4.06" transform="translate(-0.02 0)"/><path id="Path_2438" data-name="Path 2438" class="cls-3" d="M27.5,15.6a2.77,2.77,0,0,1-1.34-.44A2.15,2.15,0,0,1,25,14a2.12,2.12,0,0,1,.55-1.92,11.62,11.62,0,0,1,9-4.3A2.19,2.19,0,0,1,36.9,9a2.1,2.1,0,0,1-1.08,2.36,12.76,12.76,0,0,1-2.68,1.3l-1,.38a15,15,0,0,0-3.39,2,2.6,2.6,0,0,1-.87.5,1.84,1.84,0,0,1-.41,0m7.12-6.46h0a10.29,10.29,0,0,0-8,3.81c-.37.45-.35.63-.33.67s.35.3.5.39a1.56,1.56,0,0,0,.79.27A1.47,1.47,0,0,0,28,14a16.69,16.69,0,0,1,3.71-2.19l1-.4a11.1,11.1,0,0,0,2.41-1.15c.4-.28.66-.64.59-.84s-.51-.33-1.05-.32" transform="translate(-0.02 0)"/><path id="Path_2439" data-name="Path 2439" class="cls-5" d="M5.93,11.9a15.18,15.18,0,0,1-1.51-1,2.47,2.47,0,0,1-.85-1,1.1,1.1,0,0,1,.28-1.23,1.68,1.68,0,0,1,1.53,0,46.45,46.45,0,0,1,7.56,3.45c.41.23.88.63.72,1.07a.8.8,0,0,1-.38.41,3.61,3.61,0,0,1-2.48.27,9.05,9.05,0,0,1-2.56-.53c-.8-.38-1.55-1-2.31-1.42" transform="translate(-0.02 0)"/><path id="Path_2440" data-name="Path 2440" class="cls-3" d="M11.79,14.6a6.7,6.7,0,0,1-1.09-.1l-.63-.08A7.3,7.3,0,0,1,8,13.92,14,14,0,0,1,6.42,13c-.28-.19-.55-.37-.82-.53l.33-.56-.34.56A16.65,16.65,0,0,1,4,11.41,3.12,3.12,0,0,1,3,10.09a1.75,1.75,0,0,1,.51-2A2.28,2.28,0,0,1,5.6,8a47.7,47.7,0,0,1,7.66,3.5c.88.49,1.26,1.19,1,1.86a1.49,1.49,0,0,1-.66.76,3.55,3.55,0,0,1-1.83.45M6.27,11.33c.3.18.59.37.88.56a12.09,12.09,0,0,0,1.38.84,5.89,5.89,0,0,0,1.71.38l.67.1a3,3,0,0,0,2-.19l.11-.08s-.16-.11-.43-.27a46.44,46.44,0,0,0-7.46-3.4c-.48-.17-.79-.2-.91-.11a.46.46,0,0,0-.07.48,2,2,0,0,0,.64.75,14.94,14.94,0,0,0,1.45.94l-.34.57Z" transform="translate(-0.02 0)"/><path id="Path_2441" data-name="Path 2441" class="cls-5" d="M36.6,13.55a2.79,2.79,0,0,1,1.12.95,1.31,1.31,0,0,1,0,1.4,1.52,1.52,0,0,1-1,.55c-1.7.33-3.3-.94-5-1.13a4.14,4.14,0,0,0-2.61.61,1.2,1.2,0,0,1-.51.24c-.5.06-.79-.53-.93-1a.88.88,0,0,1,0-.6.92.92,0,0,1,.32-.3,8.75,8.75,0,0,1,8.62-.71" transform="translate(-0.02 0)"/><path id="Path_2442" data-name="Path 2442" class="cls-3" d="M36.18,17.16a7.51,7.51,0,0,1-2.6-.63,7.94,7.94,0,0,0-1.9-.55,3.5,3.5,0,0,0-2.19.51,1.84,1.84,0,0,1-.8.34c-.36,0-1.2,0-1.63-1.47a1.47,1.47,0,0,1,0-1.09,1.35,1.35,0,0,1,.55-.56A9.38,9.38,0,0,1,36.9,13a3.15,3.15,0,0,1,1.38,1.2,2,2,0,0,1,0,2.12,2.21,2.21,0,0,1-1.37.81,4.39,4.39,0,0,1-.72.07m-4.86-2.52a3.91,3.91,0,0,1,.49,0A9,9,0,0,1,34,15.3a5,5,0,0,0,2.6.51,1,1,0,0,0,.56-.28.68.68,0,0,0-.05-.69,1.94,1.94,0,0,0-.85-.7,8.07,8.07,0,0,0-8,.68l-.06,0a.33.33,0,0,1,.05.12,1.16,1.16,0,0,0,.28.55s.06-.07.12-.11a4.82,4.82,0,0,1,2.6-.77" transform="translate(-0.02 0)"/><path id="Path_2443" data-name="Path 2443" class="cls-5" d="M9.72,2.8c-.47-.44-1.2-.86-1.69-.44a1.3,1.3,0,0,0-.31,1A12,12,0,0,0,8.66,8a7,7,0,0,0,1,1.75A9.34,9.34,0,0,0,12,11.52l2.17,1.32,1.12-1a.86.86,0,0,0,.26-.31.74.74,0,0,0-.11-.63c-.43-.7-1.27-1-1.69-1.75S13.27,7.85,13,7.25A15.19,15.19,0,0,0,9.72,2.8" transform="translate(-0.02 0)"/><path id="Path_2444" data-name="Path 2444" class="cls-3" d="M14.22,13.65l-2.58-1.56A9.94,9.94,0,0,1,9.2,10.21,7.11,7.11,0,0,1,8.06,8.3a12.62,12.62,0,0,1-1-4.92A1.88,1.88,0,0,1,7.6,1.87c.66-.57,1.67-.4,2.57.45h0A16,16,0,0,1,13.56,7a7.75,7.75,0,0,1,.35.91,4.91,4.91,0,0,0,.37.92,3.37,3.37,0,0,0,.7.71,4.07,4.07,0,0,1,1,1,1.33,1.33,0,0,1,.16,1.22,1.53,1.53,0,0,1-.43.55ZM8.51,2.84l0,0s-.09.1-.09.52a11.46,11.46,0,0,0,.9,4.4,5.92,5.92,0,0,0,.93,1.57A8.49,8.49,0,0,0,12.32,11L14.07,12l.76-.69.1-.1a6.74,6.74,0,0,0-.78-.73,4.22,4.22,0,0,1-1-1,5.89,5.89,0,0,1-.5-1.19,4.81,4.81,0,0,0-.28-.75A15,15,0,0,0,9.27,3.28a1.5,1.5,0,0,0-.76-.44" transform="translate(-0.02 0)"/><path id="Path_2445" data-name="Path 2445" class="cls-6" d="M23.58,11.55c-.11-.23-.1-.53-.27-.73a1.08,1.08,0,0,0-.44-.22L20.72,10a3.25,3.25,0,0,0-.93-.17,2.82,2.82,0,0,0-1,.24,26.17,26.17,0,0,0-3.35,1.57,1.65,1.65,0,0,0-.78.72c-.06.15-.08.32-.15.46-.28.54-1.13.49-1.49,1s0,1.12-.08,1.7c0,.77-.66,1.64-.15,2.22.24.27.69.38.78.74,0,.2-.05.42,0,.62.07.57.88.69,1.18,1.18a2.74,2.74,0,0,0,.21.42,1,1,0,0,0,.57.31l2,.58a15.73,15.73,0,0,0,3.6.78,5.44,5.44,0,0,0,3.51-.89,3.9,3.9,0,0,0,1.13-1.26,5.23,5.23,0,0,0,.51-1.33,4.74,4.74,0,0,0-.43-4.1,11.19,11.19,0,0,1-.74-1.87c-.32-.7-1.17-.69-1.48-1.32" transform="translate(-0.02 0)"/><path id="Path_2446" data-name="Path 2446" class="cls-3" d="M21.51,23h-.46a16.49,16.49,0,0,1-3.75-.8l-2-.59a1.7,1.7,0,0,1-.9-.53,1.47,1.47,0,0,1-.21-.39,1,1,0,0,0-.4-.37,1.43,1.43,0,0,1-.89-1.62c0-.06-.08-.13-.15-.17a2.12,2.12,0,0,1-.47-.38,2,2,0,0,1-.16-2,3,3,0,0,0,.16-.66,3.89,3.89,0,0,0,0-.49,2,2,0,0,1,.24-1.57,2.1,2.1,0,0,1,1-.67,1.3,1.3,0,0,0,.42-.22.5.5,0,0,0,0-.13,1.8,1.8,0,0,1,.09-.28,2.34,2.34,0,0,1,1.07-1,25.51,25.51,0,0,1,3.43-1.61,3.46,3.46,0,0,1,1.22-.29,3.89,3.89,0,0,1,1.13.2l2.15.63a1.63,1.63,0,0,1,.74.4,1.53,1.53,0,0,1,.33.72.75.75,0,0,0,.05.16h0c.06.12.2.21.44.35a2.21,2.21,0,0,1,1.05,1,6.11,6.11,0,0,1,.3.85,3.44,3.44,0,0,0,.38.93A5.45,5.45,0,0,1,26.88,19a6.22,6.22,0,0,1-.58,1.5A4.85,4.85,0,0,1,25,22a6,6,0,0,1-3.48,1m-1.7-12.54h0a2.36,2.36,0,0,0-.78.2,24.08,24.08,0,0,0-3.25,1.53c-.16.09-.44.25-.5.4a.56.56,0,0,0,0,.12,1.64,1.64,0,0,1-.14.39,1.89,1.89,0,0,1-1.1.84,1.24,1.24,0,0,0-.44.23c-.07.09,0,.37,0,.61a3.64,3.64,0,0,1,0,.74,4.1,4.1,0,0,1-.21,1c-.1.32-.2.67-.11.78a1.37,1.37,0,0,0,.21.15,1.5,1.5,0,0,1,.72.86,1.68,1.68,0,0,1,0,.59c0,.15.18.25.29.33a2.16,2.16,0,0,1,.79.71l.12.25a.47.47,0,0,0,.28.18l2,.59a15.17,15.17,0,0,0,3.45.74,4.69,4.69,0,0,0,3.09-.76,3.25,3.25,0,0,0,.94-1,4.54,4.54,0,0,0,.44-1.16,4.14,4.14,0,0,0-.34-3.58,4.28,4.28,0,0,1-.55-1.28,4.23,4.23,0,0,0-.24-.68c-.07-.16-.23-.26-.5-.41a2.15,2.15,0,0,1-1-.89,1.77,1.77,0,0,1-.15-.46,1.55,1.55,0,0,0,0-.15s-.08,0-.12,0l-2.15-.63a3.06,3.06,0,0,0-.73-.15" transform="translate(-0.02 0)"/><path id="Path_2447" data-name="Path 2447" class="cls-6" d="M28.47,51.93c.84.48,1.68-1.09,2.62-.84.5.13.71.72.86,1.23s.43,1.08.95,1.12.75-.3,1.08-.56.84-.43,1.13-.13a1,1,0,0,1,.19.41,3.56,3.56,0,0,0,.4,1.23.81.81,0,0,0,1.11.3c.22-.17.37-.52.65-.46a.54.54,0,0,1,.3.24l.89,1.2a1.59,1.59,0,0,0,.61.57A.53.53,0,0,0,40,56c.11-.31-.15-.77.14-.94a2,2,0,0,1,.79.53c.26.2.65.32.88.09s.15-.6.37-.81a.83.83,0,0,1,.72-.06,2.24,2.24,0,0,0,1.55-.15,1,1,0,0,0,.42-1.36c-.41-.62-1.54-.47-1.81-1.16a14.52,14.52,0,0,0,1.85-.29c.29-.07.64-.25.58-.53s-.22-.28-.38-.35l-2.54-1.19c.09-.5,1-.21,1.33-.58a.65.65,0,0,0-.1-.86,3.41,3.41,0,0,0-.81-.5c-1.65-.94-1.92-3.24-3.28-4.56a7,7,0,0,0-4.1-1.51c-1.72-.23-3.7-.34-4.94.88S29.47,46,29,47.62c-.27.92-1.66,3.66-.5,4.31" transform="translate(-0.02 0)"/><path id="Path_2448" data-name="Path 2448" class="cls-3" d="M39.49,57a1.44,1.44,0,0,1-.5-.1,2.23,2.23,0,0,1-.88-.79l-.74-1-.15.15a1.29,1.29,0,0,1-1,.24,1.66,1.66,0,0,1-1.08-.7,3.16,3.16,0,0,1-.43-1.19l-.06-.25a.41.41,0,0,0,0-.1s-.12.09-.25.18l-.13.11a2,2,0,0,1-1.39.59c-.5,0-1.17-.34-1.54-1.59-.05-.18-.22-.74-.4-.78s-.48.18-.74.37a1.85,1.85,0,0,1-2,.41c-1.43-.81-.59-3,0-4.42.1-.27.19-.49.24-.66a14.78,14.78,0,0,0,.32-1.5,6.48,6.48,0,0,1,1.51-3.74c1.41-1.4,3.56-1.33,5.48-1.06a7.6,7.6,0,0,1,4.48,1.69,8.28,8.28,0,0,1,1.48,2.25,4.89,4.89,0,0,0,1.66,2.2l.21.12a2.52,2.52,0,0,1,.75.5,1.31,1.31,0,0,1,.1,1.77l-.19.16,1.2.56a1.24,1.24,0,0,1,.75.81c.12.6-.31,1.13-1.08,1.3l-.08,0a1.64,1.64,0,0,1,.44.43,1.51,1.51,0,0,1,.2,1.15,1.82,1.82,0,0,1-.83,1.14,2.75,2.75,0,0,1-2,.23l-.15,0v0a1.37,1.37,0,0,1-.35.7,1.26,1.26,0,0,1-1.63,0l0,0a1.07,1.07,0,0,1-.58.62,1.13,1.13,0,0,1-.51.1m-2.1-3.38.19,0a1.17,1.17,0,0,1,.7.49l.89,1.21.14.18a1,1,0,0,1,.46-1l.21-.12.24,0a2,2,0,0,1,.92.52l.16.14h0a1.4,1.4,0,0,1,.39-.7A1.42,1.42,0,0,1,43,54.16a1.57,1.57,0,0,0,1.09-.07.49.49,0,0,0,.22-.3c-.08-.23-.34-.32-.57-.4a1.89,1.89,0,0,1-1.32-1l-.33-.82.88-.08c.43,0,.86-.1,1.28-.18L41.8,50.17l.09-.5c.13-.76.86-.85,1.21-.9h.13a1.33,1.33,0,0,0-.34-.22l-.27-.14a5.94,5.94,0,0,1-2.17-2.75,7,7,0,0,0-1.23-1.9,6.57,6.57,0,0,0-3.74-1.34c-1.6-.21-3.37-.3-4.38.7a5.41,5.41,0,0,0-1.14,3,15.28,15.28,0,0,1-.35,1.66c-.06.19-.16.45-.28.75-.65,1.7-.83,2.64-.53,2.81h0a2,2,0,0,0,.61-.34,2.14,2.14,0,0,1,1.83-.57c.9.24,1.18,1.17,1.33,1.68s.31.65.37.65.32-.17.47-.29l.16-.13a1.48,1.48,0,0,1,2-.07,1.45,1.45,0,0,1,.35.7l.07.3a2,2,0,0,0,.23.72.3.3,0,0,0,.21.14h0s0,0,.06-.09a1.21,1.21,0,0,1,.89-.5" transform="translate(-0.02 0)"/><path id="Path_2449" data-name="Path 2449" class="cls-5" d="M29.32,43.24a9.13,9.13,0,0,0,.7,1.82l1.73,3.63a2.75,2.75,0,0,0,.81,1.16A1.84,1.84,0,0,0,35,49.33a3.77,3.77,0,0,0,.63-2.57,15,15,0,0,0-2.43-6.63,1.86,1.86,0,0,0-.62-.74c-.67-.41-2.53-.43-3.05.28s-.35,2.68-.16,3.57" transform="translate(-0.02 0)"/><path id="Path_2450" data-name="Path 2450" class="cls-3" d="M33.38,50.76a2.11,2.11,0,0,1-1.21-.38,3.58,3.58,0,0,1-1-1.41l-1.72-3.63a9.82,9.82,0,0,1-.75-2c-.15-.68-.57-3,.27-4.1s3-1,3.93-.46a2.64,2.64,0,0,1,.83,1,15.64,15.64,0,0,1,2.53,6.94,4.38,4.38,0,0,1-.78,3,2.76,2.76,0,0,1-2.08,1M30,43.1a8,8,0,0,0,.65,1.68l1.72,3.62a2.37,2.37,0,0,0,.6.91,1.21,1.21,0,0,0,1.5-.39,3.14,3.14,0,0,0,.49-2.13,14.49,14.49,0,0,0-2.35-6.34,1.48,1.48,0,0,0-.39-.51,2.56,2.56,0,0,0-2.18.11,5.12,5.12,0,0,0,0,3.05" transform="translate(-0.02 0)"/><path id="Path_2451" data-name="Path 2451" class="cls-5" d="M28.32,48.69c-.34.74-.84,1.57-1.65,1.65A1.85,1.85,0,0,1,25,49a5.37,5.37,0,0,1,0-3.27c.28-1.07.73-2.1,1-3.16a11.21,11.21,0,0,0,.4-2.43c0-.38.1-.87.47-1a.92.92,0,0,1,.33,0l1.42.15a1,1,0,0,1,.53.16c.32.27.16.77.05,1.17a4.63,4.63,0,0,0,0,2.22,11.34,11.34,0,0,1,.61,2.06c0,1.15-1,2.72-1.47,3.75" transform="translate(-0.02 0)"/><path id="Path_2452" data-name="Path 2452" class="cls-3" d="M26.56,51a2.54,2.54,0,0,1-2.2-1.74,6,6,0,0,1-.05-3.68c.15-.58.35-1.15.55-1.72s.34-1,.48-1.45a10.34,10.34,0,0,0,.38-2.29c.05-.87.37-1.4.94-1.56a1.42,1.42,0,0,1,.58,0l1.42.15a1.49,1.49,0,0,1,.89.32,1.65,1.65,0,0,1,.27,1.8,3.94,3.94,0,0,0,0,1.93,4.49,4.49,0,0,0,.25.73,4.38,4.38,0,0,1,.38,1.46,7.41,7.41,0,0,1-1.14,3.25c-.14.29-.28.56-.4.8-.24.52-.87,1.9-2.18,2h-.18m.55-11.18s-.05.11-.07.38a12.44,12.44,0,0,1-.42,2.56c-.15.52-.33,1-.5,1.54s-.38,1.07-.52,1.61a4.54,4.54,0,0,0,0,2.87c.18.46.62.94,1,.9s.74-.45,1.11-1.26h0c.12-.26.27-.55.43-.85a6.89,6.89,0,0,0,1-2.62,3.53,3.53,0,0,0-.28-1,6.22,6.22,0,0,1-.31-.92,5.16,5.16,0,0,1,0-2.53,2.44,2.44,0,0,0,.12-.52.18.18,0,0,1-.13,0l-1.42-.15h0" transform="translate(-0.02 0)"/><path id="Path_2453" data-name="Path 2453" class="cls-5" d="M22.08,47.33a2.35,2.35,0,0,1-2.38-1.24,2.86,2.86,0,0,1-.19-1A4.87,4.87,0,0,1,20,42.54a6.58,6.58,0,0,1,1.35-1.62l3.19-3.09a2,2,0,0,0,1.57.93.37.37,0,0,1,.28.09.35.35,0,0,1,0,.25l-.2,2.21c-.25,2.67-.89,5.73-4.1,6" transform="translate(-0.02 0)"/><path id="Path_2454" data-name="Path 2454" class="cls-3" d="M21.83,48a2.94,2.94,0,0,1-2.74-1.65,3.63,3.63,0,0,1-.24-1.22,5.47,5.47,0,0,1,.53-2.9,7,7,0,0,1,1.48-1.78l3.76-3.65.44.69a1.36,1.36,0,0,0,1.05.62.9.9,0,0,1,.95.83.86.86,0,0,1,0,.23l-.2,2.21c-.17,1.86-.58,6.23-4.7,6.61h-.31m2.63-9.22-2.69,2.61a6.31,6.31,0,0,0-1.23,1.45,4.34,4.34,0,0,0-.38,2.22,2.62,2.62,0,0,0,.14.78,1.71,1.71,0,0,0,1.72.83c2.67-.24,3.27-2.75,3.51-5.42l.17-1.88a2.71,2.71,0,0,1-1.23-.59" transform="translate(-0.02 0)"/><path id="Path_2455" data-name="Path 2455" class="cls-5" d="M19.47,38.52a12.08,12.08,0,0,0-3.13,3.4c-.24.44-.39,1.08,0,1.38a1,1,0,0,0,.63.15,3.11,3.11,0,0,0,1.43-.38,6.71,6.71,0,0,0,1.25-.94l3.62-3.22,1.22-1.09a.81.81,0,0,0,.33-.5c0-.67-1.68-1.43-2.2-1.21a15.88,15.88,0,0,0-3.17,2.41" transform="translate(-0.02 0)"/><path id="Path_2456" data-name="Path 2456" class="cls-3" d="M16.91,44.11a1.64,1.64,0,0,1-1-.28,1.69,1.69,0,0,1-.19-2.23A12.94,12.94,0,0,1,19.05,38c.24-.19.49-.41.75-.64a10.33,10.33,0,0,1,2.57-1.87,2.91,2.91,0,0,1,2.33.57,1.48,1.48,0,0,1,.78,1.28,1.38,1.38,0,0,1-.54.95L20.1,42.62a7.75,7.75,0,0,1-1.38,1A4,4,0,0,1,17,44.1h-.09m-.14-1.32H17a2.8,2.8,0,0,0,1.14-.3,5.92,5.92,0,0,0,1.13-.86l4.83-4.3.06,0a2.36,2.36,0,0,0-1.28-.56,9.9,9.9,0,0,0-2.17,1.62l-.79.69a11.76,11.76,0,0,0-3,3.2,1.09,1.09,0,0,0-.15.56h0" transform="translate(-0.02 0)"/><path id="Path_2457" data-name="Path 2457" class="cls-5" d="M15.25,39.93a2,2,0,0,1-1.41-1.14,1.56,1.56,0,0,1,.29-1.35,3.88,3.88,0,0,1,1.08-.94,18,18,0,0,1,5.1-2.28,3.73,3.73,0,0,1,1.87-.15,1.53,1.53,0,0,1,1.23,1.28.62.62,0,0,1-.13.44A1,1,0,0,1,23,36a15.54,15.54,0,0,0-4.18,2.8c-1.06,1-2,1.65-3.57,1.16" transform="translate(-0.02 0)"/><path id="Path_2458" data-name="Path 2458" class="cls-3" d="M16.25,40.76a4,4,0,0,1-1.19-.2A2.58,2.58,0,0,1,13.21,39a2.22,2.22,0,0,1,.39-1.94A4.69,4.69,0,0,1,14.85,36a18.47,18.47,0,0,1,5.29-2.36,4.33,4.33,0,0,1,2.2-.16,2.16,2.16,0,0,1,1.72,1.88,1.26,1.26,0,0,1-.3.93,1.51,1.51,0,0,1-.49.33,14.8,14.8,0,0,0-4,2.69,4.44,4.44,0,0,1-3,1.5m-.8-1.45c1.17.37,1.87,0,2.92-1a16.47,16.47,0,0,1,4.35-2.93c0-.31-.35-.58-.69-.66a3.27,3.27,0,0,0-1.55.14,17.08,17.08,0,0,0-4.91,2.2,3.25,3.25,0,0,0-.91.78.93.93,0,0,0-.2.77c.13.4.73.63,1,.71" transform="translate(-0.02 0)"/><path id="Path_2459" data-name="Path 2459" class="cls-5" d="M38.58,44.15a7.51,7.51,0,0,0,2.8,1.72,2.55,2.55,0,0,0,1,.08,2.24,2.24,0,0,0,1.71-1.7,3.4,3.4,0,0,0-.47-2.45,7.48,7.48,0,0,0-1.72-1.87,18.77,18.77,0,0,0-5.53-3.16c-.62-.23-1.45-.37-1.83.17-.12.17-.17.38-.28.55-.34.53-1.53.67-1.62,1.35s1.15,1.27,1.54,1.6l4.41,3.71" transform="translate(-0.02 0)"/><path id="Path_2460" data-name="Path 2460" class="cls-3" d="M42.07,46.62a3.41,3.41,0,0,1-.85-.11,8,8,0,0,1-3.06-1.86l-4.41-3.71c-.08-.07-.2-.15-.33-.24-.65-.46-1.55-1.09-1.44-2s.74-1.06,1.21-1.31a1.8,1.8,0,0,0,.5-.3.65.65,0,0,0,.08-.17,2.38,2.38,0,0,1,.23-.41c.48-.69,1.43-.83,2.6-.41a19.61,19.61,0,0,1,5.7,3.27,8.07,8.07,0,0,1,1.87,2,4,4,0,0,1,.54,2.94,2.87,2.87,0,0,1-2.25,2.2,2.6,2.6,0,0,1-.4,0m-6.69-9.4a.36.36,0,0,0-.31.1.7.7,0,0,0-.09.17,2.69,2.69,0,0,1-.17.34,2.34,2.34,0,0,1-1,.78,2,2,0,0,0-.52.32,7.65,7.65,0,0,0,.9.69,5.15,5.15,0,0,1,.42.31L39,43.64a7.11,7.11,0,0,0,2.54,1.6,1.8,1.8,0,0,0,.73.06,1.58,1.58,0,0,0,1.17-1.2,2.74,2.74,0,0,0-.4-2,6.86,6.86,0,0,0-1.57-1.7,18.49,18.49,0,0,0-5.33-3,2.25,2.25,0,0,0-.76-.16" transform="translate(-0.02 0)"/><path id="Path_2461" data-name="Path 2461" class="cls-5" d="M14.66,30.45a3.78,3.78,0,0,1-1.54-1.29A1.14,1.14,0,0,1,13,28a1.4,1.4,0,0,1,1-.47,6.78,6.78,0,0,1,3.29,0,8.37,8.37,0,0,1,1.84.87,15.33,15.33,0,0,1,3.24,1.91c.8.79,0,1.43-.86,1.61-2.07.43-5-.49-6.83-1.44" transform="translate(-0.02 0)"/><path id="Path_2462" data-name="Path 2462" class="cls-3" d="M20.34,32.65a14,14,0,0,1-6-1.62,4.49,4.49,0,0,1-1.79-1.53,1.75,1.75,0,0,1-.07-1.9,2,2,0,0,1,1.37-.75,7.69,7.69,0,0,1,3.6,0,9.17,9.17,0,0,1,2,.93c.3.17.63.33,1,.5a9.15,9.15,0,0,1,2.4,1.5,1.45,1.45,0,0,1,.48,1.47,2.08,2.08,0,0,1-1.66,1.25,6.14,6.14,0,0,1-1.29.13M15.79,28a8.72,8.72,0,0,0-1.68.18,1,1,0,0,0-.53.2.55.55,0,0,0,.11.48A3.18,3.18,0,0,0,15,29.86h0c1.78.93,4.54,1.76,6.4,1.37A1.13,1.13,0,0,0,22,30.9a1.15,1.15,0,0,0-.14-.17,8.63,8.63,0,0,0-2.05-1.26c-.37-.18-.73-.36-1.05-.54a8,8,0,0,0-1.7-.81,4.74,4.74,0,0,0-1.3-.18" transform="translate(-0.02 0)"/><path id="Path_2463" data-name="Path 2463" class="cls-5" d="M37.13,47.88a2.53,2.53,0,0,0,2.15.43,1.07,1.07,0,0,0,.44-.25,1.18,1.18,0,0,0,.28-.5,3.39,3.39,0,0,0-.67-2.94,10.18,10.18,0,0,0-2.34-2l-3.36-2.38c-.12,1.39.95,2.57,1.42,3.88.25.68.2,1.48.49,2.12a4.69,4.69,0,0,0,1.59,1.69" transform="translate(-0.02 0)"/><path id="Path_2464" data-name="Path 2464" class="cls-3" d="M38.67,49.06a3.54,3.54,0,0,1-1.91-.63,5.6,5.6,0,0,1-1.82-2,4.55,4.55,0,0,1-.32-1.32,5.08,5.08,0,0,0-.19-.86,8.9,8.9,0,0,0-.57-1.21A5.34,5.34,0,0,1,33,40.14l.1-1.15,4.3,3a10.62,10.62,0,0,1,2.48,2.2,4,4,0,0,1,.77,3.53,1.66,1.66,0,0,1-.43.76,1.72,1.72,0,0,1-.71.42,2.72,2.72,0,0,1-.8.12M37.5,47.34a1.91,1.91,0,0,0,1.58.35.44.44,0,0,0,.19-.1.55.55,0,0,0,.1-.22A2.7,2.7,0,0,0,38.8,45a9.54,9.54,0,0,0-2.19-1.92l-2-1.4c.11.25.25.5.38.76a11.64,11.64,0,0,1,.66,1.38A5.46,5.46,0,0,1,35.91,45a4,4,0,0,0,.23,1,4.11,4.11,0,0,0,1.36,1.42" transform="translate(-0.02 0)"/><path id="Path_2465" data-name="Path 2465" class="cls-5" d="M13.59,32.62c-.64.36-1.3,1-1.12,1.72a1.63,1.63,0,0,0,1.41,1c2.43.42,4.81-1.11,7.27-1.09.59,0,1.34,0,1.54-.56a1.27,1.27,0,0,0-.33-1.1,1.57,1.57,0,0,0-.71-.66,1.55,1.55,0,0,0-.71,0A8.1,8.1,0,0,1,19.1,32c-.57-.05-1.08-.31-1.65-.35a7.16,7.16,0,0,0-3.86,1" transform="translate(-0.02 0)"/><path id="Path_2466" data-name="Path 2466" class="cls-3" d="M14.75,36.06a6.37,6.37,0,0,1-1-.08,2.2,2.2,0,0,1-1.93-1.47,2.33,2.33,0,0,1,1.43-2.46A7.68,7.68,0,0,1,17.5,31a4.74,4.74,0,0,1,1,.2,3.84,3.84,0,0,0,.69.15,7.26,7.26,0,0,0,1.68-.08,2.25,2.25,0,0,1,1,0,2.17,2.17,0,0,1,1,.91,1.94,1.94,0,0,1,.41,1.7c-.36,1-1.59,1-2.16,1h0a11.19,11.19,0,0,0-3,.57,13,13,0,0,1-3.32.6m-.84-2.88c-.44.26-.88.68-.8,1s.49.44.88.51a8.77,8.77,0,0,0,3.73-.49,12.51,12.51,0,0,1,3.38-.61h.14c.6,0,.79-.06.83-.12s0-.11-.25-.51c-.1-.14-.26-.38-.38-.42a1.41,1.41,0,0,0-.41,0,8.85,8.85,0,0,1-2,.08,5.57,5.57,0,0,1-.92-.2,3.72,3.72,0,0,0-.72-.16,6.58,6.58,0,0,0-3.49.91" transform="translate(-0.02 0)"/><path id="Path_2467" data-name="Path 2467" class="cls-5" d="M38.93,37.67a9.11,9.11,0,0,0,2,1.26,5.87,5.87,0,0,0,1.77.25,3.21,3.21,0,0,0,2.06-.37c.17-.15.36-.28.54-.41.6-.32,1.43,0,1.94-.49a1.09,1.09,0,0,0,.22-1.18,2.21,2.21,0,0,0-.83-1,7.24,7.24,0,0,0-3-1.16,26.57,26.57,0,0,0-3.22-.29l-4.42-.22a.57.57,0,0,0-.29,0c-.5.29-.22,1.9.21,2.19a9.34,9.34,0,0,0,1.55.5,7.6,7.6,0,0,1,1.53.84" transform="translate(-0.02 0)"/><path id="Path_2468" data-name="Path 2468" class="cls-3" d="M43.17,39.85h-.52a6.17,6.17,0,0,1-2-.29,6.4,6.4,0,0,1-1.65-1c-.16-.12-.32-.24-.49-.35l0,0a6.88,6.88,0,0,0-1.39-.75,4.61,4.61,0,0,0-.53-.15,3.08,3.08,0,0,1-1.13-.41,2.66,2.66,0,0,1-.76-2.07,1.35,1.35,0,0,1,.59-1.23,1.06,1.06,0,0,1,.65-.13l4.42.21a30.19,30.19,0,0,1,3.3.3A7.94,7.94,0,0,1,47,35.24a2.78,2.78,0,0,1,1,1.25,1.71,1.71,0,0,1-.4,1.91,2.16,2.16,0,0,1-1.42.46,1.9,1.9,0,0,0-.63.11,2,2,0,0,0-.23.18l-.25.2a3.27,3.27,0,0,1-1.95.51m-3.86-2.72.51.37a5.35,5.35,0,0,0,1.31.8,5.56,5.56,0,0,0,1.57.22,2.72,2.72,0,0,0,1.66-.26l.16-.13a2.2,2.2,0,0,1,1.62-.59,1.19,1.19,0,0,0,.64-.13.46.46,0,0,0,0-.45,1.62,1.62,0,0,0-.6-.67,6.64,6.64,0,0,0-2.77-1A27.56,27.56,0,0,0,40.33,35L36,34.76a2.62,2.62,0,0,0,.29,1.06,2.72,2.72,0,0,0,.65.19,6.29,6.29,0,0,1,.74.22,7.67,7.67,0,0,1,1.66.91" transform="translate(-0.02 0)"/><path id="Path_2469" data-name="Path 2469" class="cls-5" d="M19.46,26.89c-1.11-.79-2.1-1.74-3.18-2.57-.6-.45-1.3-1.06-1.1-1.78s.93-.88,1.58-.89c2.09,0,3.92,1.33,5.53,2.68a5.46,5.46,0,0,1,2.17,2.93.41.41,0,0,1,0,.22.42.42,0,0,1-.18.17c-.9.56-1.23.85-2.31.53a7.73,7.73,0,0,1-2.5-1.29" transform="translate(-0.02 0)"/><path id="Path_2470" data-name="Path 2470" class="cls-3" d="M22.73,29a3.51,3.51,0,0,1-1-.16,8.27,8.27,0,0,1-2.7-1.4c-.64-.45-1.23-1-1.8-1.44s-.91-.77-1.39-1.13-1.66-1.26-1.34-2.47A2.15,2.15,0,0,1,16.75,21c2.38,0,4.3,1.45,6,2.83a6,6,0,0,1,2.39,3.31,1,1,0,0,1-.05.61,1.19,1.19,0,0,1-.43.46l-.19.11a3,3,0,0,1-1.7.65m-5.92-6.66h0c-.42,0-.9.14-1,.4s.63.9.87,1.09c.49.37,1,.77,1.44,1.17s1.13,1,1.73,1.38l0,0a7,7,0,0,0,2.28,1.18c.71.21.85.12,1.58-.34l0,0a5.24,5.24,0,0,0-1.9-2.36c-1.46-1.23-3.17-2.53-5.05-2.53" transform="translate(-0.02 0)"/><path id="Path_2471" data-name="Path 2471" class="cls-5" d="M45,35.41A1.61,1.61,0,0,0,46.07,35a1.05,1.05,0,0,0,.1-1.08,2.12,2.12,0,0,0-.76-.84,6.38,6.38,0,0,0-2.57-.9,18.54,18.54,0,0,0-6.56.09.53.53,0,0,0-.35.17.52.52,0,0,0-.07.21c-.1.56-.53,1.68-.06,2.16s2.15.59,2.86.69a21.45,21.45,0,0,0,6.35,0" transform="translate(-0.02 0)"/><path id="Path_2472" data-name="Path 2472" class="cls-3" d="M41.71,36.33a23.56,23.56,0,0,1-3.14-.22l-.49-.06a4.56,4.56,0,0,1-2.76-.83c-.62-.64-.37-1.64-.19-2.36,0-.14.07-.27.09-.37a1,1,0,0,1,.94-.91A18.9,18.9,0,0,1,43,31.49a7.17,7.17,0,0,1,2.83,1,2.65,2.65,0,0,1,1,1.11,1.72,1.72,0,0,1-.19,1.77,2.21,2.21,0,0,1-1.47.69,21.46,21.46,0,0,1-3.4.27m-5.23-3.48a3,3,0,0,1-.07.32c-.07.27-.24,1-.13,1.14a5,5,0,0,0,1.94.43l.54.06a20.78,20.78,0,0,0,6.15,0h0a1.3,1.3,0,0,0,.66-.22.49.49,0,0,0,0-.41,1.58,1.58,0,0,0-.53-.56,6,6,0,0,0-2.32-.79,17.5,17.5,0,0,0-6.25.07" transform="translate(-0.02 0)"/><path id="Path_2473" data-name="Path 2473" class="cls-5" d="M14.56,24.2a1.32,1.32,0,0,0-.7.14,1.13,1.13,0,0,0-.24,1.48A2.76,2.76,0,0,0,15.22,27c.64.22,1.31.31,2,.52,1.9.63,3.38,2.23,5.31,2.79l.69-1.2a.57.57,0,0,0,.11-.42c-.05-.17-.24-.25-.4-.31A16.07,16.07,0,0,1,18.53,26a6.59,6.59,0,0,0-4-1.8" transform="translate(-0.02 0)"/><path id="Path_2474" data-name="Path 2474" class="cls-3" d="M22.8,31.08l-.49-.14a11.31,11.31,0,0,1-2.91-1.5A10.87,10.87,0,0,0,17,28.14c-.3-.1-.6-.17-.9-.24A10,10,0,0,1,15,27.61a3.42,3.42,0,0,1-2-1.48,1.78,1.78,0,0,1,.48-2.36,2,2,0,0,1,1-.23,7.1,7.1,0,0,1,4.37,1.94,15.29,15.29,0,0,0,4.18,2.28A1.05,1.05,0,0,1,24,29a1,1,0,0,1-.19.43Zm-8.27-6.23a.91.91,0,0,0-.33,0c-.1.06-.13.36,0,.6a2.13,2.13,0,0,0,1.23.87c.31.1.62.18.94.25s.68.16,1,.27a11.72,11.72,0,0,1,2.73,1.45,12.48,12.48,0,0,0,2.08,1.17l.33-.57a17,17,0,0,1-4.39-2.42,6,6,0,0,0-3.57-1.67Z" transform="translate(-0.02 0)"/><path id="Path_2475" data-name="Path 2475" class="cls-5" d="M40.49,31.87a10,10,0,0,0,1.72-.12,9.05,9.05,0,0,0,2.31-.86c.56-.27,1.11-.56,1.66-.86a3.73,3.73,0,0,0,1.44-1.17,1.37,1.37,0,0,0-.12-1.72,1.65,1.65,0,0,0-.93-.34c-2.21-.24-4.26,1.06-6.39,1.7a33.48,33.48,0,0,1-4.09.77c-1.07.18-.5,2.13.24,2.49,1.1.53,3,.13,4.16.1" transform="translate(-0.02 0)"/><path id="Path_2476" data-name="Path 2476" class="cls-3" d="M37.89,32.69a4.15,4.15,0,0,1-1.84-.33,2.65,2.65,0,0,1-1.19-2.54A1.35,1.35,0,0,1,36,28.62l1.08-.17A19.47,19.47,0,0,0,40,27.87a19.32,19.32,0,0,0,1.87-.68,9.88,9.88,0,0,1,4.78-1,2.29,2.29,0,0,1,1.3.49,2,2,0,0,1,.24,2.56,4.22,4.22,0,0,1-1.68,1.4c-.55.31-1.12.6-1.69.88a9.53,9.53,0,0,1-2.47.91,11.4,11.4,0,0,1-1.84.14,10.26,10.26,0,0,0-1,.07c-.5,0-1,.1-1.57.1M46,27.43a10.41,10.41,0,0,0-3.68,1c-.64.26-1.3.52-2,.73a23.44,23.44,0,0,1-3.11.62l-1.06.16a.8.8,0,0,0,0,.53,1.38,1.38,0,0,0,.42.73,6.25,6.25,0,0,0,2.72.12c.41,0,.8-.07,1.14-.08h0a9.61,9.61,0,0,0,1.61-.11,8.7,8.7,0,0,0,2.15-.8c.55-.27,1.09-.55,1.63-.85a3.27,3.27,0,0,0,1.2-.95.75.75,0,0,0,0-.88,1.16,1.16,0,0,0-.57-.18l-.48,0" transform="translate(-0.02 0)"/><path id="Path_2477" data-name="Path 2477" class="cls-5" d="M19.81,19.44a.71.71,0,0,1,.05-.41.55.55,0,0,1,.54-.23c.21,0,.4.1.61.12.59.08,1.22-.27,1.77,0a1.55,1.55,0,0,1,.62.57,9.24,9.24,0,0,1,1,1.91,17.13,17.13,0,0,1,1.14,3.69,1.27,1.27,0,0,1-.24,1.23,1,1,0,0,1-1.07,0,3.66,3.66,0,0,1-.8-.82C22.7,24.58,21.76,24,21.14,23a7.61,7.61,0,0,1-1.33-3.6" transform="translate(-0.02 0)"/><path id="Path_2478" data-name="Path 2478" class="cls-3" d="M24.77,27.1a1.8,1.8,0,0,1-.93-.27A3.64,3.64,0,0,1,23,26l-.08-.1a7.49,7.49,0,0,0-1-1,9.3,9.3,0,0,1-1.33-1.47,8.32,8.32,0,0,1-1.43-3.9,1.27,1.27,0,0,1,.13-.79,1.18,1.18,0,0,1,1.17-.56,3,3,0,0,1,.43.09l.2,0a2.16,2.16,0,0,0,.57-.05,2.37,2.37,0,0,1,1.37.05,2.13,2.13,0,0,1,.91.8,9.69,9.69,0,0,1,1,2A18.53,18.53,0,0,1,26.15,25a1.9,1.9,0,0,1-.47,1.83,1.44,1.44,0,0,1-.91.32m-4.3-7.62a7.07,7.07,0,0,0,1.21,3.19,7.88,7.88,0,0,0,1.14,1.24A11.64,11.64,0,0,1,23.91,25l.08.11a2.39,2.39,0,0,0,.54.56.38.38,0,0,0,.31.07s.1-.1,0-.62a17,17,0,0,0-1.11-3.55,8.46,8.46,0,0,0-.89-1.78,1,1,0,0,0-.34-.35,1.23,1.23,0,0,0-.63,0,3.15,3.15,0,0,1-1,.06l-.36-.08-.09,0" transform="translate(-0.02 0)"/><path id="Path_2479" data-name="Path 2479" class="cls-5" d="M45.52,24.39a1.66,1.66,0,0,0-1.38-.78,6.09,6.09,0,0,0-3.3.7A24.13,24.13,0,0,0,38,26.14c-1.18.81-2.39,1.57-3.64,2.27a1.33,1.33,0,0,0,1.07.72A3.72,3.72,0,0,0,36.72,29a50.37,50.37,0,0,0,6.42-1.65c1-.37,3-1.63,2.38-3" transform="translate(-0.02 0)"/><path id="Path_2480" data-name="Path 2480" class="cls-3" d="M35.7,29.8a2.69,2.69,0,0,1-.4,0,2,2,0,0,1-1.58-1.1l-.24-.54.52-.29c1.22-.69,2.43-1.44,3.6-2.24l.44-.31a19.28,19.28,0,0,1,2.52-1.57A6.64,6.64,0,0,1,44.22,23a2.31,2.31,0,0,1,1.9,1.14,1.85,1.85,0,0,1,0,1.56A5.05,5.05,0,0,1,43.37,28a45,45,0,0,1-5.86,1.53l-.65.14a5.07,5.07,0,0,1-1.16.16m-.19-1.32a3.26,3.26,0,0,0,1.08-.12l.65-.14a44.77,44.77,0,0,0,5.68-1.49,3.92,3.92,0,0,0,2-1.56.58.58,0,0,0,0-.5,1.15,1.15,0,0,0-.87-.41,5.32,5.32,0,0,0-2.93.64,18.83,18.83,0,0,0-2.35,1.46l-.45.31c-.92.64-1.87,1.24-2.83,1.8" transform="translate(-0.02 0)"/><path id="Path_2481" data-name="Path 2481" class="cls-5" d="M22.35,15.09a4.55,4.55,0,0,1,2.83,2.44,13.58,13.58,0,0,1,1.1,3.68c.22,1.11.43,2.22.65,3.33a2.19,2.19,0,0,1,0,1.08.75.75,0,0,1-.82.54c-.32-.08-.48-.41-.61-.71a15.37,15.37,0,0,1-1.05-2.94,6.6,6.6,0,0,0-.89-2.87,6.64,6.64,0,0,0-1.79-1.32c-1.22-.82-1.58-3.73.55-3.23" transform="translate(-0.02 0)"/><path id="Path_2482" data-name="Path 2482" class="cls-3" d="M26.27,26.84a1.54,1.54,0,0,1-.3,0,1.69,1.69,0,0,1-1-1.09,16.64,16.64,0,0,1-1.09-3.06c-.05-.23-.09-.47-.13-.7A4.16,4.16,0,0,0,23.08,20,3.51,3.51,0,0,0,22,19.22c-.19-.11-.39-.22-.58-.35a3.16,3.16,0,0,1-1.09-3.52,1.74,1.74,0,0,1,2.16-.9,5.22,5.22,0,0,1,3.26,2.78,14,14,0,0,1,1.16,3.86l.65,3.33a2.88,2.88,0,0,1,0,1.4,1.46,1.46,0,0,1-1.31,1M21.9,15.69c-.26,0-.32.13-.35.2a1.92,1.92,0,0,0,.62,1.89c.17.12.35.22.52.32a4.61,4.61,0,0,1,1.42,1.14,5.32,5.32,0,0,1,.9,2.5c0,.22.07.43.11.65a15.57,15.57,0,0,0,1,2.8,1.32,1.32,0,0,0,.18.33.54.54,0,0,1,0-.1,1.69,1.69,0,0,0,0-.74l-.65-3.33a12.75,12.75,0,0,0-1-3.51,3.88,3.88,0,0,0-2.4-2.1,1.55,1.55,0,0,0-.31,0" transform="translate(-0.02 0)"/><path id="Path_2483" data-name="Path 2483" class="cls-5" d="M44.18,18.91a1,1,0,0,0-.12-.39,1,1,0,0,0-.88-.35A5.4,5.4,0,0,0,40,19.85a44.72,44.72,0,0,0-6.48,6.57.48.48,0,0,0-.07.68l0,0,.42.56a.94.94,0,0,0,.38.36c.35.15.73-.12,1-.36A18.69,18.69,0,0,1,39.62,25c2.32-1.07,5.06-3.17,4.56-6.1" transform="translate(-0.02 0)"/><path id="Path_2484" data-name="Path 2484" class="cls-3" d="M34.54,28.76a1.1,1.1,0,0,1-.47-.1,1.7,1.7,0,0,1-.65-.57L33,27.53a1.21,1.21,0,0,1-.28-.62A1.25,1.25,0,0,1,33,26a45.1,45.1,0,0,1,6.58-6.67,6,6,0,0,1,3.54-1.83,1.6,1.6,0,0,1,1.46.64,1.82,1.82,0,0,1,.22.63h0c.45,2.64-1.4,5.18-4.94,6.81a18.54,18.54,0,0,0-4.11,2.6,2.06,2.06,0,0,1-1.24.56m-.44-2,.38.51.12.15s.1-.06.34-.26a19.81,19.81,0,0,1,4.4-2.78c1.11-.51,4.7-2.41,4.2-5.4a.8.8,0,0,0,0-.15.63.63,0,0,0-.3,0,4.81,4.81,0,0,0-2.72,1.51A43.85,43.85,0,0,0,34.1,26.8" transform="translate(-0.02 0)"/><path id="Path_2485" data-name="Path 2485" class="cls-5" d="M28.23,16a6.11,6.11,0,0,1,.61,2.37A53.86,53.86,0,0,1,29,25.2a.68.68,0,0,1-.17.53.62.62,0,0,1-.4.13,1.63,1.63,0,0,1-1.4-.27,1.27,1.27,0,0,1-.29-.55,9.33,9.33,0,0,1-.22-2.18,13.54,13.54,0,0,0-.63-3.44c-.31-1-.92-1.88-1.16-2.87a1.48,1.48,0,0,1,1.08-1.8h0A2.23,2.23,0,0,1,28.23,16" transform="translate(-0.02 0)"/><path id="Path_2486" data-name="Path 2486" class="cls-3" d="M27.92,26.56a2,2,0,0,1-1.39-.5,2,2,0,0,1-.44-.83,7.61,7.61,0,0,1-.24-1.9V22.9a13,13,0,0,0-.6-3.27,8.72,8.72,0,0,0-.51-1.22,9.44,9.44,0,0,1-.67-1.69,2.15,2.15,0,0,1,1.56-2.6h0a2.85,2.85,0,0,1,3.15,1.55,6.66,6.66,0,0,1,.69,2.62,54.81,54.81,0,0,1,.13,6.9,1.34,1.34,0,0,1-.38,1,1.43,1.43,0,0,1-.76.29,5.46,5.46,0,0,1-.57,0M26.27,15.34a1.15,1.15,0,0,0-.26,0,.84.84,0,0,0-.68,1,.06.06,0,0,0,0,0,8.24,8.24,0,0,0,.57,1.45,9.94,9.94,0,0,1,.58,1.39,14.11,14.11,0,0,1,.65,3.6l0,.44a7,7,0,0,0,.18,1.58.86.86,0,0,0,.14.29c.14.14.62.1.83.07v0a54.48,54.48,0,0,0-.12-6.76,5.63,5.63,0,0,0-.54-2.12,1.78,1.78,0,0,0-1.38-1" transform="translate(-0.02 0)"/><path id="Path_2487" data-name="Path 2487" class="cls-5" d="M33,20.9A12.92,12.92,0,0,1,37.62,18a3.23,3.23,0,0,1,1.5-.33,1.24,1.24,0,0,1,1.14.89,1.44,1.44,0,0,1-.09.77,7.63,7.63,0,0,1-2.6,2.95,29,29,0,0,0-4.21,4.3,1,1,0,0,1-.41.37c-.75.33-2-1.46-2-2.13A7,7,0,0,1,33,20.9" transform="translate(-0.02 0)"/><path id="Path_2488" data-name="Path 2488" class="cls-3" d="M32.76,27.62a1.59,1.59,0,0,1-.95-.35,3.69,3.69,0,0,1-1.5-2.53,7.8,7.8,0,0,1,2.25-4.29,13.25,13.25,0,0,1,4.81-3.09,3.74,3.74,0,0,1,1.8-.37,1.89,1.89,0,0,1,1.73,1.4,2,2,0,0,1-.12,1.14,7.46,7.46,0,0,1-2.53,3l-.27.21A28.7,28.7,0,0,0,33.87,27a1.66,1.66,0,0,1-.66.57,1.17,1.17,0,0,1-.45.09m.74-6.27a6.36,6.36,0,0,0-1.88,3.48,2.68,2.68,0,0,0,1.14,1.48s0-.1.08-.16a29.34,29.34,0,0,1,4.3-4.4l.27-.22a6.34,6.34,0,0,0,2.13-2.44.8.8,0,0,0,.07-.43.6.6,0,0,0-.56-.36,2.6,2.6,0,0,0-1.19.28,12.08,12.08,0,0,0-4.36,2.78" transform="translate(-0.02 0)"/><path id="Path_2489" data-name="Path 2489" class="cls-5" d="M28.76,19.16a7.59,7.59,0,0,1,.2-2A2.72,2.72,0,0,1,30,15.61a2.8,2.8,0,0,1,1.52-.38,2.39,2.39,0,0,1,1.05.22,2.11,2.11,0,0,1,1,2,6,6,0,0,1-.76,2.25C32,21.38,31.07,23.11,31.15,25c0,.84-.83,1-1.5.69a1.23,1.23,0,0,1-.72-1.12,34.56,34.56,0,0,1-.17-5.38" transform="translate(-0.02 0)"/><path id="Path_2490" data-name="Path 2490" class="cls-3" d="M30.29,26.46a2.15,2.15,0,0,1-.9-.2,1.87,1.87,0,0,1-1.11-1.63A27.87,27.87,0,0,1,28.1,20v-.82A7.92,7.92,0,0,1,28.33,17a3.33,3.33,0,0,1,1.36-2,3.64,3.64,0,0,1,1.88-.49,2.86,2.86,0,0,1,1.34.3,2.74,2.74,0,0,1,1.34,2.65,6.54,6.54,0,0,1-.83,2.5l-.12.24a10,10,0,0,0-1.5,4.68,1.38,1.38,0,0,1-.59,1.26,1.61,1.61,0,0,1-.92.26m-.88-7.3V20a28.76,28.76,0,0,0,.17,4.45c.07.46.15.54.35.62a.63.63,0,0,0,.55.05,11.35,11.35,0,0,1,1.65-5.44l.12-.24a5.25,5.25,0,0,0,.69-2A1.5,1.5,0,0,0,32.3,16a1.71,1.71,0,0,0-.74-.14,2.07,2.07,0,0,0-1.17.27,2.16,2.16,0,0,0-.8,1.22,7.08,7.08,0,0,0-.17,1.78" transform="translate(-0.02 0)"/><path id="Path_2491" data-name="Path 2491" class="cls-6" d="M26.27,26.44c-.42.25-1.07-.08-1.4.28s-.16.63-.37.87-.83.26-1,.61a2.37,2.37,0,0,0-.11.58c-.1.45-.56.78-.54,1.23,0,.18.08.36.09.54,0,.66-.94,1.25-.56,1.8.08.11.21.19.31.3.28.35.05.88.2,1.32s.55.64.71,1,0,1.23.41,1.53c.18.12.42.12.6.24.44.3.17,1,.47,1.5s1.36.24,2,.55c.41.2.86.68,1.21.38.09-.08.15-.2.26-.25s.41.19.59.36a1.46,1.46,0,0,0,1.27.12,4.47,4.47,0,0,0,2.24-.91,3.89,3.89,0,0,1,.67-.61c.33-.18.77-.19,1-.49s.15-.53.27-.79c.2-.41.76-.6.9-1a2.63,2.63,0,0,0,0-.84c0-.68.59-1.27.58-2,0-.53-.37-1-.42-1.53s.22-1.15-.12-1.58-.7-.35-1-.61c-.6-.55-.32-1.85-1.1-2.07-.26-.07-.55,0-.8-.07s-.41-.44-.55-.72-.41-.57-.71-.48-.33.28-.53.34c-.37.11-.8-.31-1.16-.37a5.32,5.32,0,0,0-1.13,0,8,8,0,0,0-1.09,0c-.57.09-.67.4-1.13.67" transform="translate(-0.02 0)"/><path id="Path_2492" data-name="Path 2492" class="cls-3" d="M29.76,40.19a1.59,1.59,0,0,1-1.08-.38l-.05-.05a1.37,1.37,0,0,1-1.6-.18c-.09,0-.17-.11-.26-.15a2.05,2.05,0,0,0-.65-.1,1.83,1.83,0,0,1-1.63-.68,2,2,0,0,1-.27-1,2,2,0,0,0,0-.34,1.26,1.26,0,0,1-.56-.2,1.58,1.58,0,0,1-.61-1.4,1.7,1.7,0,0,0-.05-.44,1.33,1.33,0,0,0-.23-.3,2.22,2.22,0,0,1-.5-.78,2.36,2.36,0,0,1-.07-.79,1.83,1.83,0,0,0,0-.33,1.72,1.72,0,0,1-.33-.33A1.45,1.45,0,0,1,22,31a1.31,1.31,0,0,0,.24-.45,3.41,3.41,0,0,1-.1-.54A1.83,1.83,0,0,1,22.53,29a1.74,1.74,0,0,0,.18-.33,1.7,1.7,0,0,1,.18-.76,1.42,1.42,0,0,1,.9-.63,1,1,0,0,0,.22-.09A.4.4,0,0,1,24,27a1.49,1.49,0,0,1,.35-.75,1.54,1.54,0,0,1,1.23-.38,1.22,1.22,0,0,0,.33,0,3.3,3.3,0,0,0,.3-.22,2,2,0,0,1,1.06-.53,4.39,4.39,0,0,1,.81,0h.36l.33,0a3.62,3.62,0,0,1,.93,0,2,2,0,0,1,.63.25,1.94,1.94,0,0,0,.3.13.81.81,0,0,1,.47-.34,1.3,1.3,0,0,1,1.48.82l.06.13c0,.1.11.2.17.3a1,1,0,0,1,.29,0,1.51,1.51,0,0,1,.42,0,1.75,1.75,0,0,1,1.12,1.53,1.53,1.53,0,0,0,.26.68,1.12,1.12,0,0,0,.28.16,1.63,1.63,0,0,1,1.07,2,3.37,3.37,0,0,0,0,.44,2.69,2.69,0,0,0,.17.55,2.41,2.41,0,0,1-.09,2.3,2,2,0,0,0-.23.7,1.55,1.55,0,0,0,0,.22,1.59,1.59,0,0,1-.71,1.68,1.07,1.07,0,0,0-.26.26,1.17,1.17,0,0,0-.06.2,1.72,1.72,0,0,1-.27.69,1.68,1.68,0,0,1-.94.57l-.27.1a2.13,2.13,0,0,0-.31.29l-.23.23a5.14,5.14,0,0,1-2.54,1.07,3.86,3.86,0,0,1-.76.1M28.62,38.3a1.27,1.27,0,0,1,.85.44c.14.14.3.17.78.07a4,4,0,0,0,1.93-.75l.17-.17a2.47,2.47,0,0,1,.63-.53,3.07,3.07,0,0,1,.5-.2,1.45,1.45,0,0,0,.29-.11,1.18,1.18,0,0,0,0-.19,1.83,1.83,0,0,1,.76-1.19,1,1,0,0,0,.26-.25.82.82,0,0,0,0-.27c0-.13,0-.25,0-.37a3,3,0,0,1,.34-1.24,1.91,1.91,0,0,0,.23-.71,1.63,1.63,0,0,0-.17-.57,3.52,3.52,0,0,1-.24-.9,3.26,3.26,0,0,1,0-.7,1.19,1.19,0,0,0,0-.53,1,1,0,0,0-.29-.16,2.25,2.25,0,0,1-.63-.38,2.51,2.51,0,0,1-.65-1.36,1.69,1.69,0,0,0-.19-.56H33a1.69,1.69,0,0,1-.7-.09,1.67,1.67,0,0,1-.83-.94l-.09-.16a1.16,1.16,0,0,1-.43.25,1.56,1.56,0,0,1-1.21-.23l-.26-.13a3.58,3.58,0,0,0-.57,0l-.42,0h-.45a3.37,3.37,0,0,0-.55,0,.76.76,0,0,0-.42.23,4.41,4.41,0,0,1-.49.36,1.9,1.9,0,0,1-1,.18h-.26a.27.27,0,0,1,0,.12A1.59,1.59,0,0,1,25,28a1.51,1.51,0,0,1-.8.48,1.89,1.89,0,0,0-.21.09.65.65,0,0,1,0,.34,2.18,2.18,0,0,1-.36.77,1.11,1.11,0,0,0-.17.3,3.29,3.29,0,0,1,.1.53,2.14,2.14,0,0,1-.45,1.22A2.09,2.09,0,0,0,23,32a1,1,0,0,1,.21.21,1.61,1.61,0,0,1,.3,1.18,1.45,1.45,0,0,0,0,.36,1.33,1.33,0,0,0,.23.3,2.29,2.29,0,0,1,.47.69,2.37,2.37,0,0,1,.14.87,1.75,1.75,0,0,0,0,.4,1.27,1.27,0,0,1,.59.21,1.53,1.53,0,0,1,.58,1.29,1.87,1.87,0,0,0,.07.4c.05.07.37.09.59.1a2.88,2.88,0,0,1,1.16.22l.4.23.2.13a.88.88,0,0,1,.33-.24.8.8,0,0,1,.34-.07" transform="translate(-0.02 0)"/></g></g></g></g></g></svg>