<svg xmlns="http://www.w3.org/2000/svg" xmlns:xlink="http://www.w3.org/1999/xlink" viewBox="0 0 63.63 55.45"><defs><style>.cls-1{fill:none;}.cls-2{isolation:isolate;}.cls-3{fill:#004849;}.cls-4{clip-path:url(#clip-path);}.cls-5{fill:#fcfcfc;}.cls-6{fill:#2cdeb4;}</style><clipPath id="clip-path" transform="translate(0 0.01)"><rect class="cls-1" x="4.28" width="55.06" height="35.97"/></clipPath></defs><g id="Layer_2" data-name="Layer 2"><g id="Layer_1-2" data-name="Layer 1"><g id="caryophyllene" class="cls-2"><g class="cls-2"><path class="cls-3" d="M3.93,48.31v1.46a2.51,2.51,0,0,0-.68-.63A1.27,1.27,0,0,0,2.56,49a1.38,1.38,0,0,0-1,.44,1.67,1.67,0,0,0,0,2.18,1.33,1.33,0,0,0,1,.43,1.35,1.35,0,0,0,.7-.17,2.91,2.91,0,0,0,.69-.64v1.45A2.93,2.93,0,0,1,2.59,53a2.55,2.55,0,0,1-1.85-.71A2.39,2.39,0,0,1,0,50.5a2.42,2.42,0,0,1,.75-1.8A2.54,2.54,0,0,1,2.6,48,2.71,2.71,0,0,1,3.93,48.31Z" transform="translate(0 0.01)"/><path class="cls-3" d="M8.5,48.1H9.6v4.76H8.5v-.5A2.13,2.13,0,0,1,7,53a2.07,2.07,0,0,1-1.63-.71,2.63,2.63,0,0,1-.64-1.82,2.56,2.56,0,0,1,.64-1.78,2.06,2.06,0,0,1,3.09,0ZM5.89,50.46a1.69,1.69,0,0,0,.36,1.12,1.21,1.21,0,0,0,1,.43,1.26,1.26,0,0,0,1-.42,1.82,1.82,0,0,0,0-2.2,1.23,1.23,0,0,0-1-.43,1.25,1.25,0,0,0-1,.43A1.58,1.58,0,0,0,5.89,50.46Z" transform="translate(0 0.01)"/><path class="cls-3" d="M11,48.1h1.09v.43a2.26,2.26,0,0,1,.54-.44,1.26,1.26,0,0,1,.57-.12,1.77,1.77,0,0,1,.91.28l-.51,1A1,1,0,0,0,13,49q-.9,0-.9,1.35v2.47H11Z" transform="translate(0 0.01)"/><path class="cls-3" d="M16.67,52,14.53,48.1H15.8l1.46,2.74,1.35-2.74h1.24l-3.79,7.35H14.81Z" transform="translate(0 0.01)"/><path class="cls-3" d="M20.19,50.45a2.37,2.37,0,0,1,.73-1.76,2.61,2.61,0,0,1,3.61,0,2.55,2.55,0,0,1,0,3.58A2.5,2.5,0,0,1,22.7,53a2.41,2.41,0,0,1-1.79-.73A2.45,2.45,0,0,1,20.19,50.45Zm1.12,0a1.61,1.61,0,0,0,.38,1.13,1.49,1.49,0,0,0,2.06,0,1.77,1.77,0,0,0,0-2.22,1.46,1.46,0,0,0-2.05,0A1.52,1.52,0,0,0,21.31,50.46Z" transform="translate(0 0.01)"/><path class="cls-3" d="M27.52,55.45h-1.1V48.1h1.1v.52A2,2,0,0,1,29,48a2.05,2.05,0,0,1,1.62.72,2.87,2.87,0,0,1,0,3.6,2.11,2.11,0,0,1-3.1,0Zm2.61-4.94a1.6,1.6,0,0,0-.37-1.11,1.21,1.21,0,0,0-1-.44,1.26,1.26,0,0,0-1,.42,1.59,1.59,0,0,0-.37,1.1,1.64,1.64,0,0,0,.37,1.11,1.24,1.24,0,0,0,1,.42,1.18,1.18,0,0,0,.94-.43A1.56,1.56,0,0,0,30.13,50.51Z" transform="translate(0 0.01)"/><path class="cls-3" d="M32.42,44.61h1.1V48.5A1.9,1.9,0,0,1,34.81,48a1.66,1.66,0,0,1,1.29.52,2.15,2.15,0,0,1,.41,1.45v2.92h-1.1V50a1.35,1.35,0,0,0-.2-.82.8.8,0,0,0-.65-.26.88.88,0,0,0-.81.36,2.36,2.36,0,0,0-.23,1.24v2.3h-1.1Z" transform="translate(0 0.01)"/><path class="cls-3" d="M39.24,52,37.1,48.1h1.27l1.46,2.74,1.36-2.74h1.24l-3.79,7.35H37.38Z" transform="translate(0 0.01)"/><path class="cls-3" d="M44.36,44.61v8.25h-1.1V44.61Z" transform="translate(0 0.01)"/><path class="cls-3" d="M46.85,44.61v8.25h-1.1V44.61Z" transform="translate(0 0.01)"/><path class="cls-3" d="M52.57,50.74h-3.4a1.36,1.36,0,0,0,.38.93,1.28,1.28,0,0,0,1.54.15,3,3,0,0,0,.6-.72l.93.51a3.67,3.67,0,0,1-.46.63,2.53,2.53,0,0,1-.51.43,2.06,2.06,0,0,1-.59.25,3,3,0,0,1-.69.07,2.22,2.22,0,0,1-1.71-.68A2.57,2.57,0,0,1,48,50.48a2.66,2.66,0,0,1,.62-1.82A2.16,2.16,0,0,1,50.31,48a2.11,2.11,0,0,1,1.66.67,2.6,2.6,0,0,1,.61,1.84Zm-1.12-.9A1.06,1.06,0,0,0,50.34,49,1.16,1.16,0,0,0,50,49a1,1,0,0,0-.32.18,1.27,1.27,0,0,0-.25.27,1.37,1.37,0,0,0-.15.37Z" transform="translate(0 0.01)"/><path class="cls-3" d="M53.77,48.1h1.11v.44a1.78,1.78,0,0,1,1.3-.57,1.63,1.63,0,0,1,1.29.52,2.13,2.13,0,0,1,.4,1.45v2.92h-1.1V50.2a1.73,1.73,0,0,0-.2-1,.78.78,0,0,0-.69-.27.86.86,0,0,0-.78.36,2.46,2.46,0,0,0-.22,1.24v2.3H53.77Z" transform="translate(0 0.01)"/><path class="cls-3" d="M63.59,50.74H60.18a1.46,1.46,0,0,0,.38.93,1.16,1.16,0,0,0,.87.34,1.09,1.09,0,0,0,.67-.19,2.8,2.8,0,0,0,.61-.72l.92.51a3.19,3.19,0,0,1-.45.63,2.53,2.53,0,0,1-.51.43,2.18,2.18,0,0,1-.59.25,3.11,3.11,0,0,1-.69.07,2.22,2.22,0,0,1-1.71-.68A2.57,2.57,0,0,1,59,50.48a2.62,2.62,0,0,1,.63-1.82,2.38,2.38,0,0,1,3.33,0,2.65,2.65,0,0,1,.6,1.84Zm-1.13-.9A1,1,0,0,0,61.35,49,1.1,1.1,0,0,0,61,49a.92.92,0,0,0-.32.18,1.27,1.27,0,0,0-.25.27,1.38,1.38,0,0,0-.16.37Z" transform="translate(0 0.01)"/></g></g><g id="Group_2324" data-name="Group 2324"><g class="cls-4"><g id="Group_2323" data-name="Group 2323"><path id="Path_1858" data-name="Path 1858" class="cls-5" d="M28.72,8.22a5.3,5.3,0,0,1-5.21.3c-.75-.37-1.5-1.14-1.26-1.95a1.85,1.85,0,0,1,1-1c1.4-.77,4.92-2.11,6.55-1.6,2.08.65,0,3.49-1.07,4.26" transform="translate(0 0.01)"/><path id="Path_1859" data-name="Path 1859" class="cls-3" d="M25.88,9.69a6,6,0,0,1-2.64-.61A2.43,2.43,0,0,1,21.65,6.4,2.43,2.43,0,0,1,23,5c1.4-.77,5.12-2.25,7-1.65a1.76,1.76,0,0,1,1.3,1.4c.23,1.44-1.29,3.32-2.2,4h0a5.67,5.67,0,0,1-3.2,1m3-5.23A14.26,14.26,0,0,0,23.55,6.1c-.41.22-.64.44-.7.65-.12.41.38.93.94,1.21a4.68,4.68,0,0,0,4.58-.26c.73-.53,1.8-2,1.68-2.75,0-.09,0-.28-.44-.4a2,2,0,0,0-.69-.09" transform="translate(0 0.01)"/><path id="Path_1860" data-name="Path 1860" class="cls-5" d="M28.38,5.71c.93-.46,1.91-1.16,2-2.19a2.27,2.27,0,0,0-1-2A5.1,5.1,0,0,0,27.1.71a7.14,7.14,0,0,0-2.91.14,3.75,3.75,0,0,0-2.27,1.72A3.05,3.05,0,0,0,22,5.5c1.45,2.4,4.42,1.18,6.37.21" transform="translate(0 0.01)"/><path id="Path_1861" data-name="Path 1861" class="cls-3" d="M24.52,7.52a3.35,3.35,0,0,1-3.05-1.7,3.65,3.65,0,0,1-.1-3.54A4.33,4.33,0,0,1,24,.25,7.49,7.49,0,0,1,27.18.09,5.78,5.78,0,0,1,29.73,1,2.9,2.9,0,0,1,31,3.59c-.12,1.06-.92,2-2.37,2.68a9.92,9.92,0,0,1-4.14,1.25m1.34-6.27a5.35,5.35,0,0,0-1.49.19,3.07,3.07,0,0,0-1.89,1.43,2.41,2.41,0,0,0,.06,2.3c.9,1.48,2.56,1.47,5.56,0,1-.52,1.62-1.1,1.69-1.71A1.67,1.67,0,0,0,29,2a4.55,4.55,0,0,0-2-.65,9,9,0,0,0-1.16-.08" transform="translate(0 0.01)"/><path id="Path_1862" data-name="Path 1862" class="cls-6" d="M22.11,2c-.15.65-.27,1.31-.37,2a.56.56,0,0,0,0,.36c.22.38.72-.16,1.11-.38.61-.34,1.34.33,1.5,1A16,16,0,0,0,24.63,7c.43,1.16,1.81,1.59,3,1.87a.56.56,0,0,1-.1.78,1.28,1.28,0,0,1-.82.26c-1.64.1-3.27-.55-4.9-.34a11.51,11.51,0,0,0-2.7.87,19.82,19.82,0,0,1-7.69,1.28,2.45,2.45,0,0,1-2.16-.89,2.61,2.61,0,0,1-.16-1.51c.06-.67.2-1.44.79-1.75a2.1,2.1,0,0,1,1.24-.08c1.9.23,6.76.63,8.17-1,.66-.78.1-1.8.31-2.68a2.24,2.24,0,0,1,1-1.49c.11-.07,1.5-.47,1.46-.33" transform="translate(0 0.01)"/><path id="Path_1863" data-name="Path 1863" class="cls-3" d="M12.06,12.38h-.65a3.1,3.1,0,0,1-2.68-1.21,3.13,3.13,0,0,1-.24-1.88A2.62,2.62,0,0,1,9.61,7a2.52,2.52,0,0,1,1.58-.15c3.91.47,6.82.16,7.65-.8.22-.27.2-.6.15-1.16a4.1,4.1,0,0,1,0-1.26,2.92,2.92,0,0,1,1.31-1.88s1.61-.71,2.15-.32l.33.24-.08.42h0q-.15.68-.27,1.35l.13-.08a1.36,1.36,0,0,1,1.24,0A2.17,2.17,0,0,1,25,4.81a5.07,5.07,0,0,1,.1,1,3.54,3.54,0,0,0,.13,1c.31.85,1.47,1.22,2.57,1.48l.17,0,.13.13a1.09,1.09,0,0,1,.3.79,1.31,1.31,0,0,1-.43.9,2,2,0,0,1-1.19.41,11.61,11.61,0,0,1-2.43-.19,8.68,8.68,0,0,0-2.44-.16,9,9,0,0,0-2.05.63l-.51.2a20.33,20.33,0,0,1-7.28,1.34m-1.51-4.3a.84.84,0,0,0-.35.07c-.32.16-.41.75-.46,1.25a2.06,2.06,0,0,0,.09,1.15c.2.35.74.54,1.63.57A19.52,19.52,0,0,0,18.9,9.88l.49-.2A9.64,9.64,0,0,1,21.74,9a9.68,9.68,0,0,1,2.79.15,9.71,9.71,0,0,0,2.15.18h.06A3.7,3.7,0,0,1,24,7.24a4.13,4.13,0,0,1-.2-1.35,4.25,4.25,0,0,0-.07-.8.93.93,0,0,0-.45-.59c-.09,0-.11,0-.13,0a2.2,2.2,0,0,0-.25.17,1.56,1.56,0,0,1-1.14.4.88.88,0,0,1-.58-.43,1.14,1.14,0,0,1-.1-.77c.05-.37.12-.74.19-1.1l-.39.12A1.61,1.61,0,0,0,20.23,4a2.48,2.48,0,0,0,0,.86,2.59,2.59,0,0,1-.44,2.09c-1.55,1.8-6.12,1.54-8.72,1.23a5,5,0,0,0-.53-.05" transform="translate(0 0.01)"/><path id="Path_1864" data-name="Path 1864" class="cls-5" d="M30.27,11.5A4.78,4.78,0,0,0,29,13.92a2.61,2.61,0,0,0,.89,2.5,4.29,4.29,0,0,0,1.43.59l2.92.8a2.35,2.35,0,0,0,.87.12,2.32,2.32,0,0,0,1.07-.57c1.57-1.24,3.27-2.74,3.35-4.74A4,4,0,0,0,36,8.83c-2-.25-4.42,1.27-5.71,2.67" transform="translate(0 0.01)"/><path id="Path_1865" data-name="Path 1865" class="cls-3" d="M34.92,18.56a3.25,3.25,0,0,1-.88-.15l-2.92-.8a4.66,4.66,0,0,1-1.64-.69,3.22,3.22,0,0,1-1.13-3.1,5.43,5.43,0,0,1,1.46-2.74c1.45-1.58,4-3.15,6.25-2.88a4.62,4.62,0,0,1,4.06,4.44c-.08,2.25-1.89,3.87-3.59,5.21a2.85,2.85,0,0,1-1.37.7h-.24m.62-9.14a7.58,7.58,0,0,0-4.81,2.5A4.19,4.19,0,0,0,29.58,14a2,2,0,0,0,.65,1.9,3.74,3.74,0,0,0,1.21.48l2.92.8a1.56,1.56,0,0,0,.64.1,1.82,1.82,0,0,0,.75-.43c1.48-1.17,3-2.56,3.12-4.28a3.38,3.38,0,0,0-3-3.15l-.37,0" transform="translate(0 0.01)"/><path id="Path_1866" data-name="Path 1866" class="cls-6" d="M37.87,9.35c-1.42-.48-2.86-1.2-4.33-.93-.25,0-.56.23-.47.47a.41.41,0,0,0,.2.19,4.61,4.61,0,0,0,1.55.36,1.71,1.71,0,0,1,1.33.79c.2.42.09.94.31,1.35s1,.7,1.36,1.24a1.48,1.48,0,0,1-.4,1.68c-.42.45-1,.75-1.4,1.2a1.46,1.46,0,0,0-.35,1.68,1.32,1.32,0,0,0,1.66.34,4.26,4.26,0,0,0,1.35-1.22,3.35,3.35,0,0,1,1.42-1.13,3.88,3.88,0,0,1,1.12-.11A16.59,16.59,0,0,0,50.84,12a2.67,2.67,0,0,0,.67-.63,2.52,2.52,0,0,0,.05-2.24c-.4-1.06-1.23-1.74-2.21-1A9,9,0,0,1,46,9.64a14.32,14.32,0,0,1-8.1-.3" transform="translate(0 0.01)"/><path id="Path_1867" data-name="Path 1867" class="cls-3" d="M36.67,18.49a1.72,1.72,0,0,1-1.52-.77,2,2,0,0,1,.41-2.44,6.61,6.61,0,0,1,.8-.69,6,6,0,0,0,.61-.52c.26-.27.45-.69.31-.94a1.68,1.68,0,0,0-.48-.4,2.4,2.4,0,0,1-.9-.86,2.27,2.27,0,0,1-.23-.92,1.8,1.8,0,0,0-.09-.45,1.12,1.12,0,0,0-.86-.44c-.12,0-.24,0-.36-.06A3.65,3.65,0,0,1,33,9.62a1,1,0,0,1-.47-.5.84.84,0,0,1,0-.74,1.27,1.27,0,0,1,.89-.58,7.37,7.37,0,0,1,3.87.67l.77.28A13.91,13.91,0,0,0,45.82,9,8.32,8.32,0,0,0,49,7.61a1.82,1.82,0,0,1,1.65-.36,2.5,2.5,0,0,1,1.52,1.66A3,3,0,0,1,52,11.72a3.49,3.49,0,0,1-.8.78,17.3,17.3,0,0,1-10,3.38,3.33,3.33,0,0,0-.94.09,2.78,2.78,0,0,0-1.13.94,4.88,4.88,0,0,1-1.57,1.39,2.24,2.24,0,0,1-.92.2m-.32-9a1.71,1.71,0,0,1,.37.51,2.77,2.77,0,0,1,.2.85,1.18,1.18,0,0,0,.09.46,1.32,1.32,0,0,0,.48.4,2.79,2.79,0,0,1,.88.83,2.13,2.13,0,0,1-.49,2.42,7.89,7.89,0,0,1-.76.65,4.77,4.77,0,0,0-.64.55c-.25.27-.42.69-.28.92a.74.74,0,0,0,.87.1,3.37,3.37,0,0,0,1.07-1,4.12,4.12,0,0,1,1.77-1.4,4.43,4.43,0,0,1,1.2-.14,16.07,16.07,0,0,0,9.35-3.14A2,2,0,0,0,51,11a2,2,0,0,0,0-1.67,1.36,1.36,0,0,0-.7-.89s-.23-.07-.54.16a9.65,9.65,0,0,1-3.6,1.64,15.19,15.19,0,0,1-8.45-.31l-.8-.29-.52-.19" transform="translate(0 0.01)"/><path id="Path_1868" data-name="Path 1868" class="cls-3" d="M29.24,15.51l-.78-1A13.64,13.64,0,0,1,37,11.62l0,1.25a12.28,12.28,0,0,0-7.77,2.64" transform="translate(0 0.01)"/><path id="Path_1869" data-name="Path 1869" class="cls-5" d="M53.66,19a3.25,3.25,0,0,1,1.75.4c.57.36.91,1,1.47,1.37.31.2.67.32,1,.53a2.56,2.56,0,0,1,.47,3.32,6.7,6.7,0,0,1-2.81,2.3A10,10,0,0,1,52.64,28a3.89,3.89,0,0,1-3-.6,5.28,5.28,0,0,1-.91-.92l-1.7-2a2.5,2.5,0,0,1-.69-1.21c-.12-.87.66-1.59,1.4-2.06C49.73,20,51.26,19,53.66,19" transform="translate(0 0.01)"/><path id="Path_1870" data-name="Path 1870" class="cls-3" d="M51.87,28.67a4.27,4.27,0,0,1-2.56-.8,6.89,6.89,0,0,1-1-1l-1.7-2a3,3,0,0,1-.83-1.53c-.1-.67.12-1.67,1.68-2.67,2-1.25,3.63-2.31,6.17-2.31h0a3.79,3.79,0,0,1,2.08.49,3.94,3.94,0,0,1,.88.8,2.45,2.45,0,0,0,1,.79,4.13,4.13,0,0,1,.58.33,3.18,3.18,0,0,1,.66,4.14,7.34,7.34,0,0,1-3.06,2.54,10.61,10.61,0,0,1-3.08,1.15,4.91,4.91,0,0,1-.86.07m1.75-9.06c-2.18,0-3.56.88-5.47,2.1-.48.31-1.22.88-1.14,1.46a2,2,0,0,0,.54.89l1.7,2a5.3,5.3,0,0,0,.81.83,3.23,3.23,0,0,0,2.47.48,9,9,0,0,0,2.7-1,6.21,6.21,0,0,0,2.56-2.06,2,2,0,0,0-.28-2.49,4.36,4.36,0,0,0-.42-.23,3.43,3.43,0,0,1-1.39-1.08,3.44,3.44,0,0,0-.63-.58,2.68,2.68,0,0,0-1.42-.3Z" transform="translate(0 0.01)"/><path id="Path_1871" data-name="Path 1871" class="cls-6" d="M44.17,21.19a5.2,5.2,0,0,0,3.2-.46c.87-.53,1.4-1.47,2.23-2.07a1.46,1.46,0,0,1,1.75-.17c.55.48.29,1.43-.26,1.91a11.87,11.87,0,0,1-1.93,1,1.69,1.69,0,0,0-1,1.75c.13.48.58.8.81,1.24.31.61.17,1.4.56,2a2.27,2.27,0,0,0,1.54.77,3.61,3.61,0,0,1,1.66.53A1.06,1.06,0,0,1,53,29.14l-.06.07a1.33,1.33,0,0,1-.57.25,3.78,3.78,0,0,1-2.85-.59,4.24,4.24,0,0,1-1.35-1.59,2.5,2.5,0,0,0-.35-.56,2.08,2.08,0,0,0-1.66-.3c-3,.22-5.89-1-8.65-2.21a3.2,3.2,0,0,1-1.26-.82,3.55,3.55,0,0,1-.47-3c.33-.71,1-.67,1.71-.56,2.25.38,4.37,1.14,6.68,1.34" transform="translate(0 0.01)"/><path id="Path_1872" data-name="Path 1872" class="cls-3" d="M51.63,30.16a4.37,4.37,0,0,1-2.47-.77,5,5,0,0,1-1.55-1.82,1.52,1.52,0,0,0-.24-.41c-.19-.19-.67-.16-1.1-.13-3.28.25-6.33-1.08-9-2.25a3.88,3.88,0,0,1-1.5-1,4.19,4.19,0,0,1-.55-3.62,2,2,0,0,1,2.38-.92c.94.16,1.86.38,2.75.6a25.51,25.51,0,0,0,3.88.73,4.75,4.75,0,0,0,2.83-.37,5.45,5.45,0,0,0,1.09-1,7.66,7.66,0,0,1,1.09-1A2,2,0,0,1,51.76,18a1.55,1.55,0,0,1,.52,1.19,2.27,2.27,0,0,1-.79,1.66,4.79,4.79,0,0,1-1.34.76c-.23.1-.46.21-.68.33-.42.24-.81.69-.71,1a1.56,1.56,0,0,0,.33.5,2.87,2.87,0,0,1,.73,1.74,2,2,0,0,0,.23.79,1.81,1.81,0,0,0,1.12.5l.19,0a3.66,3.66,0,0,1,1.75.62,1.89,1.89,0,0,1,.7,1.39,1.35,1.35,0,0,1-.47,1.1,1.79,1.79,0,0,1-.85.39,4.28,4.28,0,0,1-.87.09m-4.86-4.4a2,2,0,0,1,1.5.52,2.66,2.66,0,0,1,.42.63,3.82,3.82,0,0,0,1.2,1.45,3.08,3.08,0,0,0,2.36.48.59.59,0,0,0,.29-.1.17.17,0,0,0,0-.12.68.68,0,0,0-.23-.44,2.65,2.65,0,0,0-1.19-.38l-.19,0a2.76,2.76,0,0,1-1.94-1,3,3,0,0,1-.43-1.3,2.3,2.3,0,0,0-.18-.73,2.34,2.34,0,0,0-.29-.41,2.47,2.47,0,0,1-.56-.95,2.28,2.28,0,0,1,1.3-2.47,7.33,7.33,0,0,1,.8-.38,4.1,4.1,0,0,0,1-.57,1,1,0,0,0,.35-.71.3.3,0,0,0-.09-.25c-.2-.17-.65,0-1,.2a6.81,6.81,0,0,0-.9.88,6.32,6.32,0,0,1-1.36,1.22,5.94,5.94,0,0,1-3.59.56,26.67,26.67,0,0,1-4.06-.77c-.87-.21-1.77-.43-2.67-.58s-.94,0-1,.21A3,3,0,0,0,36.73,23a2.84,2.84,0,0,0,1,.64c2.55,1.11,5.45,2.38,8.35,2.16.2,0,.43,0,.65,0" transform="translate(0 0.01)"/><path id="Path_1873" data-name="Path 1873" class="cls-3" d="M49.1,24.55l-.76-1A10,10,0,0,1,53.12,22l.85-.15a8.45,8.45,0,0,1,2.3-.17l-.08,1.25a7.06,7.06,0,0,0-2,.16c-.27,0-.55.1-.89.14a9,9,0,0,0-4.2,1.34" transform="translate(0 0.01)"/><path id="Path_1874" data-name="Path 1874" class="cls-5" d="M20.78,18.07a10.63,10.63,0,0,1,3.45-.49,4.62,4.62,0,0,1,1.65.16,3.21,3.21,0,0,1,2,2.91,6.55,6.55,0,0,1-1.06,3.52,5.91,5.91,0,0,1-1.56,1.88,4.41,4.41,0,0,1-5.32-.42A5.85,5.85,0,0,1,18,21.25c0-1.47,1.48-2.7,2.78-3.18" transform="translate(0 0.01)"/><path id="Path_1875" data-name="Path 1875" class="cls-3" d="M22.91,27.38a5.18,5.18,0,0,1-3.42-1.28,6.45,6.45,0,0,1-2.11-4.86c0-1.79,1.67-3.2,3.19-3.76A11,11,0,0,1,24.21,17a5.15,5.15,0,0,1,1.87.2,3.76,3.76,0,0,1,2.38,3.47,7,7,0,0,1-1.14,3.87,6.51,6.51,0,0,1-1.74,2.06,4.47,4.47,0,0,1-2.67.83M21,18.66h0c-1.14.42-2.35,1.47-2.37,2.6a5.23,5.23,0,0,0,1.68,3.9,3.78,3.78,0,0,0,4.54.38,5.26,5.26,0,0,0,1.39-1.68,5.86,5.86,0,0,0,1-3.18,2.58,2.58,0,0,0-1.53-2.35,4.32,4.32,0,0,0-1.43-.13,10.22,10.22,0,0,0-3.25.46" transform="translate(0 0.01)"/><path id="Path_1876" data-name="Path 1876" class="cls-6" d="M14.93,25a3.43,3.43,0,0,0,1.92-2.35c.12-.68-.05-1.38,0-2.07a1.37,1.37,0,0,1,.51-1,.74.74,0,0,1,1,.13,1,1,0,0,1,.11.61,8.75,8.75,0,0,1-.22,1.77,2.83,2.83,0,0,1,1.6-1.1,1.52,1.52,0,0,1,1.68.72c.51,1.08-.68,2.47,0,3.46.3.48.92.65,1.29,1.08a19.66,19.66,0,0,1-4.42,1.9L11.83,30.4a10.77,10.77,0,0,1-3.45.75A3.66,3.66,0,0,1,5.3,29.72a2.27,2.27,0,0,1,.52-3.12,2.82,2.82,0,0,1,1.33-.33c1.39-.06,3,.47,4.35,0,.44-.16.78-.43,1.24-.56A12,12,0,0,0,14.93,25" transform="translate(0 0.01)"/><path id="Path_1877" data-name="Path 1877" class="cls-3" d="M8.4,31.78h0a4.27,4.27,0,0,1-3.6-1.71,3.09,3.09,0,0,1-.42-2.37,2.52,2.52,0,0,1,1.15-1.64,3.48,3.48,0,0,1,1.62-.41,11.55,11.55,0,0,1,1.66.09,5.65,5.65,0,0,0,2.49-.08,5.11,5.11,0,0,0,.48-.22,3.92,3.92,0,0,1,.81-.36l.72-.18a6.46,6.46,0,0,0,1.35-.44,2.83,2.83,0,0,0,1.6-1.9,4.82,4.82,0,0,0,0-.93,6.1,6.1,0,0,1,0-1.13,2,2,0,0,1,.77-1.4,1.52,1.52,0,0,1,1.1-.22,1.25,1.25,0,0,1,.8.53,1.71,1.71,0,0,1,.21,1c0,.08,0,.16,0,.25a2.77,2.77,0,0,1,.63-.22,2.16,2.16,0,0,1,2.38,1.07,3.09,3.09,0,0,1,0,2.12c-.15.61-.24,1-.06,1.27a1.58,1.58,0,0,0,.5.42,3.2,3.2,0,0,1,.73.6l.46.54-.6.39a19.92,19.92,0,0,1-4.55,2L12,31a11.63,11.63,0,0,1-3.63.79m-1-4.89H7.19a2.3,2.3,0,0,0-1,.24,1.3,1.3,0,0,0-.57.84,1.86,1.86,0,0,0,.24,1.4A3.32,3.32,0,0,0,8.4,30.53a10.24,10.24,0,0,0,3.23-.72l6.59-2.21a24.47,24.47,0,0,0,3.5-1.38,2.21,2.21,0,0,1-.69-.67,2.72,2.72,0,0,1-.1-2.25A2.16,2.16,0,0,0,21,22a.92.92,0,0,0-1-.38,2.33,2.33,0,0,0-1.23.88L17.7,22a9.09,9.09,0,0,0,.21-1.64.82.82,0,0,0,0-.27s-.07,0-.12.05a.85.85,0,0,0-.25.55,4.51,4.51,0,0,0,0,.9,5.82,5.82,0,0,1,0,1.18,4,4,0,0,1-2.26,2.81h0a6.78,6.78,0,0,1-1.63.54c-.22.06-.44.11-.66.18a3.28,3.28,0,0,0-.58.25,5,5,0,0,1-.62.3A6.84,6.84,0,0,1,8.67,27c-.43,0-.85-.08-1.28-.09" transform="translate(0 0.01)"/><path id="Path_1878" data-name="Path 1878" class="cls-5" d="M36.05,33.85a1.88,1.88,0,0,0,1-.66c.41-.65,0-1.49-.38-2.16a7.94,7.94,0,0,0-3-3.35,6.22,6.22,0,0,0-2.83-.47,9.58,9.58,0,0,0-4,.89,2.66,2.66,0,0,0-1.45,1.46c-.55,1.86.88,4.87,2.95,5a19,19,0,0,0,7.76-.72" transform="translate(0 0.01)"/><path id="Path_1879" data-name="Path 1879" class="cls-3" d="M30.71,35.28c-.86,0-1.69,0-2.46-.09a3.57,3.57,0,0,1-2.65-1.67,5.17,5.17,0,0,1-.86-4.14,3.18,3.18,0,0,1,1.77-1.84,10,10,0,0,1,4.24-.95,6.9,6.9,0,0,1,3.11.52,8.44,8.44,0,0,1,3.3,3.6c.29.48,1.05,1.75.37,2.82a2.5,2.5,0,0,1-1.26.9,15.48,15.48,0,0,1-5.57.84m.38-7.44h-.3a9,9,0,0,0-3.71.82,2,2,0,0,0-1.13,1.08,3.9,3.9,0,0,0,.69,3.07,2.45,2.45,0,0,0,1.7,1.14c2.3.14,5.23.2,7.49-.68h0a1.32,1.32,0,0,0,.65-.41c.18-.28.05-.77-.39-1.5a7.35,7.35,0,0,0-2.76-3.11,5.26,5.26,0,0,0-2.25-.41" transform="translate(0 0.01)"/><path id="Path_1880" data-name="Path 1880" class="cls-5" d="M33.37,28.79c.59.45,1,1.08,1.55,1.58a4.61,4.61,0,0,0,1.8,1,1.32,1.32,0,0,0,.56.05,1,1,0,0,0,.67-.93,2.27,2.27,0,0,0-.4-1.15,7.92,7.92,0,0,0-7.3-3.7c-1,.09-3,1.55-1.3,2.24A7.53,7.53,0,0,0,31,28a4.66,4.66,0,0,1,2.4.81" transform="translate(0 0.01)"/><path id="Path_1881" data-name="Path 1881" class="cls-3" d="M37.12,32.05a2.82,2.82,0,0,1-.57-.09,5.11,5.11,0,0,1-2-1.13,9.69,9.69,0,0,1-.7-.73,5.64,5.64,0,0,0-.81-.81,4,4,0,0,0-2.08-.69c-.22,0-.43,0-.64,0a3.58,3.58,0,0,1-1.56-.16c-1.07-.43-1.08-1.18-1-1.48.15-1,1.61-1.88,2.51-2a8.5,8.5,0,0,1,7.89,4,2.84,2.84,0,0,1,.49,1.49A1.54,1.54,0,0,1,37.39,32a1.23,1.23,0,0,1-.27,0m-6.44-4.7a1.83,1.83,0,0,1,.34,0,5.23,5.23,0,0,1,2.73.93,7.64,7.64,0,0,1,1,1c.19.22.39.43.61.64a3.86,3.86,0,0,0,1.54.84.59.59,0,0,0,.27.05.39.39,0,0,0,.16-.33,1.75,1.75,0,0,0-.31-.82,7.27,7.27,0,0,0-6.71-3.4,2,2,0,0,0-1.38.9h0a1.17,1.17,0,0,0,.27.15,3,3,0,0,0,1,.06h.46" transform="translate(0 0.01)"/><path id="Path_1882" data-name="Path 1882" class="cls-6" d="M21.88,31.25a6.07,6.07,0,0,1,2.7.36A3.83,3.83,0,0,1,25.9,33,8.87,8.87,0,0,0,27,34.64a2.07,2.07,0,0,0,1.75.69,1.2,1.2,0,0,0,1-1.37v-.05a1.73,1.73,0,0,0-.55-.73,8.65,8.65,0,0,1-1.69-1.62,1.79,1.79,0,0,1,0-2.17c.48-.49,1.34-.55,1.68-1.14s0-1.5.42-2.06A1.47,1.47,0,0,1,31,25.82a3.72,3.72,0,0,0,1.45.08c.47-.12.88-.66.65-1.09a1,1,0,0,0-.75-.44c-1.68-.33-3.32.52-4.94,1.07a14.49,14.49,0,0,1-13.22-2.2,2.71,2.71,0,0,0-1.12-.63c-1.57-.3-2,1.72-1.56,2.8a4.41,4.41,0,0,0,1.94,2.19c2.62,1.66,5.21,3.54,8.44,3.65" transform="translate(0 0.01)"/><path id="Path_1883" data-name="Path 1883" class="cls-3" d="M28.52,36a2.77,2.77,0,0,1-2-.9,7.21,7.21,0,0,1-1-1.39l-.2-.32a3.23,3.23,0,0,0-1.09-1.2,4,4,0,0,0-1.84-.28h-.58c-3.08-.1-5.57-1.7-8-3.25l-.77-.5a5,5,0,0,1-2.19-2.49,3.24,3.24,0,0,1,.41-3A1.87,1.87,0,0,1,13.17,22a3.07,3.07,0,0,1,1.32.7A14,14,0,0,0,27.2,24.85l.95-.35a7.9,7.9,0,0,1,4.3-.75,1.58,1.58,0,0,1,1.19.77,1.21,1.21,0,0,1,0,1.08,1.63,1.63,0,0,1-1.07.91,3.38,3.38,0,0,1-1.38,0l-.31,0a1,1,0,0,0-.78.14,1.47,1.47,0,0,0-.1.69,2.57,2.57,0,0,1-.26,1.3,2.42,2.42,0,0,1-1.18.91,2,2,0,0,0-.6.35,1.19,1.19,0,0,0,.07,1.38,5,5,0,0,0,1.1,1.1c.16.13.32.26.47.4a2.23,2.23,0,0,1,.74,1A1.56,1.56,0,0,1,30.17,35a1.9,1.9,0,0,1-1.3.9,2,2,0,0,1-.35,0M21.9,30.62h.54a5,5,0,0,1,2.44.44,4.33,4.33,0,0,1,1.55,1.63l.2.34a6.38,6.38,0,0,0,.82,1.16,1.54,1.54,0,0,0,1.2.51.69.69,0,0,0,.45-.31.4.4,0,0,0,.06-.3,1.17,1.17,0,0,0-.37-.45l-.44-.37A6.36,6.36,0,0,1,27,31.9a2.42,2.42,0,0,1,.1-2.95,3.1,3.1,0,0,1,1-.6,1.47,1.47,0,0,0,.63-.41,1.61,1.61,0,0,0,.09-.69,2.23,2.23,0,0,1,.38-1.44,2,2,0,0,1,1.92-.6l.34.05a2.32,2.32,0,0,0,.87,0,.39.39,0,0,0,.25-.22h0a1.12,1.12,0,0,0-.31-.1,7,7,0,0,0-3.63.69q-.49.2-1,.36a15,15,0,0,1-13.8-2.3,2.25,2.25,0,0,0-.85-.51.61.61,0,0,0-.65.2,2,2,0,0,0-.22,1.76,3.73,3.73,0,0,0,1.7,1.89l.78.5c2.37,1.52,4.6,3,7.34,3.05" transform="translate(0 0.01)"/></g></g></g></g></g></svg>