<svg xmlns="http://www.w3.org/2000/svg" xmlns:xlink="http://www.w3.org/1999/xlink" viewBox="0 0 63.63 57.25"><defs><style>.cls-1{fill:none;}.cls-2{isolation:isolate;}.cls-3{fill:#004849;}.cls-4{clip-path:url(#clip-path);}.cls-5{fill:#fcfcfc;}.cls-6{fill:#2cdeb4;}</style><clipPath id="clip-path" transform="translate(0 0)"><rect class="cls-1" x="2.91" width="57.82" height="37.77"/></clipPath></defs><g id="Layer_2" data-name="Layer 2"><g id="Layer_1-2" data-name="Layer 1"><g id="caryophyllene" class="cls-2"><g class="cls-2"><path class="cls-3" d="M3.93,50.11v1.46a2.51,2.51,0,0,0-.68-.63,1.27,1.27,0,0,0-.69-.18,1.37,1.37,0,0,0-1,.43,1.55,1.55,0,0,0-.41,1.09,1.52,1.52,0,0,0,.4,1.1,1.33,1.33,0,0,0,1,.43,1.45,1.45,0,0,0,.7-.17A2.91,2.91,0,0,0,3.93,53v1.45a2.93,2.93,0,0,1-1.34.34,2.55,2.55,0,0,1-1.85-.71A2.39,2.39,0,0,1,0,52.3a2.42,2.42,0,0,1,.75-1.8,2.54,2.54,0,0,1,1.85-.73A2.71,2.71,0,0,1,3.93,50.11Z" transform="translate(0 0)"/><path class="cls-3" d="M8.5,49.9H9.6v4.76H8.5v-.5A2.13,2.13,0,0,1,7,54.79a2.07,2.07,0,0,1-1.63-.71,2.65,2.65,0,0,1-.64-1.82,2.56,2.56,0,0,1,.64-1.78,2.06,2.06,0,0,1,3.09,0ZM5.89,52.26a1.69,1.69,0,0,0,.36,1.12,1.21,1.21,0,0,0,1,.43,1.26,1.26,0,0,0,1-.42,1.84,1.84,0,0,0,0-2.21,1.26,1.26,0,0,0-1-.42,1.21,1.21,0,0,0-1,.43A1.58,1.58,0,0,0,5.89,52.26Z" transform="translate(0 0)"/><path class="cls-3" d="M11,49.9h1.09v.42a2.43,2.43,0,0,1,.54-.43,1.26,1.26,0,0,1,.57-.12,1.77,1.77,0,0,1,.91.28l-.51,1a1,1,0,0,0-.61-.23c-.6,0-.9.45-.9,1.36v2.47H11Z" transform="translate(0 0)"/><path class="cls-3" d="M16.67,53.77,14.53,49.9H15.8l1.46,2.73,1.35-2.73h1.24l-3.79,7.34H14.81Z" transform="translate(0 0)"/><path class="cls-3" d="M20.19,52.24a2.36,2.36,0,0,1,.73-1.75,2.61,2.61,0,0,1,3.61,0,2.44,2.44,0,0,1,.73,1.78,2.4,2.4,0,0,1-.74,1.79,2.5,2.5,0,0,1-1.82.72,2.41,2.41,0,0,1-1.79-.73A2.47,2.47,0,0,1,20.19,52.24Zm1.12,0a1.62,1.62,0,0,0,.38,1.13,1.33,1.33,0,0,0,1,.42,1.36,1.36,0,0,0,1-.41,1.77,1.77,0,0,0,0-2.22,1.46,1.46,0,0,0-2.05,0A1.52,1.52,0,0,0,21.31,52.26Z" transform="translate(0 0)"/><path class="cls-3" d="M27.52,57.24h-1.1V49.9h1.1v.52A2,2,0,0,1,29,49.77a2.05,2.05,0,0,1,1.62.72,2.6,2.6,0,0,1,.64,1.81,2.57,2.57,0,0,1-.63,1.78,2.09,2.09,0,0,1-3.1,0Zm2.61-4.93a1.65,1.65,0,0,0-.37-1.12,1.2,1.2,0,0,0-1-.43,1.26,1.26,0,0,0-1,.42,1.59,1.59,0,0,0-.37,1.1,1.64,1.64,0,0,0,.37,1.11,1.26,1.26,0,0,0,1,.42,1.18,1.18,0,0,0,.94-.43A1.56,1.56,0,0,0,30.13,52.31Z" transform="translate(0 0)"/><path class="cls-3" d="M32.42,46.41h1.1V50.3a1.85,1.85,0,0,1,1.29-.53,1.66,1.66,0,0,1,1.29.52,2.15,2.15,0,0,1,.41,1.45v2.92h-1.1V51.84a1.35,1.35,0,0,0-.2-.82.79.79,0,0,0-.65-.26.88.88,0,0,0-.81.36,2.36,2.36,0,0,0-.23,1.24v2.3h-1.1Z" transform="translate(0 0)"/><path class="cls-3" d="M39.24,53.77,37.1,49.9h1.27l1.46,2.73,1.36-2.73h1.24l-3.79,7.34H37.38Z" transform="translate(0 0)"/><path class="cls-3" d="M44.36,46.41v8.25h-1.1V46.41Z" transform="translate(0 0)"/><path class="cls-3" d="M46.85,46.41v8.25h-1.1V46.41Z" transform="translate(0 0)"/><path class="cls-3" d="M52.57,52.54h-3.4a1.36,1.36,0,0,0,.38.93,1.28,1.28,0,0,0,1.54.15,3.12,3.12,0,0,0,.6-.73l.93.52a4.67,4.67,0,0,1-.46.63,2.53,2.53,0,0,1-.51.43,2,2,0,0,1-.59.24,2.51,2.51,0,0,1-.69.08,2.22,2.22,0,0,1-1.71-.68A2.57,2.57,0,0,1,48,52.28a2.64,2.64,0,0,1,.62-1.82,2.16,2.16,0,0,1,1.67-.69,2.11,2.11,0,0,1,1.66.67,2.59,2.59,0,0,1,.61,1.84Zm-1.12-.9a1.06,1.06,0,0,0-1.11-.88,1.16,1.16,0,0,0-.38.06,1,1,0,0,0-.32.18.93.93,0,0,0-.25.27,1.37,1.37,0,0,0-.15.37Z" transform="translate(0 0)"/><path class="cls-3" d="M53.77,49.9h1.11v.44a1.8,1.8,0,0,1,1.3-.57,1.63,1.63,0,0,1,1.29.52,2.13,2.13,0,0,1,.4,1.45v2.92h-1.1V52a1.73,1.73,0,0,0-.2-1,.79.79,0,0,0-.69-.28.84.84,0,0,0-.78.37,2.46,2.46,0,0,0-.22,1.24v2.3H53.77Z" transform="translate(0 0)"/><path class="cls-3" d="M63.59,52.54H60.18a1.46,1.46,0,0,0,.38.93,1.16,1.16,0,0,0,.87.34,1.09,1.09,0,0,0,.67-.19,2.88,2.88,0,0,0,.61-.73l.92.52a3.91,3.91,0,0,1-.45.63,2.53,2.53,0,0,1-.51.43,2.15,2.15,0,0,1-.59.24,2.61,2.61,0,0,1-.69.08,2.22,2.22,0,0,1-1.71-.68,2.92,2.92,0,0,1,0-3.65,2.38,2.38,0,0,1,3.33,0,2.63,2.63,0,0,1,.6,1.84Zm-1.13-.9a1,1,0,0,0-1.11-.88,1.1,1.1,0,0,0-.37.06.92.92,0,0,0-.32.18.93.93,0,0,0-.25.27,1.38,1.38,0,0,0-.16.37Z" transform="translate(0 0)"/></g></g><g id="Group_2348" data-name="Group 2348"><g class="cls-4"><g id="Group_2347" data-name="Group 2347"><path id="Path_2231" data-name="Path 2231" class="cls-5" d="M28.57,8.63A5.56,5.56,0,0,1,23.1,9c-.8-.39-1.58-1.2-1.33-2a2,2,0,0,1,1.05-1.07C24.29,5,28,3.62,29.7,4.15c2.18.69,0,3.66-1.13,4.48" transform="translate(0 0)"/><path id="Path_2232" data-name="Path 2232" class="cls-3" d="M25.59,10.18a6.21,6.21,0,0,1-2.78-.65,2.55,2.55,0,0,1-1.67-2.81A2.57,2.57,0,0,1,22.5,5.26c1.47-.81,5.38-2.37,7.39-1.73A1.82,1.82,0,0,1,31.26,5C31.5,6.5,29.91,8.48,29,9.16h0a6,6,0,0,1-3.35,1m3.19-5.49a15,15,0,0,0-5.65,1.72c-.43.23-.67.45-.73.68-.13.43.4,1,1,1.27a4.92,4.92,0,0,0,4.8-.27C29,7.53,30.09,6,30,5.2c0-.09,0-.29-.46-.42a2.25,2.25,0,0,0-.73-.09" transform="translate(0 0)"/><path id="Path_2233" data-name="Path 2233" class="cls-5" d="M28.21,6c1-.49,2-1.22,2.13-2.31a2.39,2.39,0,0,0-1.1-2.15A5.25,5.25,0,0,0,26.86.75a7.31,7.31,0,0,0-3.05.14A3.88,3.88,0,0,0,21.43,2.7a3.16,3.16,0,0,0,.09,3.07C23,8.29,26.16,7,28.21,6" transform="translate(0 0)"/><path id="Path_2234" data-name="Path 2234" class="cls-3" d="M24.15,7.9A3.53,3.53,0,0,1,21,6.11a3.83,3.83,0,0,1-.1-3.71A4.53,4.53,0,0,1,23.63.26,7.91,7.91,0,0,1,27,.1a6,6,0,0,1,2.68.9A3.09,3.09,0,0,1,31,3.77c-.14,1.11-1,2.06-2.5,2.81A10.44,10.44,0,0,1,24.15,7.9m1.41-6.59a5.86,5.86,0,0,0-1.56.2A3.25,3.25,0,0,0,22,3a2.53,2.53,0,0,0,.06,2.42C23,7,24.76,7,27.91,5.41c1.1-.55,1.7-1.15,1.78-1.8a1.78,1.78,0,0,0-.82-1.53,4.74,4.74,0,0,0-2.09-.68,10.16,10.16,0,0,0-1.22-.09" transform="translate(0 0)"/><path id="Path_2235" data-name="Path 2235" class="cls-6" d="M21.63,2.09c-.16.69-.29,1.37-.39,2.07a.53.53,0,0,0,0,.37c.24.41.77-.16,1.18-.39.64-.36,1.4.34,1.57,1.06a17.6,17.6,0,0,0,.26,2.17c.45,1.22,1.9,1.68,3.17,2a.61.61,0,0,1-.1.82,1.45,1.45,0,0,1-.87.27c-1.72.11-3.44-.58-5.15-.36a12.64,12.64,0,0,0-2.83.91,20.8,20.8,0,0,1-8.07,1.35,2.57,2.57,0,0,1-2.27-.94A2.6,2.6,0,0,1,8,9.81c.06-.7.2-1.52.82-1.84a2.25,2.25,0,0,1,1.31-.09c2,.24,7.09.67,8.57-1.07.7-.81.11-1.88.33-2.81a2.32,2.32,0,0,1,1.08-1.56c.12-.08,1.57-.5,1.53-.35" transform="translate(0 0)"/><path id="Path_2236" data-name="Path 2236" class="cls-3" d="M11.08,13H10.4c-.53,0-2.15-.07-2.82-1.27a3.27,3.27,0,0,1-.26-2A2.75,2.75,0,0,1,8.5,7.39a2.77,2.77,0,0,1,1.66-.16c4.1.49,7.16.17,8-.84.24-.28.21-.62.16-1.21a4,4,0,0,1,0-1.33,3,3,0,0,1,1.38-2s1.68-.75,2.25-.34l.36.25-.09.45h0c-.11.46-.21.93-.29,1.41l.14-.08a1.42,1.42,0,0,1,1.3,0,2.25,2.25,0,0,1,1.22,1.53,5.67,5.67,0,0,1,.12,1.08,3.21,3.21,0,0,0,.13,1c.33.89,1.55,1.28,2.69,1.55l.19,0,.14.14a1.11,1.11,0,0,1,.31.83,1.36,1.36,0,0,1-.45.94,2,2,0,0,1-1.25.43,11.45,11.45,0,0,1-2.55-.2,9.15,9.15,0,0,0-2.56-.15,8.92,8.92,0,0,0-2.15.66l-.54.21A21.67,21.67,0,0,1,11.08,13M9.48,8.49a.77.77,0,0,0-.37.07c-.33.17-.43.79-.47,1.31a2.13,2.13,0,0,0,.08,1.2c.22.38.78.57,1.72.6a20.46,20.46,0,0,0,7.82-1.31l.51-.2a10.19,10.19,0,0,1,2.47-.74,10.65,10.65,0,0,1,2.93.16,10.74,10.74,0,0,0,2.26.2h.07A3.88,3.88,0,0,1,23.66,7.6a4.58,4.58,0,0,1-.22-1.42,4.76,4.76,0,0,0-.07-.84,1,1,0,0,0-.48-.62c-.08,0-.11,0-.13,0l-.27.18a1.55,1.55,0,0,1-1.2.42.94.94,0,0,1-.6-.45,1.23,1.23,0,0,1-.11-.8c.06-.39.13-.78.2-1.16a3.12,3.12,0,0,0-.4.13,1.71,1.71,0,0,0-.73,1.12,2.72,2.72,0,0,0,0,.9,2.71,2.71,0,0,1-.47,2.19C17.56,9.14,12.75,8.86,10,8.53a5.09,5.09,0,0,0-.55,0" transform="translate(0 0)"/><path id="Path_2237" data-name="Path 2237" class="cls-5" d="M30.2,12.08a5,5,0,0,0-1.37,2.54,2.75,2.75,0,0,0,.93,2.62,4.3,4.3,0,0,0,1.5.62l3.07.84a2.36,2.36,0,0,0,.92.12,2.36,2.36,0,0,0,1.12-.6c1.64-1.3,3.44-2.88,3.51-5a4.18,4.18,0,0,0-3.68-4c-2.11-.26-4.65,1.33-6,2.81" transform="translate(0 0)"/><path id="Path_2238" data-name="Path 2238" class="cls-3" d="M35.08,19.49a3.24,3.24,0,0,1-.93-.16l-3.07-.84a4.89,4.89,0,0,1-1.71-.73,3.36,3.36,0,0,1-1.19-3.25,5.7,5.7,0,0,1,1.53-2.88c1.52-1.65,4.21-3.3,6.57-3a4.84,4.84,0,0,1,4.26,4.65c-.09,2.37-2,4.07-3.77,5.47a2.93,2.93,0,0,1-1.44.74h-.25m.65-9.6a7.93,7.93,0,0,0-5,2.63,4.34,4.34,0,0,0-1.2,2.2,2.09,2.09,0,0,0,.68,2,3.89,3.89,0,0,0,1.27.51l3.07.84a1.67,1.67,0,0,0,.66.11,1.85,1.85,0,0,0,.8-.46c1.54-1.22,3.2-2.68,3.27-4.49a3.53,3.53,0,0,0-3.11-3.3,2.55,2.55,0,0,0-.39,0" transform="translate(0 0)"/><path id="Path_2239" data-name="Path 2239" class="cls-6" d="M38.17,9.81c-1.48-.5-3-1.25-4.54-1-.27.05-.59.25-.49.5a.41.41,0,0,0,.2.19A4.79,4.79,0,0,0,35,9.91a1.77,1.77,0,0,1,1.39.84c.21.44.1,1,.33,1.41.3.58,1.11.74,1.43,1.31a1.56,1.56,0,0,1-.42,1.76c-.45.47-1,.79-1.47,1.26a1.53,1.53,0,0,0-.36,1.77,1.38,1.38,0,0,0,1.73.36A4.39,4.39,0,0,0,39,17.33a3.47,3.47,0,0,1,1.49-1.19A4.68,4.68,0,0,1,41.69,16,17.4,17.4,0,0,0,51.8,12.6a3.37,3.37,0,0,0,.7-.66,2.66,2.66,0,0,0,0-2.35c-.42-1.12-1.3-1.83-2.32-1.06a9.67,9.67,0,0,1-3.55,1.6,15.18,15.18,0,0,1-8.5-.31" transform="translate(0 0)"/><path id="Path_2240" data-name="Path 2240" class="cls-3" d="M36.91,19.42a1.85,1.85,0,0,1-1.6-.81,2.16,2.16,0,0,1,.44-2.56,6.38,6.38,0,0,1,.83-.73,4.85,4.85,0,0,0,.65-.55c.27-.28.47-.72.32-1a1.83,1.83,0,0,0-.5-.42,2.56,2.56,0,0,1-.94-.91,2.43,2.43,0,0,1-.24-1,1.52,1.52,0,0,0-.1-.47,1.16,1.16,0,0,0-.91-.47l-.37-.05a4.18,4.18,0,0,1-1.47-.4,1.12,1.12,0,0,1-.49-.52.89.89,0,0,1,0-.78,1.4,1.4,0,0,1,.94-.62,7.78,7.78,0,0,1,4.06.71l.81.29a14.55,14.55,0,0,0,8.14.3A8.72,8.72,0,0,0,49.83,8a1.93,1.93,0,0,1,1.73-.38,2.65,2.65,0,0,1,1.6,1.74,3.17,3.17,0,0,1-.12,3,3.48,3.48,0,0,1-.85.82,18.1,18.1,0,0,1-10.48,3.56,3.62,3.62,0,0,0-1,.08,2.94,2.94,0,0,0-1.19,1,5,5,0,0,1-1.65,1.46,2.28,2.28,0,0,1-1,.21m-.34-9.49a2.07,2.07,0,0,1,.39.54,2.75,2.75,0,0,1,.21.9,1.33,1.33,0,0,0,.1.48,1.49,1.49,0,0,0,.5.43,2.73,2.73,0,0,1,.92.87,2.19,2.19,0,0,1-.52,2.53,6.51,6.51,0,0,1-.79.69,5.18,5.18,0,0,0-.67.57c-.26.29-.45.73-.29,1a.76.76,0,0,0,.9.11,3.74,3.74,0,0,0,1.13-1,4.24,4.24,0,0,1,1.86-1.46,3.85,3.85,0,0,1,1.26-.15,16.85,16.85,0,0,0,9.82-3.3,2.42,2.42,0,0,0,.55-.51,2.1,2.1,0,0,0,0-1.75,1.52,1.52,0,0,0-.74-.94c-.06,0-.25-.07-.58.18a10.08,10.08,0,0,1-3.77,1.71A16,16,0,0,1,38,10.44l-.84-.3-.55-.2" transform="translate(0 0)"/><path id="Path_2241" data-name="Path 2241" class="cls-3" d="M29.12,16.29l-.82-1a14.29,14.29,0,0,1,9-3.07l0,1.31a12.91,12.91,0,0,0-8.15,2.78" transform="translate(0 0)"/><path id="Path_2242" data-name="Path 2242" class="cls-5" d="M54.75,19.92a3.37,3.37,0,0,1,1.84.42c.59.38.95,1,1.54,1.43.33.22.71.34,1,.57a2.67,2.67,0,0,1,.49,3.48,6.94,6.94,0,0,1-2.95,2.41,10.25,10.25,0,0,1-3,1.15,4.09,4.09,0,0,1-3.1-.64,5.81,5.81,0,0,1-1-1l-1.78-2.1a2.58,2.58,0,0,1-.72-1.27c-.13-.92.69-1.67,1.47-2.16,2-1.3,3.65-2.34,6.16-2.33" transform="translate(0 0)"/><path id="Path_2243" data-name="Path 2243" class="cls-3" d="M52.87,30.1a4.48,4.48,0,0,1-2.69-.83,6.64,6.64,0,0,1-1-1.07l-1.79-2.1a3.22,3.22,0,0,1-.87-1.61c-.1-.7.13-1.75,1.76-2.8,2.06-1.31,3.81-2.43,6.48-2.43h0a4,4,0,0,1,2.19.52,4.34,4.34,0,0,1,.92.84,3.56,3.56,0,0,0,.63.6,2.55,2.55,0,0,0,.43.23,5.36,5.36,0,0,1,.62.34,3.33,3.33,0,0,1,.68,4.35A7.52,7.52,0,0,1,57,28.81,10.53,10.53,0,0,1,53.78,30a5.5,5.5,0,0,1-.91.08m1.84-9.52c-2.28,0-3.74.92-5.74,2.2-.5.33-1.29.92-1.2,1.54a2,2,0,0,0,.57.93l1.79,2.1a5.38,5.38,0,0,0,.85.87,3.41,3.41,0,0,0,2.6.51,9.31,9.31,0,0,0,2.82-1.08,6.39,6.39,0,0,0,2.69-2.16,2.06,2.06,0,0,0-.3-2.61,3.75,3.75,0,0,0-.44-.24,3.7,3.7,0,0,1-1.46-1.14,3.82,3.82,0,0,0-.65-.62,3,3,0,0,0-1.5-.31Z" transform="translate(0 0)"/><path id="Path_2244" data-name="Path 2244" class="cls-6" d="M44.79,22.25a5.49,5.49,0,0,0,3.36-.48c.91-.55,1.48-1.54,2.34-2.18a1.54,1.54,0,0,1,1.83-.18c.58.5.3,1.5-.27,2a11.82,11.82,0,0,1-2,1.07A1.78,1.78,0,0,0,49,24.33c.14.5.61.84.84,1.3.33.64.19,1.47.6,2.07a2.34,2.34,0,0,0,1.62.8,3.89,3.89,0,0,1,1.74.57,1.1,1.1,0,0,1,.28,1.53l-.06.07a1.28,1.28,0,0,1-.6.25,3.91,3.91,0,0,1-3-.61A4.5,4.5,0,0,1,49,28.64a2.43,2.43,0,0,0-.37-.59,2.15,2.15,0,0,0-1.74-.32c-3.14.24-6.18-1.06-9.08-2.32a3.43,3.43,0,0,1-1.33-.86A3.76,3.76,0,0,1,36,21.44c.35-.76,1.08-.72,1.79-.6,2.37.4,4.6,1.2,7,1.4" transform="translate(0 0)"/><path id="Path_2245" data-name="Path 2245" class="cls-3" d="M52.62,31.66a4.6,4.6,0,0,1-2.59-.8A5.27,5.27,0,0,1,48.4,29a2,2,0,0,0-.25-.43c-.2-.2-.7-.17-1.15-.13-3.45.26-6.65-1.14-9.46-2.37A4,4,0,0,1,36,25a4.41,4.41,0,0,1-.58-3.81,2.07,2.07,0,0,1,2.5-1c1,.17,1.95.4,2.89.63a27,27,0,0,0,4.07.77,5,5,0,0,0,3-.39A5.75,5.75,0,0,0,49,20.16a7.92,7.92,0,0,1,1.14-1.1,2.14,2.14,0,0,1,2.66-.14,1.64,1.64,0,0,1,.54,1.25,2.38,2.38,0,0,1-.82,1.74,5.19,5.19,0,0,1-1.41.8c-.24.1-.48.22-.71.34-.44.26-.86.73-.75,1.1a1.72,1.72,0,0,0,.34.53,3,3,0,0,1,.78,1.82,2.19,2.19,0,0,0,.23.83,1.89,1.89,0,0,0,1.19.53l.2,0a3.88,3.88,0,0,1,1.83.65A2,2,0,0,1,54.92,30a1.46,1.46,0,0,1-.49,1.16,1.88,1.88,0,0,1-.9.4,4.5,4.5,0,0,1-.9.09m-5.12-4.61a2.12,2.12,0,0,1,1.57.54,2.62,2.62,0,0,1,.44.66,4,4,0,0,0,1.26,1.53,3.25,3.25,0,0,0,2.48.5.76.76,0,0,0,.3-.1.17.17,0,0,0,0-.13.66.66,0,0,0-.23-.46,2.79,2.79,0,0,0-1.25-.4l-.21,0a2.93,2.93,0,0,1-2-1.08,3.09,3.09,0,0,1-.45-1.37,2.8,2.8,0,0,0-.19-.77,2.53,2.53,0,0,0-.31-.42,2.68,2.68,0,0,1-.59-1,2.39,2.39,0,0,1,1.37-2.59,7,7,0,0,1,.83-.4,4.39,4.39,0,0,0,1.08-.6,1.08,1.08,0,0,0,.37-.75.32.32,0,0,0-.1-.26c-.21-.18-.68,0-1,.22a5.91,5.91,0,0,0-1,.92,6.75,6.75,0,0,1-1.44,1.28,6.1,6.1,0,0,1-3.76.58,28.18,28.18,0,0,1-4.27-.8c-.91-.22-1.86-.45-2.8-.6s-1,0-1.09.21a3.23,3.23,0,0,0,.4,2.43,2.93,2.93,0,0,0,1.09.67c2.67,1.17,5.71,2.5,8.77,2.27.21,0,.44,0,.68,0" transform="translate(0 0)"/><path id="Path_2246" data-name="Path 2246" class="cls-3" d="M50,25.78l-.8-1a10.56,10.56,0,0,1,5-1.67l.9-.15a9.73,9.73,0,0,1,2.41-.18l-.08,1.31a7.82,7.82,0,0,0-2.1.17l-.94.15A9.4,9.4,0,0,0,50,25.78" transform="translate(0 0)"/><path id="Path_2247" data-name="Path 2247" class="cls-5" d="M20.23,19a11.11,11.11,0,0,1,3.62-.53,5.05,5.05,0,0,1,1.73.18,3.36,3.36,0,0,1,2.06,3.06,7,7,0,0,1-1.11,3.7,6.34,6.34,0,0,1-1.64,2,4.66,4.66,0,0,1-5.59-.43,6.14,6.14,0,0,1-2-4.6c0-1.55,1.55-2.84,2.91-3.35" transform="translate(0 0)"/><path id="Path_2248" data-name="Path 2248" class="cls-3" d="M22.47,28.75a5.46,5.46,0,0,1-3.6-1.34,6.72,6.72,0,0,1-2.21-5.1c0-1.88,1.75-3.36,3.34-3.95a11.58,11.58,0,0,1,3.83-.56,5.42,5.42,0,0,1,2,.21,4,4,0,0,1,2.5,3.65,7.42,7.42,0,0,1-1.2,4.06,6.77,6.77,0,0,1-1.82,2.16,4.69,4.69,0,0,1-2.8.87m-2-9.16h0C19.27,20,18,21.14,18,22.33a5.51,5.51,0,0,0,1.77,4.09,4,4,0,0,0,4.76.4A5.51,5.51,0,0,0,26,25.06a6.2,6.2,0,0,0,1-3.34,2.7,2.7,0,0,0-1.62-2.47,4.23,4.23,0,0,0-1.5-.13,10.61,10.61,0,0,0-3.41.47" transform="translate(0 0)"/><path id="Path_2249" data-name="Path 2249" class="cls-6" d="M14.08,26.26a3.59,3.59,0,0,0,2-2.47c.12-.71-.06-1.45,0-2.17a1.46,1.46,0,0,1,.54-1,.76.76,0,0,1,1.06.14,1.09,1.09,0,0,1,.12.64,9.67,9.67,0,0,1-.24,1.86,3,3,0,0,1,1.68-1.16,1.61,1.61,0,0,1,1.77.76c.53,1.13-.72,2.59,0,3.63.32.5,1,.69,1.35,1.14a20.68,20.68,0,0,1-4.64,2l-6.92,2.32a11.58,11.58,0,0,1-3.62.8A3.86,3.86,0,0,1,4,31.21a2.37,2.37,0,0,1,.54-3.27,3,3,0,0,1,1.4-.35c1.46-.07,3.16.49,4.57,0,.46-.17.82-.45,1.3-.59a12.9,12.9,0,0,0,2.29-.7" transform="translate(0 0)"/><path id="Path_2250" data-name="Path 2250" class="cls-3" d="M7.22,33.37h0a4.47,4.47,0,0,1-3.78-1.8A3.26,3.26,0,0,1,3,29.08a2.59,2.59,0,0,1,1.21-1.71,3.47,3.47,0,0,1,1.7-.44,12.84,12.84,0,0,1,1.75.1,5.9,5.9,0,0,0,2.61-.09,3.22,3.22,0,0,0,.5-.23,4,4,0,0,1,.85-.37c.26-.08.5-.14.76-.2a6.37,6.37,0,0,0,1.42-.46,3,3,0,0,0,1.68-2,5.24,5.24,0,0,0,0-1,5.92,5.92,0,0,1,0-1.19,2.06,2.06,0,0,1,.81-1.46,1.52,1.52,0,0,1,1.15-.24,1.28,1.28,0,0,1,.84.55,1.82,1.82,0,0,1,.22,1,2.17,2.17,0,0,1,0,.26,3,3,0,0,1,.66-.22,2.23,2.23,0,0,1,2.5,1.13,3.14,3.14,0,0,1,0,2.22c-.16.64-.25,1-.06,1.33a1.69,1.69,0,0,0,.52.44,3.13,3.13,0,0,1,.77.63l.49.57-.63.4A21.08,21.08,0,0,1,18,30.22L11,32.55a12.2,12.2,0,0,1-3.82.82m-1-5.13H6a2.3,2.3,0,0,0-1.09.26,1.34,1.34,0,0,0-.6.88,1.93,1.93,0,0,0,.26,1.46,3.49,3.49,0,0,0,2.7,1.22,11,11,0,0,0,3.4-.76L17.54,29a26.41,26.41,0,0,0,3.67-1.45,2.7,2.7,0,0,1-.73-.7,2.92,2.92,0,0,1-.1-2.37,2.2,2.2,0,0,0,.1-1.34.94.94,0,0,0-1-.4,2.39,2.39,0,0,0-1.3.93L17,23.09a9.2,9.2,0,0,0,.22-1.73.88.88,0,0,0,0-.28s-.08,0-.13.06a.82.82,0,0,0-.26.57,4.92,4.92,0,0,0,0,.94,5.81,5.81,0,0,1,0,1.25,4.24,4.24,0,0,1-2.37,3h0a7.39,7.39,0,0,1-1.72.57c-.22,0-.46.11-.69.18a3.66,3.66,0,0,0-.61.27,5.44,5.44,0,0,1-.65.3,6.93,6.93,0,0,1-3.2.16c-.45,0-.89-.09-1.34-.1" transform="translate(0 0)"/><path id="Path_2251" data-name="Path 2251" class="cls-5" d="M36.26,35.54a2,2,0,0,0,1-.69c.44-.68,0-1.57-.4-2.26a8.29,8.29,0,0,0-3.18-3.53,6.44,6.44,0,0,0-3-.48,10,10,0,0,0-4.17.92A2.79,2.79,0,0,0,25,31c-.57,2,.93,5.12,3.1,5.25,2.6.17,5.71.2,8.15-.75" transform="translate(0 0)"/><path id="Path_2252" data-name="Path 2252" class="cls-3" d="M30.65,37c-.9,0-1.77,0-2.58-.09a3.78,3.78,0,0,1-2.78-1.75,5.47,5.47,0,0,1-.9-4.35,3.28,3.28,0,0,1,1.86-1.93,10.36,10.36,0,0,1,4.44-1,7,7,0,0,1,3.27.55,8.8,8.8,0,0,1,3.47,3.78c.3.5,1.1,1.84.39,3a2.57,2.57,0,0,1-1.32.95,16.38,16.38,0,0,1-5.85.89M31,29.23h-.31a9.16,9.16,0,0,0-3.89.86,2,2,0,0,0-1.19,1.13,4.11,4.11,0,0,0,.72,3.22,2.52,2.52,0,0,0,1.79,1.19c2.42.15,5.5.21,7.87-.71h0a1.37,1.37,0,0,0,.68-.43c.19-.29,0-.8-.41-1.57a7.84,7.84,0,0,0-2.9-3.27,5.42,5.42,0,0,0-2.35-.43" transform="translate(0 0)"/><path id="Path_2253" data-name="Path 2253" class="cls-5" d="M33.45,30.23c.61.47,1.06,1.13,1.63,1.66a4.57,4.57,0,0,0,1.88,1,1.16,1.16,0,0,0,.58.06,1,1,0,0,0,.7-1,2.25,2.25,0,0,0-.41-1.21,8.32,8.32,0,0,0-7.67-3.89c-1.08.1-3.12,1.62-1.36,2.35a7.54,7.54,0,0,0,2.12.12,4.84,4.84,0,0,1,2.52.85" transform="translate(0 0)"/><path id="Path_2254" data-name="Path 2254" class="cls-3" d="M37.39,33.65a2,2,0,0,1-.6-.09,5.24,5.24,0,0,1-2.15-1.19,8.73,8.73,0,0,1-.73-.76,6.28,6.28,0,0,0-.86-.85A4.1,4.1,0,0,0,30.86,30q-.33,0-.66,0a3.93,3.93,0,0,1-1.64-.16,1.45,1.45,0,0,1-1.09-1.56c.17-1.07,1.69-2,2.64-2.06a8.91,8.91,0,0,1,8.28,4.2A3,3,0,0,1,38.91,32a1.62,1.62,0,0,1-1.24,1.6,1.33,1.33,0,0,1-.28,0m-6.77-4.94H31a5.43,5.43,0,0,1,2.86,1,7.86,7.86,0,0,1,1,1c.2.23.41.46.63.67a4,4,0,0,0,1.62.89.66.66,0,0,0,.28,0,.37.37,0,0,0,.17-.33,1.77,1.77,0,0,0-.32-.86,7.64,7.64,0,0,0-7-3.58,2.17,2.17,0,0,0-1.46.94h0l.28.16a3.34,3.34,0,0,0,1.09.07l.48,0" transform="translate(0 0)"/><path id="Path_2255" data-name="Path 2255" class="cls-6" d="M21.38,32.81a6.21,6.21,0,0,1,2.83.39,3.88,3.88,0,0,1,1.39,1.48,9.42,9.42,0,0,0,1.17,1.69,2.17,2.17,0,0,0,1.84.73,1.25,1.25,0,0,0,1.05-1.43v-.05a1.8,1.8,0,0,0-.58-.78,8.64,8.64,0,0,1-1.77-1.7,1.86,1.86,0,0,1,0-2.27c.51-.51,1.4-.58,1.76-1.2s0-1.58.44-2.16a1.52,1.52,0,0,1,1.42-.39,4.09,4.09,0,0,0,1.52.08c.5-.13.93-.69.69-1.15a1,1,0,0,0-.8-.46c-1.76-.34-3.48.55-5.18,1.12A15.21,15.21,0,0,1,13.3,24.4a2.88,2.88,0,0,0-1.18-.66c-1.65-.31-2.07,1.81-1.64,2.94a4.63,4.63,0,0,0,2,2.3c2.75,1.74,5.47,3.72,8.86,3.84" transform="translate(0 0)"/><path id="Path_2256" data-name="Path 2256" class="cls-3" d="M28.35,37.77a2.92,2.92,0,0,1-2.05-.94,7.22,7.22,0,0,1-1.05-1.46L25,35a3.45,3.45,0,0,0-1.14-1.26,4.28,4.28,0,0,0-1.94-.3h-.6c-3.23-.11-5.84-1.79-8.37-3.41l-.81-.53a5.14,5.14,0,0,1-2.3-2.61,3.38,3.38,0,0,1,.43-3.15,1.94,1.94,0,0,1,1.93-.67,3.29,3.29,0,0,1,1.38.73A14.71,14.71,0,0,0,27,26.09l1-.36a8.29,8.29,0,0,1,4.52-.79,1.68,1.68,0,0,1,1.25.81,1.28,1.28,0,0,1,0,1.13,1.73,1.73,0,0,1-1.13.95,3.38,3.38,0,0,1-1.45,0l-.32,0a.94.94,0,0,0-.82.14,1.37,1.37,0,0,0-.11.72A2.7,2.7,0,0,1,29.66,30a2.59,2.59,0,0,1-1.25,1,2.57,2.57,0,0,0-.62.36,1.28,1.28,0,0,0,.06,1.46A5.6,5.6,0,0,0,29,33.94l.49.41a2.42,2.42,0,0,1,.77,1.07,1.64,1.64,0,0,1-.2,1.38,2,2,0,0,1-1.36.94,1.58,1.58,0,0,1-.37,0m-6.94-5.61H22a5.23,5.23,0,0,1,2.56.45,4.61,4.61,0,0,1,1.63,1.71l.22.36a6.54,6.54,0,0,0,.86,1.22,1.6,1.6,0,0,0,1.26.54.7.7,0,0,0,.47-.33.35.35,0,0,0,.06-.31,1.29,1.29,0,0,0-.39-.48L28.19,35a6.83,6.83,0,0,1-1.44-1.45,2.52,2.52,0,0,1,.1-3.1,3.51,3.51,0,0,1,1-.63,1.6,1.6,0,0,0,.67-.44,1.7,1.7,0,0,0,.1-.71A2.34,2.34,0,0,1,29,27.1a2.08,2.08,0,0,1,2-.63l.37.05a2.14,2.14,0,0,0,.91,0,.42.42,0,0,0,.26-.23h0a2.07,2.07,0,0,0-.33-.1,7.38,7.38,0,0,0-3.81.73l-1,.38A15.79,15.79,0,0,1,12.9,24.92a2.52,2.52,0,0,0-.9-.54.66.66,0,0,0-.69.22,2.13,2.13,0,0,0-.22,1.84,3.91,3.91,0,0,0,1.78,2l.82.52c2.49,1.61,4.84,3.12,7.71,3.22" transform="translate(0 0)"/></g></g></g></g></g></svg>