<svg xmlns="http://www.w3.org/2000/svg" xmlns:xlink="http://www.w3.org/1999/xlink" viewBox="0 0 45.98 72.66"><defs><style>.cls-1{fill:none;}.cls-2{isolation:isolate;}.cls-3{fill:#004849;}.cls-4{clip-path:url(#clip-path);}.cls-5{fill:#2cdeb4;}</style><clipPath id="clip-path" transform="translate(0 0)"><rect class="cls-1" x="7.07" width="32.07" height="55.32"/></clipPath></defs><g id="Layer_2" data-name="Layer 2"><g id="Layer_1-2" data-name="Layer 1"><g id="eucalyptol" class="cls-2"><g class="cls-2"><path class="cls-3" d="M4.56,68H1.15a1.41,1.41,0,0,0,.38.93,1.14,1.14,0,0,0,.86.34A1.12,1.12,0,0,0,3.07,69a2.69,2.69,0,0,0,.6-.73l.93.52a3.51,3.51,0,0,1-.45.63,2.33,2.33,0,0,1-.52.43,2,2,0,0,1-.59.24,2.51,2.51,0,0,1-.69.08,2.22,2.22,0,0,1-1.71-.68A2.57,2.57,0,0,1,0,67.7a2.64,2.64,0,0,1,.62-1.82,2.16,2.16,0,0,1,1.67-.69A2.13,2.13,0,0,1,4,65.86a2.63,2.63,0,0,1,.6,1.84Zm-1.13-.9a1,1,0,0,0-1.11-.88,1.21,1.21,0,0,0-.38.06,1.14,1.14,0,0,0-.32.18,1.05,1.05,0,0,0-.24.27,1.38,1.38,0,0,0-.16.37Z" transform="translate(0 0)"/><path class="cls-3" d="M6.86,65.32v2.73c0,.79.31,1.18.93,1.18s.93-.39.93-1.18V65.32h1.1v2.75a3.19,3.19,0,0,1-.14,1,1.61,1.61,0,0,1-.48.67,2.08,2.08,0,0,1-1.41.48,2.08,2.08,0,0,1-1.41-.48,1.73,1.73,0,0,1-.49-.67,2.77,2.77,0,0,1-.13-1V65.32Z" transform="translate(0 0)"/><path class="cls-3" d="M14.91,65.53V67a2.51,2.51,0,0,0-.68-.63,1.27,1.27,0,0,0-.69-.18,1.37,1.37,0,0,0-1,.43,1.68,1.68,0,0,0,0,2.19,1.33,1.33,0,0,0,1,.43,1.45,1.45,0,0,0,.7-.17,2.91,2.91,0,0,0,.69-.64v1.45a2.9,2.9,0,0,1-1.34.34,2.55,2.55,0,0,1-1.85-.71A2.39,2.39,0,0,1,11,67.72a2.42,2.42,0,0,1,.75-1.8,2.56,2.56,0,0,1,1.85-.73A2.71,2.71,0,0,1,14.91,65.53Z" transform="translate(0 0)"/><path class="cls-3" d="M19.48,65.32h1.1v4.76h-1.1v-.5a2.11,2.11,0,0,1-1.46.63,2.08,2.08,0,0,1-1.63-.71,2.65,2.65,0,0,1-.64-1.82,2.56,2.56,0,0,1,.64-1.78,2.06,2.06,0,0,1,3.09,0Zm-2.61,2.36a1.65,1.65,0,0,0,.37,1.12,1.18,1.18,0,0,0,.94.43,1.26,1.26,0,0,0,1-.42,1.8,1.8,0,0,0,0-2.21,1.26,1.26,0,0,0-1-.42,1.19,1.19,0,0,0-.94.43A1.59,1.59,0,0,0,16.87,67.68Z" transform="translate(0 0)"/><path class="cls-3" d="M23.07,61.83v8.25H22V61.83Z" transform="translate(0 0)"/><path class="cls-3" d="M26,69.19l-2.13-3.87h1.27l1.46,2.73L28,65.32h1.24l-3.79,7.34H24.19Z" transform="translate(0 0)"/><path class="cls-3" d="M31.08,72.66H30V65.32h1.1v.52a2,2,0,0,1,1.47-.65,2.05,2.05,0,0,1,1.62.72,2.6,2.6,0,0,1,.64,1.81,2.53,2.53,0,0,1-.64,1.78,2.07,2.07,0,0,1-3.09,0Zm2.61-4.93a1.65,1.65,0,0,0-.37-1.12,1.2,1.2,0,0,0-1-.43,1.26,1.26,0,0,0-1,.42A1.59,1.59,0,0,0,31,67.7a1.64,1.64,0,0,0,.37,1.11,1.24,1.24,0,0,0,1,.42,1.18,1.18,0,0,0,.94-.43A1.56,1.56,0,0,0,33.69,67.73Z" transform="translate(0 0)"/><path class="cls-3" d="M37.2,66.35v3.73H36.1V66.35h-.47v-1h.47V63.58h1.1v1.74h.85v1Z" transform="translate(0 0)"/><path class="cls-3" d="M38.64,67.66a2.37,2.37,0,0,1,.74-1.75,2.47,2.47,0,0,1,1.8-.72,2.44,2.44,0,0,1,1.8.73,2.41,2.41,0,0,1,.74,1.78A2.44,2.44,0,0,1,43,69.5a2.55,2.55,0,0,1-1.82.71,2.39,2.39,0,0,1-1.79-.73A2.44,2.44,0,0,1,38.64,67.66Zm1.13,0a1.56,1.56,0,0,0,.38,1.13,1.33,1.33,0,0,0,1,.42,1.36,1.36,0,0,0,1-.41,1.81,1.81,0,0,0,0-2.22,1.35,1.35,0,0,0-1-.42,1.33,1.33,0,0,0-1,.42A1.52,1.52,0,0,0,39.77,67.68Z" transform="translate(0 0)"/><path class="cls-3" d="M46,61.83v8.25h-1.1V61.83Z" transform="translate(0 0)"/></g></g><g id="Group_2357" data-name="Group 2357"><g class="cls-4"><g id="Group_2356" data-name="Group 2356"><path id="Path_2337" data-name="Path 2337" class="cls-5" d="M24.54,42.66a4.31,4.31,0,0,0,.39,2.06A4.18,4.18,0,0,0,28,46.66a8.58,8.58,0,0,0,6-1.18,9.6,9.6,0,0,0,3.83-4.76,5.55,5.55,0,0,0,0-4.48,5.12,5.12,0,0,0-4.19-2.4c-2-.14-4.67.18-6.12,1.64a10.47,10.47,0,0,0-2.94,7.18" transform="translate(0 0)"/><path id="Path_2338" data-name="Path 2338" class="cls-3" d="M29.42,47.44a8.91,8.91,0,0,1-1.54-.14A4.86,4.86,0,0,1,24.35,45a5,5,0,0,1-.47-2.37A11.16,11.16,0,0,1,27,35c2-2,5.58-1.9,6.63-1.82a5.72,5.72,0,0,1,4.72,2.75,6.1,6.1,0,0,1,.05,5,10.16,10.16,0,0,1-4.1,5.1,9.41,9.41,0,0,1-4.89,1.4m3.29-13c-1.72,0-3.68.39-4.77,1.48a9.79,9.79,0,0,0-2.75,6.72h0a3.8,3.8,0,0,0,.31,1.76A3.77,3.77,0,0,0,28.11,46a7.9,7.9,0,0,0,5.51-1.09,8.87,8.87,0,0,0,3.57-4.44,5,5,0,0,0,0-3.93,4.47,4.47,0,0,0-3.65-2c-.27,0-.56,0-.84,0" transform="translate(0 0)"/><path id="Path_2339" data-name="Path 2339" class="cls-5" d="M17.82,4a6.76,6.76,0,0,0-.91,3.75,5,5,0,0,0,1.63,3.45,5.27,5.27,0,0,0,2,1.06,4.11,4.11,0,0,0,2,.16A4.43,4.43,0,0,0,25,10.72,7.47,7.47,0,0,0,26.6,5C26.31,3.26,24.87.89,22.92.67S18.74,2.37,17.82,4" transform="translate(0 0)"/><path id="Path_2340" data-name="Path 2340" class="cls-3" d="M21.88,13.15a5.6,5.6,0,0,1-1.57-.25,6,6,0,0,1-2.2-1.2,5.64,5.64,0,0,1-1.85-3.9,7.34,7.34,0,0,1,1-4.11h0C18.17,2.06,20.43-.25,23,0,25.39.29,27,3.09,27.25,4.9a8.11,8.11,0,0,1-1.77,6.23,5,5,0,0,1-2.81,1.94,3.53,3.53,0,0,1-.79.08M18.39,4.33a6.11,6.11,0,0,0-.83,3.39,4.36,4.36,0,0,0,1.41,3,4.52,4.52,0,0,0,1.73.92,3.5,3.5,0,0,0,1.7.15,3.79,3.79,0,0,0,2.06-1.48A6.82,6.82,0,0,0,26,5.12c-.24-1.44-1.48-3.61-3.1-3.79-1.8-.21-3.69,1.63-4.46,3" transform="translate(0 0)"/><path id="Path_2341" data-name="Path 2341" class="cls-5" d="M19,35.69a3.68,3.68,0,0,0,.44-1.48,7,7,0,0,0-9.34-7.29,3.44,3.44,0,0,0-1.39.85,4.14,4.14,0,0,0-.89,2.33,7.31,7.31,0,0,0,0,2.19,6.06,6.06,0,0,0,2.36,3.59c2.22,1.7,7,2.91,8.8-.19" transform="translate(0 0)"/><path id="Path_2342" data-name="Path 2342" class="cls-3" d="M15.27,38.26A9.77,9.77,0,0,1,9.78,36.4a6.67,6.67,0,0,1-2.61-4,8,8,0,0,1,0-2.39,4.68,4.68,0,0,1,1.06-2.7,4,4,0,0,1,1.64-1,7.74,7.74,0,0,1,7.34,1.13,7.79,7.79,0,0,1,2.89,6.84A4.44,4.44,0,0,1,19.55,36h0a4.36,4.36,0,0,1-3,2.12,6.41,6.41,0,0,1-1.23.12m-2.82-11.1a6.11,6.11,0,0,0-2.16.38,2.82,2.82,0,0,0-1.14.68,3.5,3.5,0,0,0-.71,2,6.33,6.33,0,0,0,0,2,5.33,5.33,0,0,0,2.11,3.19,8,8,0,0,0,5.67,1.5,3.07,3.07,0,0,0,2.16-1.49,3.11,3.11,0,0,0,.35-1.23,6.42,6.42,0,0,0-2.39-5.66,6.35,6.35,0,0,0-3.92-1.32" transform="translate(0 0)"/><path id="Path_2343" data-name="Path 2343" class="cls-5" d="M28.92,31.13a7.59,7.59,0,0,0,5.67.46,5.83,5.83,0,0,0,3.8-4.09c.82-3.72-3.74-5.54-6.77-5.46-2.67.08-4.3,2-5,4.46-.64,2.12.38,3.7,2.32,4.63" transform="translate(0 0)"/><path id="Path_2344" data-name="Path 2344" class="cls-3" d="M32.39,32.6a8.86,8.86,0,0,1-3.76-.87c-2.38-1.15-3.35-3.12-2.66-5.41.92-3.06,3-4.86,5.63-4.93,2.06,0,5,.72,6.56,2.58A4.17,4.17,0,0,1,39,27.64a6.49,6.49,0,0,1-4.23,4.57,7.6,7.6,0,0,1-2.41.39m-.56-9.9h-.19c-2.82.08-4,2.54-4.41,4-.63,2.1.73,3.25,2,3.85a6.92,6.92,0,0,0,5.17.43,5.16,5.16,0,0,0,3.38-3.61,2.87,2.87,0,0,0-.6-2.55,7.4,7.4,0,0,0-5.32-2.11" transform="translate(0 0)"/><path id="Path_2345" data-name="Path 2345" class="cls-5" d="M27.8,19.66a7.83,7.83,0,0,0,1.67-.18c3.83-.87,6.16-6.55,1.74-8.28-3.47-1.35-6.39,1.06-7.13,4.49-.58,2.65,1.23,4,3.72,4" transform="translate(0 0)"/><path id="Path_2346" data-name="Path 2346" class="cls-3" d="M27.64,20.32a4.47,4.47,0,0,1-3.55-1.42,3.76,3.76,0,0,1-.65-3.35,7,7,0,0,1,3.33-4.76,5.48,5.48,0,0,1,4.68-.2,4,4,0,0,1,2.8,4.2,6.25,6.25,0,0,1-4.64,5.34,9.09,9.09,0,0,1-1.8.19h-.18m1.63-8.84a4,4,0,0,0-1.88.47,5.67,5.67,0,0,0-2.67,3.88,2.53,2.53,0,0,0,.38,2.23,3.27,3.27,0,0,0,2.69,1,8.07,8.07,0,0,0,1.54-.17,4.91,4.91,0,0,0,3.62-4.15,2.72,2.72,0,0,0-2-2.88,4.72,4.72,0,0,0-1.7-.33" transform="translate(0 0)"/><path id="Path_2347" data-name="Path 2347" class="cls-5" d="M11.3,16.8a4.29,4.29,0,0,0-.59,2.71,5.13,5.13,0,0,0,2.73,4.15,8.11,8.11,0,0,0,2.32.61,6.89,6.89,0,0,0,2.48,0,2.54,2.54,0,0,0,1.86-1.5,3.77,3.77,0,0,0,.11-1.38,5.16,5.16,0,0,0-.8-3.1,4.38,4.38,0,0,0-1.21-1c-1.95-1.16-5.24-3.1-6.9-.54" transform="translate(0 0)"/><path id="Path_2348" data-name="Path 2348" class="cls-3" d="M17.25,25.06a11.89,11.89,0,0,1-1.59-.14,8.74,8.74,0,0,1-2.5-.67,5.8,5.8,0,0,1-3.1-4.68,5,5,0,0,1,.69-3.13c2-3.11,5.92-.78,7.79.34a5.35,5.35,0,0,1,1.39,1.12,5.76,5.76,0,0,1,.94,3.49A4.45,4.45,0,0,1,20.72,23a3.2,3.2,0,0,1-2.33,1.93,5.52,5.52,0,0,1-1.14.12m-5.4-7.9a3.6,3.6,0,0,0-.48,2.29,4.46,4.46,0,0,0,2.36,3.62,7.7,7.7,0,0,0,2.12.55,6.25,6.25,0,0,0,2.24,0,1.9,1.9,0,0,0,1.39-1.08,3.31,3.31,0,0,0,.08-1.13,4.61,4.61,0,0,0-.65-2.72,4,4,0,0,0-1.05-.82c-2.26-1.36-4.77-2.65-6-.75" transform="translate(0 0)"/><path id="Path_2349" data-name="Path 2349" class="cls-3" d="M20.22,55.32a.65.65,0,0,1-.65-.65,54.84,54.84,0,0,1,1.05-10.54,70,70,0,0,0,1.07-8.28,113.69,113.69,0,0,0-.28-13.44,93.63,93.63,0,0,1,0-16.49l.06-.55a12.44,12.44,0,0,0,.08-3.9.66.66,0,0,1,1.29-.25,13.55,13.55,0,0,1-.06,4.31l-.07.54a92.83,92.83,0,0,0,0,16.25A116.5,116.5,0,0,1,23,35.92a74.43,74.43,0,0,1-1.08,8.43,53.34,53.34,0,0,0-1,10.31.66.66,0,0,1-.65.66h0Z" transform="translate(0 0)"/><path id="Path_2350" data-name="Path 2350" class="cls-3" d="M20.9,48.85a.64.64,0,0,1-.65-.65.68.68,0,0,1,.14-.41c2.06-2.6,5.08-4.08,8-5.52L29,42c2.82-1.4,6-3.13,7.54-6a.66.66,0,1,1,1.15.64h0c-1.76,3.21-5.11,5.07-8.11,6.56l-.63.31c-2.78,1.37-5.66,2.79-7.54,5.16a.7.7,0,0,1-.52.25" transform="translate(0 0)"/><path id="Path_2351" data-name="Path 2351" class="cls-3" d="M21.85,39.83a.69.69,0,0,1-.5-.23,38.37,38.37,0,0,0-7.26-6.07c-.85-.6-1.7-1.2-2.53-1.82a7.78,7.78,0,0,1-2.87-3.25.66.66,0,0,1,.39-.84.64.64,0,0,1,.84.38h0a6.56,6.56,0,0,0,2.43,2.66c.82.61,1.66,1.2,2.5,1.8a39.62,39.62,0,0,1,7.5,6.29.66.66,0,0,1-.07.92.69.69,0,0,1-.43.16" transform="translate(0 0)"/><path id="Path_2352" data-name="Path 2352" class="cls-3" d="M22.62,31.24a.66.66,0,0,1-.66-.65.62.62,0,0,1,.29-.55c2.33-1.61,5.1-2.06,7.78-2.5s5.47-.91,7.6-2.59a.65.65,0,0,1,.92.09.64.64,0,0,1-.1.92h0c-2.39,1.9-5.34,2.39-8.2,2.86-2.65.44-5.15.85-7.25,2.29a.63.63,0,0,1-.37.12" transform="translate(0 0)"/><path id="Path_2353" data-name="Path 2353" class="cls-3" d="M21.87,26.93a.75.75,0,0,1-.36-.1,8.49,8.49,0,0,1-2.19-2.32A10.53,10.53,0,0,0,18,22.88a11.1,11.1,0,0,0-1.83-1.2A10.63,10.63,0,0,1,14,20.21a10.64,10.64,0,0,1-2.13-3.33.64.64,0,0,1,.34-.86.65.65,0,0,1,.84.3,9.45,9.45,0,0,0,1.85,2.93,9.16,9.16,0,0,0,1.91,1.29,11,11,0,0,1,2.06,1.37,10.88,10.88,0,0,1,1.55,1.83,7.66,7.66,0,0,0,1.83,2,.64.64,0,0,1,.2.9.66.66,0,0,1-.55.31" transform="translate(0 0)"/><path id="Path_2354" data-name="Path 2354" class="cls-3" d="M22.18,21.86a.66.66,0,0,1-.66-.65.68.68,0,0,1,.29-.55,44.19,44.19,0,0,0,5.4-4.24c.38-.35.76-.72,1.13-1.08a15.74,15.74,0,0,1,4.28-3.29.66.66,0,0,1,.54,1.2,14.49,14.49,0,0,0-3.9,3c-.38.38-.77.75-1.16,1.11a45.77,45.77,0,0,1-5.55,4.37.62.62,0,0,1-.37.11" transform="translate(0 0)"/></g></g></g></g></g></svg>