<svg xmlns="http://www.w3.org/2000/svg" xmlns:xlink="http://www.w3.org/1999/xlink" viewBox="0 0 45.98 70.03"><defs><style>.cls-1{fill:none;}.cls-2{isolation:isolate;}.cls-3{fill:#004849;}.cls-4{clip-path:url(#clip-path);}.cls-5{fill:#2cdeb4;}</style><clipPath id="clip-path" transform="translate(0 0)"><rect class="cls-1" x="7.83" width="30.55" height="52.69"/></clipPath></defs><g id="Layer_2" data-name="Layer 2"><g id="Layer_1-2" data-name="Layer 1"><g id="eucalyptol" class="cls-2"><g class="cls-2"><path class="cls-3" d="M4.56,65.32H1.15a1.42,1.42,0,0,0,.38.94,1.18,1.18,0,0,0,.86.34,1.12,1.12,0,0,0,.68-.2,2.62,2.62,0,0,0,.6-.72l.93.52a3.91,3.91,0,0,1-.45.63,3,3,0,0,1-.52.43A2,2,0,0,1,3,67.5a3,3,0,0,1-.69.08A2.26,2.26,0,0,1,.64,66.9,2.57,2.57,0,0,1,0,65.07a2.69,2.69,0,0,1,.62-1.83,2.18,2.18,0,0,1,1.67-.68A2.18,2.18,0,0,1,4,63.22a2.67,2.67,0,0,1,.6,1.85Zm-1.13-.89a1.05,1.05,0,0,0-1.11-.88,1.21,1.21,0,0,0-.38.06,1.41,1.41,0,0,0-.32.17,1.31,1.31,0,0,0-.24.28,1.38,1.38,0,0,0-.16.37Z" transform="translate(0 0)"/><path class="cls-3" d="M6.86,62.69v2.73c0,.79.31,1.18.93,1.18s.93-.39.93-1.18V62.69h1.1v2.75a3.24,3.24,0,0,1-.14,1,1.67,1.67,0,0,1-.48.67,2.08,2.08,0,0,1-1.41.48,2.08,2.08,0,0,1-1.41-.48,1.81,1.81,0,0,1-.49-.67,2.77,2.77,0,0,1-.13-1V62.69Z" transform="translate(0 0)"/><path class="cls-3" d="M14.91,62.89v1.46a2.89,2.89,0,0,0-.68-.63,1.46,1.46,0,0,0-1.72.26,1.54,1.54,0,0,0-.41,1.09,1.58,1.58,0,0,0,.4,1.1,1.33,1.33,0,0,0,1,.43,1.45,1.45,0,0,0,.7-.17,3,3,0,0,0,.69-.65v1.45a2.79,2.79,0,0,1-1.34.35,2.59,2.59,0,0,1-1.85-.71A2.39,2.39,0,0,1,11,65.09a2.42,2.42,0,0,1,.75-1.8,2.54,2.54,0,0,1,1.85-.73A2.82,2.82,0,0,1,14.91,62.89Z" transform="translate(0 0)"/><path class="cls-3" d="M19.48,62.69h1.1v4.75h-1.1V67a2.12,2.12,0,0,1-3.09-.08,2.65,2.65,0,0,1-.64-1.82,2.54,2.54,0,0,1,.64-1.78,2,2,0,0,1,1.6-.71,2,2,0,0,1,1.49.68Zm-2.61,2.36a1.6,1.6,0,0,0,.37,1.11,1.19,1.19,0,0,0,.94.44,1.26,1.26,0,0,0,1-.42,1.8,1.8,0,0,0,0-2.21,1.26,1.26,0,0,0-1-.42,1.19,1.19,0,0,0-.94.43A1.57,1.57,0,0,0,16.87,65.05Z" transform="translate(0 0)"/><path class="cls-3" d="M23.07,59.2v8.24H22V59.2Z" transform="translate(0 0)"/><path class="cls-3" d="M26,66.56l-2.13-3.87h1.27l1.46,2.73L28,62.69h1.24L25.44,70H24.19Z" transform="translate(0 0)"/><path class="cls-3" d="M31.08,70H30V62.69h1.1v.52a2,2,0,0,1,1.47-.65,2.05,2.05,0,0,1,1.62.72,2.6,2.6,0,0,1,.64,1.81,2.54,2.54,0,0,1-.64,1.78,2.07,2.07,0,0,1-3.09,0Zm2.61-4.94A1.64,1.64,0,0,0,33.32,64a1.2,1.2,0,0,0-1-.43,1.26,1.26,0,0,0-1,.42,1.58,1.58,0,0,0-.37,1.1,1.61,1.61,0,0,0,.37,1.1,1.22,1.22,0,0,0,1,.43,1.18,1.18,0,0,0,.94-.43A1.6,1.6,0,0,0,33.69,65.09Z" transform="translate(0 0)"/><path class="cls-3" d="M37.2,63.71v3.73H36.1V63.71h-.47v-1h.47V60.94h1.1v1.75h.85v1Z" transform="translate(0 0)"/><path class="cls-3" d="M38.64,65a2.36,2.36,0,0,1,.74-1.75,2.61,2.61,0,0,1,3.6,0,2.53,2.53,0,0,1,0,3.58,2.52,2.52,0,0,1-1.82.72,2.39,2.39,0,0,1-1.79-.73A2.44,2.44,0,0,1,38.64,65Zm1.13,0a1.58,1.58,0,0,0,.38,1.13,1.47,1.47,0,0,0,2.06,0,1.8,1.8,0,0,0,0-2.21,1.35,1.35,0,0,0-1-.42,1.33,1.33,0,0,0-1,.42A1.52,1.52,0,0,0,39.77,65.05Z" transform="translate(0 0)"/><path class="cls-3" d="M46,59.2v8.24h-1.1V59.2Z" transform="translate(0 0)"/></g></g><g id="Group_2333" data-name="Group 2333"><g class="cls-4"><g id="Group_2332" data-name="Group 2332"><path id="Path_1964" data-name="Path 1964" class="cls-5" d="M24.47,40.63a4.13,4.13,0,0,0,.37,2,4,4,0,0,0,2.92,1.84,8.12,8.12,0,0,0,5.69-1.12,9,9,0,0,0,3.65-4.53,5.27,5.27,0,0,0,0-4.26,4.85,4.85,0,0,0-4-2.29c-1.87-.14-4.44.17-5.83,1.56a10,10,0,0,0-2.8,6.84" transform="translate(0 0)"/><path id="Path_1965" data-name="Path 1965" class="cls-3" d="M29.12,45.18a8.11,8.11,0,0,1-1.47-.13,4.68,4.68,0,0,1-3.37-2.17,5,5,0,0,1-.44-2.26,10.61,10.61,0,0,1,3-7.27c1.9-1.9,5.32-1.82,6.32-1.74a5.47,5.47,0,0,1,4.5,2.61,5.83,5.83,0,0,1,0,4.77,9.64,9.64,0,0,1-3.91,4.85,8.91,8.91,0,0,1-4.65,1.34m3.13-12.35a6.55,6.55,0,0,0-4.54,1.4,9.29,9.29,0,0,0-2.62,6.4h0a3.45,3.45,0,0,0,.3,1.67,3.55,3.55,0,0,0,2.48,1.51,7.49,7.49,0,0,0,5.24-1,8.42,8.42,0,0,0,3.4-4.22,4.79,4.79,0,0,0,0-3.75,4.26,4.26,0,0,0-3.49-1.95c-.25,0-.52,0-.8,0" transform="translate(0 0)"/><path id="Path_1966" data-name="Path 1966" class="cls-5" d="M18.07,3.82a6.47,6.47,0,0,0-.87,3.57,4.85,4.85,0,0,0,1.55,3.29,5.35,5.35,0,0,0,1.88,1,4,4,0,0,0,1.93.15,4.23,4.23,0,0,0,2.32-1.63,7.09,7.09,0,0,0,1.55-5.44C26.16,3.11,24.78.85,22.93.64s-4,1.62-4.86,3.18" transform="translate(0 0)"/><path id="Path_1967" data-name="Path 1967" class="cls-3" d="M21.94,12.52a4.8,4.8,0,0,1-1.5-.24,5.72,5.72,0,0,1-2.1-1.13,5.44,5.44,0,0,1-1.76-3.72,7,7,0,0,1,1-3.91h0C18.4,2,20.55-.24,23,0c2.28.26,3.76,2.92,4.05,4.65a7.71,7.71,0,0,1-1.68,5.93,4.78,4.78,0,0,1-2.68,1.85,3.19,3.19,0,0,1-.75.08m-3.32-8.4a5.89,5.89,0,0,0-.8,3.22,4.16,4.16,0,0,0,1.35,2.86,4.36,4.36,0,0,0,1.64.88,3.31,3.31,0,0,0,1.62.14,3.59,3.59,0,0,0,2-1.41,6.47,6.47,0,0,0,1.43-4.95c-.23-1.36-1.41-3.43-3-3.6-1.71-.2-3.51,1.55-4.24,2.86" transform="translate(0 0)"/><path id="Path_1968" data-name="Path 1968" class="cls-5" d="M19.17,34a3.53,3.53,0,0,0,.41-1.42,6.63,6.63,0,0,0-8.89-6.94,3.51,3.51,0,0,0-1.33.81,3.92,3.92,0,0,0-.84,2.22,6.66,6.66,0,0,0,0,2.09,5.77,5.77,0,0,0,2.24,3.42c2.12,1.61,6.68,2.77,8.38-.18" transform="translate(0 0)"/><path id="Path_1969" data-name="Path 1969" class="cls-3" d="M15.65,36.44a9.32,9.32,0,0,1-5.24-1.77,6.38,6.38,0,0,1-2.48-3.8,7.2,7.2,0,0,1,0-2.27A4.55,4.55,0,0,1,8.9,26a4,4,0,0,1,1.57-1,7.4,7.4,0,0,1,7,1.07,7.41,7.41,0,0,1,2.75,6.52,4.21,4.21,0,0,1-.5,1.66h0a4.17,4.17,0,0,1-2.9,2,6.62,6.62,0,0,1-1.17.11M13,25.86a5.94,5.94,0,0,0-2.05.36,2.78,2.78,0,0,0-1.09.66,3.41,3.41,0,0,0-.68,1.87,6.31,6.31,0,0,0,0,1.89,5.18,5.18,0,0,0,2,3,7.59,7.59,0,0,0,5.4,1.42,2.93,2.93,0,0,0,2.06-1.42A3.16,3.16,0,0,0,19,32.51a6,6,0,0,0-6-6.65" transform="translate(0 0)"/><path id="Path_1970" data-name="Path 1970" class="cls-5" d="M28.64,29.65a7.18,7.18,0,0,0,5.4.43,5.52,5.52,0,0,0,3.62-3.89c.78-3.54-3.56-5.28-6.44-5.2-2.55.07-4.09,1.94-4.79,4.25-.6,2,.37,3.52,2.21,4.41" transform="translate(0 0)"/><path id="Path_1971" data-name="Path 1971" class="cls-3" d="M31.94,31.05a8.32,8.32,0,0,1-3.57-.84c-2.27-1.09-3.19-3-2.54-5.15.88-2.91,2.83-4.62,5.37-4.69,2,0,4.78.69,6.24,2.46a4,4,0,0,1,.83,3.49,6.13,6.13,0,0,1-4,4.35,7.2,7.2,0,0,1-2.3.38m-.53-9.43h-.18c-2.69.07-3.79,2.41-4.2,3.8-.6,2,.69,3.09,1.88,3.66a6.57,6.57,0,0,0,4.92.4,4.91,4.91,0,0,0,3.22-3.43,2.74,2.74,0,0,0-.57-2.43,7,7,0,0,0-5.07-2" transform="translate(0 0)"/><path id="Path_1972" data-name="Path 1972" class="cls-5" d="M27.57,18.73a8.41,8.41,0,0,0,1.59-.17c3.65-.84,5.87-6.25,1.67-7.89-3.31-1.29-6.09,1-6.8,4.27-.55,2.52,1.17,3.85,3.54,3.79" transform="translate(0 0)"/><path id="Path_1973" data-name="Path 1973" class="cls-3" d="M27.42,19.35A4.24,4.24,0,0,1,24,18a3.58,3.58,0,0,1-.62-3.19,6.67,6.67,0,0,1,3.17-4.53,5.21,5.21,0,0,1,4.46-.19,3.85,3.85,0,0,1,2.68,4,5.93,5.93,0,0,1-4.43,5.08,8.21,8.21,0,0,1-1.71.18h-.17M29,10.93a3.82,3.82,0,0,0-1.78.45,5.37,5.37,0,0,0-2.55,3.7A2.4,2.4,0,0,0,25,17.2a3.09,3.09,0,0,0,2.56.9A7.16,7.16,0,0,0,29,18a4.71,4.71,0,0,0,3.46-4,2.59,2.59,0,0,0-1.88-2.74A4.77,4.77,0,0,0,29,10.93" transform="translate(0 0)"/><path id="Path_1974" data-name="Path 1974" class="cls-5" d="M11.86,16a4.15,4.15,0,0,0-.56,2.58,4.88,4.88,0,0,0,2.6,4,7.61,7.61,0,0,0,2.2.58,6.25,6.25,0,0,0,2.36,0,2.41,2.41,0,0,0,1.78-1.43,3.86,3.86,0,0,0,.11-1.31,5,5,0,0,0-.76-3,4.32,4.32,0,0,0-1.16-.92c-1.85-1.11-5-2.95-6.57-.52" transform="translate(0 0)"/><path id="Path_1975" data-name="Path 1975" class="cls-3" d="M17.52,23.87A11,11,0,0,1,16,23.73a8.23,8.23,0,0,1-2.38-.64,5.47,5.47,0,0,1-3-4.46,4.64,4.64,0,0,1,.66-3c1.93-3,5.63-.75,7.41.32a5.09,5.09,0,0,1,1.33,1.07,5.59,5.59,0,0,1,.9,3.33,4.41,4.41,0,0,1-.15,1.53,3,3,0,0,1-2.22,1.84,5,5,0,0,1-1.09.12m-5.13-7.53a3.49,3.49,0,0,0-.47,2.18A4.28,4.28,0,0,0,14.17,22a7.14,7.14,0,0,0,2,.52,5.65,5.65,0,0,0,2.13,0,1.77,1.77,0,0,0,1.32-1,3.33,3.33,0,0,0,.08-1.09,4.45,4.45,0,0,0-.62-2.59,4.21,4.21,0,0,0-1-.78c-2.15-1.29-4.55-2.52-5.72-.71" transform="translate(0 0)"/><path id="Path_1976" data-name="Path 1976" class="cls-3" d="M20.36,52.69a.62.62,0,0,1-.62-.62,51.33,51.33,0,0,1,1-10,67.53,67.53,0,0,0,1-7.89,107.2,107.2,0,0,0-.26-12.8,89.48,89.48,0,0,1,0-15.7l.06-.52a11.55,11.55,0,0,0,.07-3.71.63.63,0,0,1,1.23-.25,12.88,12.88,0,0,1-.06,4.11l-.06.51a88.92,88.92,0,0,0,0,15.48,107.63,107.63,0,0,1,.27,13,69.67,69.67,0,0,1-1,8,50.56,50.56,0,0,0-1,9.82.63.63,0,0,1-.62.63Z" transform="translate(0 0)"/><path id="Path_1977" data-name="Path 1977" class="cls-3" d="M21,46.53a.63.63,0,0,1-.63-.63.59.59,0,0,1,.14-.38c2-2.48,4.83-3.89,7.61-5.26l.6-.29c2.69-1.34,5.68-3,7.18-5.74a.64.64,0,0,1,.85-.25.62.62,0,0,1,.25.85c-1.67,3.07-4.86,4.84-7.72,6.26l-.6.3C26,42.69,23.29,44,21.5,46.3a.59.59,0,0,1-.49.23" transform="translate(0 0)"/><path id="Path_1978" data-name="Path 1978" class="cls-3" d="M21.91,37.93a.6.6,0,0,1-.47-.22,37.2,37.2,0,0,0-6.92-5.78c-.81-.57-1.62-1.14-2.41-1.73a7.42,7.42,0,0,1-2.73-3.09.63.63,0,1,1,1.17-.45h0a6.22,6.22,0,0,0,2.31,2.54c.78.58,1.58,1.15,2.38,1.71a38.34,38.34,0,0,1,7.15,6,.63.63,0,0,1-.48,1" transform="translate(0 0)"/><path id="Path_1979" data-name="Path 1979" class="cls-3" d="M22.64,29.75a.62.62,0,0,1-.62-.62.63.63,0,0,1,.27-.52c2.22-1.53,4.86-2,7.4-2.38s5.22-.87,7.24-2.47a.63.63,0,0,1,.87.13.62.62,0,0,1-.09.85c-2.28,1.8-5.09,2.27-7.81,2.72-2.53.42-4.91.81-6.9,2.18a.66.66,0,0,1-.36.11" transform="translate(0 0)"/><path id="Path_1980" data-name="Path 1980" class="cls-3" d="M21.93,25.64a.59.59,0,0,1-.34-.1,8.08,8.08,0,0,1-2.08-2.2,10.17,10.17,0,0,0-1.3-1.55,10,10,0,0,0-1.74-1.14,9.71,9.71,0,0,1-2.07-1.41,10.06,10.06,0,0,1-2-3.16.63.63,0,1,1,1.13-.54,9.2,9.2,0,0,0,1.76,2.8,8.91,8.91,0,0,0,1.82,1.22,10.81,10.81,0,0,1,2,1.31,11.16,11.16,0,0,1,1.48,1.74,7.12,7.12,0,0,0,1.74,1.89.62.62,0,0,1-.33,1.15" transform="translate(0 0)"/><path id="Path_1981" data-name="Path 1981" class="cls-3" d="M22.23,20.82a.62.62,0,0,1-.35-1.14,43.58,43.58,0,0,0,5.14-4c.36-.33.72-.68,1.08-1a14.8,14.8,0,0,1,4.07-3.13.63.63,0,0,1,.52,1.14A13.6,13.6,0,0,0,29,15.5l-1.11,1.06a43.42,43.42,0,0,1-5.29,4.16.6.6,0,0,1-.35.1" transform="translate(0 0)"/></g></g></g></g></g></svg>