<svg xmlns="http://www.w3.org/2000/svg" xmlns:xlink="http://www.w3.org/1999/xlink" viewBox="0 0 47.26 63.5"><defs><style>.cls-1{fill:none;}.cls-2{isolation:isolate;}.cls-3{fill:#004849;}.cls-4{clip-path:url(#clip-path);}.cls-5{fill:#2cdeb4;}.cls-6{fill:#fcfcfc;}</style><clipPath id="clip-path" transform="translate(0 0)"><rect class="cls-1" width="47.26" height="42.35"/></clipPath></defs><g id="Layer_2" data-name="Layer 2"><g id="Layer_1-2" data-name="Layer 1"><g id="farnesene" class="cls-2"><g class="cls-2"><path class="cls-3" d="M3.14,59.63v3.73H2V59.63H1.65v-1H2V56.77a2,2,0,0,1,.31-1.27A1.56,1.56,0,0,1,3.6,55a2.25,2.25,0,0,1,.74.17v1.13l-.11-.06A1.42,1.42,0,0,0,3.64,56a.39.39,0,0,0-.39.21,1.93,1.93,0,0,0-.11.79v1.57h1.2v1Z" transform="translate(0 0)"/><path class="cls-3" d="M8.63,58.61H9.74v4.75H8.63v-.5a2.08,2.08,0,0,1-1.46.64,2.11,2.11,0,0,1-1.63-.71A2.66,2.66,0,0,1,4.9,61a2.54,2.54,0,0,1,.64-1.78,2.06,2.06,0,0,1,1.6-.72,2,2,0,0,1,1.49.69ZM6,61a1.67,1.67,0,0,0,.37,1.11,1.21,1.21,0,0,0,1,.44,1.26,1.26,0,0,0,1-.42,1.8,1.8,0,0,0,0-2.21,1.24,1.24,0,0,0-1-.42,1.22,1.22,0,0,0-.95.42A1.6,1.6,0,0,0,6,61Z" transform="translate(0 0)"/><path class="cls-3" d="M11.12,58.61h1.1V59a1.86,1.86,0,0,1,.54-.43,1.13,1.13,0,0,1,.56-.13,1.76,1.76,0,0,1,.91.29l-.5,1a1,1,0,0,0-.61-.22c-.6,0-.9.45-.9,1.36v2.46h-1.1Z" transform="translate(0 0)"/><path class="cls-3" d="M15,58.61h1.11v.44a1.76,1.76,0,0,1,1.3-.58,1.64,1.64,0,0,1,1.29.53,2.11,2.11,0,0,1,.4,1.45v2.91H18V60.71a1.77,1.77,0,0,0-.2-1,.78.78,0,0,0-.69-.27.85.85,0,0,0-.78.36,2.5,2.5,0,0,0-.22,1.25v2.29H15Z" transform="translate(0 0)"/><path class="cls-3" d="M24.83,61.24H21.42a1.46,1.46,0,0,0,.38.93,1.17,1.17,0,0,0,.87.35,1.11,1.11,0,0,0,.67-.2,2.62,2.62,0,0,0,.6-.72l.93.52a3.42,3.42,0,0,1-.45.62,2.24,2.24,0,0,1-.51.43,1.86,1.86,0,0,1-.6.25,3,3,0,0,1-.68.08,2.23,2.23,0,0,1-1.71-.69A2.53,2.53,0,0,1,20.27,61a2.64,2.64,0,0,1,.63-1.83,2.38,2.38,0,0,1,3.33,0,2.66,2.66,0,0,1,.6,1.84Zm-1.13-.9a1,1,0,0,0-1.11-.87,1.1,1.1,0,0,0-.37.06,1.09,1.09,0,0,0-.32.17,1.12,1.12,0,0,0-.25.28,1.46,1.46,0,0,0-.16.36Z" transform="translate(0 0)"/><path class="cls-3" d="M28.79,59.42l-.9.48c-.15-.29-.33-.44-.54-.44a.37.37,0,0,0-.26.1.34.34,0,0,0-.1.26q0,.27.63.54a3.85,3.85,0,0,1,1.18.69,1.2,1.2,0,0,1,.3.86,1.49,1.49,0,0,1-.51,1.15,1.81,1.81,0,0,1-2.88-.73l.93-.43a2.05,2.05,0,0,0,.3.43.68.68,0,0,0,.48.19c.37,0,.56-.17.56-.51s-.15-.38-.43-.55l-.33-.16-.34-.16a2,2,0,0,1-.67-.47A1.13,1.13,0,0,1,26,59.9a1.36,1.36,0,0,1,.42-1,1.5,1.5,0,0,1,1.06-.41A1.44,1.44,0,0,1,28.79,59.42Z" transform="translate(0 0)"/><path class="cls-3" d="M34.42,61.24H31a1.46,1.46,0,0,0,.38.93,1.17,1.17,0,0,0,.87.35,1.11,1.11,0,0,0,.67-.2,2.62,2.62,0,0,0,.6-.72l.93.52a3.42,3.42,0,0,1-.45.62,2.24,2.24,0,0,1-.51.43,1.86,1.86,0,0,1-.6.25,3,3,0,0,1-.68.08,2.23,2.23,0,0,1-1.71-.69A2.53,2.53,0,0,1,29.86,61a2.64,2.64,0,0,1,.63-1.83,2.38,2.38,0,0,1,3.33,0,2.66,2.66,0,0,1,.6,1.84Zm-1.13-.9a1,1,0,0,0-1.11-.87,1.1,1.1,0,0,0-.37.06,1.09,1.09,0,0,0-.32.17,1.12,1.12,0,0,0-.25.28,1.46,1.46,0,0,0-.16.36Z" transform="translate(0 0)"/><path class="cls-3" d="M35.62,58.61h1.1v.44a1.79,1.79,0,0,1,1.3-.58,1.66,1.66,0,0,1,1.3.53,2.17,2.17,0,0,1,.4,1.45v2.91H38.61V60.71a1.78,1.78,0,0,0-.19-1,.8.8,0,0,0-.7-.27.84.84,0,0,0-.77.36,2.48,2.48,0,0,0-.23,1.25v2.29h-1.1Z" transform="translate(0 0)"/><path class="cls-3" d="M45.43,61.24H42a1.41,1.41,0,0,0,.38.93,1.24,1.24,0,0,0,1.54.15,2.62,2.62,0,0,0,.6-.72l.93.52a4,4,0,0,1-.46.62,2.24,2.24,0,0,1-.51.43,1.81,1.81,0,0,1-.59.25,3,3,0,0,1-.69.08,2.23,2.23,0,0,1-1.71-.69A2.53,2.53,0,0,1,40.88,61a2.69,2.69,0,0,1,.62-1.83,2.38,2.38,0,0,1,3.33,0A2.62,2.62,0,0,1,45.44,61Zm-1.12-.9a1.06,1.06,0,0,0-1.11-.87,1.16,1.16,0,0,0-.38.06,1.23,1.23,0,0,0-.32.17,1.08,1.08,0,0,0-.24.28,1.17,1.17,0,0,0-.16.36Z" transform="translate(0 0)"/></g></g><g id="Group_2341" data-name="Group 2341"><g class="cls-4"><g id="Group_2340" data-name="Group 2340"><path id="Path_2194" data-name="Path 2194" class="cls-5" d="M5.22,8.05s-7.44,4.6-3.36,18.24,14.6,10.14,16.42,9.78a14.42,14.42,0,0,1,6.13.36c1.68.51,10.51-.29,13-12.7,1.65-8.28-1.5-16.64-10.52-18.35-3.58-.69-5.14,2-8.31,2.38-2,.22-7.66-4.09-13.35.29" transform="translate(0 0)"/><path id="Path_2195" data-name="Path 2195" class="cls-3" d="M13.61,37.33c-6,0-10.18-3.64-12.35-10.86-4.08-13.65,3-18.55,3.6-18.93,4.38-3.36,8.65-1.91,11.48-1a7.08,7.08,0,0,0,2.16.55A8.57,8.57,0,0,0,21.68,6,7.33,7.33,0,0,1,27,4.76a13.42,13.42,0,0,1,8.87,5.63C38.24,13.91,39,18.82,38,23.86c-1.38,6.92-4.7,10.18-7.24,11.7A9.45,9.45,0,0,1,24.23,37a13.83,13.83,0,0,0-5.83-.35l-.43.1a18.87,18.87,0,0,1-4.36.55M10.86,6.69A8.34,8.34,0,0,0,5.6,8.55l0,0c-.29.18-7,4.56-3.09,17.53,3.66,12.2,12.36,10.13,15.22,9.45l.48-.11a15,15,0,0,1,6.43.38,8.48,8.48,0,0,0,5.54-1.35c2.32-1.38,5.36-4.4,6.65-10.87.95-4.71.23-9.28-2-12.52A12,12,0,0,0,26.77,6c-1.87-.36-3.08.3-4.49,1.06a9.52,9.52,0,0,1-3.64,1.33,7.37,7.37,0,0,1-2.7-.6A15.54,15.54,0,0,0,10.86,6.7" transform="translate(0 0)"/><path id="Path_2196" data-name="Path 2196" class="cls-6" d="M18.09,13.12,18,.62h2.53Z" transform="translate(0 0)"/><path id="Path_2197" data-name="Path 2197" class="cls-3" d="M18.09,13.75H18a.64.64,0,0,1-.57-.62L17.34.63A.61.61,0,0,1,18,0h2.53a.63.63,0,0,1,.63.62.49.49,0,0,1,0,.12L18.7,13.24a.63.63,0,0,1-.61.51m.5-12.5.06,5.64,1.09-5.64Z" transform="translate(0 0)"/><path id="Path_2198" data-name="Path 2198" class="cls-6" d="M30.61,24.83a4.49,4.49,0,0,0-2.37,1.94L24,32.36a15.81,15.81,0,0,0-2.63,4.37,3.09,3.09,0,0,0-.17,1.62c.25,1.18,1.5,1.84,2.64,2.24a21.3,21.3,0,0,0,17-1.41,11.56,11.56,0,0,0,4-3.35c1.59-2.28,1.86-5.21,1.82-8a17.8,17.8,0,0,0-.84-5.71,8.21,8.21,0,0,0-3.52-4.46,5.34,5.34,0,0,0-5.51,0,7.9,7.9,0,0,0-2.68,4.13,6.52,6.52,0,0,1-1,1.88c-.7.9-1.44.89-2.48,1.11" transform="translate(0 0)"/><path id="Path_2199" data-name="Path 2199" class="cls-3" d="M30.67,42.35a21.68,21.68,0,0,1-7-1.17c-1.8-.63-2.79-1.52-3.05-2.7a3.87,3.87,0,0,1,.2-1.94A16,16,0,0,1,23.5,32l4.25-5.59a5.07,5.07,0,0,1,2.73-2.17l.5-.1a2.17,2.17,0,0,0,1.62-.79,6.08,6.08,0,0,0,.9-1.71,8.47,8.47,0,0,1,2.91-4.43,6,6,0,0,1,6.17-.07,8.76,8.76,0,0,1,3.8,4.8,18.78,18.78,0,0,1,.88,5.91c0,2.55-.15,5.8-1.93,8.36a12,12,0,0,1-4.23,3.53,21.72,21.72,0,0,1-10.44,2.63m8.79-24.8a4.18,4.18,0,0,0-2.35.68,7.42,7.42,0,0,0-2.44,3.82,7.07,7.07,0,0,1-1.08,2.05,3.38,3.38,0,0,1-2.37,1.25l-.47.09h0a4,4,0,0,0-2,1.7l-4.25,5.59A15.22,15.22,0,0,0,22,36.93a2.47,2.47,0,0,0-.16,1.29c.15.71.9,1.31,2.23,1.77A20.67,20.67,0,0,0,40.5,38.63a10.83,10.83,0,0,0,3.79-3.16C45.87,33.21,46,30.21,46,27.85a17.83,17.83,0,0,0-.81-5.52A7.48,7.48,0,0,0,42,18.21a5.14,5.14,0,0,0-2.51-.66" transform="translate(0 0)"/><path id="Path_2200" data-name="Path 2200" class="cls-5" d="M28.79,26.4a3.62,3.62,0,0,0,2.79,3.28,4.64,4.64,0,0,0,4.23-1.31,4.48,4.48,0,0,0,.86-1.17,5.66,5.66,0,0,0,.4-3,9.52,9.52,0,0,0-1.74-4.7,12.37,12.37,0,0,0-1.18,2.18c-.83,1.76-1.07,2.72-3.34,3.15s-2,1.61-2,1.61" transform="translate(0 0)"/><path id="Path_2201" data-name="Path 2201" class="cls-3" d="M32.47,30.4a4.55,4.55,0,0,1-1-.12,4.27,4.27,0,0,1-3.27-3.83,1.62,1.62,0,0,1,.28-1.07,3.39,3.39,0,0,1,2.26-1.21c1.75-.33,2-.92,2.68-2.34l.21-.46a12.69,12.69,0,0,1,1.26-2.32l.52-.62.47.66a10,10,0,0,1,1.85,5,6.12,6.12,0,0,1-.46,3.38,5.16,5.16,0,0,1-1,1.34,5.53,5.53,0,0,1-3.78,1.6m2.87-9.77c-.16.3-.37.71-.63,1.26l-.21.45c-.69,1.51-1.19,2.6-3.58,3-1.24.24-1.54.7-1.52.9v.08a3,3,0,0,0,2.31,2.69,4,4,0,0,0,3.65-1.15,3.82,3.82,0,0,0,.74-1,5,5,0,0,0,.34-2.69,9.27,9.27,0,0,0-1.1-3.59" transform="translate(0 0)"/><path id="Path_2202" data-name="Path 2202" class="cls-6" d="M33.44,27.79a1.67,1.67,0,0,1-.83.09A1,1,0,0,1,32,27.4a1,1,0,0,1,.14-1,2.26,2.26,0,0,1,.86-.64c.56-.27,2.23-1,2.15.19a2.67,2.67,0,0,1-1.66,1.87" transform="translate(0 0)"/><path id="Path_2203" data-name="Path 2203" class="cls-3" d="M32.86,28.53a2.33,2.33,0,0,1-.37,0,1.55,1.55,0,0,1-1.1-.81A1.64,1.64,0,0,1,31.58,26a2.92,2.92,0,0,1,1.1-.84c1.22-.58,2-.68,2.56-.32A1.17,1.17,0,0,1,35.72,26a3.23,3.23,0,0,1-2.07,2.41h0a2.13,2.13,0,0,1-.79.15m1.61-2.64a3.35,3.35,0,0,0-1.25.41,1.56,1.56,0,0,0-.63.45.4.4,0,0,0-.08.38.36.36,0,0,0,.23.14,1.08,1.08,0,0,0,.5-.06,2.11,2.11,0,0,0,1.24-1.32" transform="translate(0 0)"/><path id="Path_2204" data-name="Path 2204" class="cls-5" d="M36.7,40.87a21.26,21.26,0,0,1-12.87-.28c-1.15-.4-2.4-1.06-2.64-2.25a3.06,3.06,0,0,1,.17-1.61A15.81,15.81,0,0,1,24,32.36l1.17-1.53c-.58,1.4-1.28,2.91-1.06,4.41a6,6,0,0,0,2.78,4,10.74,10.74,0,0,0,4.77,1.51,47.42,47.42,0,0,0,5.06.09Z" transform="translate(0 0)"/><path id="Path_2205" data-name="Path 2205" class="cls-3" d="M30.68,42.35a21.47,21.47,0,0,1-7.06-1.17c-1.8-.63-2.79-1.51-3.05-2.7a3.87,3.87,0,0,1,.2-1.94A16.23,16.23,0,0,1,23.49,32l1.17-1.53,1.08.62-.15.36a7.42,7.42,0,0,0-.87,3.72,5.46,5.46,0,0,0,2.5,3.62,10,10,0,0,0,4.5,1.41,33.23,33.23,0,0,0,3.86.1h1l.61-.18.35,1.42h-.78a22.07,22.07,0,0,1-6,.84m-7.22-8.23A11.18,11.18,0,0,0,22,36.93a2.37,2.37,0,0,0-.16,1.29c.15.71.89,1.31,2.23,1.78a20.16,20.16,0,0,0,5.49,1.07,9.7,9.7,0,0,1-3-1.26,6.6,6.6,0,0,1-3.06-4.48,4.9,4.9,0,0,1,0-1.21" transform="translate(0 0)"/></g></g></g></g></g></svg>