<svg xmlns="http://www.w3.org/2000/svg" xmlns:xlink="http://www.w3.org/1999/xlink" viewBox="0 0 49.62 65.61"><defs><style>.cls-1{fill:none;}.cls-2{isolation:isolate;}.cls-3{fill:#004849;}.cls-4{clip-path:url(#clip-path);}.cls-5{fill:#2cdeb4;}.cls-6{fill:#fcfcfc;}</style><clipPath id="clip-path" transform="translate(0 0)"><rect class="cls-1" width="49.62" height="44.47"/></clipPath></defs><g id="Layer_2" data-name="Layer 2"><g id="Layer_1-2" data-name="Layer 1"><g id="farnesene" class="cls-2"><g class="cls-2"><path class="cls-3" d="M4.33,61.75v3.73H3.22V61.75H2.83v-1h.39V58.89a2,2,0,0,1,.31-1.27,1.53,1.53,0,0,1,1.25-.52,2.2,2.2,0,0,1,.74.17v1.12l-.11-.06a1.38,1.38,0,0,0-.59-.18.4.4,0,0,0-.39.21,2,2,0,0,0-.1.79v1.57H5.52v1Z" transform="translate(0 0)"/><path class="cls-3" d="M9.81,60.72h1.11v4.76H9.81V65a2.12,2.12,0,0,1-3.09-.08,2.67,2.67,0,0,1-.64-1.81,2.62,2.62,0,0,1,.64-1.79,2.09,2.09,0,0,1,1.61-.71,2,2,0,0,1,1.48.68Zm-2.6,2.37a1.68,1.68,0,0,0,.36,1.11,1.2,1.2,0,0,0,.95.43,1.26,1.26,0,0,0,1-.42,1.82,1.82,0,0,0,0-2.2,1.23,1.23,0,0,0-1-.43,1.25,1.25,0,0,0-.95.43A1.59,1.59,0,0,0,7.21,63.09Z" transform="translate(0 0)"/><path class="cls-3" d="M12.3,60.72h1.1v.43a2.12,2.12,0,0,1,.54-.44,1.26,1.26,0,0,1,.57-.12,1.87,1.87,0,0,1,.91.28l-.51,1a1.06,1.06,0,0,0-.61-.23c-.6,0-.9.46-.9,1.36v2.47H12.3Z" transform="translate(0 0)"/><path class="cls-3" d="M16.2,60.72h1.1v.44a1.8,1.8,0,0,1,1.3-.57,1.63,1.63,0,0,1,1.29.52,2.13,2.13,0,0,1,.4,1.45v2.92h-1.1V62.82a1.73,1.73,0,0,0-.2-1,.77.77,0,0,0-.69-.27.87.87,0,0,0-.78.36,2.48,2.48,0,0,0-.22,1.24v2.3H16.2Z" transform="translate(0 0)"/><path class="cls-3" d="M26,63.36H22.6a1.46,1.46,0,0,0,.38.93,1.18,1.18,0,0,0,.87.34,1.14,1.14,0,0,0,.68-.19,3,3,0,0,0,.6-.72l.92.51a3.19,3.19,0,0,1-.45.63,2.53,2.53,0,0,1-.51.43,2.06,2.06,0,0,1-.59.25,3,3,0,0,1-.69.07,2.22,2.22,0,0,1-1.71-.68,2.57,2.57,0,0,1-.65-1.82,2.61,2.61,0,0,1,.63-1.83,2.16,2.16,0,0,1,1.67-.69,2.13,2.13,0,0,1,1.66.67A2.65,2.65,0,0,1,26,63.1Zm-1.13-.9a1,1,0,0,0-1.11-.88,1.1,1.1,0,0,0-.37.06,1,1,0,0,0-.32.18,1.27,1.27,0,0,0-.25.27,1.11,1.11,0,0,0-.15.37Z" transform="translate(0 0)"/><path class="cls-3" d="M30,61.53l-.91.49c-.15-.3-.32-.44-.54-.44a.33.33,0,0,0-.25.1.3.3,0,0,0-.11.25c0,.19.21.37.63.55a3.72,3.72,0,0,1,1.18.69,1.18,1.18,0,0,1,.3.85,1.51,1.51,0,0,1-.51,1.16,1.83,1.83,0,0,1-2.88-.73l.94-.44a2.47,2.47,0,0,0,.29.44.72.72,0,0,0,.48.18c.37,0,.56-.17.56-.5s-.14-.38-.43-.55l-.33-.16-.34-.16a2.18,2.18,0,0,1-.67-.47,1.15,1.15,0,0,1-.25-.77,1.36,1.36,0,0,1,.42-1,1.5,1.5,0,0,1,1.06-.41A1.44,1.44,0,0,1,30,61.53Z" transform="translate(0 0)"/><path class="cls-3" d="M35.6,63.36H32.19a1.46,1.46,0,0,0,.38.93,1.18,1.18,0,0,0,.87.34,1.14,1.14,0,0,0,.68-.19,3,3,0,0,0,.6-.72l.92.51a3.19,3.19,0,0,1-.45.63,2.53,2.53,0,0,1-.51.43,2.06,2.06,0,0,1-.59.25,3,3,0,0,1-.69.07,2.22,2.22,0,0,1-1.71-.68A2.57,2.57,0,0,1,31,63.11a2.61,2.61,0,0,1,.63-1.83,2.16,2.16,0,0,1,1.67-.69,2.13,2.13,0,0,1,1.66.67,2.65,2.65,0,0,1,.6,1.84Zm-1.13-.9a1,1,0,0,0-1.11-.88,1.1,1.1,0,0,0-.37.06.92.92,0,0,0-.32.18,1.27,1.27,0,0,0-.25.27,1.38,1.38,0,0,0-.16.37Z" transform="translate(0 0)"/><path class="cls-3" d="M36.8,60.72h1.11v.44a1.78,1.78,0,0,1,1.29-.57,1.64,1.64,0,0,1,1.3.52,2.18,2.18,0,0,1,.4,1.45v2.92H39.79V62.82a1.74,1.74,0,0,0-.19-1,.8.8,0,0,0-.69-.27.85.85,0,0,0-.78.36,2.48,2.48,0,0,0-.22,1.24v2.3H36.8Z" transform="translate(0 0)"/><path class="cls-3" d="M46.62,63.36H43.21a1.41,1.41,0,0,0,.38.93,1.14,1.14,0,0,0,.86.34,1.12,1.12,0,0,0,.68-.19,2.62,2.62,0,0,0,.6-.72l.93.51a3.19,3.19,0,0,1-.45.63,2.33,2.33,0,0,1-.52.43,2.06,2.06,0,0,1-.59.25,3,3,0,0,1-.69.07,2.22,2.22,0,0,1-1.71-.68,2.56,2.56,0,0,1-.64-1.82,2.65,2.65,0,0,1,.62-1.83,2.16,2.16,0,0,1,1.67-.69,2.11,2.11,0,0,1,1.66.67,2.6,2.6,0,0,1,.61,1.84Zm-1.13-.9a1,1,0,0,0-1.11-.88,1.21,1.21,0,0,0-.38.06,1.14,1.14,0,0,0-.32.18,1.55,1.55,0,0,0-.24.27,1.38,1.38,0,0,0-.16.37Z" transform="translate(0 0)"/></g></g><g id="Group_2363" data-name="Group 2363"><g class="cls-4"><g id="Group_2362" data-name="Group 2362"><path id="Path_2493" data-name="Path 2493" class="cls-5" d="M5.48,8.45S-2.34,13.28,2,27.6,17.28,38.25,19.19,37.87a15.06,15.06,0,0,1,6.44.38c1.76.54,11-.3,13.64-13.33,1.74-8.7-1.57-17.48-11-19.28-3.77-.71-5.4,2.15-8.73,2.5-2.15.23-8-4.29-14,.31" transform="translate(0 0)"/><path id="Path_2494" data-name="Path 2494" class="cls-3" d="M14.29,39.2C8,39.2,3.6,35.38,1.33,27.8-3,13.46,4.47,8.32,5.1,7.91c4.6-3.52,9.08-2,12.06-1a7.08,7.08,0,0,0,2.27.57,8.69,8.69,0,0,0,3.33-1.25A7.74,7.74,0,0,1,28.35,5a14.08,14.08,0,0,1,9.31,5.91c2.49,3.7,3.31,8.85,2.25,14.14-1.45,7.27-4.94,10.69-7.6,12.29a9.86,9.86,0,0,1-6.87,1.54,14.54,14.54,0,0,0-6.12-.37l-.45.1a19.1,19.1,0,0,1-4.58.58M11.4,7A8.78,8.78,0,0,0,5.88,9l0,0c-.3.19-7.32,4.78-3.25,18.41,3.84,12.81,13,10.64,16,9.92l.5-.11a15.75,15.75,0,0,1,6.76.4,8.9,8.9,0,0,0,5.81-1.42c2.44-1.46,5.63-4.62,7-11.41,1-4.95.24-9.75-2-13.15A12.61,12.61,0,0,0,28.1,6.29c-2-.38-3.23.32-4.71,1.11a10.13,10.13,0,0,1-3.82,1.4,7.62,7.62,0,0,1-2.83-.63A16.36,16.36,0,0,0,11.4,7" transform="translate(0 0)"/><path id="Path_2495" data-name="Path 2495" class="cls-6" d="M19,13.78Q18.93,7.21,18.86.66h2.66Z" transform="translate(0 0)"/><path id="Path_2496" data-name="Path 2496" class="cls-3" d="M19,14.43h-.06a.67.67,0,0,1-.6-.65L18.2.66A.66.66,0,0,1,18.85,0h2.67a.66.66,0,0,1,.66.65.51.51,0,0,1,0,.13L19.64,13.9a.66.66,0,0,1-.65.53m.53-13.12.06,5.93,1.14-5.93Z" transform="translate(0 0)"/><path id="Path_2497" data-name="Path 2497" class="cls-6" d="M32.14,26.07a4.75,4.75,0,0,0-2.49,2L25.19,34a16.66,16.66,0,0,0-2.76,4.6,3.35,3.35,0,0,0-.19,1.69c.27,1.24,1.58,1.93,2.78,2.35a22.34,22.34,0,0,0,17.82-1.48A12,12,0,0,0,47,37.62c1.68-2.39,2-5.48,1.91-8.39a18.45,18.45,0,0,0-.88-6,8.57,8.57,0,0,0-3.69-4.69,5.65,5.65,0,0,0-5.79.05,8.25,8.25,0,0,0-2.81,4.33,6.8,6.8,0,0,1-1,2c-.75.94-1.52.93-2.61,1.17" transform="translate(0 0)"/><path id="Path_2498" data-name="Path 2498" class="cls-3" d="M32.2,44.47a22.71,22.71,0,0,1-7.4-1.23c-1.89-.66-2.93-1.59-3.2-2.84a3.94,3.94,0,0,1,.21-2,17,17,0,0,1,2.86-4.78l4.46-5.87A5.32,5.32,0,0,1,32,25.43l.52-.1a2.29,2.29,0,0,0,1.71-.83,6.14,6.14,0,0,0,.94-1.79,8.91,8.91,0,0,1,3.06-4.66A6.33,6.33,0,0,1,44.71,18a9.17,9.17,0,0,1,4,5,19.56,19.56,0,0,1,.92,6.21c0,2.68-.15,6.1-2,8.78a12.63,12.63,0,0,1-4.43,3.72,23,23,0,0,1-11,2.75m9.23-26a4.52,4.52,0,0,0-2.47.71,7.77,7.77,0,0,0-2.56,4,7.85,7.85,0,0,1-1.14,2.16,3.59,3.59,0,0,1-2.49,1.31l-.49.1h0a4.1,4.1,0,0,0-2.1,1.79l-4.47,5.87a16.06,16.06,0,0,0-2.66,4.4,2.69,2.69,0,0,0-.17,1.35c.16.75.95,1.38,2.35,1.86a21.72,21.72,0,0,0,17.3-1.43,11.28,11.28,0,0,0,4-3.31c1.66-2.38,1.83-5.53,1.79-8a18.34,18.34,0,0,0-.85-5.79,7.89,7.89,0,0,0-3.39-4.33,5.5,5.5,0,0,0-2.63-.7" transform="translate(0 0)"/><path id="Path_2499" data-name="Path 2499" class="cls-5" d="M30.23,27.72a3.8,3.8,0,0,0,2.93,3.44,4.88,4.88,0,0,0,4.44-1.38,4.64,4.64,0,0,0,.9-1.22,5.83,5.83,0,0,0,.42-3.19,10,10,0,0,0-1.82-4.95,13.42,13.42,0,0,0-1.24,2.3c-.87,1.84-1.12,2.85-3.5,3.31s-2.13,1.69-2.13,1.69" transform="translate(0 0)"/><path id="Path_2500" data-name="Path 2500" class="cls-3" d="M34.1,31.92A5,5,0,0,1,33,31.8a4.47,4.47,0,0,1-3.43-4,1.63,1.63,0,0,1,.29-1.11,3.45,3.45,0,0,1,2.37-1.28c1.84-.35,2.12-1,2.81-2.46l.22-.49A13.83,13.83,0,0,1,36.59,20l.55-.66.5.69a10.77,10.77,0,0,1,1.94,5.26,6.42,6.42,0,0,1-.49,3.54,5.25,5.25,0,0,1-1,1.4,5.72,5.72,0,0,1-4,1.68m3-10.25c-.17.32-.39.75-.66,1.32l-.22.48c-.73,1.58-1.25,2.72-3.76,3.2-1.3.25-1.62.73-1.6.95v.08a3.15,3.15,0,0,0,2.42,2.82,4.25,4.25,0,0,0,3.84-1.2,4.18,4.18,0,0,0,.77-1.05,5.17,5.17,0,0,0,.35-2.83,9.46,9.46,0,0,0-1.15-3.77" transform="translate(0 0)"/><path id="Path_2501" data-name="Path 2501" class="cls-6" d="M35.12,29.18a1.65,1.65,0,0,1-.88.09,1,1,0,0,1-.7-.5,1.08,1.08,0,0,1,.15-1.08A2.28,2.28,0,0,1,34.6,27c.59-.28,2.34-1.05,2.25.2a2.77,2.77,0,0,1-1.74,2" transform="translate(0 0)"/><path id="Path_2502" data-name="Path 2502" class="cls-3" d="M34.5,30a1.72,1.72,0,0,1-.39,0A1.63,1.63,0,0,1,33,29.07a1.72,1.72,0,0,1,.2-1.77,3,3,0,0,1,1.15-.88c1.28-.61,2.13-.71,2.69-.34a1.24,1.24,0,0,1,.5,1.18,3.41,3.41,0,0,1-2.16,2.54h0a2.39,2.39,0,0,1-.83.15m1.69-2.77a3.38,3.38,0,0,0-1.31.43,1.67,1.67,0,0,0-.67.47.48.48,0,0,0-.09.4.37.37,0,0,0,.24.15,1.13,1.13,0,0,0,.52-.06,2.23,2.23,0,0,0,1.31-1.39" transform="translate(0 0)"/><path id="Path_2503" data-name="Path 2503" class="cls-5" d="M38.54,42.91A22.29,22.29,0,0,1,25,42.61c-1.2-.42-2.51-1.11-2.77-2.35a3.25,3.25,0,0,1,.18-1.69A16.8,16.8,0,0,1,25.19,34l1.22-1.6c-.6,1.47-1.33,3.06-1.1,4.63a6.3,6.3,0,0,0,2.91,4.25,11.15,11.15,0,0,0,5,1.59,52,52,0,0,0,5.3.09Z" transform="translate(0 0)"/><path id="Path_2504" data-name="Path 2504" class="cls-3" d="M32.22,44.47a22.82,22.82,0,0,1-7.42-1.23c-1.89-.66-2.93-1.59-3.2-2.84a3.94,3.94,0,0,1,.21-2,16.82,16.82,0,0,1,2.86-4.78L25.89,32l1.13.65-.16.38A7.82,7.82,0,0,0,26,36.91a5.73,5.73,0,0,0,2.63,3.79,10.52,10.52,0,0,0,4.72,1.49,36.51,36.51,0,0,0,4.05.1h1l.64-.19.37,1.5h-.82a23.1,23.1,0,0,1-6.34.88m-7.58-8.64a11.5,11.5,0,0,0-1.58,3,2.5,2.5,0,0,0-.17,1.35c.16.75.95,1.38,2.34,1.87A21,21,0,0,0,31,43.12a10.33,10.33,0,0,1-3.14-1.32,6.92,6.92,0,0,1-3.2-4.7,4.91,4.91,0,0,1,0-1.27" transform="translate(0 0)"/></g></g></g></g></g></svg>