<svg xmlns="http://www.w3.org/2000/svg" xmlns:xlink="http://www.w3.org/1999/xlink" viewBox="0 0 36.49 76.55"><defs><style>.cls-1{fill:none;}.cls-2{isolation:isolate;}.cls-3{fill:#004849;}.cls-4{clip-path:url(#clip-path);}.cls-5{fill:#2cdeb4;}</style><clipPath id="clip-path" transform="translate(0 0)"><rect class="cls-1" x="5.49" width="25.74" height="60.65"/></clipPath></defs><g id="Layer_2" data-name="Layer 2"><g id="Layer_1-2" data-name="Layer 1"><g id="geraniol" class="cls-2"><g class="cls-2"><path class="cls-3" d="M4.82,73.84a5.44,5.44,0,0,1,0,.6,2.73,2.73,0,0,1-.06.45,2,2,0,0,1-.46.92,2.2,2.2,0,0,1-1.77.74A2.39,2.39,0,0,1,.94,76a2.13,2.13,0,0,1-.73-1.46h1.1a1.38,1.38,0,0,0,.21.54,1.18,1.18,0,0,0,1,.45c.8,0,1.21-.5,1.21-1.48v-.67a2,2,0,0,1-1.51.67,2,2,0,0,1-1.6-.7A2.64,2.64,0,0,1,0,71.61a2.71,2.71,0,0,1,.58-1.77,2,2,0,0,1,1.65-.77,1.92,1.92,0,0,1,1.5.67V69.2H4.82ZM3.77,71.59a1.6,1.6,0,0,0-.37-1.11,1.24,1.24,0,0,0-1-.43,1.19,1.19,0,0,0-1,.47,1.65,1.65,0,0,0-.33,1.07,1.69,1.69,0,0,0,.33,1.07,1.2,1.2,0,0,0,1,.45,1.18,1.18,0,0,0,1-.46A1.59,1.59,0,0,0,3.77,71.59Z" transform="translate(0 0)"/><path class="cls-3" d="M10.54,71.84H7.13a1.42,1.42,0,0,0,.39.93,1.14,1.14,0,0,0,.86.34,1.14,1.14,0,0,0,.68-.19,3.12,3.12,0,0,0,.6-.73l.93.52a4.67,4.67,0,0,1-.46.63,2.91,2.91,0,0,1-.51.43A2,2,0,0,1,9,74a2.51,2.51,0,0,1-.69.08,2.26,2.26,0,0,1-1.71-.68A2.57,2.57,0,0,1,6,71.58a2.64,2.64,0,0,1,.62-1.82,2.16,2.16,0,0,1,1.67-.69,2.11,2.11,0,0,1,1.66.67,2.59,2.59,0,0,1,.61,1.84Zm-1.13-.9a1,1,0,0,0-1.1-.88,1.16,1.16,0,0,0-.38.06,1,1,0,0,0-.32.18.93.93,0,0,0-.25.27,1.11,1.11,0,0,0-.15.37Z" transform="translate(0 0)"/><path class="cls-3" d="M11.74,69.2h1.1v.42a2.05,2.05,0,0,1,.54-.43,1.26,1.26,0,0,1,.57-.12,1.71,1.71,0,0,1,.9.28l-.5,1a1.06,1.06,0,0,0-.61-.23c-.6,0-.9.45-.9,1.36V74h-1.1Z" transform="translate(0 0)"/><path class="cls-3" d="M18.92,69.2H20V74H18.92v-.5a2.11,2.11,0,0,1-1.46.63,2.08,2.08,0,0,1-1.63-.71,2.65,2.65,0,0,1-.64-1.82,2.56,2.56,0,0,1,.64-1.78,2.08,2.08,0,0,1,1.6-.71,2,2,0,0,1,1.49.68Zm-2.61,2.36a1.7,1.7,0,0,0,.37,1.12,1.2,1.2,0,0,0,.95.43,1.26,1.26,0,0,0,1-.42,1.8,1.8,0,0,0,0-2.21,1.24,1.24,0,0,0-1-.42,1.2,1.2,0,0,0-.95.43A1.59,1.59,0,0,0,16.31,71.56Z" transform="translate(0 0)"/><path class="cls-3" d="M21.41,69.2h1.11v.44a1.78,1.78,0,0,1,1.29-.57,1.64,1.64,0,0,1,1.3.52,2.13,2.13,0,0,1,.4,1.45V74H24.4V71.3a1.74,1.74,0,0,0-.19-1,.8.8,0,0,0-.69-.28.83.83,0,0,0-.78.37,2.46,2.46,0,0,0-.22,1.24V74H21.41Z" transform="translate(0 0)"/><path class="cls-3" d="M26.73,67.22a.72.72,0,0,1,1.43,0,.66.66,0,0,1-.21.5.67.67,0,0,1-.5.21.69.69,0,0,1-.51-.21A.68.68,0,0,1,26.73,67.22Zm1.26,2V74h-1.1V69.2Z" transform="translate(0 0)"/><path class="cls-3" d="M29.16,71.54a2.37,2.37,0,0,1,.74-1.75,2.6,2.6,0,0,1,3.6,0,2.55,2.55,0,0,1,0,3.57,2.54,2.54,0,0,1-1.82.72,2.43,2.43,0,0,1-1.8-.73A2.47,2.47,0,0,1,29.16,71.54Zm1.12,0a1.62,1.62,0,0,0,.38,1.13,1.36,1.36,0,0,0,1,.42,1.34,1.34,0,0,0,1-.41,1.77,1.77,0,0,0,0-2.22,1.33,1.33,0,0,0-1-.42,1.35,1.35,0,0,0-1,.42A1.52,1.52,0,0,0,30.28,71.56Z" transform="translate(0 0)"/><path class="cls-3" d="M36.49,65.71V74H35.4V65.71Z" transform="translate(0 0)"/></g></g><g id="Group_2365" data-name="Group 2365"><g class="cls-4"><g id="Group_2364" data-name="Group 2364"><path id="Path_2505" data-name="Path 2505" class="cls-5" d="M14,22.42a8.22,8.22,0,0,0,2.26,2.4,7.34,7.34,0,0,0,2.61.92,6.54,6.54,0,0,0,2.57.06,5.94,5.94,0,0,0,2.2-1.11,10,10,0,0,0,3.95-6.58c.11-1,.07-2,.1-2.93s.14-1.94.24-2.9a6.15,6.15,0,0,1,.82-2.84c.52-.74,1.38-1.24,1.71-2.07a2.38,2.38,0,0,0-.73-2.58,4,4,0,0,0-2.66-.87,11.68,11.68,0,0,0-2.81.5,7.55,7.55,0,0,0-2.12-2.24,8,8,0,0,0-2.21-.81L17.29.7a1,1,0,0,0-.38,0,.87.87,0,0,0-.34.22,22.3,22.3,0,0,1-4.3,3,2.75,2.75,0,0,1-.88.33,5,5,0,0,1-1-.07A3.49,3.49,0,0,0,7.1,6.29a4.72,4.72,0,0,0,.36,4.09,5.55,5.55,0,0,0-1.3,3.78,2.69,2.69,0,0,0,.23,1.08,2.23,2.23,0,0,0,1.59,1c.6.11,1.51-.22,2,0s.92,1.33,1.21,1.82C12.1,19.57,13,21,14,22.42" transform="translate(0 0)"/><path id="Path_2506" data-name="Path 2506" class="cls-3" d="M20.4,26.56a8.35,8.35,0,0,1-1.66-.17,8,8,0,0,1-2.85-1,9,9,0,0,1-2.45-2.59c-1.08-1.55-2-3.14-2.78-4.35-.08-.14-.17-.33-.27-.54a3.43,3.43,0,0,0-.63-1,2.33,2.33,0,0,0-.79,0,3.75,3.75,0,0,1-1.11,0,2.84,2.84,0,0,1-2.05-1.4,3.34,3.34,0,0,1-.32-1.35,6.32,6.32,0,0,1,1.19-3.88A5.32,5.32,0,0,1,6.49,6a4.2,4.2,0,0,1,4-2.56l.34,0a2.07,2.07,0,0,0,.5,0A2,2,0,0,0,12,3.28,21,21,0,0,0,16.14.39,1.37,1.37,0,0,1,16.77,0a1.39,1.39,0,0,1,.7,0l2.61.67a9.21,9.21,0,0,1,2.38.88,7.48,7.48,0,0,1,2.06,2.06A10.77,10.77,0,0,1,27,3.28h.08a4.48,4.48,0,0,1,3,1,3,3,0,0,1,.91,3.32,4.61,4.61,0,0,1-1.13,1.5,4.85,4.85,0,0,0-.65.71,5.4,5.4,0,0,0-.7,2.53c-.11.94-.22,1.9-.25,2.84,0,.32,0,.63,0,.94a17.76,17.76,0,0,1-.1,2.06,10.51,10.51,0,0,1-4.2,7,6.44,6.44,0,0,1-2.45,1.23,5.64,5.64,0,0,1-1.16.12m-5.89-4.52a8,8,0,0,0,2.08,2.22A7,7,0,0,0,19,25.1a5.93,5.93,0,0,0,2.3.06,5.11,5.11,0,0,0,1.94-1A9.24,9.24,0,0,0,26.92,18a17.15,17.15,0,0,0,.08-1.9c0-.32,0-.64,0-1,0-1,.15-2,.26-2.94a6.59,6.59,0,0,1,.92-3.15,6.77,6.77,0,0,1,.8-.89,3.32,3.32,0,0,0,.83-1,1.72,1.72,0,0,0-.55-1.85,3.42,3.42,0,0,0-2.22-.7,10.85,10.85,0,0,0-2.65.48L24,5.18l-.27-.37a7,7,0,0,0-1.92-2.06,7.72,7.72,0,0,0-2-.74l-2.61-.67a.09.09,0,0,0-.12,0,22.78,22.78,0,0,1-4.42,3.06,3,3,0,0,1-1.11.4,3.75,3.75,0,0,1-.82,0l-.27,0A2.9,2.9,0,0,0,7.71,6.54,4.11,4.11,0,0,0,8,10.06l.23.39-.3.36a4.92,4.92,0,0,0-1.15,3.33,1.86,1.86,0,0,0,.17.8,1.57,1.57,0,0,0,1.12.71,2.88,2.88,0,0,0,.72,0,2.89,2.89,0,0,1,1.46.08,3.23,3.23,0,0,1,1.3,1.65c.08.16.15.31.22.43.71,1.2,1.66,2.76,2.72,4.27" transform="translate(0 0)"/><path id="Path_2507" data-name="Path 2507" class="cls-3" d="M22.11,26.24a.66.66,0,0,1-.65-.55,28.87,28.87,0,0,1,.09-9.9A8.47,8.47,0,0,1,23,12c1.24-1.58,3.16-2.21,5.18-2.77a.65.65,0,1,1,.35,1.26c-1.8.5-3.5,1.05-4.5,2.32A7.21,7.21,0,0,0,22.84,16a27.83,27.83,0,0,0-.09,9.46.66.66,0,0,1-.54.76h-.1" transform="translate(0 0)"/><path id="Path_2508" data-name="Path 2508" class="cls-3" d="M21.73,19.14a.65.65,0,0,1-.47-.2,5.75,5.75,0,0,0-2.89-1.52,19.54,19.54,0,0,0-3.8-.53c-1.22-.08-2.5,0-3.72,0-.65,0-1.31,0-2,0h0a.65.65,0,0,1-.66-.65.66.66,0,0,1,.66-.66c.64,0,1.28,0,1.93,0,1.25,0,2.56-.07,3.84,0a20.07,20.07,0,0,1,4.07.58A7.1,7.1,0,0,1,22.21,18a.66.66,0,0,1,0,.93.63.63,0,0,1-.45.18" transform="translate(0 0)"/><path id="Path_2509" data-name="Path 2509" class="cls-3" d="M15.48,10.94a4.86,4.86,0,0,1-4.17-2.33,4.34,4.34,0,0,1,.86-5.35.66.66,0,0,1,.92.13.64.64,0,0,1-.07.87A3,3,0,0,0,12.45,8,3.56,3.56,0,0,0,16,9.58a8,8,0,0,0,1.6-.49l1-.35a10.63,10.63,0,0,0,1.61-.65,2.77,2.77,0,0,0,1.34-1.36,1.29,1.29,0,0,0-.28-1.45A2.6,2.6,0,0,0,19.86,5a6.44,6.44,0,0,0-3.68.92,1.29,1.29,0,0,0-.66.92c0,.36.45.68.85.75a3.81,3.81,0,0,0,1.76-.33,1.71,1.71,0,0,0,.59-.29.23.23,0,0,0,.1-.16.3.3,0,0,0-.15-.07,1.77,1.77,0,0,0-.65,0,.67.67,0,0,1-.76-.54.66.66,0,0,1,.53-.76,3.07,3.07,0,0,1,1.13,0,1.52,1.52,0,0,1,1.17,1,1.49,1.49,0,0,1-.48,1.49,3.08,3.08,0,0,1-1,.56,5,5,0,0,1-2.43.39,2.23,2.23,0,0,1-1.95-2,2.46,2.46,0,0,1,1.23-2,7.6,7.6,0,0,1,4.43-1.16h0a3.44,3.44,0,0,1,2.2.59,2.62,2.62,0,0,1,.68,3,4.14,4.14,0,0,1-1.94,2A12.28,12.28,0,0,1,19,10l-.93.33a9.27,9.27,0,0,1-1.86.56,4.74,4.74,0,0,1-.75.06" transform="translate(0 0)"/><path id="Path_2510" data-name="Path 2510" class="cls-3" d="M19.89,16.25a.65.65,0,0,1-.56-.32,1.85,1.85,0,0,0-1.18-.76,6.62,6.62,0,0,0-1.78-.12l-2.23,0a2.42,2.42,0,0,1-1.69-.43,2.73,2.73,0,0,1-.39-.44c0-.05-.08-.11-.12-.15a2.65,2.65,0,0,0-1.23-.64l-.4-.15A7.39,7.39,0,0,1,6.46,10,.66.66,0,0,1,7.6,9.32v0a6,6,0,0,0,3.15,2.71l.38.14a3.8,3.8,0,0,1,1.8,1l.17.22a1.24,1.24,0,0,0,.18.22,1.48,1.48,0,0,0,.78.12l2.27,0a7.92,7.92,0,0,1,2.12.15,3.56,3.56,0,0,1,1.32.62,7.58,7.58,0,0,1,1.3-1.23l.23-.19A19,19,0,0,0,24,10.68a5.79,5.79,0,0,0,1.49-3.21,1.13,1.13,0,0,0-.23-.92,1.26,1.26,0,0,0-.6-.17,5,5,0,0,0-1.92.09A.64.64,0,0,1,21.92,6a.65.65,0,0,1,.47-.8,6.11,6.11,0,0,1,2.37-.13,2.46,2.46,0,0,1,1.29.44,2.29,2.29,0,0,1,.72,2.05,7,7,0,0,1-1.8,4,19.94,19.94,0,0,1-2.84,2.59l-.23.18a4.29,4.29,0,0,0-1.41,1.55.66.66,0,0,1-.55.4h-.05" transform="translate(0 0)"/><path id="Path_2511" data-name="Path 2511" class="cls-3" d="M14.44,13.1a5.14,5.14,0,0,1-3.13-.82,3.48,3.48,0,0,1-.76-4.86,3,3,0,0,1,.45-.5.66.66,0,1,1,.92.94l0,0a2.15,2.15,0,0,0-.12,3.05,2.8,2.8,0,0,0,.31.28,4.56,4.56,0,0,0,2.8.56c.84,0,1.67-.1,2.5-.17L20,11.38a1.72,1.72,0,0,0-1.48-1.28.65.65,0,0,1-.6-.7h0a.7.7,0,0,1,.71-.6,3.1,3.1,0,0,1,2.77,2.8.91.91,0,0,1-.22.8,1,1,0,0,1-.6.25l-3.08.28c-.85.07-1.71.15-2.57.18h-.48" transform="translate(0 0)"/><path id="Path_2512" data-name="Path 2512" class="cls-3" d="M20.77,11.59a.65.65,0,0,1-.66-.65.64.64,0,0,1,.26-.53A6,6,0,0,0,22.19,8.3a2.59,2.59,0,0,0,.33-2.15.66.66,0,0,1,1.23-.46v0a3.87,3.87,0,0,1-.39,3.13,7.09,7.09,0,0,1-2.21,2.59.63.63,0,0,1-.4.14" transform="translate(0 0)"/><path id="Path_2513" data-name="Path 2513" class="cls-3" d="M23.08,60.65h0a.65.65,0,0,1-.61-.69h0a222.29,222.29,0,0,0-.8-34.9.65.65,0,0,1,.57-.73.66.66,0,0,1,.73.58v0A222.49,222.49,0,0,1,23.73,60a.66.66,0,0,1-.65.62" transform="translate(0 0)"/><path id="Path_2514" data-name="Path 2514" class="cls-5" d="M19.69,40.26a16.91,16.91,0,0,0-4.76-.38A7.59,7.59,0,0,0,17.61,44c1.24.91,4.58,1.93,5.5,0s-2-3.41-3.41-3.8" transform="translate(0 0)"/><path id="Path_2515" data-name="Path 2515" class="cls-3" d="M21.05,45.78a7.25,7.25,0,0,1-3.83-1.23,8.26,8.26,0,0,1-2.93-4.49l-.22-.82.84,0a17.59,17.59,0,0,1,5,.41c1,.29,3.2,1.22,3.87,2.72a2.27,2.27,0,0,1,0,2A2.45,2.45,0,0,1,22,45.67a3.27,3.27,0,0,1-.94.11m-5.22-5.25a6.65,6.65,0,0,0,2.16,3,5.42,5.42,0,0,0,3.69.91,1.16,1.16,0,0,0,.83-.63,1,1,0,0,0,0-.88c-.41-.92-2-1.72-3-2a12.32,12.32,0,0,0-3.68-.37" transform="translate(0 0)"/><path id="Path_2516" data-name="Path 2516" class="cls-3" d="M23.17,32.05a.66.66,0,0,1-.65-.66.65.65,0,0,1,.32-.56,4.1,4.1,0,0,0,.92-.74.65.65,0,1,1,1,.89,5.47,5.47,0,0,1-1.21,1,.67.67,0,0,1-.34.09" transform="translate(0 0)"/><path id="Path_2517" data-name="Path 2517" class="cls-3" d="M22.66,38.36a.56.56,0,0,1-.25,0,12,12,0,0,0-1.15-.4.65.65,0,0,1,.35-1.26,11.07,11.07,0,0,1,1.3.45.66.66,0,0,1,.36.86.67.67,0,0,1-.61.41" transform="translate(0 0)"/><path id="Path_2518" data-name="Path 2518" class="cls-3" d="M23.56,51a.66.66,0,0,1-.66-.66.68.68,0,0,1,.22-.49,7.22,7.22,0,0,1,1.33-.93.66.66,0,0,1,.89.26.65.65,0,0,1-.26.89,5.83,5.83,0,0,0-1.08.76.66.66,0,0,1-.44.17" transform="translate(0 0)"/><path id="Path_2519" data-name="Path 2519" class="cls-3" d="M23.15,59.35a.55.55,0,0,1-.33-.09l-1.38-.81a.66.66,0,0,1,.62-1.16l0,0,1.38.81a.66.66,0,0,1,.24.9.7.7,0,0,1-.57.33" transform="translate(0 0)"/></g></g></g></g></g></svg>