<svg xmlns="http://www.w3.org/2000/svg" xmlns:xlink="http://www.w3.org/1999/xlink" viewBox="0 0 42.17 68.33"><defs><style>.cls-1{fill:none;}.cls-2{isolation:isolate;}.cls-3{fill:#004849;}.cls-4{fill:#2cdeb4;}.cls-5{clip-path:url(#clip-path);}</style><clipPath id="clip-path" transform="translate(0 0)"><rect class="cls-1" x="2.53" width="36.89" height="54.67"/></clipPath></defs><g id="Layer_2" data-name="Layer 2"><g id="Layer_1-2" data-name="Layer 1"><g id="humulene" class="cls-2"><g class="cls-2"><path class="cls-3" d="M0,59.94H1.1v3.89a1.9,1.9,0,0,1,1.29-.53,1.69,1.69,0,0,1,1.29.52,2.11,2.11,0,0,1,.41,1.45v2.92H3V65.38a1.32,1.32,0,0,0-.2-.83.77.77,0,0,0-.65-.26.88.88,0,0,0-.81.36,2.46,2.46,0,0,0-.23,1.24v2.3H0Z" transform="translate(0 0)"/><path class="cls-3" d="M6.58,63.43v2.73c0,.79.31,1.19.93,1.19s.94-.4.94-1.19V63.43h1.1v2.76a2.84,2.84,0,0,1-.15,1,1.58,1.58,0,0,1-.47.67,2,2,0,0,1-1.42.49,2,2,0,0,1-1.41-.49,1.7,1.7,0,0,1-.48-.67,2.71,2.71,0,0,1-.14-1V63.43Z" transform="translate(0 0)"/><path class="cls-3" d="M10.93,63.43H12v.44a2.35,2.35,0,0,1,.54-.45,1.34,1.34,0,0,1,.6-.12,1.46,1.46,0,0,1,1.28.71,1.64,1.64,0,0,1,1.4-.71c1.07,0,1.61.65,1.61,2v2.94H16.35V65.55a2.07,2.07,0,0,0-.16-1,.62.62,0,0,0-.57-.29.72.72,0,0,0-.66.35,2.26,2.26,0,0,0-.2,1.09v2.46H13.65V65.56c0-.84-.24-1.27-.73-1.27a.75.75,0,0,0-.68.35A2.18,2.18,0,0,0,12,65.73v2.46h-1.1Z" transform="translate(0 0)"/><path class="cls-3" d="M19.94,63.43v2.73c0,.79.31,1.19.93,1.19s.94-.4.94-1.19V63.43h1.1v2.76a2.84,2.84,0,0,1-.15,1,1.68,1.68,0,0,1-.47.67,2.29,2.29,0,0,1-2.83,0,1.61,1.61,0,0,1-.48-.67,2.71,2.71,0,0,1-.14-1V63.43Z" transform="translate(0 0)"/><path class="cls-3" d="M25.39,59.94v8.25h-1.1V59.94Z" transform="translate(0 0)"/><path class="cls-3" d="M31.11,66.07h-3.4a1.36,1.36,0,0,0,.38.93,1.24,1.24,0,0,0,1.54.15,3,3,0,0,0,.6-.72l.93.51a3.67,3.67,0,0,1-.46.63,2.24,2.24,0,0,1-.51.43,2.06,2.06,0,0,1-.59.25,3,3,0,0,1-.69.08,2.23,2.23,0,0,1-1.71-.69,2.54,2.54,0,0,1-.64-1.82A2.67,2.67,0,0,1,27.18,64a2.16,2.16,0,0,1,1.67-.69,2.11,2.11,0,0,1,1.66.67,2.6,2.6,0,0,1,.61,1.84ZM30,65.17a1.07,1.07,0,0,0-1.11-.88,1.16,1.16,0,0,0-.38.06,1,1,0,0,0-.32.18,1.12,1.12,0,0,0-.25.28,1.3,1.3,0,0,0-.15.36Z" transform="translate(0 0)"/><path class="cls-3" d="M32.31,63.43h1.11v.44a1.78,1.78,0,0,1,1.3-.57,1.66,1.66,0,0,1,1.29.52,2.13,2.13,0,0,1,.4,1.45v2.92h-1.1V65.53a1.73,1.73,0,0,0-.2-1,.78.78,0,0,0-.69-.27.86.86,0,0,0-.78.36,2.48,2.48,0,0,0-.22,1.24v2.3H32.31Z" transform="translate(0 0)"/><path class="cls-3" d="M42.13,66.07H38.72a1.46,1.46,0,0,0,.38.93,1.17,1.17,0,0,0,.87.35,1.09,1.09,0,0,0,.67-.2,2.8,2.8,0,0,0,.61-.72l.92.51a3.19,3.19,0,0,1-.45.63,2.24,2.24,0,0,1-.51.43,2.18,2.18,0,0,1-.59.25,3.1,3.1,0,0,1-.69.08,2.23,2.23,0,0,1-1.71-.69,2.55,2.55,0,0,1-.65-1.82A2.63,2.63,0,0,1,38.2,64a2.38,2.38,0,0,1,3.33,0,2.65,2.65,0,0,1,.6,1.84ZM41,65.17a1.06,1.06,0,0,0-1.11-.88,1.1,1.1,0,0,0-.37.06.92.92,0,0,0-.32.18,1.12,1.12,0,0,0-.25.28,1.31,1.31,0,0,0-.16.36Z" transform="translate(0 0)"/></g></g><g id="Group_2327" data-name="Group 2327"><path id="Path_1884" data-name="Path 1884" class="cls-4" d="M10,14.37H31.36l4,13.64H6Z" transform="translate(0 0)"/><g id="Group_2326" data-name="Group 2326"><g class="cls-5"><g id="Group_2325" data-name="Group 2325"><path id="Path_1885" data-name="Path 1885" class="cls-4" d="M13.94,44.22a18.42,18.42,0,0,0,1.76-.91c.39-.22.77-.46,1.13-.7a14.68,14.68,0,0,0,4.1,4.06A14.68,14.68,0,0,0,25,42.61c.36.24.73.47,1.12.7a18.44,18.44,0,0,0,1.77.91,19.29,19.29,0,0,1-1.79,4.08,16.32,16.32,0,0,1-5.2,5.75,16.22,16.22,0,0,1-5.2-5.75,18.32,18.32,0,0,1-1.79-4.08" transform="translate(0 0)"/><path id="Path_1886" data-name="Path 1886" class="cls-3" d="M20.93,54.67a.63.63,0,0,1-.33-.09,17,17,0,0,1-5.41-6,19.73,19.73,0,0,1-1.85-4.21.63.63,0,0,1,.34-.75,17.22,17.22,0,0,0,1.71-.88c.38-.22.74-.45,1.09-.68a.62.62,0,0,1,.86.16,14.44,14.44,0,0,0,3.59,3.68,14.4,14.4,0,0,0,3.58-3.68.62.62,0,0,1,.86-.16c.35.23.72.46,1.1.68a18.22,18.22,0,0,0,1.7.88.62.62,0,0,1,.34.75,19.21,19.21,0,0,1-1.84,4.21,17.06,17.06,0,0,1-5.42,6,.59.59,0,0,1-.32.09M14.7,44.56A18.57,18.57,0,0,0,16.27,48a16.09,16.09,0,0,0,4.66,5.32A16.42,16.42,0,0,0,25.59,48a18.92,18.92,0,0,0,1.56-3.43c-.4-.2-.83-.43-1.31-.7-.22-.13-.44-.26-.65-.4a15,15,0,0,1-3.94,3.75.63.63,0,0,1-.65,0,14.92,14.92,0,0,1-3.93-3.75l-.65.4c-.49.27-.92.5-1.32.7" transform="translate(0 0)"/><path id="Path_1887" data-name="Path 1887" class="cls-4" d="M13.35,14.37a16.42,16.42,0,0,1,7.58-1.63,16.38,16.38,0,0,1,7.57,1.63,16.36,16.36,0,0,1-2.38,7.37,16.56,16.56,0,0,1-5.19,5.75,16.49,16.49,0,0,1-5.2-5.75,16.36,16.36,0,0,1-2.38-7.37" transform="translate(0 0)"/><path id="Path_1888" data-name="Path 1888" class="cls-3" d="M20.93,28.11A.63.63,0,0,1,20.6,28a17.12,17.12,0,0,1-5.41-6,17.09,17.09,0,0,1-2.46-7.67.62.62,0,0,1,.32-.56,17.08,17.08,0,0,1,7.88-1.7,17,17,0,0,1,7.87,1.7.63.63,0,0,1,.33.56,17.1,17.1,0,0,1-2.47,7.67,17,17,0,0,1-5.41,6,.59.59,0,0,1-.32.09M14,14.74a16.43,16.43,0,0,0,2.27,6.69,16.39,16.39,0,0,0,4.66,5.31,16.24,16.24,0,0,0,4.65-5.31,16.3,16.3,0,0,0,2.28-6.69,16.2,16.2,0,0,0-6.93-1.37A16.2,16.2,0,0,0,14,14.74" transform="translate(0 0)"/><path id="Path_1889" data-name="Path 1889" class="cls-4" d="M10.23,41a18,18,0,0,0,3.71-1.25,19.75,19.75,0,0,0,1.79,4.08A12.33,12.33,0,0,0,16.45,45a26.34,26.34,0,0,1-4,3.33A20.32,20.32,0,0,1,10.23,41" transform="translate(0 0)"/><path id="Path_1890" data-name="Path 1890" class="cls-3" d="M12.48,49h-.14a.66.66,0,0,1-.41-.3,20.77,20.77,0,0,1-2.32-7.57.61.61,0,0,1,.5-.66,16.7,16.7,0,0,0,3.57-1.21.63.63,0,0,1,.83.31l0,.08a18.58,18.58,0,0,0,1.73,4c.21.37.44.74.69,1.1a.61.61,0,0,1-.06.79,27,27,0,0,1-4.06,3.41.66.66,0,0,1-.36.11M10.91,41.5a20,20,0,0,0,1.8,5.9,25.63,25.63,0,0,0,2.94-2.47c-.17-.25-.32-.51-.47-.77a21,21,0,0,1-1.62-3.54,19.18,19.18,0,0,1-2.65.89" transform="translate(0 0)"/><path id="Path_1891" data-name="Path 1891" class="cls-4" d="M25.4,45a10.62,10.62,0,0,0,.73-1.15,19.6,19.6,0,0,0,1.79-4.09A16.71,16.71,0,0,0,31.63,41a20.6,20.6,0,0,1-2.25,7.31,26.86,26.86,0,0,1-4-3.32" transform="translate(0 0)"/><path id="Path_1892" data-name="Path 1892" class="cls-3" d="M29.38,49a.64.64,0,0,1-.36-.11A28.12,28.12,0,0,1,25,45.44a.62.62,0,0,1-.05-.8,9.45,9.45,0,0,0,.68-1.09,19.14,19.14,0,0,0,1.74-4,.58.58,0,0,1,.34-.39.65.65,0,0,1,.51,0,16.94,16.94,0,0,0,3.58,1.2.62.62,0,0,1,.5.67,20.78,20.78,0,0,1-2.32,7.56.59.59,0,0,1-.41.3l-.14,0m-3.17-4a26.69,26.69,0,0,0,2.94,2.47A20,20,0,0,0,31,41.5a17.55,17.55,0,0,1-2.65-.89,21.09,21.09,0,0,1-1.63,3.55c-.15.26-.3.52-.46.77" transform="translate(0 0)"/><path id="Path_1893" data-name="Path 1893" class="cls-4" d="M13.94,39.78c.59-.27,1.17-.58,1.76-.91.39-.23.77-.47,1.13-.7a14.68,14.68,0,0,0,4.1,4.06A14.68,14.68,0,0,0,25,38.17c.36.23.73.47,1.12.7.57.33,1.16.63,1.77.91a19.44,19.44,0,0,1-1.79,4.07,16.32,16.32,0,0,1-5.2,5.75,16.22,16.22,0,0,1-5.2-5.75,18.45,18.45,0,0,1-1.79-4.07" transform="translate(0 0)"/><path id="Path_1894" data-name="Path 1894" class="cls-3" d="M20.93,50.23a.63.63,0,0,1-.33-.09,17,17,0,0,1-5.41-6A19.73,19.73,0,0,1,13.34,40a.63.63,0,0,1,.34-.75,17.29,17.29,0,0,0,1.71-.89c.38-.21.74-.44,1.09-.68a.63.63,0,0,1,.86.17,14.6,14.6,0,0,0,3.59,3.68,14.56,14.56,0,0,0,3.58-3.68.64.64,0,0,1,.86-.17c.35.23.72.47,1.1.69.55.32,1.12.61,1.7.88a.62.62,0,0,1,.34.75,19.21,19.21,0,0,1-1.84,4.21,17.06,17.06,0,0,1-5.42,6,.59.59,0,0,1-.32.09M14.7,40.11a19,19,0,0,0,1.57,3.43,16.19,16.19,0,0,0,4.66,5.32,16.42,16.42,0,0,0,4.66-5.32,18.92,18.92,0,0,0,1.56-3.43c-.4-.2-.83-.42-1.31-.7-.22-.13-.44-.26-.65-.4a15,15,0,0,1-3.94,3.75.63.63,0,0,1-.65,0A14.92,14.92,0,0,1,16.67,39l-.65.4c-.49.27-.92.5-1.32.7" transform="translate(0 0)"/><path id="Path_1895" data-name="Path 1895" class="cls-4" d="M6.7,33.67A20,20,0,0,1,6.88,31a22.54,22.54,0,0,0,2.43-.57,21.28,21.28,0,0,0-.53,4,26.48,26.48,0,0,0,5.5-1,20.58,20.58,0,0,0,2.53,4.76,11,11,0,0,1-1.11.7,16.36,16.36,0,0,1-7.37,2.38A16.41,16.41,0,0,1,6.7,33.67" transform="translate(0 0)"/><path id="Path_1896" data-name="Path 1896" class="cls-3" d="M8.33,41.87a.63.63,0,0,1-.55-.33,17,17,0,0,1-1.7-7.87,21.09,21.09,0,0,1,.18-2.76.6.6,0,0,1,.51-.53,24,24,0,0,0,2.37-.56.62.62,0,0,1,.78.74,22.18,22.18,0,0,0-.48,3.15,24.62,24.62,0,0,0,4.66-.91.64.64,0,0,1,.77.39,17.13,17.13,0,0,0,1.4,3,13.3,13.3,0,0,0,1.05,1.63.64.64,0,0,1-.13.88h0c-.37.27-.76.5-1.16.74a17,17,0,0,1-7.68,2.45ZM7.44,31.52c-.07.71-.11,1.43-.11,2.15A16.2,16.2,0,0,0,8.7,40.6a16.43,16.43,0,0,0,6.69-2.27l.54-.33c-.26-.39-.51-.79-.75-1.21a19.36,19.36,0,0,1-1.28-2.63A27.3,27.3,0,0,1,8.83,35a.65.65,0,0,1-.48-.17.63.63,0,0,1-.2-.46,20.14,20.14,0,0,1,.35-3.11l-1.06.23" transform="translate(0 0)"/><path id="Path_1897" data-name="Path 1897" class="cls-4" d="M25,38.17a16.76,16.76,0,0,0,1.09-1.69,19.24,19.24,0,0,0,1.45-3.08,26.25,26.25,0,0,0,5.5,1,20.7,20.7,0,0,0-.54-4A22.2,22.2,0,0,0,35,31a21.63,21.63,0,0,1,.17,2.67,16.41,16.41,0,0,1-1.62,7.58,16.39,16.39,0,0,1-7.38-2.37c-.39-.23-.76-.45-1.11-.7" transform="translate(0 0)"/><path id="Path_1898" data-name="Path 1898" class="cls-3" d="M33.53,41.87h0a17.13,17.13,0,0,1-7.67-2.46,12.1,12.1,0,0,1-1.16-.74.63.63,0,0,1-.15-.87h0a15.36,15.36,0,0,0,1-1.62,18.43,18.43,0,0,0,1.41-3,.63.63,0,0,1,.77-.39,24.67,24.67,0,0,0,4.65.91,20.83,20.83,0,0,0-.48-3.15.62.62,0,0,1,.47-.75.5.5,0,0,1,.32,0,21.42,21.42,0,0,0,2.37.55.64.64,0,0,1,.51.54,21,21,0,0,1,.18,2.75,17.15,17.15,0,0,1-1.7,7.88.6.6,0,0,1-.55.32M25.92,38l.55.33a16.38,16.38,0,0,0,6.69,2.27,16.5,16.5,0,0,0,1.37-6.93,19.23,19.23,0,0,0-.12-2.15l-1-.23a20.13,20.13,0,0,1,.34,3.11.63.63,0,0,1-.2.46A.65.65,0,0,1,33,35,29,29,0,0,1,28,34.16a20.67,20.67,0,0,1-1.29,2.63c-.24.42-.49.82-.75,1.21" transform="translate(0 0)"/><path id="Path_1899" data-name="Path 1899" class="cls-4" d="M14.28,33.4A16.7,16.7,0,0,0,17.72,32a13.39,13.39,0,0,0,3.21,2.89A13.76,13.76,0,0,0,24.14,32a18.22,18.22,0,0,0,3.44,1.43,19.24,19.24,0,0,1-1.45,3.08,16.49,16.49,0,0,1-5.2,5.75,16.39,16.39,0,0,1-5.2-5.75,18.41,18.41,0,0,1-1.45-3.08" transform="translate(0 0)"/><path id="Path_1900" data-name="Path 1900" class="cls-3" d="M20.93,42.85a.63.63,0,0,1-.33-.09,17,17,0,0,1-5.41-6,18.83,18.83,0,0,1-1.5-3.18.63.63,0,0,1,.37-.8h0a16.21,16.21,0,0,0,3.3-1.38.63.63,0,0,1,.8.13,13.54,13.54,0,0,0,2.74,2.55,13.76,13.76,0,0,0,2.73-2.55.63.63,0,0,1,.79-.14,17.18,17.18,0,0,0,3.31,1.39.62.62,0,0,1,.38.31.69.69,0,0,1,0,.49,20.52,20.52,0,0,1-1.5,3.18,17.06,17.06,0,0,1-5.42,6,.62.62,0,0,1-.32.09M15.1,33.8a17.38,17.38,0,0,0,1.17,2.37,16.19,16.19,0,0,0,4.66,5.32,16.42,16.42,0,0,0,4.66-5.32,21,21,0,0,0,1.17-2.38,16.76,16.76,0,0,1-2.47-1,14,14,0,0,1-3,2.64.63.63,0,0,1-.65,0,14.09,14.09,0,0,1-3-2.63,16.76,16.76,0,0,1-2.47,1" transform="translate(0 0)"/><path id="Path_1901" data-name="Path 1901" class="cls-4" d="M8.78,34.4A19.74,19.74,0,0,1,11,26a20.08,20.08,0,0,0,3-.86,19.41,19.41,0,0,0,1.77,4,20.81,20.81,0,0,0,2,2.86A21.42,21.42,0,0,1,8.78,34.4" transform="translate(0 0)"/><path id="Path_1902" data-name="Path 1902" class="cls-3" d="M8.78,35a.63.63,0,0,1-.63-.63h0a20.21,20.21,0,0,1,2.31-8.75.66.66,0,0,1,.41-.3,18.86,18.86,0,0,0,2.87-.83.62.62,0,0,1,.5,0,.61.61,0,0,1,.32.38,18.39,18.39,0,0,0,1.71,3.88,20.3,20.3,0,0,0,1.92,2.76.61.61,0,0,1-.08.88.16.16,0,0,1-.08.06A21.82,21.82,0,0,1,8.83,35H8.78m2.63-8.51a18.86,18.86,0,0,0-2,7.2,21.58,21.58,0,0,0,7.31-1.94,22.65,22.65,0,0,1-1.56-2.34,19.31,19.31,0,0,1-1.62-3.52,20.34,20.34,0,0,1-2.16.6" transform="translate(0 0)"/><path id="Path_1903" data-name="Path 1903" class="cls-4" d="M24.14,32a21.41,21.41,0,0,0,2-2.85,19,19,0,0,0,1.76-4,20.14,20.14,0,0,0,3,.88,19.56,19.56,0,0,1,2.23,8.43A21.67,21.67,0,0,1,24.14,32" transform="translate(0 0)"/><path id="Path_1904" data-name="Path 1904" class="cls-3" d="M33.08,35h0a22.38,22.38,0,0,1-9.2-2.52.62.62,0,0,1-.24-.85.61.61,0,0,1,.07-.1,20.37,20.37,0,0,0,1.93-2.76,19,19,0,0,0,1.7-3.89.61.61,0,0,1,.78-.41h0a18.93,18.93,0,0,0,2.87.85.62.62,0,0,1,.41.3A20.2,20.2,0,0,1,33.7,34.4a.62.62,0,0,1-.61.63h0m-8-3.26a21.9,21.9,0,0,0,7.31,1.95,18.8,18.8,0,0,0-2-7.2,19.16,19.16,0,0,1-2.16-.62,20.5,20.5,0,0,1-1.62,3.53,22.75,22.75,0,0,1-1.57,2.34" transform="translate(0 0)"/><path id="Path_1905" data-name="Path 1905" class="cls-4" d="M3.93,31.39S4,26,6.6,22.23c.39.12.75.24,1.1.32a19.93,19.93,0,0,0-.53,4A27.43,27.43,0,0,0,11,26a15.72,15.72,0,0,0-1.68,4.46,27.45,27.45,0,0,1-5.39,1" transform="translate(0 0)"/><path id="Path_1906" data-name="Path 1906" class="cls-3" d="M3.93,32a.61.61,0,0,1-.63-.62h0c0-.22.11-5.6,2.79-9.5a.62.62,0,0,1,.7-.25c.38.12.72.23,1.06.32a.61.61,0,0,1,.46.75,20.83,20.83,0,0,0-.48,3.15,24.08,24.08,0,0,0,3-.5.64.64,0,0,1,.75.48.65.65,0,0,1-.08.45,15.34,15.34,0,0,0-1.61,4.29.64.64,0,0,1-.44.46A27.67,27.67,0,0,1,4,32h0m2.94-9A18.28,18.28,0,0,0,4.59,30.7a24.86,24.86,0,0,0,4.2-.78,17.9,17.9,0,0,1,1.06-3.09c-.87.15-1.74.26-2.64.33A.59.59,0,0,1,6.74,27a.63.63,0,0,1-.2-.46A21,21,0,0,1,7,23l-.1,0" transform="translate(0 0)"/><path id="Path_1907" data-name="Path 1907" class="cls-4" d="M34.7,26.54a21.5,21.5,0,0,0-.53-4c.35-.1.71-.2,1.08-.32,2.62,3.8,2.69,9.16,2.69,9.16a26,26,0,0,1-5.4-1A15.79,15.79,0,0,0,30.85,26a27.93,27.93,0,0,0,3.85.57" transform="translate(0 0)"/><path id="Path_1908" data-name="Path 1908" class="cls-3" d="M37.94,32h0a27.32,27.32,0,0,1-5.53-1,.63.63,0,0,1-.43-.46,15,15,0,0,0-1.62-4.28.62.62,0,0,1,0-.68.61.61,0,0,1,.64-.24,28.51,28.51,0,0,0,3.05.5,23.85,23.85,0,0,0-.48-3.16A.61.61,0,0,1,34,22l.13,0c.3-.08.61-.17.93-.28a.63.63,0,0,1,.72.24c2.69,3.91,2.79,9.28,2.8,9.51A.63.63,0,0,1,38,32h0m-4.87-2.1a26,26,0,0,0,4.21.79A18.33,18.33,0,0,0,35,23l-.09,0a21,21,0,0,1,.43,3.54.63.63,0,0,1-.62.63h-.06q-1.34-.11-2.64-.33a18.36,18.36,0,0,1,1.06,3.08" transform="translate(0 0)"/><path id="Path_1909" data-name="Path 1909" class="cls-4" d="M14,25.09a11.19,11.19,0,0,0,3-1.51,14.59,14.59,0,0,0,4,3.91,14.92,14.92,0,0,0,4-3.91,11,11,0,0,0,2.95,1.51,19,19,0,0,1-1.76,4,16.43,16.43,0,0,1-5.2,5.73,16.34,16.34,0,0,1-5.2-5.73,19.57,19.57,0,0,1-1.77-4" transform="translate(0 0)"/><path id="Path_1910" data-name="Path 1910" class="cls-3" d="M20.93,35.48a.63.63,0,0,1-.33-.09,17.09,17.09,0,0,1-5.41-6,19.24,19.24,0,0,1-1.82-4.16.62.62,0,0,1,.38-.77,10.71,10.71,0,0,0,2.78-1.41.63.63,0,0,1,.9.12,14.71,14.71,0,0,0,3.5,3.54,14.89,14.89,0,0,0,3.5-3.54.64.64,0,0,1,.43-.25.61.61,0,0,1,.47.13,10.87,10.87,0,0,0,2.78,1.41.63.63,0,0,1,.38.77,20.19,20.19,0,0,1-1.82,4.15,17,17,0,0,1-5.42,6,.59.59,0,0,1-.32.09m-6.19-10a18.66,18.66,0,0,0,1.53,3.34,16.39,16.39,0,0,0,4.66,5.31,16.39,16.39,0,0,0,4.66-5.31,19.1,19.1,0,0,0,1.52-3.35,13.29,13.29,0,0,1-2-1A14.88,14.88,0,0,1,21.25,28a.63.63,0,0,1-.65,0,15,15,0,0,1-3.82-3.59,13.92,13.92,0,0,1-2,1" transform="translate(0 0)"/><path id="Path_1911" data-name="Path 1911" class="cls-4" d="M27.25,13.4c6.6-.71,11.45,7.45,11.45,7.45a26,26,0,0,1-4.53,1.7c-.69-2.93-2.22-6.66-5.67-8.19Z" transform="translate(0 0)"/><path id="Path_1912" data-name="Path 1912" class="cls-3" d="M34.16,23.18a.61.61,0,0,1-.6-.48c-.65-2.76-2.1-6.34-5.31-7.76a.57.57,0,0,1-.13-.08l-1.25-1a.63.63,0,0,1-.11-.88.65.65,0,0,1,.43-.24C34.09,12,39,20.19,39.24,20.53a.62.62,0,0,1-.22.86l-.05,0a27.59,27.59,0,0,1-4.64,1.74l-.17,0m-4.77-9.07c3,1.65,4.49,4.93,5.22,7.67a26.79,26.79,0,0,0,3.17-1.19c-1.06-1.55-4.25-5.71-8.39-6.48" transform="translate(0 0)"/><path id="Path_1913" data-name="Path 1913" class="cls-4" d="M14.6,13.4C8,12.69,3.15,20.85,3.15,20.85a25.7,25.7,0,0,0,4.55,1.7c.68-2.92,2.2-6.66,5.65-8.18Z" transform="translate(0 0)"/><path id="Path_1914" data-name="Path 1914" class="cls-3" d="M7.7,23.18l-.16,0a27.37,27.37,0,0,1-4.65-1.74.62.62,0,0,1-.3-.83s0,0,0-.06c.2-.34,5.14-8.5,12.05-7.75A.62.62,0,0,1,15,13.9l-1.25,1-.12.08c-3.23,1.42-4.66,5-5.3,7.75a.62.62,0,0,1-.61.49M4.07,20.59a28.33,28.33,0,0,0,3.18,1.19c.72-2.74,2.2-6,5.21-7.67-4.12.78-7.32,4.93-8.39,6.48" transform="translate(0 0)"/><path id="Path_1915" data-name="Path 1915" class="cls-3" d="M20.66,13.17a1.94,1.94,0,0,1-1.27-.41c-.28-.35-.21-.87-.1-1.51l0-.15a11.33,11.33,0,0,1,.59-2.36,12.62,12.62,0,0,1,2.66-4.28A16.34,16.34,0,0,1,30.12.08a1.22,1.22,0,0,1,1.19.18,1,1,0,0,1,.3.7,1.18,1.18,0,0,1-.35.83,2,2,0,0,1-.9.42,13,13,0,0,0-6.45,3.63,9.25,9.25,0,0,0-2.58,6.68l0,.46-.44.16a1.09,1.09,0,0,1-.26,0" transform="translate(0 0)"/><path id="Path_1916" data-name="Path 1916" class="cls-4" d="M38.53,10.1c.37-1.91.49-4.1-.61-5.47a5.07,5.07,0,0,0-3.44-1.49C32.68,3,32,4.08,31.83,5.72a2.36,2.36,0,0,0-2.32.74,2.93,2.93,0,0,0-.65,2.4,2.16,2.16,0,0,0,.81,1.45,3.2,3.2,0,0,0,1.54.42,14.44,14.44,0,0,1,3.75.58,5.11,5.11,0,0,1,2.36,1.82c.63.76.58-.5.72-1s.34-1.28.49-2" transform="translate(0 0)"/><path id="Path_1917" data-name="Path 1917" class="cls-3" d="M37.64,14a1.1,1.1,0,0,1-.81-.47,4.46,4.46,0,0,0-2.08-1.63,12.58,12.58,0,0,0-3.16-.52l-.43,0a3.67,3.67,0,0,1-1.85-.53A2.76,2.76,0,0,1,28.24,9,3.53,3.53,0,0,1,29,6,3.1,3.1,0,0,1,31.3,5a2.79,2.79,0,0,1,3-2.53l.21,0A5.78,5.78,0,0,1,38.4,4.24c1,1.28,1.27,3.23.74,6-.15.76-.33,1.47-.5,2.07a2.25,2.25,0,0,0-.06.36c-.08.52-.17,1.16-.74,1.32a.71.71,0,0,1-.21,0M31.29,6.27a1.84,1.84,0,0,0-1.33.6,2.36,2.36,0,0,0-.5,1.88,1.58,1.58,0,0,0,.57,1,2.52,2.52,0,0,0,1.23.3l.42,0a13.86,13.86,0,0,1,3.49.59,5.23,5.23,0,0,1,2.21,1.53c0-.11,0-.2.06-.29.16-.57.33-1.25.47-2,.45-2.33.29-4-.48-5a4.39,4.39,0,0,0-3-1.26c-1-.1-1.78.21-2,2a.63.63,0,0,1-.69.55l-.09,0a1.5,1.5,0,0,0-.37,0" transform="translate(0 0)"/><path id="Path_1918" data-name="Path 1918" class="cls-3" d="M34.87,10a13.86,13.86,0,0,0-2.39-3.15C30.06,4.25,26.37,5,24.39,5.42c-.33.07-.62.13-.85.16l-.18-1.23c.21,0,.47-.09.78-.15C26.2,3.77,30.49,2.89,33.4,6A15.36,15.36,0,0,1,36,9.39Z" transform="translate(0 0)"/><path id="Path_1919" data-name="Path 1919" class="cls-4" d="M15.17,12.32a12.49,12.49,0,0,1,5.73-1.23,12.45,12.45,0,0,1,5.72,1.23,12.42,12.42,0,0,1-1.8,5.57,12.31,12.31,0,0,1-3.93,4.34A12.38,12.38,0,0,1,17,17.89a12.42,12.42,0,0,1-1.8-5.57" transform="translate(0 0)"/><path id="Path_1920" data-name="Path 1920" class="cls-3" d="M20.9,22.85a.63.63,0,0,1-.33-.09,13.13,13.13,0,0,1-4.14-4.56,13.14,13.14,0,0,1-1.88-5.87.61.61,0,0,1,.33-.56,13.05,13.05,0,0,1,6-1.3,13.08,13.08,0,0,1,6,1.3.62.62,0,0,1,.32.56,13,13,0,0,1-1.88,5.87,13,13,0,0,1-4.13,4.56.63.63,0,0,1-.33.09M15.82,12.69a12.56,12.56,0,0,0,1.69,4.89,12.44,12.44,0,0,0,3.39,3.9,12.41,12.41,0,0,0,3.38-3.9A12.4,12.4,0,0,0,26,12.69a12.25,12.25,0,0,0-5.07-1,12.32,12.32,0,0,0-5.08,1" transform="translate(0 0)"/></g></g></g></g></g></g></svg>