<svg xmlns="http://www.w3.org/2000/svg" xmlns:xlink="http://www.w3.org/1999/xlink" viewBox="0 0 42.17 70.84"><defs><style>.cls-1{fill:none;}.cls-2{isolation:isolate;}.cls-3{fill:#004849;}.cls-4{fill:#2cdeb4;}.cls-5{clip-path:url(#clip-path);}</style><clipPath id="clip-path" transform="translate(0 0)"><rect class="cls-1" x="1.61" width="38.73" height="57.4"/></clipPath></defs><g id="Layer_2" data-name="Layer 2"><g id="Layer_1-2" data-name="Layer 1"><g id="humulene" class="cls-2"><g class="cls-2"><path class="cls-3" d="M0,62.46H1.1v3.89a1.85,1.85,0,0,1,1.29-.53,1.66,1.66,0,0,1,1.29.52,2.09,2.09,0,0,1,.41,1.45v2.92H3V67.89a1.29,1.29,0,0,0-.2-.82.77.77,0,0,0-.65-.26.88.88,0,0,0-.81.36,2.46,2.46,0,0,0-.23,1.24v2.3H0Z" transform="translate(0 0)"/><path class="cls-3" d="M6.58,66v2.73c0,.79.31,1.18.93,1.18s.94-.39.94-1.18V66h1.1V68.7a3,3,0,0,1-.15,1,1.58,1.58,0,0,1-.47.67,2.09,2.09,0,0,1-1.42.48,2.1,2.1,0,0,1-1.41-.48,1.7,1.7,0,0,1-.48-.67,2.74,2.74,0,0,1-.14-1V66Z" transform="translate(0 0)"/><path class="cls-3" d="M10.93,66H12v.44a2.35,2.35,0,0,1,.54-.45,1.34,1.34,0,0,1,.6-.12,1.46,1.46,0,0,1,1.28.7,1.63,1.63,0,0,1,1.4-.7c1.07,0,1.61.65,1.61,2v2.94H16.35V68.06a2,2,0,0,0-.16-1,.62.62,0,0,0-.57-.29.71.71,0,0,0-.66.34,2.31,2.31,0,0,0-.2,1.1v2.46H13.65V68.08c0-.85-.24-1.27-.73-1.27a.73.73,0,0,0-.68.35A2.16,2.16,0,0,0,12,68.25v2.46h-1.1Z" transform="translate(0 0)"/><path class="cls-3" d="M19.94,66v2.73c0,.79.31,1.18.93,1.18s.94-.39.94-1.18V66h1.1V68.7a3,3,0,0,1-.15,1,1.68,1.68,0,0,1-.47.67,2.33,2.33,0,0,1-2.83,0,1.7,1.7,0,0,1-.48-.67,2.74,2.74,0,0,1-.14-1V66Z" transform="translate(0 0)"/><path class="cls-3" d="M25.39,62.46v8.25h-1.1V62.46Z" transform="translate(0 0)"/><path class="cls-3" d="M31.11,68.59h-3.4a1.36,1.36,0,0,0,.38.93,1.28,1.28,0,0,0,1.54.15,3.12,3.12,0,0,0,.6-.73l.93.52a4.67,4.67,0,0,1-.46.63,2.53,2.53,0,0,1-.51.43,2,2,0,0,1-.59.24,2.51,2.51,0,0,1-.69.08,2.22,2.22,0,0,1-1.71-.68,2.57,2.57,0,0,1-.64-1.83,2.64,2.64,0,0,1,.62-1.82,2.16,2.16,0,0,1,1.67-.69,2.11,2.11,0,0,1,1.66.67,2.59,2.59,0,0,1,.61,1.84ZM30,67.69a1.06,1.06,0,0,0-1.11-.88,1.16,1.16,0,0,0-.38.06,1,1,0,0,0-.32.18.93.93,0,0,0-.25.27,1.37,1.37,0,0,0-.15.37Z" transform="translate(0 0)"/><path class="cls-3" d="M32.31,66h1.11v.44a1.8,1.8,0,0,1,1.3-.57,1.63,1.63,0,0,1,1.29.52,2.13,2.13,0,0,1,.4,1.45v2.92h-1.1V68.05a1.73,1.73,0,0,0-.2-1,.79.79,0,0,0-.69-.28.84.84,0,0,0-.78.37,2.46,2.46,0,0,0-.22,1.24v2.3H32.31Z" transform="translate(0 0)"/><path class="cls-3" d="M42.13,68.59H38.72a1.46,1.46,0,0,0,.38.93,1.16,1.16,0,0,0,.87.34,1.09,1.09,0,0,0,.67-.19,2.88,2.88,0,0,0,.61-.73l.92.52a3.91,3.91,0,0,1-.45.63,2.53,2.53,0,0,1-.51.43,2.15,2.15,0,0,1-.59.24,2.61,2.61,0,0,1-.69.08,2.22,2.22,0,0,1-1.71-.68,2.92,2.92,0,0,1,0-3.65,2.38,2.38,0,0,1,3.33,0,2.63,2.63,0,0,1,.6,1.84ZM41,67.69a1,1,0,0,0-1.11-.88,1.1,1.1,0,0,0-.37.06.92.92,0,0,0-.32.18.93.93,0,0,0-.25.27,1.38,1.38,0,0,0-.16.37Z" transform="translate(0 0)"/></g></g><g id="Group_2351" data-name="Group 2351"><path id="Path_2257" data-name="Path 2257" class="cls-4" d="M9.46,15.08H31.88l4.26,14.33H5.21Z" transform="translate(0 0)"/><g id="Group_2350" data-name="Group 2350"><g class="cls-5"><g id="Group_2349" data-name="Group 2349"><path id="Path_2258" data-name="Path 2258" class="cls-4" d="M13.59,46.43a18.14,18.14,0,0,0,1.85-1c.41-.23.8-.48,1.18-.73A15.61,15.61,0,0,0,20.92,49a15.51,15.51,0,0,0,4.31-4.27c.38.25.77.5,1.18.73a17.15,17.15,0,0,0,1.85,1,20.16,20.16,0,0,1-1.88,4.28,17.2,17.2,0,0,1-5.46,6,17.2,17.2,0,0,1-5.46-6,20.16,20.16,0,0,1-1.88-4.28" transform="translate(0 0)"/><path id="Path_2259" data-name="Path 2259" class="cls-3" d="M20.93,57.4a.74.74,0,0,1-.35-.1A17.8,17.8,0,0,1,14.9,51,20.47,20.47,0,0,1,13,46.61a.65.65,0,0,1,.36-.78c.61-.28,1.21-.59,1.79-.93.4-.23.78-.47,1.15-.72a.66.66,0,0,1,.9.18,15.37,15.37,0,0,0,3.77,3.86,15.33,15.33,0,0,0,3.76-3.86.66.66,0,0,1,.9-.18c.37.25.76.49,1.16.72a20.06,20.06,0,0,0,1.78.93.64.64,0,0,1,.36.78A20.71,20.71,0,0,1,27,51a17.84,17.84,0,0,1-5.69,6.27.67.67,0,0,1-.34.1M14.39,46.78A19.5,19.5,0,0,0,16,50.38,17.08,17.08,0,0,0,20.93,56a17.12,17.12,0,0,0,4.89-5.58,19.45,19.45,0,0,0,1.64-3.6c-.42-.21-.87-.45-1.38-.74l-.68-.42a15.49,15.49,0,0,1-4.13,3.94.66.66,0,0,1-.69,0,15.79,15.79,0,0,1-4.13-3.94l-.68.42c-.51.29-1,.53-1.38.74" transform="translate(0 0)"/><path id="Path_2260" data-name="Path 2260" class="cls-4" d="M13,15.08a17.25,17.25,0,0,1,8-1.7,17.21,17.21,0,0,1,8,1.7,17.21,17.21,0,0,1-2.5,7.75,17.33,17.33,0,0,1-5.45,6,17.26,17.26,0,0,1-5.46-6A17.21,17.21,0,0,1,13,15.08" transform="translate(0 0)"/><path id="Path_2261" data-name="Path 2261" class="cls-3" d="M20.93,29.52a.71.71,0,0,1-.35-.1,18,18,0,0,1-5.67-6.27,17.86,17.86,0,0,1-2.59-8,.63.63,0,0,1,.34-.59,17.91,17.91,0,0,1,8.27-1.79,17.9,17.9,0,0,1,8.26,1.79.62.62,0,0,1,.34.59,17.85,17.85,0,0,1-2.58,8,18.08,18.08,0,0,1-5.68,6.27.59.59,0,0,1-.34.1m-7.28-14a17.1,17.1,0,0,0,2.39,7,17.12,17.12,0,0,0,4.89,5.58,17.21,17.21,0,0,0,4.88-5.58,17.1,17.1,0,0,0,2.39-7A17,17,0,0,0,20.93,14a17,17,0,0,0-7.28,1.44" transform="translate(0 0)"/><path id="Path_2262" data-name="Path 2262" class="cls-4" d="M9.69,43.07a17.93,17.93,0,0,0,3.9-1.32,20.55,20.55,0,0,0,1.88,4.3,11.55,11.55,0,0,0,.76,1.2,27.35,27.35,0,0,1-4.18,3.49,21.53,21.53,0,0,1-2.36-7.67" transform="translate(0 0)"/><path id="Path_2263" data-name="Path 2263" class="cls-3" d="M12.05,51.4l-.14,0a.64.64,0,0,1-.43-.32A21.91,21.91,0,0,1,9,43.12a.65.65,0,0,1,.52-.7,17.17,17.17,0,0,0,3.76-1.27.66.66,0,0,1,.87.33l0,.08A19.93,19.93,0,0,0,16,45.72a11.69,11.69,0,0,0,.73,1.15.67.67,0,0,1-.06.84,29.72,29.72,0,0,1-4.27,3.57.64.64,0,0,1-.38.12m-1.64-7.82a21,21,0,0,0,1.88,6.19,27.51,27.51,0,0,0,3.09-2.59c-.17-.27-.33-.54-.49-.81a22,22,0,0,1-1.7-3.73,18.19,18.19,0,0,1-2.78.94" transform="translate(0 0)"/><path id="Path_2264" data-name="Path 2264" class="cls-4" d="M25.62,47.25a11.64,11.64,0,0,0,.77-1.2,21,21,0,0,0,1.87-4.3,18.11,18.11,0,0,0,3.9,1.32,21.33,21.33,0,0,1-2.36,7.67,27.27,27.27,0,0,1-4.17-3.49" transform="translate(0 0)"/><path id="Path_2265" data-name="Path 2265" class="cls-3" d="M29.8,51.4a.64.64,0,0,1-.38-.12,29.72,29.72,0,0,1-4.27-3.57.67.67,0,0,1-.06-.84,10.54,10.54,0,0,0,.72-1.15,19.24,19.24,0,0,0,1.82-4.16.7.7,0,0,1,.36-.41.75.75,0,0,1,.55,0,17.27,17.27,0,0,0,3.75,1.27.65.65,0,0,1,.52.7,21.91,21.91,0,0,1-2.44,7.94.62.62,0,0,1-.42.32l-.15,0m-3.33-4.23a28.34,28.34,0,0,0,3.09,2.6,21.34,21.34,0,0,0,1.89-6.19,18.68,18.68,0,0,1-2.79-.94A21,21,0,0,1,27,46.37c-.15.27-.31.54-.48.8" transform="translate(0 0)"/><path id="Path_2266" data-name="Path 2266" class="cls-4" d="M13.59,41.77a20.4,20.4,0,0,0,1.85-1c.41-.24.8-.49,1.18-.74a15.34,15.34,0,0,0,4.3,4.27,15.24,15.24,0,0,0,4.31-4.27c.38.25.77.5,1.18.74.61.35,1.23.68,1.85,1a20.39,20.39,0,0,1-1.88,4.28,17.09,17.09,0,0,1-5.46,6,17.09,17.09,0,0,1-5.46-6,20.39,20.39,0,0,1-1.88-4.28" transform="translate(0 0)"/><path id="Path_2267" data-name="Path 2267" class="cls-3" d="M20.93,52.74a.71.71,0,0,1-.35-.1,17.89,17.89,0,0,1-5.68-6.27A20.47,20.47,0,0,1,13,42a.67.67,0,0,1,.36-.79,17.79,17.79,0,0,0,1.79-.92c.4-.23.78-.48,1.15-.72a.66.66,0,0,1,.9.17,15.2,15.2,0,0,0,3.77,3.86,15.16,15.16,0,0,0,3.76-3.86.67.67,0,0,1,.9-.17c.37.24.76.49,1.16.72a17.63,17.63,0,0,0,1.78.92.66.66,0,0,1,.36.79A20.93,20.93,0,0,1,27,46.37a17.93,17.93,0,0,1-5.69,6.27.67.67,0,0,1-.34.1M14.39,42.12A19.81,19.81,0,0,0,16,45.72a17.27,17.27,0,0,0,4.9,5.58,17.05,17.05,0,0,0,4.89-5.59,18.87,18.87,0,0,0,1.64-3.6c-.42-.2-.87-.44-1.38-.73L25.4,41a15.49,15.49,0,0,1-4.13,3.94.66.66,0,0,1-.69,0A15.79,15.79,0,0,1,16.45,41l-.68.42c-.51.29-1,.53-1.38.74" transform="translate(0 0)"/><path id="Path_2268" data-name="Path 2268" class="cls-4" d="M6,35.35a22,22,0,0,1,.18-2.81,22.13,22.13,0,0,0,2.56-.6,21.88,21.88,0,0,0-.56,4.19,28.19,28.19,0,0,0,5.77-1.05,19.75,19.75,0,0,0,1.53,3.22,15.68,15.68,0,0,0,1.14,1.77c-.37.27-.77.5-1.17.74A17.2,17.2,0,0,1,7.7,43.3,17.22,17.22,0,0,1,6,35.35" transform="translate(0 0)"/><path id="Path_2269" data-name="Path 2269" class="cls-3" d="M7.7,44a.66.66,0,0,1-.58-.34,18.07,18.07,0,0,1-1.79-8.27,23.41,23.41,0,0,1,.19-2.9.67.67,0,0,1,.54-.56,20.8,20.8,0,0,0,2.48-.59.66.66,0,0,1,.83.78,23.15,23.15,0,0,0-.51,3.32,26.1,26.1,0,0,0,4.89-.95.65.65,0,0,1,.81.4A19.85,19.85,0,0,0,16,38a19.13,19.13,0,0,0,1.1,1.71.64.64,0,0,1-.13.91h0c-.39.27-.8.52-1.22.77A17.89,17.89,0,0,1,7.71,44ZM6.77,33.1a21.2,21.2,0,0,0-.12,2.25,17,17,0,0,0,1.44,7.28,17.1,17.1,0,0,0,7-2.39l.57-.34c-.27-.4-.54-.83-.79-1.27a24.13,24.13,0,0,1-1.35-2.75,29.87,29.87,0,0,1-5.32.9.65.65,0,0,1-.7-.6.2.2,0,0,1,0-.07,22.42,22.42,0,0,1,.36-3.26c-.36.09-.73.17-1.1.24" transform="translate(0 0)"/><path id="Path_2270" data-name="Path 2270" class="cls-4" d="M25.24,40.07a17.3,17.3,0,0,0,1.15-1.77,20.24,20.24,0,0,0,1.52-3.23,26.9,26.9,0,0,0,5.77,1,21.77,21.77,0,0,0-.56-4.18,24.41,24.41,0,0,0,2.56.6,22,22,0,0,1,.18,2.81,17.37,17.37,0,0,1-1.7,7.95,17.32,17.32,0,0,1-7.75-2.49c-.41-.24-.8-.48-1.17-.74" transform="translate(0 0)"/><path id="Path_2271" data-name="Path 2271" class="cls-3" d="M34.16,44h0a18,18,0,0,1-8.06-2.58c-.42-.25-.83-.5-1.22-.77a.67.67,0,0,1-.15-.92h0a17.64,17.64,0,0,0,1.1-1.7,19.75,19.75,0,0,0,1.47-3.12.66.66,0,0,1,.81-.41A26.26,26.26,0,0,0,33,35.4a23.23,23.23,0,0,0-.51-3.31.66.66,0,0,1,.5-.79.74.74,0,0,1,.33,0,23.69,23.69,0,0,0,2.49.59.66.66,0,0,1,.53.56,21.62,21.62,0,0,1,.19,2.9,17.94,17.94,0,0,1-1.79,8.27.64.64,0,0,1-.57.34m-8-4.07.57.34a17.24,17.24,0,0,0,7,2.39,17.34,17.34,0,0,0,1.44-7.28,18.74,18.74,0,0,0-.13-2.25L34,32.85a22.42,22.42,0,0,1,.36,3.26.64.64,0,0,1-.21.49.66.66,0,0,1-.5.18,29,29,0,0,1-5.32-.91A22,22,0,0,1,27,38.63c-.25.44-.51.86-.79,1.27" transform="translate(0 0)"/><path id="Path_2272" data-name="Path 2272" class="cls-4" d="M13.94,35.07a16.81,16.81,0,0,0,3.61-1.51,14.39,14.39,0,0,0,3.38,3,14.73,14.73,0,0,0,3.37-3,18.1,18.1,0,0,0,3.61,1.5,20.24,20.24,0,0,1-1.52,3.23,17.3,17.3,0,0,1-5.46,6,17.2,17.2,0,0,1-5.46-6,19.46,19.46,0,0,1-1.53-3.23" transform="translate(0 0)"/><path id="Path_2273" data-name="Path 2273" class="cls-3" d="M20.93,45a.71.71,0,0,1-.35-.1,17.8,17.8,0,0,1-5.68-6.27,20.69,20.69,0,0,1-1.58-3.33.66.66,0,0,1,.4-.84h0A16.53,16.53,0,0,0,17.22,33a.66.66,0,0,1,.83.14,14.65,14.65,0,0,0,2.88,2.68,14.59,14.59,0,0,0,2.87-2.68.64.64,0,0,1,.82-.14,18.36,18.36,0,0,0,3.49,1.45.65.65,0,0,1,.43.81v0A20.35,20.35,0,0,1,27,38.63a17.84,17.84,0,0,1-5.69,6.27.67.67,0,0,1-.34.1m-6.12-9.51A21.11,21.11,0,0,0,16,38a17.2,17.2,0,0,0,4.9,5.59A17.05,17.05,0,0,0,25.82,38a20.56,20.56,0,0,0,1.23-2.49,19.06,19.06,0,0,1-2.6-1.09,14.82,14.82,0,0,1-3.19,2.77.64.64,0,0,1-.68,0,14.18,14.18,0,0,1-3.17-2.76,17.88,17.88,0,0,1-2.6,1.09" transform="translate(0 0)"/><path id="Path_2274" data-name="Path 2274" class="cls-4" d="M8.17,36.12a20.47,20.47,0,0,1,2.34-8.86,21.59,21.59,0,0,0,3.11-.9,19.73,19.73,0,0,0,1.85,4.21,21.55,21.55,0,0,0,2.08,3,22.43,22.43,0,0,1-9.38,2.56" transform="translate(0 0)"/><path id="Path_2275" data-name="Path 2275" class="cls-3" d="M8.17,36.78a.67.67,0,0,1-.66-.66h0a21.07,21.07,0,0,1,2.43-9.18.69.69,0,0,1,.43-.31,19.89,19.89,0,0,0,3-.87.65.65,0,0,1,.85.37s0,0,0,.05A19.44,19.44,0,0,0,16,30.24a21.55,21.55,0,0,0,2,2.9.7.7,0,0,1,.14.54.67.67,0,0,1-.32.45,23.14,23.14,0,0,1-9.66,2.65H8.17m2.76-8.94A19.77,19.77,0,0,0,8.87,35.4a22.54,22.54,0,0,0,7.68-2A21.12,21.12,0,0,1,14.9,30.9a20.66,20.66,0,0,1-1.7-3.7,20.16,20.16,0,0,1-2.27.64" transform="translate(0 0)"/><path id="Path_2276" data-name="Path 2276" class="cls-4" d="M24.3,33.56a22.23,22.23,0,0,0,2.09-3,20.71,20.71,0,0,0,1.85-4.23,19.82,19.82,0,0,0,3.11.92,20.64,20.64,0,0,1,2.33,8.86,22.66,22.66,0,0,1-9.38-2.56" transform="translate(0 0)"/><path id="Path_2277" data-name="Path 2277" class="cls-3" d="M33.68,36.78h0A23.67,23.67,0,0,1,24,34.14a.66.66,0,0,1-.24-.9.61.61,0,0,1,.07-.1,20.29,20.29,0,0,0,2-2.9,19.75,19.75,0,0,0,1.79-4.08.63.63,0,0,1,.33-.4.7.7,0,0,1,.53,0,18.87,18.87,0,0,0,3,.89.65.65,0,0,1,.43.31,21.2,21.2,0,0,1,2.43,9.18.67.67,0,0,1-.65.67h0m-8.37-3.43a22.79,22.79,0,0,0,7.68,2,19.79,19.79,0,0,0-2.07-7.56,22.51,22.51,0,0,1-2.27-.64A20.6,20.6,0,0,1,27,30.9a22.25,22.25,0,0,1-1.64,2.45" transform="translate(0 0)"/><path id="Path_2278" data-name="Path 2278" class="cls-4" d="M3.08,33s.07-5.63,2.8-9.62c.41.13.79.25,1.16.34a21.13,21.13,0,0,0-.57,4.19,30.12,30.12,0,0,0,4-.6A16.68,16.68,0,0,0,8.73,32a27.79,27.79,0,0,1-5.65,1" transform="translate(0 0)"/><path id="Path_2279" data-name="Path 2279" class="cls-3" d="M3.08,33.62A.67.67,0,0,1,2.42,33h0c0-.24.11-5.87,2.92-10a.66.66,0,0,1,.75-.25c.39.12.75.24,1.11.32a.66.66,0,0,1,.48.79,20.65,20.65,0,0,0-.51,3.32,26.53,26.53,0,0,0,3.19-.53.67.67,0,0,1,.79.5.74.74,0,0,1-.08.48,16,16,0,0,0-1.7,4.5.66.66,0,0,1-.45.48,29.19,29.19,0,0,1-5.79,1H3.07m3.09-9.5a19.15,19.15,0,0,0-2.39,8.12,27.41,27.41,0,0,0,4.41-.82,18.88,18.88,0,0,1,1.11-3.25,27.57,27.57,0,0,1-2.77.35.67.67,0,0,1-.5-.17.64.64,0,0,1-.2-.49,20.1,20.1,0,0,1,.44-3.71l-.1,0" transform="translate(0 0)"/><path id="Path_2280" data-name="Path 2280" class="cls-4" d="M35.39,27.87a22,22,0,0,0-.56-4.19c.36-.1.74-.21,1.14-.34,2.74,4,2.82,9.62,2.82,9.62a27.32,27.32,0,0,1-5.67-1,16.68,16.68,0,0,0-1.77-4.68,27.53,27.53,0,0,0,4,.6" transform="translate(0 0)"/><path id="Path_2281" data-name="Path 2281" class="cls-3" d="M38.79,33.62h0a28.57,28.57,0,0,1-5.81-1,.64.64,0,0,1-.45-.48,16,16,0,0,0-1.7-4.49.66.66,0,0,1,.71-1,28.82,28.82,0,0,0,3.2.52,23.15,23.15,0,0,0-.51-3.32.66.66,0,0,1,.46-.78l.13,0,1-.3a.62.62,0,0,1,.74.25c2.83,4.1,2.94,9.74,2.94,10a.64.64,0,0,1-.64.66h0m-5.12-2.2a27.33,27.33,0,0,0,4.42.82,19,19,0,0,0-2.4-8.12l-.09,0A22,22,0,0,1,36,27.86a.64.64,0,0,1-.2.49.68.68,0,0,1-.5.18c-.94-.08-1.87-.19-2.78-.35a18.21,18.21,0,0,1,1.11,3.24" transform="translate(0 0)"/><path id="Path_2282" data-name="Path 2282" class="cls-4" d="M13.61,26.34a11.9,11.9,0,0,0,3.12-1.58,15.32,15.32,0,0,0,4.2,4.1,15.5,15.5,0,0,0,4.21-4.1,11.63,11.63,0,0,0,3.1,1.58,19.67,19.67,0,0,1-1.85,4.23,17.12,17.12,0,0,1-5.47,6,17.15,17.15,0,0,1-5.45-6,20.36,20.36,0,0,1-1.86-4.22" transform="translate(0 0)"/><path id="Path_2283" data-name="Path 2283" class="cls-3" d="M20.93,37.25a.62.62,0,0,1-.35-.1A17.93,17.93,0,0,1,14.9,30.9,20.12,20.12,0,0,1,13,26.54a.65.65,0,0,1,.4-.81,11.47,11.47,0,0,0,2.92-1.48.61.61,0,0,1,.5-.14.67.67,0,0,1,.45.26,15,15,0,0,0,3.67,3.71,15.62,15.62,0,0,0,3.68-3.71.63.63,0,0,1,.44-.26.61.61,0,0,1,.5.14,11.57,11.57,0,0,0,2.91,1.48.64.64,0,0,1,.4.8A20,20,0,0,1,27,30.9a18,18,0,0,1-5.68,6.26.67.67,0,0,1-.34.1m-6.5-10.52A19.83,19.83,0,0,0,16,30.25a17.32,17.32,0,0,0,4.89,5.57,17.23,17.23,0,0,0,4.9-5.57,20.57,20.57,0,0,0,1.6-3.51,14.3,14.3,0,0,1-2.14-1.08,15.52,15.52,0,0,1-4,3.77.64.64,0,0,1-.68,0,15.64,15.64,0,0,1-4-3.77,13.94,13.94,0,0,1-2.15,1.08" transform="translate(0 0)"/><path id="Path_2284" data-name="Path 2284" class="cls-4" d="M27.57,14.07c6.93-.75,12,7.83,12,7.83a27.61,27.61,0,0,1-4.77,1.78c-.72-3.07-2.32-7-5.94-8.6Z" transform="translate(0 0)"/><path id="Path_2285" data-name="Path 2285" class="cls-3" d="M34.82,24.34a.65.65,0,0,1-.63-.51c-.68-2.89-2.2-6.66-5.58-8.15a.46.46,0,0,1-.13-.08l-1.31-1a.65.65,0,0,1-.12-.92.66.66,0,0,1,.45-.25c7.24-.79,12.44,7.77,12.65,8.14a.65.65,0,0,1-.22.9l-.06,0A27.27,27.27,0,0,1,35,24.31a.47.47,0,0,1-.17,0m-5-9.53c3.16,1.74,4.72,5.18,5.49,8a27.27,27.27,0,0,0,3.33-1.24c-1.12-1.63-4.48-6-8.82-6.8" transform="translate(0 0)"/><path id="Path_2286" data-name="Path 2286" class="cls-4" d="M14.28,14.07c-6.91-.75-12,7.83-12,7.83A28.34,28.34,0,0,0,7,23.68c.71-3.07,2.31-7,5.93-8.6Z" transform="translate(0 0)"/><path id="Path_2287" data-name="Path 2287" class="cls-3" d="M7,24.34l-.17,0A29.36,29.36,0,0,1,2,22.49a.65.65,0,0,1-.31-.87l0-.06c.22-.36,5.4-8.92,12.66-8.14a.65.65,0,0,1,.58.72.64.64,0,0,1-.26.45l-1.31,1a.57.57,0,0,1-.13.08c-3.39,1.5-4.89,5.26-5.56,8.14a.65.65,0,0,1-.64.51M3.23,21.62a26.66,26.66,0,0,0,3.33,1.24c.76-2.87,2.31-6.3,5.48-8-4.34.81-7.69,5.17-8.81,6.8" transform="translate(0 0)"/><path id="Path_2288" data-name="Path 2288" class="cls-3" d="M20.64,13.82a1.9,1.9,0,0,1-1.33-.43c-.3-.36-.22-.9-.1-1.58l0-.15a11.68,11.68,0,0,1,.61-2.48,13.25,13.25,0,0,1,2.79-4.49A17.08,17.08,0,0,1,30.57.09a1.27,1.27,0,0,1,1.26.2,1,1,0,0,1,.31.73,1.16,1.16,0,0,1-.37.86,1.9,1.9,0,0,1-.94.44,13.77,13.77,0,0,0-6.77,3.81,9.74,9.74,0,0,0-2.71,7l0,.49-.46.16a.65.65,0,0,1-.28,0" transform="translate(0 0)"/><path id="Path_2289" data-name="Path 2289" class="cls-4" d="M39.41,10.6c.38-2,.51-4.3-.64-5.74a5.32,5.32,0,0,0-3.62-1.57c-1.9-.16-2.59,1-2.78,2.7a2.53,2.53,0,0,0-2.44.79,3.11,3.11,0,0,0-.68,2.51,2.28,2.28,0,0,0,.85,1.52,3.21,3.21,0,0,0,1.62.44,15.41,15.41,0,0,1,3.94.61,5.31,5.31,0,0,1,2.47,1.91c.66.8.62-.52.77-1s.36-1.35.51-2.12" transform="translate(0 0)"/><path id="Path_2290" data-name="Path 2290" class="cls-3" d="M38.47,14.69a1.12,1.12,0,0,1-.84-.5,4.73,4.73,0,0,0-2.19-1.71,13.39,13.39,0,0,0-3.32-.54l-.45,0a3.77,3.77,0,0,1-1.94-.56A2.88,2.88,0,0,1,28.61,9.4a3.71,3.71,0,0,1,.84-3.05,3.22,3.22,0,0,1,2.37-1.08A2.93,2.93,0,0,1,35,2.61l.22,0a6,6,0,0,1,4.07,1.81c1.07,1.34,1.32,3.4.77,6.27-.16.8-.35,1.54-.52,2.17a2.79,2.79,0,0,0-.07.38c-.08.54-.17,1.22-.77,1.38a.85.85,0,0,1-.22,0m-6.66-8.1a1.87,1.87,0,0,0-1.39.63,2.43,2.43,0,0,0-.53,2,1.65,1.65,0,0,0,.59,1.09,2.77,2.77,0,0,0,1.29.32l.44,0a13.75,13.75,0,0,1,3.66.61,5.46,5.46,0,0,1,2.33,1.6q0-.16.06-.3c.16-.6.35-1.32.5-2.07.47-2.45.3-4.2-.5-5.21A4.63,4.63,0,0,0,35.1,4c-1.1-.1-1.87.23-2.08,2.12a.65.65,0,0,1-.72.58l-.1,0a1.58,1.58,0,0,0-.38,0" transform="translate(0 0)"/><path id="Path_2291" data-name="Path 2291" class="cls-3" d="M35.57,10.51A15,15,0,0,0,33.06,7.2c-2.55-2.74-6.42-1.94-8.5-1.51l-.9.17-.19-1.3c.22,0,.5-.09.82-.16C26.46,4,31,3,34,6.3a16.39,16.39,0,0,1,2.7,3.56Z" transform="translate(0 0)"/><path id="Path_2292" data-name="Path 2292" class="cls-4" d="M14.89,12.93a13.11,13.11,0,0,1,6-1.29,13.2,13.2,0,0,1,6,1.29A13.08,13.08,0,0,1,25,18.78a13,13,0,0,1-4.12,4.56,13,13,0,0,1-4.12-4.56,13,13,0,0,1-1.89-5.85" transform="translate(0 0)"/><path id="Path_2293" data-name="Path 2293" class="cls-3" d="M20.89,24a.67.67,0,0,1-.34-.1,13.66,13.66,0,0,1-4.34-4.79,13.77,13.77,0,0,1-2-6.16.62.62,0,0,1,.34-.59A13.58,13.58,0,0,1,20.89,11a13.6,13.6,0,0,1,6.33,1.37.66.66,0,0,1,.34.59,13.77,13.77,0,0,1-2,6.16,13.66,13.66,0,0,1-4.34,4.79.74.74,0,0,1-.35.1M15.56,13.32a13,13,0,0,0,1.78,5.13,13,13,0,0,0,3.55,4.1,13.1,13.1,0,0,0,3.56-4.1,13,13,0,0,0,1.77-5.13,13,13,0,0,0-5.33-1,13,13,0,0,0-5.33,1" transform="translate(0 0)"/></g></g></g></g></g></g></svg>