<svg xmlns="http://www.w3.org/2000/svg" xmlns:xlink="http://www.w3.org/1999/xlink" viewBox="0 0 39.78 51.18"><defs><style>.cls-1{fill:none;}.cls-2{clip-path:url(#clip-path);}.cls-3{fill:#2cdeb4;}.cls-4{fill:#004849;}.cls-5{fill:#fff;}.cls-6{isolation:isolate;}</style><clipPath id="clip-path" transform="translate(0 0.04)"><rect class="cls-1" x="3.77" width="32.24" height="32.1"/></clipPath></defs><g id="Layer_2" data-name="Layer 2"><g id="Layer_1-2" data-name="Layer 1"><g id="Group_1719" data-name="Group 1719"><g class="cls-2"><g id="Group_1718" data-name="Group 1718"><path id="Path_1407" data-name="Path 1407" class="cls-3" d="M30.18,5.18c-5.7-5.37-13.59-6.25-17.63-2h0L7.21,7.64A7.69,7.69,0,0,0,5.59,9.39c-2.08,3.27-1.66,8,.9,12.39h0a13.37,13.37,0,0,1,.42,3.83,6.26,6.26,0,0,0,.16,3.07A2.67,2.67,0,0,0,8.56,30a4.37,4.37,0,0,0,2,.15s3.41-.59,5.38.14l.09,0c4.2,1.83,8.49,1.8,11.4-.3a7.44,7.44,0,0,0,1.65-1.71l4.1-5.59h0c4-4.29,2.71-12.12-3-17.49" transform="translate(0 0.04)"/><path id="Path_1408" data-name="Path 1408" class="cls-4" d="M35.81,14.25a17.17,17.17,0,0,0-5.29-9.43A17.29,17.29,0,0,0,20.8.08a10,10,0,0,0-8.56,2.74h0L6.89,7.25A8,8,0,0,0,5.17,9.12C3,12.47,3.37,17.38,6,21.94a12.9,12.9,0,0,1,.4,3.65c0,.21,0,.43,0,.64a5,5,0,0,0,.26,2.68,3.14,3.14,0,0,0,1.78,1.5,4.65,4.65,0,0,0,2.22.18s3.3-.56,5.18.13a15.43,15.43,0,0,0,6.13,1.37,9.7,9.7,0,0,0,5.76-1.71,7.51,7.51,0,0,0,1.77-1.83L33.53,23h0a10,10,0,0,0,2.29-8.76M20.69,1.08a16.16,16.16,0,0,1,9.14,4.47,16.16,16.16,0,0,1,5,8.87,9.06,9.06,0,0,1-1.89,7.74l-.14.17a.47.47,0,0,0-.1.1A9.08,9.08,0,0,1,25,24.81a16.18,16.18,0,0,1-9.15-4.47c-5.46-5.15-6.8-12.64-3-16.73l.05,0a3.11,3.11,0,0,1,.37-.35h0A8.75,8.75,0,0,1,19.34,1a12.22,12.22,0,0,1,1.35.08m8,26.89a7,7,0,0,1-1.53,1.6h0c-2.71,1.95-6.79,2-10.91.24l-.11,0a8.38,8.38,0,0,0-2.81-.39,18.69,18.69,0,0,0-2.81.22,3.93,3.93,0,0,1-1.74-.12,2.09,2.09,0,0,1-1.21-1,4,4,0,0,1-.16-2.14c0-.23,0-.45,0-.68A13.53,13.53,0,0,0,7,21.74a.65.65,0,0,0-.06-.21C4.42,17.26,4.07,12.71,6,9.66A7.14,7.14,0,0,1,7.53,8L10.45,5.6c-1.86,4.59-.09,10.91,4.74,15.47a17.23,17.23,0,0,0,9.72,4.74,14.13,14.13,0,0,0,1.46.08,10.56,10.56,0,0,0,4.5-1h0Z" transform="translate(0 0.04)"/><path id="Path_1409" data-name="Path 1409" class="cls-5" d="M31.41,15l-5.68-1.34a1.71,1.71,0,0,0-2.06,1.26,1.79,1.79,0,0,0,0,.89l1.67,5.59a1.72,1.72,0,0,0,2,1.18,6.56,6.56,0,0,0,5.34-5.65A1.72,1.72,0,0,0,31.41,15" transform="translate(0 0.04)"/><path id="Path_1410" data-name="Path 1410" class="cls-5" d="M27.1,5.59A12.93,12.93,0,0,0,22.7,3.5a1.7,1.7,0,0,0-2.06,1.24,1.75,1.75,0,0,0,0,.91L22,10.11a1.7,1.7,0,0,0,2.12,1.15,1.76,1.76,0,0,0,.75-.46l2.49-2.64a1.72,1.72,0,0,0-.09-2.43l-.18-.14" transform="translate(0 0.04)"/><path id="Path_1411" data-name="Path 1411" class="cls-5" d="M18.61,20.3A13.22,13.22,0,0,0,23,22.39a1.7,1.7,0,0,0,2-1.25,1.76,1.76,0,0,0,0-.91L23.7,15.78a1.7,1.7,0,0,0-2.12-1.15,1.76,1.76,0,0,0-.75.46l-2.49,2.64a1.71,1.71,0,0,0,.09,2.43.86.86,0,0,0,.18.14" transform="translate(0 0.04)"/><path id="Path_1412" data-name="Path 1412" class="cls-5" d="M13.41,13.34a13.3,13.3,0,0,0,2.34,4.27,1.73,1.73,0,0,0,2.42.28,1.29,1.29,0,0,0,.17-.16l2.21-2.34c1.18-1.25.71-2.82-.57-3.13l-4.53-1.07a1.7,1.7,0,0,0-2.06,1.24,1.76,1.76,0,0,0,0,.91" transform="translate(0 0.04)"/><path id="Path_1413" data-name="Path 1413" class="cls-5" d="M32.29,12.56A13.06,13.06,0,0,0,30,8.28,1.72,1.72,0,0,0,27.54,8a1.22,1.22,0,0,0-.17.15L25.16,10.5c-1.18,1.25-.71,2.82.57,3.12l4.53,1.08a1.7,1.7,0,0,0,2.06-1.24,1.76,1.76,0,0,0,0-.91" transform="translate(0 0.04)"/><path id="Path_1414" data-name="Path 1414" class="cls-5" d="M14.3,10.92,20,12.26A1.7,1.7,0,0,0,22,11a1.75,1.75,0,0,0,0-.88l-1.68-5.6a1.71,1.71,0,0,0-2-1.18A6.55,6.55,0,0,0,13,9a1.72,1.72,0,0,0,1.3,1.93" transform="translate(0 0.04)"/><path id="Path_1415" data-name="Path 1415" class="cls-4" d="M32.08,14.72l.21-.19a2.14,2.14,0,0,0,.48-2.13A13.75,13.75,0,0,0,30.34,8a2.22,2.22,0,0,0-1.66-.83l-.37,0a1.15,1.15,0,0,0,0-.37,2.23,2.23,0,0,0-.92-1.6h0A13.69,13.69,0,0,0,22.81,3a2.15,2.15,0,0,0-2.1.61c-.05.07-.11.14-.16.22a2.21,2.21,0,0,0-2.32-1,7.32,7.32,0,0,0-3.86,2.1,7.33,7.33,0,0,0-1.87,4,2.21,2.21,0,0,0,1.13,2.26l-.21.18a2.13,2.13,0,0,0-.48,2.13h0a13.67,13.67,0,0,0,2.42,4.43,2.27,2.27,0,0,0,1.66.84h.09l.28,0a2.29,2.29,0,0,0,0,.37,2.26,2.26,0,0,0,.93,1.61,13.71,13.71,0,0,0,4.57,2.16,2,2,0,0,0,.54.07A2.13,2.13,0,0,0,25,22.27c.06-.07.11-.15.16-.22a2.21,2.21,0,0,0,2.32,1A7.07,7.07,0,0,0,33.21,17a2.24,2.24,0,0,0-1.12-2.25M28.6,8.13h0a1.27,1.27,0,0,1,.92.46,12.93,12.93,0,0,1,2.25,4.12,1.14,1.14,0,0,1-.27,1.14,1.2,1.2,0,0,1-1.17.37l-4.54-1.08a1.08,1.08,0,0,1-.81-.75,1.62,1.62,0,0,1,.49-1.54l2.21-2.34a1.17,1.17,0,0,1,.87-.38M21.44,4.31A1.18,1.18,0,0,1,22.29,4a1.33,1.33,0,0,1,.28,0,13,13,0,0,1,4.24,2,1.24,1.24,0,0,1,.51.89,1.16,1.16,0,0,1-.32.94l-2.21,2.34h0l-.27.29a1.2,1.2,0,0,1-2-.48h0L21.15,5.51a1.21,1.21,0,0,1,.29-1.2M15.1,5.63a6.28,6.28,0,0,1,3.34-1.8,1,1,0,0,1,.24,0,1.21,1.21,0,0,1,1.17.87L21.14,9l.39,1.28a1.2,1.2,0,0,1-1.44,1.52l-5.68-1.34a1.22,1.22,0,0,1-.91-1.36,6.18,6.18,0,0,1,1.6-3.44m2,12.13a1.27,1.27,0,0,1-.92-.46,12.73,12.73,0,0,1-2.25-4.12A1.14,1.14,0,0,1,14.15,12a1.19,1.19,0,0,1,1.18-.36l4.53,1.07a1.1,1.1,0,0,1,.82.75A1.62,1.62,0,0,1,20.19,15L18,17.39a1.21,1.21,0,0,1-.92.37m7.2,3.82a1.16,1.16,0,0,1-1.13.33,12.78,12.78,0,0,1-4.23-2,1.27,1.27,0,0,1-.52-.89,1.23,1.23,0,0,1,.32-.94l2.21-2.34h0l.28-.29a1.19,1.19,0,0,1,.87-.38.9.9,0,0,1,.28,0,1.18,1.18,0,0,1,.88.82l1.33,4.47a1.21,1.21,0,0,1-.29,1.2m6.34-1.33a6.08,6.08,0,0,1-3.33,1.8,1.22,1.22,0,0,1-1.41-.84l-1.68-5.59a1.21,1.21,0,0,1,.82-1.5,1.2,1.2,0,0,1,.61,0l5.68,1.35a1.22,1.22,0,0,1,.92,1.36,6.12,6.12,0,0,1-1.61,3.44" transform="translate(0 0.04)"/><path id="Path_1416" data-name="Path 1416" class="cls-4" d="M35.82,14.26a17.24,17.24,0,0,0-5.3-9.44A17.15,17.15,0,0,0,20.8.09a9.92,9.92,0,0,0-8.54,2.73.13.13,0,0,0-.07.06A8.46,8.46,0,0,0,10.46,5.6l2.07-1.72.06.06c.1-.13.21-.25.32-.37a2,2,0,0,1,.37-.35A8.61,8.61,0,0,1,19.34,1a12.22,12.22,0,0,1,1.35.08,16.28,16.28,0,0,1,9.15,4.47,16.27,16.27,0,0,1,5,8.88,12.06,12.06,0,0,1,.17,2A8.46,8.46,0,0,1,33.13,22l-.33.38c-.11.12-.23.24-.35.35l0,.05-1.63,2.21A9,9,0,0,0,33.53,23l0-.05a10,10,0,0,0,2.25-8.71" transform="translate(0 0.04)"/></g></g></g><g id="limonene" class="cls-6"><g class="cls-6"><path class="cls-4" d="M1.1,42.75V51H0V42.75Z" transform="translate(0 0.04)"/><path class="cls-4" d="M2.32,44.27a.67.67,0,0,1,.21-.5A.69.69,0,0,1,3,43.56a.72.72,0,0,1,.71.71.69.69,0,0,1-.21.51A.66.66,0,0,1,3,45a.72.72,0,0,1-.72-.72Zm1.27,2V51H2.49V46.24Z" transform="translate(0 0.04)"/><path class="cls-4" d="M5,46.24h1.1v.44a2.35,2.35,0,0,1,.54-.45,1.34,1.34,0,0,1,.6-.12,1.48,1.48,0,0,1,1.28.71,1.64,1.64,0,0,1,1.4-.71c1.07,0,1.6.65,1.6,2V51H10.4V48.36a2,2,0,0,0-.17-1,.6.6,0,0,0-.56-.29.72.72,0,0,0-.66.35,2.13,2.13,0,0,0-.21,1.09V51H7.7V48.37c0-.84-.24-1.27-.73-1.27a.74.74,0,0,0-.68.35,2.18,2.18,0,0,0-.21,1.09V51H5Z" transform="translate(0 0.04)"/><path class="cls-4" d="M12.67,48.59a2.39,2.39,0,0,1,.73-1.76,2.61,2.61,0,0,1,3.61,0,2.55,2.55,0,0,1,0,3.58,2.5,2.5,0,0,1-1.82.72,2.41,2.41,0,0,1-1.79-.74A2.45,2.45,0,0,1,12.67,48.59Zm1.12,0a1.64,1.64,0,0,0,.38,1.13,1.47,1.47,0,0,0,2.06,0,1.77,1.77,0,0,0,0-2.22,1.46,1.46,0,0,0-2.05,0A1.53,1.53,0,0,0,13.79,48.61Z" transform="translate(0 0.04)"/><path class="cls-4" d="M18.9,46.24H20v.44a1.82,1.82,0,0,1,1.3-.57,1.67,1.67,0,0,1,1.3.52,2.18,2.18,0,0,1,.4,1.45V51H21.89V48.34a1.74,1.74,0,0,0-.19-1A.8.8,0,0,0,21,47.1a.85.85,0,0,0-.78.36A2.46,2.46,0,0,0,20,48.7V51H18.9Z" transform="translate(0 0.04)"/><path class="cls-4" d="M28.72,48.88H25.31a1.41,1.41,0,0,0,.38.93,1.15,1.15,0,0,0,.86.35,1.12,1.12,0,0,0,.68-.2,2.62,2.62,0,0,0,.6-.72l.93.51a3.66,3.66,0,0,1-.45.63,2.29,2.29,0,0,1-.52.43,2.06,2.06,0,0,1-.59.25,3,3,0,0,1-.69.08,2.23,2.23,0,0,1-1.71-.69,2.59,2.59,0,0,1-.64-1.82,2.63,2.63,0,0,1,.63-1.83,2.38,2.38,0,0,1,3.33,0,2.65,2.65,0,0,1,.6,1.84ZM27.59,48a1.06,1.06,0,0,0-1.11-.88,1.21,1.21,0,0,0-.38.06,1.14,1.14,0,0,0-.32.18,1.32,1.32,0,0,0-.4.64Z" transform="translate(0 0.04)"/><path class="cls-4" d="M29.92,46.24H31v.44a1.8,1.8,0,0,1,1.3-.57,1.66,1.66,0,0,1,1.29.52,2.13,2.13,0,0,1,.4,1.45V51h-1.1V48.34a1.73,1.73,0,0,0-.2-1A.77.77,0,0,0,32,47.1a.84.84,0,0,0-.77.36A2.36,2.36,0,0,0,31,48.7V51h-1.1Z" transform="translate(0 0.04)"/><path class="cls-4" d="M39.73,48.88H36.32a1.46,1.46,0,0,0,.38.93,1.18,1.18,0,0,0,.87.35,1.14,1.14,0,0,0,.68-.2,3,3,0,0,0,.6-.72l.93.51a3.67,3.67,0,0,1-.46.63,2.24,2.24,0,0,1-.51.43,2.06,2.06,0,0,1-.59.25,3,3,0,0,1-.69.08,2.23,2.23,0,0,1-1.71-.69,2.54,2.54,0,0,1-.64-1.82,2.62,2.62,0,0,1,.62-1.83,2.16,2.16,0,0,1,1.67-.69,2.13,2.13,0,0,1,1.66.67,2.65,2.65,0,0,1,.61,1.84ZM38.6,48a1.05,1.05,0,0,0-1.1-.88,1.16,1.16,0,0,0-.38.06,1,1,0,0,0-.32.18,1.12,1.12,0,0,0-.25.28,1.05,1.05,0,0,0-.15.36Z" transform="translate(0 0.04)"/></g></g></g></g></svg>