<svg xmlns="http://www.w3.org/2000/svg" viewBox="0 0 32.07 58.17"><defs><style>.cls-1{fill:#2cdeb4;}.cls-2{fill:#004849;}.cls-3{isolation:isolate;}</style></defs><g id="Layer_2" data-name="Layer 2"><g id="Layer_1-2" data-name="Layer 1"><g id="Group_1716" data-name="Group 1716"><path id="Path_1394" data-name="Path 1394" class="cls-1" d="M12.76,9.71a.45.45,0,0,1-.24-.14A38.4,38.4,0,0,1,9.37,5.62a1.69,1.69,0,0,1,3.09-1.37,40.33,40.33,0,0,1,.8,5,.41.41,0,0,1-.38.46h-.12"/><path id="Path_1395" data-name="Path 1395" class="cls-1" d="M18,2.18a45.4,45.4,0,0,1-3,3.91,42,42,0,0,1,.65-4.88,1.27,1.27,0,1,1,2.34,1"/><path id="Path_1396" data-name="Path 1396" class="cls-1" d="M13.54,10.1a.42.42,0,0,1-.34-.49.35.35,0,0,1,.14-.24,36.37,36.37,0,0,1,3.95-3.15,1.69,1.69,0,0,1,1.36,3.09,38.12,38.12,0,0,1-5,.8h-.12"/><path id="Path_1397" data-name="Path 1397" class="cls-1" d="M10.35,16.41a.35.35,0,0,1-.25-.14A37.62,37.62,0,0,1,7,12.32,1.69,1.69,0,1,1,10.05,11a39.88,39.88,0,0,1,.8,5,.44.44,0,0,1-.38.47h-.12"/><path id="Path_1398" data-name="Path 1398" class="cls-1" d="M11,16.68a.41.41,0,0,1-.34-.49.38.38,0,0,1,.14-.25,39,39,0,0,1,3.95-3.15,1.69,1.69,0,0,1,1.36,3.09,38.54,38.54,0,0,1-5,.8.24.24,0,0,1-.12,0"/><path id="Path_1399" data-name="Path 1399" class="cls-1" d="M8.61,23.15A.45.45,0,0,1,8.37,23a39.9,39.9,0,0,1-3.16-4,1.69,1.69,0,0,1,3.1-1.37h0a39.88,39.88,0,0,1,.8,5,.43.43,0,0,1-.38.47.48.48,0,0,1-.12,0"/><path id="Path_1400" data-name="Path 1400" class="cls-1" d="M9.3,23.41A.42.42,0,0,1,9,22.92a.45.45,0,0,1,.14-.24,37.36,37.36,0,0,1,4-3.15,1.67,1.67,0,0,1,2.21.89,1.69,1.69,0,0,1-.85,2.2,39.88,39.88,0,0,1-5,.8H9.3"/><path id="Path_1401" data-name="Path 1401" class="cls-1" d="M19,32.13a.44.44,0,0,1-.33-.29A39,39,0,0,1,17.35,27,1.68,1.68,0,0,1,19,25.26l.32,0a1.71,1.71,0,0,1,1.4,1.64,39.57,39.57,0,0,1-1.22,4.91.41.41,0,0,1-.4.3H19"/><path id="Path_1402" data-name="Path 1402" class="cls-1" d="M26.62,27.17a44,44,0,0,1-4.28,2.43,42.15,42.15,0,0,1,2.51-4.24,1.27,1.27,0,1,1,1.77,1.81"/><path id="Path_1403" data-name="Path 1403" class="cls-1" d="M24,34c-1.25-.23-4.3-1.13-4.43-1.17a.41.41,0,0,1-.28-.52.4.4,0,0,1,.27-.28,39.55,39.55,0,0,1,4.87-1.36,1.84,1.84,0,0,1,.33,0A1.69,1.69,0,0,1,24.45,34,2.61,2.61,0,0,1,24,34"/><path id="Path_1404" data-name="Path 1404" class="cls-1" d="M14.19,37.35a.41.41,0,0,1-.33-.28A39.55,39.55,0,0,1,12.5,32.2a1.7,1.7,0,0,1,1.67-1.72,1.66,1.66,0,0,1,.32,0,1.7,1.7,0,0,1,1.4,1.64,39.57,39.57,0,0,1-1.22,4.91.44.44,0,0,1-.4.3h-.08"/><path id="Path_1405" data-name="Path 1405" class="cls-1" d="M19.1,39c-1.26-.23-4.3-1.13-4.43-1.16a.43.43,0,0,1-.28-.53.4.4,0,0,1,.27-.28,39.06,39.06,0,0,1,4.87-1.36,1.66,1.66,0,0,1,.32,0,1.69,1.69,0,0,1-.27,3.35,2.61,2.61,0,0,1-.48,0"/><path id="Path_1406" data-name="Path 1406" class="cls-2" d="M26.55,32.28a2.13,2.13,0,0,0-2.15-2.09,17.2,17.2,0,0,0-2.93.73c.45-.41.82-.72,1.09-1a39.28,39.28,0,0,0,4.36-2.5,1.69,1.69,0,0,0-2.37-2.41A39,39,0,0,0,22,29.32c-.4.34-1,.86-1.78,1.57a24.36,24.36,0,0,0,.93-4,2.12,2.12,0,0,0-4.2-.35,2.83,2.83,0,0,0,0,.41,35.92,35.92,0,0,0,1.38,5,.87.87,0,0,0,.33.43c-.93.9-2,2-3.09,3.16a21.14,21.14,0,0,0,.77-3.42,2.12,2.12,0,1,0-4.23.06,34.56,34.56,0,0,0,1.37,5,1,1,0,0,0,.27.39,78.92,78.92,0,0,0-5.43,7,52.91,52.91,0,0,1,.87-20.82l.06,0a1,1,0,0,0,.25,0A35.38,35.38,0,0,0,14.58,23a2.11,2.11,0,0,0-1.7-3.86A24.62,24.62,0,0,0,9.69,21.6c.41-1.58.85-3.09,1.3-4.5h.22a35.33,35.33,0,0,0,5.11-.83,2.12,2.12,0,0,0-1.71-3.87,21,21,0,0,0-2.72,2.07c.53-1.48,1.06-2.81,1.54-4h0a.7.7,0,0,0,.25,0,35.33,35.33,0,0,0,5.11-.83,2.11,2.11,0,0,0-.48-4,2.08,2.08,0,0,0-1.23.14A17.71,17.71,0,0,0,14.7,7.65c.25-.54.47-1,.63-1.3a39.48,39.48,0,0,0,3-4h0a1.69,1.69,0,1,0-3.12-1.29h0A36.93,36.93,0,0,0,14.57,6c-.23.46-.59,1.2-1,2.15a26.13,26.13,0,0,0-.7-4A2.12,2.12,0,0,0,9,5.79,35,35,0,0,0,12.2,9.85a.81.81,0,0,0,.47.27c-.5,1.2-1.05,2.59-1.61,4.14a20.66,20.66,0,0,0-.63-3.48,2.12,2.12,0,0,0-3.87,1.71h0a36.1,36.1,0,0,0,3.22,4.06.79.79,0,0,0,.42.25c-.34,1.06-.67,2.17-1,3.32a15.33,15.33,0,0,0-.51-2.6,2.12,2.12,0,0,0-3.87,1.71,35.86,35.86,0,0,0,3.22,4.06.85.85,0,0,0,.31.21c-1.53,6.76-2.31,14.66-.7,22.33a.43.43,0,0,0,.5.33.42.42,0,0,0,.3-.26,73.63,73.63,0,0,1,5.89-7.73l.2.1c.13,0,3.19.94,4.47,1.17a2.6,2.6,0,0,0,.56.06,2.12,2.12,0,1,0,0-4.23h-.07a20.19,20.19,0,0,0-3.34.85c1.07-1.16,2.08-2.19,3-3.06a.64.64,0,0,0,.26.13c.13,0,3.2,1,4.47,1.18a5,5,0,0,0,.56.06,2.13,2.13,0,0,0,2.1-2.14h0M13.22,19.91a1.27,1.27,0,0,1,1,2.32A42.45,42.45,0,0,1,9.49,23l0-.11a39,39,0,0,1,3.7-3M15,13.18A1.27,1.27,0,0,1,16,15.47l-.06,0a39.27,39.27,0,0,1-4.7.74l.06-.17A37.27,37.27,0,0,1,15,13.18m2.5-6.57a1.26,1.26,0,0,1,1,2.31,41.24,41.24,0,0,1-4.69.75l.09-.21A36.47,36.47,0,0,1,17.46,6.6M16,1.37A.84.84,0,0,1,17,.86l.17.05A.85.85,0,0,1,17.59,2a24.85,24.85,0,0,1-2,2.73A25.55,25.55,0,0,1,16,1.37M9.75,5.45a1.27,1.27,0,0,1,.65-1.67,1.26,1.26,0,0,1,1.67.64h0a44.82,44.82,0,0,1,.77,4.87A45.52,45.52,0,0,1,9.75,5.45m-2.41,6.7a1.27,1.27,0,0,1,2.32-1,39.26,39.26,0,0,1,.74,4.68.93.93,0,0,0-.05.1,40.29,40.29,0,0,1-3-3.76M5.6,18.88a1.27,1.27,0,0,1,2.32-1,37.48,37.48,0,0,1,.72,4.47c0,.09-.05.18-.07.27a41,41,0,0,1-3-3.72m19.55,6.79a.83.83,0,0,1,1.19.06.84.84,0,0,1,0,1.14h0a27,27,0,0,1-2.95,1.71,26.86,26.86,0,0,1,1.77-2.91M17.78,27A1.26,1.26,0,0,1,19,25.68h0l.25,0a1.27,1.27,0,0,1,1,1.23,44,44,0,0,1-1.2,4.78A46.39,46.39,0,0,1,17.77,27m-4.84,5.22a1.26,1.26,0,0,1,1.24-1.29h0l.24,0a1.26,1.26,0,0,1,1,1.23,40.13,40.13,0,0,1-1.14,4.6l-.09.08a41.47,41.47,0,0,1-1.3-4.64m6.61,3.92.24,0a1.27,1.27,0,0,1-.21,2.52l-.4,0c-1.08-.2-3.6-.93-4.23-1.11l.11-.13a40.9,40.9,0,0,1,4.49-1.25m4.91-2.53-.4,0c-1.08-.19-3.57-.91-4.22-1.1l.16-.15a34.09,34.09,0,0,1,4.42-1.23.65.65,0,0,1,.24,0,1.26,1.26,0,0,1,1,1.47,1.27,1.27,0,0,1-1.22,1"/></g><g id="linalool" class="cls-3"><g class="cls-3"><path class="cls-2" d="M1.1,49.79V58H0V49.79Z"/><path class="cls-2" d="M2.32,51.3a.65.65,0,0,1,.21-.49A.69.69,0,0,1,3,50.6a.67.67,0,0,1,.5.21.62.62,0,0,1,.21.5.66.66,0,0,1-.21.51A.66.66,0,0,1,3,52a.72.72,0,0,1-.72-.73Zm1.27,2V58H2.49V53.28Z"/><path class="cls-2" d="M5,53.28h1.1v.44a1.82,1.82,0,0,1,1.3-.57,1.64,1.64,0,0,1,1.3.52,2.18,2.18,0,0,1,.4,1.45V58H8V55.38a1.74,1.74,0,0,0-.19-1,.8.8,0,0,0-.7-.27.84.84,0,0,0-.77.36,2.44,2.44,0,0,0-.23,1.24V58H5Z"/><path class="cls-2" d="M14,53.28h1.1V58H14v-.5a2.11,2.11,0,0,1-1.46.63,2.08,2.08,0,0,1-1.63-.71,2.65,2.65,0,0,1-.64-1.82,2.56,2.56,0,0,1,.64-1.78,2.08,2.08,0,0,1,1.6-.71,2,2,0,0,1,1.49.68Zm-2.61,2.36a1.65,1.65,0,0,0,.37,1.12,1.19,1.19,0,0,0,.95.43,1.26,1.26,0,0,0,1-.42,1.8,1.8,0,0,0,0-2.21,1.24,1.24,0,0,0-1-.42,1.2,1.2,0,0,0-.95.43A1.59,1.59,0,0,0,11.36,55.64Z"/><path class="cls-2" d="M17.56,49.79V58h-1.1V49.79Z"/><path class="cls-2" d="M18.73,55.62a2.36,2.36,0,0,1,.73-1.75,2.61,2.61,0,0,1,3.61,0,2.55,2.55,0,0,1,0,3.58,2.54,2.54,0,0,1-1.82.71,2.41,2.41,0,0,1-1.79-.73A2.47,2.47,0,0,1,18.73,55.62Zm1.12,0a1.61,1.61,0,0,0,.38,1.13,1.33,1.33,0,0,0,1,.42,1.36,1.36,0,0,0,1-.41,1.77,1.77,0,0,0,0-2.22,1.46,1.46,0,0,0-2.05,0A1.52,1.52,0,0,0,19.85,55.64Z"/><path class="cls-2" d="M24.74,55.62a2.36,2.36,0,0,1,.73-1.75,2.61,2.61,0,0,1,3.61,0,2.55,2.55,0,0,1,0,3.58,2.54,2.54,0,0,1-1.82.71,2.41,2.41,0,0,1-1.79-.73A2.47,2.47,0,0,1,24.74,55.62Zm1.12,0a1.61,1.61,0,0,0,.38,1.13,1.33,1.33,0,0,0,1,.42,1.36,1.36,0,0,0,1-.41,1.77,1.77,0,0,0,0-2.22,1.46,1.46,0,0,0-2.05,0A1.52,1.52,0,0,0,25.86,55.64Z"/><path class="cls-2" d="M32.07,49.79V58H31V49.79Z"/></g></g></g></g></svg>