<svg xmlns="http://www.w3.org/2000/svg" xmlns:xlink="http://www.w3.org/1999/xlink" viewBox="0 0 45.92 68.05"><defs><style>.cls-1{fill:none;}.cls-2{isolation:isolate;}.cls-3{fill:#004849;}.cls-4{clip-path:url(#clip-path);}.cls-5{fill:#2cdeb4;}.cls-6{fill:#fcfcfc;}</style><clipPath id="clip-path" transform="translate(0 0)"><rect class="cls-1" width="45.92" height="53.15"/></clipPath></defs><g id="Layer_2" data-name="Layer 2"><g id="Layer_1-2" data-name="Layer 1"><g id="myrcene" class="cls-2"><g class="cls-2"><path class="cls-3" d="M4.58,60.7h1.1v.44a2.35,2.35,0,0,1,.54-.45,1.34,1.34,0,0,1,.6-.12,1.49,1.49,0,0,1,1.28.7,1.66,1.66,0,0,1,1.4-.7c1.07,0,1.6.65,1.6,2v2.94H10V62.82a2.07,2.07,0,0,0-.16-1,.63.63,0,0,0-.57-.29.73.73,0,0,0-.66.34A2.2,2.2,0,0,0,8.4,63v2.46H7.3V62.83c0-.84-.24-1.27-.73-1.27a.74.74,0,0,0-.68.35A2.16,2.16,0,0,0,5.68,63v2.46H4.58Z" transform="translate(0 0)"/><path class="cls-3" d="M13.83,64.58,11.69,60.7H13l1.46,2.74,1.36-2.74H17l-3.79,7.35H12Z" transform="translate(0 0)"/><path class="cls-3" d="M17.76,60.7h1.1v.43a2.12,2.12,0,0,1,.54-.44,1.26,1.26,0,0,1,.57-.12,1.87,1.87,0,0,1,.91.28l-.51,1a1,1,0,0,0-.61-.22q-.9,0-.9,1.35v2.47h-1.1Z" transform="translate(0 0)"/><path class="cls-3" d="M25.12,60.91v1.46a2.51,2.51,0,0,0-.68-.63,1.25,1.25,0,0,0-.68-.18,1.34,1.34,0,0,0-1,.44,1.49,1.49,0,0,0-.41,1.09,1.55,1.55,0,0,0,.39,1.09,1.46,1.46,0,0,0,1.72.26,2.73,2.73,0,0,0,.69-.64v1.45a2.91,2.91,0,0,1-1.34.35,2.57,2.57,0,0,1-1.85-.72,2.39,2.39,0,0,1-.74-1.78,2.42,2.42,0,0,1,.75-1.8,2.6,2.6,0,0,1,1.85-.73A2.71,2.71,0,0,1,25.12,60.91Z" transform="translate(0 0)"/><path class="cls-3" d="M30.51,63.34h-3.4a1.36,1.36,0,0,0,.38.93,1.28,1.28,0,0,0,1.54.15,2.62,2.62,0,0,0,.6-.72l.93.51a3.67,3.67,0,0,1-.46.63,2.24,2.24,0,0,1-.51.43,2.06,2.06,0,0,1-.59.25,3,3,0,0,1-.69.08,2.23,2.23,0,0,1-1.71-.69A2.56,2.56,0,0,1,26,63.09a2.67,2.67,0,0,1,.62-1.83,2.16,2.16,0,0,1,1.67-.69,2.11,2.11,0,0,1,1.66.67,2.6,2.6,0,0,1,.61,1.84Zm-1.12-.9a1.07,1.07,0,0,0-1.11-.88,1.16,1.16,0,0,0-.38.06,1,1,0,0,0-.32.18,1.08,1.08,0,0,0-.24.28,1,1,0,0,0-.16.36Z" transform="translate(0 0)"/><path class="cls-3" d="M31.71,60.7h1.11v.44a1.78,1.78,0,0,1,1.3-.57,1.66,1.66,0,0,1,1.29.52,2.13,2.13,0,0,1,.4,1.45v2.92h-1.1V62.8a1.73,1.73,0,0,0-.2-1,.78.78,0,0,0-.69-.27.87.87,0,0,0-.78.36,2.48,2.48,0,0,0-.22,1.24v2.3H31.71Z" transform="translate(0 0)"/><path class="cls-3" d="M41.53,63.34H38.12a1.46,1.46,0,0,0,.38.93,1.16,1.16,0,0,0,.87.34,1.14,1.14,0,0,0,.68-.19,3,3,0,0,0,.6-.72l.92.51a3.19,3.19,0,0,1-.45.63,2.24,2.24,0,0,1-.51.43,2.18,2.18,0,0,1-.59.25,3.1,3.1,0,0,1-.69.08,2.23,2.23,0,0,1-1.71-.69A2.57,2.57,0,0,1,37,63.09a2.63,2.63,0,0,1,.63-1.83,2.16,2.16,0,0,1,1.67-.69,2.13,2.13,0,0,1,1.66.67,2.65,2.65,0,0,1,.6,1.84Zm-1.13-.9a1.06,1.06,0,0,0-1.11-.88,1.1,1.1,0,0,0-.37.06.92.92,0,0,0-.32.18,1.12,1.12,0,0,0-.25.28,1.19,1.19,0,0,0-.16.36Z" transform="translate(0 0)"/></g></g><g id="Group_2346" data-name="Group 2346"><g class="cls-4"><g id="Group_2345" data-name="Group 2345"><path id="Path_2221" data-name="Path 2221" class="cls-5" d="M4.65,15.44a19.65,19.65,0,0,0-3.73,14c.18,1.74.57,3.47.6,5.22C1.61,38.79-.27,43.14,1.25,47s6.41,6,10.65,5.32,7.85-3.48,10.68-6.71a35.87,35.87,0,0,0,7.25-13,23.37,23.37,0,0,0,.82-12.07,13.94,13.94,0,0,0-7.1-9.48,15.26,15.26,0,0,0-18.9,4.34" transform="translate(0 0)"/><path id="Path_2222" data-name="Path 2222" class="cls-3" d="M10.26,53.15c-3.82,0-8.07-1.88-9.62-5.87-1-2.63-.6-5.42-.2-8.11a27.7,27.7,0,0,0,.42-4.55,25,25,0,0,0-.33-3.21c-.1-.65-.19-1.3-.26-2A20.2,20.2,0,0,1,4.14,15a16,16,0,0,1,19.7-4.52,14.48,14.48,0,0,1,7.44,9.91,23.94,23.94,0,0,1-.82,12.42,36.93,36.93,0,0,1-7.39,13.23c-3.49,4-7.21,6.31-11.07,6.93a11.37,11.37,0,0,1-1.75.14M5.17,15.85h0a18.81,18.81,0,0,0-3.6,13.47c.06.64.16,1.27.25,1.9a29.15,29.15,0,0,1,.35,3.37,29.28,29.28,0,0,1-.44,4.77C1.33,42,1,44.5,1.85,46.8c1.49,3.83,6.22,5.51,9.93,4.91,3.55-.57,7-2.75,10.29-6.5A35.27,35.27,0,0,0,29.2,32.45,22.67,22.67,0,0,0,30,20.73a13.2,13.2,0,0,0-6.73-9,14.67,14.67,0,0,0-18.1,4.15" transform="translate(0 0)"/><path id="Path_2223" data-name="Path 2223" class="cls-6" d="M4.63,23.44a3.71,3.71,0,0,0,1.09,3.19,2.74,2.74,0,0,0,1.2.51c2.08.4,4.08-1,5.67-2.37A40.24,40.24,0,0,0,17,20.2a7.74,7.74,0,0,0,2.1-4.38,2.58,2.58,0,0,0-.64-1.93,3.06,3.06,0,0,0-1.62-.74,8.94,8.94,0,0,0-6.18,1,11.89,11.89,0,0,0-6,9.3" transform="translate(0 0)"/><path id="Path_2224" data-name="Path 2224" class="cls-3" d="M7.67,27.87a4.38,4.38,0,0,1-.88-.09,3.38,3.38,0,0,1-1.47-.63A4.3,4.3,0,0,1,4,23.41a12.43,12.43,0,0,1,6.33-9.83A9.72,9.72,0,0,1,17,12.5a3.73,3.73,0,0,1,1.95.92,3.23,3.23,0,0,1,.83,2.42,8.41,8.41,0,0,1-2.25,4.77A40,40,0,0,1,13,25.26c-1.3,1.15-3.21,2.61-5.35,2.61m7.42-14.24A8.31,8.31,0,0,0,11,14.72a11.31,11.31,0,0,0-5.68,8.76h0a3.22,3.22,0,0,0,.84,2.63,2.07,2.07,0,0,0,.92.38c1.47.28,3.09-.42,5.11-2.21a39.86,39.86,0,0,0,4.31-4.5,7.09,7.09,0,0,0,2-4A1.94,1.94,0,0,0,18,14.35a2.36,2.36,0,0,0-1.28-.56,7.82,7.82,0,0,0-1.6-.16" transform="translate(0 0)"/><path id="Path_2225" data-name="Path 2225" class="cls-3" d="M21.33,4.72A3.11,3.11,0,0,0,21,3.11a1.14,1.14,0,0,0-1.44-.47.69.69,0,0,0-.27.29c-.16.35.05.74.23,1.08a8.31,8.31,0,0,1,.83,2.8c.07.55-.17,2.52.15,2.89.49.57.7-1.62.73-1.93a22.08,22.08,0,0,0,.12-3" transform="translate(0 0)"/><path id="Path_2226" data-name="Path 2226" class="cls-3" d="M20.64,10.45a.89.89,0,0,1-.65-.32c-.35-.4-.36-1.07-.32-2.4a7.85,7.85,0,0,0,0-.84,7.76,7.76,0,0,0-.76-2.58,1.8,1.8,0,0,1-.25-1.65,1.27,1.27,0,0,1,.54-.58,1.76,1.76,0,0,1,2.32.68A3.64,3.64,0,0,1,22,4.7a21.93,21.93,0,0,1-.13,3.14c-.19,1.77-.44,2.4-1,2.57a.85.85,0,0,1-.23,0M20,3.19s-.07,0-.09,0a1.42,1.42,0,0,0,.19.48,7.93,7.93,0,0,1,.61,1.55c0-.16,0-.33,0-.5a2.52,2.52,0,0,0-.25-1.27A.61.61,0,0,0,20,3.19" transform="translate(0 0)"/><path id="Path_2227" data-name="Path 2227" class="cls-5" d="M37.44,11.36A11.74,11.74,0,0,1,29.6,11a19.76,19.76,0,0,1-4.22-2.34c-.39-.27-3.9-2.68-4.12-2.4a14.13,14.13,0,0,1,6.33-4.83,11.31,11.31,0,0,1,7.9,0A34.47,34.47,0,0,1,40.24,4a11.18,11.18,0,0,0,3.81,1.49c.56.08,1.24,0,1.22.61,0,.43-.87,1.22-1.15,1.52a15.19,15.19,0,0,1-6.68,3.74" transform="translate(0 0)"/><path id="Path_2228" data-name="Path 2228" class="cls-3" d="M34.17,12.51a13.21,13.21,0,0,1-4.81-.95A21,21,0,0,1,25,9.14a28,28,0,0,0-3.74-2.3.55.55,0,0,0,.53-.23h0l-1.05-.79h0l0,0a14.64,14.64,0,0,1,6.61-5,12.11,12.11,0,0,1,8.37,0,20.33,20.33,0,0,1,3.5,1.88c.45.27.89.55,1.34.81a10.27,10.27,0,0,0,3.58,1.41l.31,0c.41,0,1.5.1,1.46,1.26,0,.58-.54,1.15-1.17,1.79l-.15.16a15.75,15.75,0,0,1-7,3.91,11.62,11.62,0,0,1-3.46.53M22.35,5.9a30.12,30.12,0,0,1,3.4,2.17,19.47,19.47,0,0,0,4.09,2.27,11,11,0,0,0,7.4.39,14.35,14.35,0,0,0,6.4-3.56L43.81,7a7.76,7.76,0,0,0,.72-.8h-.16l-.43,0a12,12,0,0,1-4-1.57l-1.37-.83A19.54,19.54,0,0,0,35.26,2a10.73,10.73,0,0,0-7.45,0A13.4,13.4,0,0,0,22.35,5.9" transform="translate(0 0)"/><path id="Path_2229" data-name="Path 2229" class="cls-5" d="M22,6a16.15,16.15,0,0,1,8.31.26c1.45.44,2.83,1.08,4.3,1.41,3.35.76,6.87-.17,10-1.61" transform="translate(0 0)"/><path id="Path_2230" data-name="Path 2230" class="cls-3" d="M37.1,8.6a12.15,12.15,0,0,1-2.62-.28,22.55,22.55,0,0,1-2.68-.85c-.55-.2-1.11-.4-1.67-.57a15.5,15.5,0,0,0-8-.26l-.3-1.27a16.7,16.7,0,0,1,8.65.27c.59.18,1.16.39,1.74.6a20.33,20.33,0,0,0,2.51.8c2.76.62,6,.09,9.58-1.56l.55,1.19A19,19,0,0,1,37.1,8.6" transform="translate(0 0)"/></g></g></g></g></g></svg>