<svg xmlns="http://www.w3.org/2000/svg" xmlns:xlink="http://www.w3.org/1999/xlink" viewBox="0 0 43.74 65.52"><defs><style>.cls-1{fill:none;}.cls-2{isolation:isolate;}.cls-3{fill:#004849;}.cls-4{clip-path:url(#clip-path);}.cls-5{fill:#2cdeb4;}.cls-6{fill:#fcfcfc;}</style><clipPath id="clip-path" transform="translate(0 0)"><rect class="cls-1" width="43.74" height="50.62"/></clipPath></defs><g id="Layer_2" data-name="Layer 2"><g id="Layer_1-2" data-name="Layer 1"><g id="myrcene" class="cls-2"><g class="cls-2"><path class="cls-3" d="M3.49,58.17h1.1v.44a2.35,2.35,0,0,1,.54-.45,1.34,1.34,0,0,1,.6-.12,1.46,1.46,0,0,1,1.27.7A1.68,1.68,0,0,1,8.4,58c1.08,0,1.61.65,1.61,2v2.94H8.91V60.29a2,2,0,0,0-.17-1A.6.6,0,0,0,8.18,59a.73.73,0,0,0-.66.34,2.2,2.2,0,0,0-.21,1.1v2.46H6.21V60.3C6.21,59.46,6,59,5.48,59a.74.74,0,0,0-.68.35,2.18,2.18,0,0,0-.21,1.09v2.46H3.49Z" transform="translate(0 0)"/><path class="cls-3" d="M12.74,62.05,10.6,58.17h1.27l1.46,2.74,1.35-2.74h1.24l-3.78,7.35H10.88Z" transform="translate(0 0)"/><path class="cls-3" d="M16.67,58.17h1.1v.43a2.12,2.12,0,0,1,.54-.44,1.25,1.25,0,0,1,.56-.12,1.84,1.84,0,0,1,.91.28l-.5,1a1,1,0,0,0-.61-.22q-.9,0-.9,1.35v2.47h-1.1Z" transform="translate(0 0)"/><path class="cls-3" d="M24,58.38v1.46a2.5,2.5,0,0,0-.67-.63,1.27,1.27,0,0,0-.69-.18,1.38,1.38,0,0,0-1,.44,1.54,1.54,0,0,0-.41,1.09,1.55,1.55,0,0,0,.4,1.1,1.33,1.33,0,0,0,1,.42,1.37,1.37,0,0,0,.7-.17,2.72,2.72,0,0,0,.68-.64v1.45a2.87,2.87,0,0,1-1.33.35,2.56,2.56,0,0,1-1.85-.72,2.39,2.39,0,0,1-.74-1.78,2.42,2.42,0,0,1,.75-1.8A2.58,2.58,0,0,1,22.7,58,2.65,2.65,0,0,1,24,58.38Z" transform="translate(0 0)"/><path class="cls-3" d="M29.42,60.81H26a1.46,1.46,0,0,0,.38.93,1.18,1.18,0,0,0,.87.34,1.14,1.14,0,0,0,.68-.19,3,3,0,0,0,.6-.72l.92.51a3.19,3.19,0,0,1-.45.63,2.24,2.24,0,0,1-.51.43,2.06,2.06,0,0,1-.59.25,3,3,0,0,1-.69.08,2.23,2.23,0,0,1-1.71-.69,2.55,2.55,0,0,1-.65-1.82,2.63,2.63,0,0,1,.63-1.83A2.16,2.16,0,0,1,27.16,58a2.13,2.13,0,0,1,1.66.67,2.65,2.65,0,0,1,.61,1.84Zm-1.13-.9A1,1,0,0,0,27.18,59a1.15,1.15,0,0,0-.37.06.92.92,0,0,0-.32.18,1.12,1.12,0,0,0-.25.28,1,1,0,0,0-.15.36Z" transform="translate(0 0)"/><path class="cls-3" d="M30.62,58.17h1.11v.44A1.78,1.78,0,0,1,33,58a1.67,1.67,0,0,1,1.3.52,2.18,2.18,0,0,1,.4,1.45v2.92H33.61V60.27a1.74,1.74,0,0,0-.19-1,.8.8,0,0,0-.69-.27.85.85,0,0,0-.78.36,2.48,2.48,0,0,0-.22,1.24v2.3H30.62Z" transform="translate(0 0)"/><path class="cls-3" d="M40.44,60.81H37a1.41,1.41,0,0,0,.38.93,1.14,1.14,0,0,0,.86.34,1.12,1.12,0,0,0,.68-.19,2.62,2.62,0,0,0,.6-.72l.93.51a3.19,3.19,0,0,1-.45.63,2.09,2.09,0,0,1-.52.43,2.06,2.06,0,0,1-.59.25,3,3,0,0,1-.69.08,2.23,2.23,0,0,1-1.71-.69,2.59,2.59,0,0,1-.64-1.82,2.63,2.63,0,0,1,.63-1.83,2.38,2.38,0,0,1,3.33,0,2.65,2.65,0,0,1,.6,1.84Zm-1.13-.9A1,1,0,0,0,38.2,59a1.21,1.21,0,0,0-.38.06,1.14,1.14,0,0,0-.32.18,1.31,1.31,0,0,0-.24.28,1.19,1.19,0,0,0-.16.36Z" transform="translate(0 0)"/></g></g><g id="Group_2322" data-name="Group 2322"><g class="cls-4"><g id="Group_2321" data-name="Group 2321"><path id="Path_1848" data-name="Path 1848" class="cls-5" d="M4.43,14.71A18.65,18.65,0,0,0,.88,28c.17,1.66.54,3.3.57,5,.08,4-1.7,8.13-.26,11.84s6.1,5.72,10.14,5.07,7.48-3.32,10.17-6.4A34.11,34.11,0,0,0,28.41,31.1a22.26,22.26,0,0,0,.78-11.5,13.24,13.24,0,0,0-6.76-9,14.52,14.52,0,0,0-18,4.13" transform="translate(0 0)"/><path id="Path_1849" data-name="Path 1849" class="cls-3" d="M9.77,50.62C6.13,50.62,2.08,48.83.61,45c-1-2.5-.58-5.16-.19-7.72A26.24,26.24,0,0,0,.82,33a24.08,24.08,0,0,0-.32-3C.41,29.3.32,28.67.26,28.05A19.23,19.23,0,0,1,3.94,14.33,15.2,15.2,0,0,1,22.7,10a13.79,13.79,0,0,1,7.1,9.44A22.62,22.62,0,0,1,29,31.28a34.77,34.77,0,0,1-7,12.6c-3.31,3.79-6.86,6-10.54,6.6a10.23,10.23,0,0,1-1.66.13M4.93,15.09h0A18,18,0,0,0,1.5,27.92c.06.61.15,1.21.24,1.82A24.59,24.59,0,0,1,2.07,33a26.62,26.62,0,0,1-.42,4.54c-.38,2.52-.73,4.89.12,7.09,1.42,3.65,5.93,5.24,9.46,4.67,3.38-.54,6.68-2.62,9.8-6.19a33.65,33.65,0,0,0,6.78-12.15,21.53,21.53,0,0,0,.77-11.17,12.57,12.57,0,0,0-6.42-8.6A14,14,0,0,0,4.93,15.09" transform="translate(0 0)"/><path id="Path_1850" data-name="Path 1850" class="cls-6" d="M4.41,22.33a3.52,3.52,0,0,0,1,3,2.7,2.7,0,0,0,1.14.49c2,.38,3.88-.92,5.4-2.26a37.37,37.37,0,0,0,4.17-4.36,7.3,7.3,0,0,0,2-4.17,2.48,2.48,0,0,0-.6-1.84,2.94,2.94,0,0,0-1.54-.7,8.62,8.62,0,0,0-5.89,1,11.33,11.33,0,0,0-5.72,8.85" transform="translate(0 0)"/><path id="Path_1851" data-name="Path 1851" class="cls-3" d="M7.3,26.54a4.58,4.58,0,0,1-.83-.08,3.25,3.25,0,0,1-1.4-.6A4.11,4.11,0,0,1,3.79,22.3a11.9,11.9,0,0,1,6-9.37,9.31,9.31,0,0,1,6.33-1,3.61,3.61,0,0,1,1.86.87,3.1,3.1,0,0,1,.79,2.31,8,8,0,0,1-2.15,4.54,37.77,37.77,0,0,1-4.24,4.43c-1.24,1.1-3.06,2.48-5.1,2.48M14.37,13a8,8,0,0,0-3.94,1A10.75,10.75,0,0,0,5,22.36H5a3.05,3.05,0,0,0,.8,2.51,2,2,0,0,0,.87.36c1.4.27,3-.4,4.87-2.11a36.85,36.85,0,0,0,4.1-4.28A6.79,6.79,0,0,0,17.54,15a1.88,1.88,0,0,0-.43-1.38,2.28,2.28,0,0,0-1.22-.53A7.76,7.76,0,0,0,14.37,13" transform="translate(0 0)"/><path id="Path_1852" data-name="Path 1852" class="cls-3" d="M20.31,4.5A2.91,2.91,0,0,0,20,3a1.08,1.08,0,0,0-1.37-.45.64.64,0,0,0-.26.28c-.15.33,0,.7.22,1a8.08,8.08,0,0,1,.79,2.66c.07.53-.16,2.4.15,2.76.47.54.66-1.55.69-1.84a18.8,18.8,0,0,0,.11-2.9" transform="translate(0 0)"/><path id="Path_1853" data-name="Path 1853" class="cls-3" d="M19.66,10A.85.85,0,0,1,19,9.64c-.32-.37-.34-1-.3-2.27a7.15,7.15,0,0,0,0-.8A7.29,7.29,0,0,0,18,4.11a1.77,1.77,0,0,1-.23-1.58A1.29,1.29,0,0,1,18.29,2a1.69,1.69,0,0,1,2.21.65,3.54,3.54,0,0,1,.44,1.85,21.3,21.3,0,0,1-.12,3c-.18,1.68-.42,2.29-.94,2.45a.91.91,0,0,1-.23,0M19,3a.11.11,0,0,0-.08,0,1.38,1.38,0,0,0,.18.46A7.17,7.17,0,0,1,19.7,5c0-.15,0-.31,0-.48a2.38,2.38,0,0,0-.24-1.2A.52.52,0,0,0,19,3" transform="translate(0 0)"/><path id="Path_1854" data-name="Path 1854" class="cls-5" d="M35.65,10.82a11.19,11.19,0,0,1-7.46-.39,19,19,0,0,1-4-2.23c-.37-.26-3.72-2.55-3.92-2.28a13.36,13.36,0,0,1,6-4.6,10.73,10.73,0,0,1,7.53,0,32.76,32.76,0,0,1,4.52,2.52A10.83,10.83,0,0,0,42,5.23c.53.08,1.18-.05,1.16.58,0,.41-.82,1.16-1.09,1.45a14.54,14.54,0,0,1-6.37,3.56" transform="translate(0 0)"/><path id="Path_1855" data-name="Path 1855" class="cls-3" d="M32.54,11.91A12.62,12.62,0,0,1,28,11a20.11,20.11,0,0,1-4.16-2.3,27.64,27.64,0,0,0-3.56-2.19.54.54,0,0,0,.51-.23h0l-1-.74h0l0,0A13.87,13.87,0,0,1,26.06.73a11.5,11.5,0,0,1,8,0,20.65,20.65,0,0,1,3.34,1.79c.42.27.84.53,1.27.78a10,10,0,0,0,3.41,1.34l.29,0c.39,0,1.43.1,1.4,1.2,0,.55-.51,1.1-1.12,1.7l-.14.15a14.88,14.88,0,0,1-6.64,3.73,10.87,10.87,0,0,1-3.3.5M21.29,5.61a29.64,29.64,0,0,1,3.24,2.07,18,18,0,0,0,3.89,2.16,10.49,10.49,0,0,0,7,.38,13.78,13.78,0,0,0,6.1-3.4l.16-.17a6.15,6.15,0,0,0,.68-.77h-.15l-.4,0A11.18,11.18,0,0,1,38,4.34c-.44-.25-.87-.52-1.3-.79a18.91,18.91,0,0,0-3.13-1.69,10.18,10.18,0,0,0-7.09,0,12.79,12.79,0,0,0-5.2,3.72" transform="translate(0 0)"/><path id="Path_1856" data-name="Path 1856" class="cls-5" d="M21,5.72A15.38,15.38,0,0,1,28.88,6c1.37.42,2.69,1,4.09,1.35,3.2.71,6.55-.17,9.52-1.54" transform="translate(0 0)"/><path id="Path_1857" data-name="Path 1857" class="cls-3" d="M35.33,8.19a10.91,10.91,0,0,1-2.49-.26,22.23,22.23,0,0,1-2.55-.81c-.53-.19-1.06-.39-1.59-.55a14.7,14.7,0,0,0-7.59-.24l-.29-1.22a15.89,15.89,0,0,1,8.24.26c.56.17,1.11.37,1.66.57a18.13,18.13,0,0,0,2.4.77c2.62.58,5.68.08,9.11-1.5l.52,1.14a17.86,17.86,0,0,1-7.42,1.84" transform="translate(0 0)"/></g></g></g></g></g></svg>