<svg xmlns="http://www.w3.org/2000/svg" xmlns:xlink="http://www.w3.org/1999/xlink" viewBox="0 0 59.94 60.14"><defs><style>.cls-1{fill:none;}.cls-2{isolation:isolate;}.cls-3{fill:#004849;}.cls-4{clip-path:url(#clip-path);}.cls-5{fill:#2cdeb4;}.cls-6{fill:#fcfcfc;}</style><clipPath id="clip-path" transform="translate(0 0)"><rect class="cls-1" width="59.94" height="41.93"/></clipPath></defs><g id="Layer_2" data-name="Layer 2"><g id="Layer_1-2" data-name="Layer 1"><g id="nerolidol" class="cls-2"><g class="cls-2"><path class="cls-3" d="M10.59,55.25h1.1v.44a1.8,1.8,0,0,1,1.3-.57,1.63,1.63,0,0,1,1.29.52,2.13,2.13,0,0,1,.4,1.45V60h-1.1V57.35a1.73,1.73,0,0,0-.2-1,.78.78,0,0,0-.69-.28.84.84,0,0,0-.78.37,2.46,2.46,0,0,0-.22,1.24V60h-1.1Z" transform="translate(0 0)"/><path class="cls-3" d="M20.4,57.89H17a1.46,1.46,0,0,0,.38.93,1.16,1.16,0,0,0,.87.34,1.14,1.14,0,0,0,.68-.19,2.92,2.92,0,0,0,.6-.73l.92.52a3.51,3.51,0,0,1-.45.63,2.53,2.53,0,0,1-.51.43,2.15,2.15,0,0,1-.59.24,2.56,2.56,0,0,1-.69.08,2.22,2.22,0,0,1-1.71-.68,2.92,2.92,0,0,1,0-3.65,2.16,2.16,0,0,1,1.67-.69,2.13,2.13,0,0,1,1.66.67,2.63,2.63,0,0,1,.6,1.84ZM19.27,57a1,1,0,0,0-1.11-.88,1.1,1.1,0,0,0-.37.06.92.92,0,0,0-.32.18.93.93,0,0,0-.25.27,1.38,1.38,0,0,0-.16.37Z" transform="translate(0 0)"/><path class="cls-3" d="M21.6,55.25h1.1v.43a1.93,1.93,0,0,1,.54-.44,1.22,1.22,0,0,1,.56-.12,1.75,1.75,0,0,1,.91.28l-.5,1a1.06,1.06,0,0,0-.61-.23c-.6,0-.9.46-.9,1.36V60H21.6Z" transform="translate(0 0)"/><path class="cls-3" d="M25,57.59a2.34,2.34,0,0,1,.74-1.75,2.6,2.6,0,0,1,3.6,0,2.55,2.55,0,0,1,0,3.58,2.54,2.54,0,0,1-1.82.71,2.41,2.41,0,0,1-1.79-.73A2.47,2.47,0,0,1,25,57.59Zm1.12,0a1.61,1.61,0,0,0,.38,1.13,1.49,1.49,0,0,0,2.06,0,1.77,1.77,0,0,0,0-2.22,1.46,1.46,0,0,0-2.05,0A1.52,1.52,0,0,0,26.15,57.61Z" transform="translate(0 0)"/><path class="cls-3" d="M32.36,51.76V60h-1.1V51.76Z" transform="translate(0 0)"/><path class="cls-3" d="M33.59,53.27a.69.69,0,0,1,.21-.5.71.71,0,0,1,1,0,.72.72,0,1,1-1,1A.72.72,0,0,1,33.59,53.27Zm1.26,2V60h-1.1V55.25Z" transform="translate(0 0)"/><path class="cls-3" d="M39.75,51.76h1.1V60h-1.1v-.5a2,2,0,0,1-1.47.63,2.07,2.07,0,0,1-1.62-.71A2.65,2.65,0,0,1,36,57.61a2.52,2.52,0,0,1,.64-1.77,2.05,2.05,0,0,1,3.09,0Zm-2.61,5.85a1.7,1.7,0,0,0,.37,1.12,1.2,1.2,0,0,0,1,.43,1.26,1.26,0,0,0,1-.42,1.8,1.8,0,0,0,0-2.21,1.24,1.24,0,0,0-1-.42,1.2,1.2,0,0,0-.95.43A1.59,1.59,0,0,0,37.14,57.61Z" transform="translate(0 0)"/><path class="cls-3" d="M42,57.59a2.36,2.36,0,0,1,.73-1.75,2.61,2.61,0,0,1,3.61,0,2.4,2.4,0,0,1,.73,1.78,2.44,2.44,0,0,1-.74,1.8,2.54,2.54,0,0,1-1.82.71,2.41,2.41,0,0,1-1.79-.73A2.47,2.47,0,0,1,42,57.59Zm1.12,0a1.61,1.61,0,0,0,.38,1.13,1.33,1.33,0,0,0,1,.42,1.36,1.36,0,0,0,1-.41,1.77,1.77,0,0,0,0-2.22,1.46,1.46,0,0,0-2,0A1.52,1.52,0,0,0,43.14,57.61Z" transform="translate(0 0)"/><path class="cls-3" d="M49.35,51.76V60h-1.1V51.76Z" transform="translate(0 0)"/></g></g><g id="Group_2359" data-name="Group 2359"><g class="cls-4"><g id="Group_2358" data-name="Group 2358"><path id="Path_2355" data-name="Path 2355" class="cls-5" d="M8.74,19.89c-2.7-.16-5.46.48-8.07-.21-.07.32.25.58.54.76A15.51,15.51,0,0,0,5.3,22.38c.68.17,1.38.24,2.05.45s1.25.53,1.89.76a13.25,13.25,0,0,0,4.93.48c.51,0,1.14-.1,1.34-.58.28-.71-.64-1.48-1-2s-.58-1-1.15-1.23a5.89,5.89,0,0,0-1.78-.11c-.95,0-1.89-.2-2.84-.26" transform="translate(0 0)"/><path id="Path_2356" data-name="Path 2356" class="cls-3" d="M12.81,24.75A11.14,11.14,0,0,1,9,24.21q-.45-.16-.87-.36a10.15,10.15,0,0,0-1-.39A9,9,0,0,0,6,23.2c-.29-.06-.58-.11-.87-.18A15.93,15.93,0,0,1,.87,21C0,20.49-.06,19.92,0,19.54l.14-.67.66.18a15.84,15.84,0,0,0,4.81.23,27.39,27.39,0,0,1,3.14,0h0c.44,0,.89.07,1.33.12s1,.12,1.5.14h.48a3.86,3.86,0,0,1,1.51.15,2.8,2.8,0,0,1,1.29,1.23l.16.25a3.55,3.55,0,0,0,.28.34c.46.54,1.15,1.36.78,2.27s-1.54,1-1.92,1-.9,0-1.37,0m-9.95-4.1a10.94,10.94,0,0,0,2.59,1.09c.27.07.54.12.8.17a9.16,9.16,0,0,1,1.28.3,9,9,0,0,1,1.12.44c.26.11.53.23.8.32a12.84,12.84,0,0,0,4.69.44c.67,0,.75-.17.75-.17.07-.18-.36-.68-.57-.93a5.6,5.6,0,0,1-.35-.45l-.19-.28c-.25-.38-.41-.61-.66-.71a3,3,0,0,0-1-.07c-.2,0-.4,0-.58,0-.53,0-1.06-.08-1.59-.14s-.84-.09-1.26-.12a27.3,27.3,0,0,0-3,0c-.94.05-1.89.1-2.84.06" transform="translate(0 0)"/><path id="Path_2357" data-name="Path 2357" class="cls-5" d="M44.47,11.49a11.08,11.08,0,0,0,3.19-1.24,10.1,10.1,0,0,0,1.64-1,10.41,10.41,0,0,0,1.6-1.65l1.84-2.22a6,6,0,0,1-.42,3.82c-.49,1.21-1.15,2.34-1.54,3.59a17,17,0,0,1-.63,1.95c-.17.37-.4.72-.55,1.1a6.8,6.8,0,0,0-.34,2.65.74.74,0,0,1-.53.91h0a7.77,7.77,0,0,0-2.07,1.1c-.49.4-.9.9-1.35,1.34a7.34,7.34,0,0,1-1.87,1.29,1.81,1.81,0,0,1-.76.22,2.3,2.3,0,0,1-1.1-.38,3.79,3.79,0,0,1-1.09-.73,1.07,1.07,0,0,1-.22-1.21c.31-.54,1.08-.5,1.7-.52a8.83,8.83,0,0,0,3.62-1.21.41.41,0,0,0,.28-.51.3.3,0,0,0-.08-.16l-1.33-3.06a4.61,4.61,0,0,0-.58-1c-.5-.61-2.1-.9-2.15-1.78-.07-1.17,2-1.19,2.76-1.3" transform="translate(0 0)"/><path id="Path_2358" data-name="Path 2358" class="cls-3" d="M42.63,24.05a2.85,2.85,0,0,1-1.32-.42l-.2-.11a4.12,4.12,0,0,1-1.14-.8,1.73,1.73,0,0,1-.3-2,2.19,2.19,0,0,1,2.07-.84h.18a8.09,8.09,0,0,0,3.2-1.07l-1.28-3a3.76,3.76,0,0,0-.48-.88,2.91,2.91,0,0,0-.73-.46c-.67-.35-1.52-.8-1.57-1.7C41,11.22,43,11,44,10.89l.39-.05a10.57,10.57,0,0,0,3-1.17,9.8,9.8,0,0,0,1.53-.91,9.94,9.94,0,0,0,1.49-1.55L53,4l.34,1.19a6.39,6.39,0,0,1-.45,4.24c-.2.5-.42,1-.65,1.47A15.21,15.21,0,0,0,51.4,13l-.18.61A10.14,10.14,0,0,1,50.75,15c-.08.18-.18.35-.27.52s-.19.37-.28.56a6.29,6.29,0,0,0-.28,2.4,1.55,1.55,0,0,1-.36,1.15,1.46,1.46,0,0,1-.63.38,7.38,7.38,0,0,0-1.88,1,9.45,9.45,0,0,0-.79.76c-.17.19-.35.37-.53.54a7.7,7.7,0,0,1-2,1.41,2.49,2.49,0,0,1-1,.29Zm1.95-11.92-.46.06c-1.18.13-1.77.32-1.76.56s.6.47.88.62a3.63,3.63,0,0,1,1.13.78,4.86,4.86,0,0,1,.67,1.2l1.33,3.06A1,1,0,0,1,46,19.85l-.15.07A9.47,9.47,0,0,1,42,21.21h-.2c-.37,0-.86,0-1,.19a.48.48,0,0,0,.14.44,2.7,2.7,0,0,0,.78.51l.13.07c.34.18.54.37.78.31a1.23,1.23,0,0,0,.49-.16,6.47,6.47,0,0,0,1.7-1.18c.17-.16.33-.32.49-.5a9.35,9.35,0,0,1,.91-.87,8.2,8.2,0,0,1,2.24-1.2l.16-.07s0-.08,0-.23A7.18,7.18,0,0,1,49,15.61a5.52,5.52,0,0,1,.34-.69l.22-.44a7.46,7.46,0,0,0,.4-1.21c.07-.22.13-.44.2-.66a18.23,18.23,0,0,1,.93-2.24c.21-.46.43-.92.62-1.4a7,7,0,0,0,.51-1.91L51.4,8A10.89,10.89,0,0,1,49.7,9.8a10.91,10.91,0,0,1-1.74,1,11.73,11.73,0,0,1-3.39,1.3" transform="translate(0 0)"/><path id="Path_2359" data-name="Path 2359" class="cls-5" d="M17.62,32.19c-.59.75-1.11,1.56-1.7,2.31-1.65,2.1-3.85,3.79-5.09,6.15a20.73,20.73,0,0,0,2.73-1.6,11.42,11.42,0,0,1,5.73-1.6c1.78,0,3.54.38,5.31.21a1.16,1.16,0,0,0,.85-.34,1,1,0,0,0,.17-.66c0-.93-.44-1.8-.53-2.71-.14-1.45.56-2.82,1.05-4.19a.66.66,0,0,0,0-.48.66.66,0,0,0-.44-.28c-.85-.25-1.71-.48-2.57-.69a2,2,0,0,0-1.88.51,15.84,15.84,0,0,0-3.66,3.37" transform="translate(0 0)"/><path id="Path_2360" data-name="Path 2360" class="cls-3" d="M9.41,41.93l.83-1.59a19.57,19.57,0,0,1,3.22-4.08c.66-.7,1.35-1.41,1.94-2.16.29-.37.56-.75.83-1.13s.58-.8.88-1.18a16.11,16.11,0,0,1,3.81-3.51,2.63,2.63,0,0,1,2.4-.61c.87.22,1.74.45,2.6.7a1.3,1.3,0,0,1,.85.63,1.28,1.28,0,0,1,0,1c-.1.28-.21.56-.32.84a6.93,6.93,0,0,0-.69,3.07A7,7,0,0,0,26,35a6.74,6.74,0,0,1,.3,1.66A1.7,1.7,0,0,1,26,37.72a1.78,1.78,0,0,1-1.31.6,17.91,17.91,0,0,1-3.19-.08c-.75-.07-1.43-.13-2.17-.13a10.83,10.83,0,0,0-5.41,1.51c-.28.16-.56.35-.84.53a11.29,11.29,0,0,1-2,1.11Zm13.25-13c-.28,0-.5.14-1,.47a14.82,14.82,0,0,0-3.52,3.23c-.29.37-.56.75-.84,1.14s-.56.79-.87,1.17c-.62.8-1.33,1.54-2,2.26-.44.46-.86.91-1.27,1.36l.07,0a12.12,12.12,0,0,1,6.07-1.69c.77,0,1.55.06,2.3.13a15.3,15.3,0,0,0,2.95.08c.32,0,.38-.08.4-.1a.52.52,0,0,0,0-.25,5.57,5.57,0,0,0-.25-1.33A8.37,8.37,0,0,1,24.44,34a8,8,0,0,1,.78-3.66c.09-.25.19-.49.27-.74-.82-.24-1.65-.46-2.49-.67a1.86,1.86,0,0,0-.34-.05" transform="translate(0 0)"/><path id="Path_2361" data-name="Path 2361" class="cls-5" d="M35.13,37.34a7.89,7.89,0,0,0,5-2.67c1.43.72,4.07,2.45,5.66,2.64a28.49,28.49,0,0,0,11.52-.44,9.17,9.17,0,0,0,1.71-.94,34.59,34.59,0,0,1-5.56-.48,16.78,16.78,0,0,1-2.78-1.07l-3.91-1.77a7.81,7.81,0,0,1-1.74-1,7.92,7.92,0,0,1-1.7-2.2c-.9-.06-1.55.78-2.25,1.35a4.35,4.35,0,0,1-3.14.94c-.76-.07-1.59-.32-2.22.09a2.7,2.7,0,0,0-.56.56l-1.54,2a10,10,0,0,1-1.9,2,3.77,3.77,0,0,1-.84.45,5.15,5.15,0,0,0-.8.21c-.35.44.86.41,1.12.43a16.79,16.79,0,0,0,3.88-.08" transform="translate(0 0)"/><path id="Path_2362" data-name="Path 2362" class="cls-3" d="M51,38.34A44,44,0,0,1,45.76,38a15.63,15.63,0,0,1-4.6-2c-.3-.17-.57-.33-.83-.46a8.7,8.7,0,0,1-5.1,2.5h0a18.11,18.11,0,0,1-4,.08c-.68,0-1.45,0-1.71-.62a.8.8,0,0,1,.13-.87,1.32,1.32,0,0,1,.9-.38l.2,0a3.4,3.4,0,0,0,.67-.38,9.4,9.4,0,0,0,1.77-1.85l1.54-2a2.45,2.45,0,0,1,2.9-1,3.47,3.47,0,0,0,.45.06,3.66,3.66,0,0,0,2.66-.8,5,5,0,0,0,.43-.37,3.16,3.16,0,0,1,2.28-1.12.63.63,0,0,1,.52.32,7.66,7.66,0,0,0,1.55,2,7.32,7.32,0,0,0,1.6.88L51,33.79a16.35,16.35,0,0,0,2.67,1,17,17,0,0,0,3.55.37c.64,0,1.27,0,1.91.09a.65.65,0,0,1,.59.71.63.63,0,0,1-.33.52c-.15.08-.3.18-.47.29a5,5,0,0,1-1.4.71,25,25,0,0,1-6.5.84M40.17,34a.78.78,0,0,1,.3.07c.38.19.83.45,1.33.73a14.84,14.84,0,0,0,4.12,1.85,28.64,28.64,0,0,0,10.32-.2,13.46,13.46,0,0,1-2.89-.37A17.38,17.38,0,0,1,50.46,35l-3.92-1.77a8.91,8.91,0,0,1-1.88-1.06,8,8,0,0,1-1.63-2,3.46,3.46,0,0,0-1,.74q-.24.23-.48.42a5,5,0,0,1-3.62,1.09l-.51-.07a2,2,0,0,0-1.29,0,2.28,2.28,0,0,0-.4.42l-1.54,2a10.5,10.5,0,0,1-2,2.07A14,14,0,0,0,35,36.69a7.16,7.16,0,0,0,4.63-2.42.68.68,0,0,1,.52-.26" transform="translate(0 0)"/><path id="Path_2363" data-name="Path 2363" class="cls-6" d="M42.81,23.31a17.57,17.57,0,0,1,7.82-4.1,2,2,0,0,1,.65-.07,1.58,1.58,0,0,1,1.11.78.39.39,0,0,1,.08.27.39.39,0,0,1-.23.22,6.32,6.32,0,0,0-2.17,1.84,22.64,22.64,0,0,1,2.32.3A7.3,7.3,0,0,1,54,23a11.75,11.75,0,0,1,2,1.36A15.41,15.41,0,0,0,59,26.12a.46.46,0,0,1,.24.17.49.49,0,0,1,0,.24,4.64,4.64,0,0,1-2.75,3.41,9.16,9.16,0,0,1-4.48.63.72.72,0,0,0,.21.77,3.11,3.11,0,0,1,.55.65c.19.39,0,.87.21,1.27.09.22.27.4.35.62a1.69,1.69,0,0,1-.34,1.4c-.15.25-.33.53-.62.56a.87.87,0,0,1-.45-.09l-2.63-1a13.81,13.81,0,0,1-3-1.44,13.6,13.6,0,0,1-3-3.37Z" transform="translate(0 0)"/><path id="Path_2364" data-name="Path 2364" class="cls-3" d="M52.35,36.51a1.7,1.7,0,0,1-.63-.14l-2.63-1A13.79,13.79,0,0,1,46,33.84a14.33,14.33,0,0,1-3.2-3.52l-.11-.15L42.14,23l.23-.21a18.06,18.06,0,0,1,8.11-4.26,3.11,3.11,0,0,1,.86-.09,2.24,2.24,0,0,1,1.6,1.08.93.93,0,0,1-.16,1.3.92.92,0,0,1-.24.13,5.73,5.73,0,0,0-1.1.74c.36.05.72.11,1.07.18a7.12,7.12,0,0,1,1.73.5A8.75,8.75,0,0,1,56,23.53l.4.3a14.15,14.15,0,0,0,2.92,1.69,1.06,1.06,0,0,1,.56.48,1,1,0,0,1,.08.62,5.22,5.22,0,0,1-3.12,3.92,8.77,8.77,0,0,1-3.71.72,2.26,2.26,0,0,1,.31.45,2.34,2.34,0,0,1,.18.91,1.1,1.1,0,0,0,.05.4.93.93,0,0,0,.11.19,2,2,0,0,1,.24.45,2.29,2.29,0,0,1-.39,2,1.6,1.6,0,0,1-1.11.88h-.14m-8.42-6.8a12.7,12.7,0,0,0,2.78,3.07,13.88,13.88,0,0,0,2.86,1.36l2.63,1,.14.05s0-.08.13-.24.37-.63.29-.84a.72.72,0,0,0-.11-.19,3.3,3.3,0,0,1-.23-.41,2.4,2.4,0,0,1-.15-.84,1.07,1.07,0,0,0,0-.4A1.23,1.23,0,0,0,52,32l-.21-.22a1.35,1.35,0,0,1-.31-1.5l.19-.4.44,0a8.42,8.42,0,0,0,4.16-.56,4,4,0,0,0,2.34-2.7,16,16,0,0,1-3-1.77l-.42-.32a7.15,7.15,0,0,0-1.47-1,5.79,5.79,0,0,0-1.42-.41A18.7,18.7,0,0,0,50,22.9l-1.19-.09.71-1A7,7,0,0,1,51.61,20a.65.65,0,0,0-.4-.21,1,1,0,0,0-.43.06,16.7,16.7,0,0,0-7.29,3.73Z" transform="translate(0 0)"/><path id="Path_2365" data-name="Path 2365" class="cls-6" d="M24.7,20.29c-.42-.8.12-1.81-.15-2.67a3.37,3.37,0,0,0-.88-1.2c-1.58-1.64-2.83-3.87-2.4-6.11a10.12,10.12,0,0,0,.24-1.22,6.43,6.43,0,0,0-.59-2.55,10.83,10.83,0,0,1-.51-4,.75.75,0,0,1,.05-.26c.13-.28.5-.3.8-.29l2.1.1a6.26,6.26,0,0,1,2,.32c.24.09.46.21.71.29.47.15,1,.1,1.45.26a3.52,3.52,0,0,1,1.15.75L30.6,5.4a.48.48,0,0,0,.28.15.54.54,0,0,0,.33-.16c1.26-1.1,2.25-2.68,3.87-3.11.76-.2,1.57-.11,2.33-.32s1.64-.9,2.53-1.21a.94.94,0,0,1,.55-.07.92.92,0,0,1,.6,1c0,.42-.18.83-.19,1.25,0,1.16,1,2.08,1.23,3.23a4.53,4.53,0,0,1-.69,2.65,6.46,6.46,0,0,1-2.29,2.95,6.88,6.88,0,0,0,2.4,1.53,8.09,8.09,0,0,1,2,.8,3,3,0,0,1,1.14,1.76A11.61,11.61,0,0,0,45,17.51c.26.67.87,1.18,1,1.89a.42.42,0,0,1-.1.45.53.53,0,0,1-.39,0c-1.54-.19-3,1.16-4.51,1a1.17,1.17,0,0,1-.52-.16Z" transform="translate(0 0)"/><path id="Path_2366" data-name="Path 2366" class="cls-3" d="M41.25,21.56l-.33,0a1.74,1.74,0,0,1-.63-.17l-16-.43-.18-.34a3,3,0,0,1-.19-1.8,2.49,2.49,0,0,0,0-1,2.43,2.43,0,0,0-.65-.87c-1.28-1.33-3.21-3.86-2.65-6.77,0-.15.07-.3.11-.46A5,5,0,0,0,20.86,9a4.66,4.66,0,0,0-.39-1.8l-.17-.49a11.31,11.31,0,0,1-.55-4.2A1.45,1.45,0,0,1,19.86,2a1.34,1.34,0,0,1,1.44-.66l2.1.1a6.93,6.93,0,0,1,2.22.36l.29.13a2.39,2.39,0,0,0,.37.15,3.91,3.91,0,0,0,.58.1,4.37,4.37,0,0,1,.89.16,4.23,4.23,0,0,1,1.37.88L30.9,4.78c.34-.3.63-.61.92-.91a6.72,6.72,0,0,1,3.1-2.23,7.49,7.49,0,0,1,1.26-.17,5.5,5.5,0,0,0,1.06-.14A6.2,6.2,0,0,0,38.46.75,7.41,7.41,0,0,1,39.72.12a1.76,1.76,0,0,1,.91-.1A1.59,1.59,0,0,1,41.75,1.7a3.58,3.58,0,0,1-.11.73,3,3,0,0,0-.08.52,3,3,0,0,0,.54,1.44,5.24,5.24,0,0,1,.68,1.66A5,5,0,0,1,42,9.1a8.69,8.69,0,0,1-1.82,2.7,6,6,0,0,0,1.57.87c.17.07.35.12.53.18a5.67,5.67,0,0,1,1.57.7,3.65,3.65,0,0,1,1.4,2.15,5.38,5.38,0,0,1,.12.7,4.25,4.25,0,0,0,.18.86,3.57,3.57,0,0,0,.4.68,3.74,3.74,0,0,1,.65,1.31,1,1,0,0,1-.37,1.13,1.08,1.08,0,0,1-.82.15,4.24,4.24,0,0,0-2,.46,5.86,5.86,0,0,1-2.21.56m-16-1.9,15.47.42.16.11a.44.44,0,0,0,.22.05A4.32,4.32,0,0,0,43,19.77a6,6,0,0,1,2.21-.56h0a4.59,4.59,0,0,0-.33-.52,4.66,4.66,0,0,1-.54-.94,4.79,4.79,0,0,1-.26-1.18c0-.19-.05-.39-.09-.58a2.3,2.3,0,0,0-.89-1.37,4.53,4.53,0,0,0-1.22-.52l-.58-.2a7.44,7.44,0,0,1-2.63-1.68l-.62-.61.76-.43a6,6,0,0,0,2-2.67,4,4,0,0,0,.63-2.25A4.2,4.2,0,0,0,41,5a4.06,4.06,0,0,1-.7-2.12,4.52,4.52,0,0,1,.1-.75,3,3,0,0,0,.09-.51.49.49,0,0,0-.1-.34.69.69,0,0,0-.19.05,7.38,7.38,0,0,0-1,.53,6.78,6.78,0,0,1-1.52.7,6.46,6.46,0,0,1-1.31.18,5.94,5.94,0,0,0-1,.14,5.76,5.76,0,0,0-2.47,1.86c-.37.38-.74.77-1.13,1.11a1,1,0,0,1-1.43,0l0,0L28.26,4.24a3.22,3.22,0,0,0-.93-.62,2.61,2.61,0,0,0-.61-.11,3.91,3.91,0,0,1-.83-.15,4.87,4.87,0,0,1-.53-.21l-.23-.1a5.78,5.78,0,0,0-1.8-.27l-2-.09h-.27a10.48,10.48,0,0,0,.5,3.64l.16.46a5.74,5.74,0,0,1,.47,2.35A7.12,7.12,0,0,1,22,10l-.09.4c-.47,2.41,1.4,4.67,2.23,5.52a3.85,3.85,0,0,1,1,1.46,3.89,3.89,0,0,1,.06,1.52,3.35,3.35,0,0,0,0,.71" transform="translate(0 0)"/><path id="Path_2367" data-name="Path 2367" class="cls-6" d="M31.4,18.48c1.23-1.05,2.81-1.75,3.71-3.09a3.49,3.49,0,0,0,2,2.81c1.06.53,2.41.75,3,1.78a3.48,3.48,0,0,1,.1,2.46c1.4-.1,2.49,1.21,3.09,2.49s1,2.73,2.2,3.53c-.43.36-1.09.21-1.6.45a2.8,2.8,0,0,0-1,1.18,5.46,5.46,0,0,1-2.79,2.31,4.18,4.18,0,0,1-3.55-.34l-3.19,3.56a5.83,5.83,0,0,1-1.89,1.6c-1.12.5-2.59.35-3.41,1.26-.14.15-.25.33-.4.47a1.3,1.3,0,0,1-1.45.12,1.68,1.68,0,0,1-.81-1.25c-.06-.37,0-.75-.06-1.12-.09-.54-.4-1-.48-1.56A3.17,3.17,0,0,1,25,33.77a9,9,0,0,1,1.58-3c-.76,0-1.4-.5-2.1-.77a10.48,10.48,0,0,0-1.26-.29,4.13,4.13,0,0,1-3-2.08c-.3-.69-.33-1.54-.87-2.06-.29-.29-.71-.44-.93-.79a1.24,1.24,0,0,1,0-1.21,3.68,3.68,0,0,1,.84-1,6.75,6.75,0,0,1,3.49-2c1-.11,2.06.26,3.09.14.62-.07,1.2-.32,1.81-.45s1.54.28,1.94.08.59-.71.81-.94a11,11,0,0,1,1-1" transform="translate(0 0)"/><path id="Path_2368" data-name="Path 2368" class="cls-3" d="M26.85,39.9a1.89,1.89,0,0,1-1-.25,2.33,2.33,0,0,1-1.15-1.73,4.49,4.49,0,0,1,0-.64,2.57,2.57,0,0,0,0-.48,3.55,3.55,0,0,0-.2-.63,4.33,4.33,0,0,1-.28-.93,3.9,3.9,0,0,1,.2-1.66,9.9,9.9,0,0,1,1.1-2.38c-.21-.09-.41-.19-.6-.29s-.4-.2-.61-.29a5.77,5.77,0,0,0-.82-.2l-.35-.06a4.72,4.72,0,0,1-3.5-2.47,8.09,8.09,0,0,1-.28-.83,2.29,2.29,0,0,0-.45-1,2.37,2.37,0,0,0-.3-.23,2.42,2.42,0,0,1-.72-.67,1.86,1.86,0,0,1,0-1.88,3.94,3.94,0,0,1,1-1.13A7.31,7.31,0,0,1,22.71,20a6.74,6.74,0,0,1,1.68.07,6,6,0,0,0,1.4.07,6.35,6.35,0,0,0,1-.23,7.27,7.27,0,0,1,.77-.2,3.2,3.2,0,0,1,1.27.05,2.6,2.6,0,0,0,.56.06l.27-.4q.13-.2.3-.39a12.27,12.27,0,0,1,1-1c.46-.37.93-.72,1.41-1A7.76,7.76,0,0,0,34.57,15a.66.66,0,0,1,1.2.35,2.79,2.79,0,0,0,1.66,2.25c.27.13.57.25.87.37a4.26,4.26,0,0,1,2.4,1.67,3.41,3.41,0,0,1,.3,2.2,4.71,4.71,0,0,1,2.9,2.79l.33.76a5.66,5.66,0,0,0,1.65,2.52.66.66,0,0,1,.16.91.49.49,0,0,1-.12.13,2.13,2.13,0,0,1-1.23.43,1.15,1.15,0,0,0-1.14.85l-.12.2A6.15,6.15,0,0,1,40.3,33a4.88,4.88,0,0,1-3.62-.14l-2.84,3.18a6.68,6.68,0,0,1-2.11,1.77,7.2,7.2,0,0,1-1.51.42,3.07,3.07,0,0,0-1.69.67l-.12.15a1.91,1.91,0,0,1-.33.37,1.86,1.86,0,0,1-1.23.46m-.25-9.78a.65.65,0,0,1,.66.65.68.68,0,0,1-.14.41A8.64,8.64,0,0,0,25.65,34,2.51,2.51,0,0,0,25.5,35a2.88,2.88,0,0,0,.2.65A3.46,3.46,0,0,1,26,37.27c0,.16,0,.31,0,.46a1.06,1.06,0,0,0,.49.77.62.62,0,0,0,.69,0,1.63,1.63,0,0,0,.17-.2,1.81,1.81,0,0,1,.18-.21A4.09,4.09,0,0,1,30,37a5.89,5.89,0,0,0,1.23-.33,5.49,5.49,0,0,0,1.67-1.44L36,31.62a.68.68,0,0,1,.84-.12,3.53,3.53,0,0,0,3,.28,4.79,4.79,0,0,0,2.44-2l.12-.18a2.84,2.84,0,0,1,1.2-1.25,2.45,2.45,0,0,1,.6-.18A10,10,0,0,1,43,25.92c-.1-.24-.21-.48-.32-.72-.24-.52-1.13-2.18-2.44-2.1a.7.7,0,0,1-.55-.22.66.66,0,0,1-.14-.57,3,3,0,0,0,0-2,3.15,3.15,0,0,0-1.73-1.1c-.34-.13-.67-.27-1-.42a4.5,4.5,0,0,1-2.05-2A14.58,14.58,0,0,1,33.13,18a14.08,14.08,0,0,0-1.3,1,9.77,9.77,0,0,0-.92.9l-.2.27a2.41,2.41,0,0,1-.8.82,2.16,2.16,0,0,1-1.33,0,2.83,2.83,0,0,0-.77-.07l-.66.18a7.48,7.48,0,0,1-1.2.29,7.61,7.61,0,0,1-1.72-.07,6.27,6.27,0,0,0-1.37-.08,6.08,6.08,0,0,0-3.13,1.86,3,3,0,0,0-.7.77.6.6,0,0,0-.05.55,1.43,1.43,0,0,0,.35.3,2.84,2.84,0,0,1,.47.37,3.24,3.24,0,0,1,.8,1.6,5.11,5.11,0,0,0,.22.66,3.61,3.61,0,0,0,2.57,1.71l.32.06a5.87,5.87,0,0,1,1,.26,6.71,6.71,0,0,1,.77.35,2.53,2.53,0,0,0,1.07.37h0" transform="translate(0 0)"/><path id="Path_2369" data-name="Path 2369" class="cls-3" d="M35.81,23.93h-.6a.49.49,0,0,1,0-1h.6a.49.49,0,0,1,0,1" transform="translate(0 0)"/><path id="Path_2370" data-name="Path 2370" class="cls-3" d="M34.6,27.07a.49.49,0,0,1-.49-.49.48.48,0,0,1,.36-.48l.6-.16a.49.49,0,0,1,.6.36.5.5,0,0,1-.34.59l-.61.16-.12,0" transform="translate(0 0)"/><path id="Path_2371" data-name="Path 2371" class="cls-3" d="M32,24.92h-.5a.49.49,0,0,1,0-1H32a.49.49,0,0,1,0,1h0" transform="translate(0 0)"/><path id="Path_2372" data-name="Path 2372" class="cls-3" d="M30.8,26.85a.49.49,0,0,1-.49-.49.5.5,0,0,1,.32-.46,3.09,3.09,0,0,1,.9-.2.48.48,0,0,1,.53.41v.05a.48.48,0,0,1-.45.52h0a2.82,2.82,0,0,0-.64.14.33.33,0,0,1-.17,0" transform="translate(0 0)"/><path id="Path_2373" data-name="Path 2373" class="cls-3" d="M32.13,28.73a.48.48,0,0,1-.49-.49.49.49,0,0,1,.38-.48l.43-.1a.5.5,0,0,1,.6.36h0a.5.5,0,0,1-.37.59l-.45.1h-.1" transform="translate(0 0)"/><path id="Path_2374" data-name="Path 2374" class="cls-3" d="M33.12,26.14a.49.49,0,0,1-.49-.49.48.48,0,0,1,.07-.26l.31-.51a.51.51,0,0,1,.69-.13.49.49,0,0,1,.15.65l-.31.51a.5.5,0,0,1-.42.23" transform="translate(0 0)"/><path id="Path_2375" data-name="Path 2375" class="cls-3" d="M35.48,25.36a.49.49,0,0,1-.49-.49.48.48,0,0,1,.37-.48,2.29,2.29,0,0,1,.9-.06.5.5,0,0,1,.43.55.48.48,0,0,1-.53.43h0a1.64,1.64,0,0,0-.54,0l-.11,0" transform="translate(0 0)"/><path id="Path_2376" data-name="Path 2376" class="cls-3" d="M36.09,28.18a.5.5,0,0,1-.25-.92,1.36,1.36,0,0,0,.45-.41.49.49,0,1,1,.81.56,2.54,2.54,0,0,1-.76.7.52.52,0,0,1-.25.07" transform="translate(0 0)"/><path id="Path_2377" data-name="Path 2377" class="cls-3" d="M34.45,29.72a.51.51,0,0,1-.49-.45l-.06-.6a.49.49,0,0,1,1-.1l.06.6a.49.49,0,0,1-.44.54h0" transform="translate(0 0)"/><path id="Path_2378" data-name="Path 2378" class="cls-3" d="M32.78,30.38h-.44a.5.5,0,0,1,0-1h.44a.5.5,0,1,1,0,1" transform="translate(0 0)"/><path id="Path_2379" data-name="Path 2379" class="cls-3" d="M30.63,30a.49.49,0,0,1-.48-.4,2,2,0,0,0-.16-.47.48.48,0,0,1,.23-.65.48.48,0,0,1,.63.19,2.5,2.5,0,0,1,.27.75.49.49,0,0,1-.39.57h-.1" transform="translate(0 0)"/><path id="Path_2380" data-name="Path 2380" class="cls-3" d="M29,28.34a.49.49,0,0,1-.37-.81h0l.51-.6a.48.48,0,0,1,.69-.05.5.5,0,0,1,.06.69l-.51.6a.5.5,0,0,1-.38.17" transform="translate(0 0)"/><path id="Path_2381" data-name="Path 2381" class="cls-3" d="M29.74,25.7a.48.48,0,0,1-.46-.31l-.37-.94a.49.49,0,0,1,.92-.36l.36.94a.49.49,0,0,1-.28.64.48.48,0,0,1-.18,0" transform="translate(0 0)"/><path id="Path_2382" data-name="Path 2382" class="cls-3" d="M32.48,23.27a.48.48,0,0,1-.49-.48.48.48,0,0,1,.37-.48,2.31,2.31,0,0,1,.74-.09.5.5,0,1,1,0,1,1.41,1.41,0,0,0-.46.05h-.13" transform="translate(0 0)"/><path id="Path_2383" data-name="Path 2383" class="cls-3" d="M36.17,33.15A.65.65,0,0,1,35.74,32a3,3,0,0,0,.72-.8.67.67,0,0,0,0-.6,1.53,1.53,0,0,0-.33-.29,2.87,2.87,0,0,1-.52-.47.66.66,0,0,1,.12-.92.64.64,0,0,1,.89.09,3.31,3.31,0,0,0,.3.25,2.48,2.48,0,0,1,.63.62,1.89,1.89,0,0,1,0,1.92,4.14,4.14,0,0,1-1,1.18.63.63,0,0,1-.43.17" transform="translate(0 0)"/><path id="Path_2384" data-name="Path 2384" class="cls-3" d="M27.93,31.62A7.42,7.42,0,0,1,26,31.3.66.66,0,0,1,26.33,30a3.69,3.69,0,0,0,2.43.1.66.66,0,0,1,.58,1.18,3.15,3.15,0,0,1-1.42.3" transform="translate(0 0)"/><path id="Path_2385" data-name="Path 2385" class="cls-3" d="M30.2,22.76a.66.66,0,0,1-.36-.11A2.14,2.14,0,0,1,29,20.11a.66.66,0,0,1,.85-.37.65.65,0,0,1,.37.85.84.84,0,0,0,.31,1,.66.66,0,0,1,.19.91.65.65,0,0,1-.55.3" transform="translate(0 0)"/><path id="Path_2386" data-name="Path 2386" class="cls-3" d="M32.56,10.17a.51.51,0,0,1-.47-.34L32,9.38a.48.48,0,0,1,.29-.63.5.5,0,0,1,.63.29v0l.15.45a.51.51,0,0,1-.31.62h0a.45.45,0,0,1-.16,0" transform="translate(0 0)"/><path id="Path_2387" data-name="Path 2387" class="cls-3" d="M31.08,10.83a.51.51,0,0,1-.4-.2l-.54-.73a.49.49,0,0,1,.08-.69.48.48,0,0,1,.69.08l0,0,.54.73a.5.5,0,0,1-.1.69h0a.54.54,0,0,1-.3.1" transform="translate(0 0)"/><path id="Path_2388" data-name="Path 2388" class="cls-3" d="M30.36,12.81a.49.49,0,0,1-.49-.49.48.48,0,0,1,.27-.44l.72-.37a.48.48,0,0,1,.66.21.5.5,0,0,1-.21.67h0l-.73.37a.51.51,0,0,1-.22.05" transform="translate(0 0)"/><path id="Path_2389" data-name="Path 2389" class="cls-3" d="M33.39,12.37h0a2.25,2.25,0,0,1-1.27-.5.49.49,0,0,1,.62-.76,1.3,1.3,0,0,0,.71.28.49.49,0,0,1,.46.52.49.49,0,0,1-.49.46" transform="translate(0 0)"/><path id="Path_2390" data-name="Path 2390" class="cls-3" d="M32.09,14.31a.49.49,0,0,1-.5-.49.48.48,0,0,1,.14-.34l.36-.36a.48.48,0,0,1,.69,0,.49.49,0,0,1,0,.7l-.35.37a.52.52,0,0,1-.35.14" transform="translate(0 0)"/><path id="Path_2391" data-name="Path 2391" class="cls-3" d="M34.94,11.88a.53.53,0,0,1-.32-.12.49.49,0,0,1-.06-.69h0l.28-.33a.49.49,0,0,1,.75.63l-.27.33a.53.53,0,0,1-.38.18" transform="translate(0 0)"/><path id="Path_2392" data-name="Path 2392" class="cls-3" d="M36.19,13.15a1.24,1.24,0,0,1-.27,0,.49.49,0,0,1-.35-.6.49.49,0,0,1,.58-.36.12.12,0,0,0,.1,0,.49.49,0,0,1,.63.29.48.48,0,0,1-.28.63h0a1.16,1.16,0,0,1-.42.08" transform="translate(0 0)"/><path id="Path_2393" data-name="Path 2393" class="cls-3" d="M34.71,14.41a.48.48,0,0,1-.34-.14L34,13.92a.49.49,0,0,1,0-.7.5.5,0,0,1,.7,0h0l.36.35a.49.49,0,0,1,0,.7.51.51,0,0,1-.35.15" transform="translate(0 0)"/><path id="Path_2394" data-name="Path 2394" class="cls-3" d="M34,10.66a.49.49,0,0,1-.5-.49.4.4,0,0,1,0-.15l.21-.66a.49.49,0,0,1,.64-.29.5.5,0,0,1,.3.59l-.22.66a.48.48,0,0,1-.46.34" transform="translate(0 0)"/><path id="Path_2395" data-name="Path 2395" class="cls-3" d="M33.06,16a.48.48,0,0,1-.24-.06.49.49,0,0,1-.2-.67h0l.22-.39a.49.49,0,1,1,.86.48h0l-.21.39a.5.5,0,0,1-.43.25" transform="translate(0 0)"/><path id="Path_2396" data-name="Path 2396" class="cls-3" d="M29.21,14.6a.49.49,0,0,1-.5-.49.54.54,0,0,1,.05-.21.56.56,0,0,1,.43-.61.47.47,0,0,1,.56.35v0a1.22,1.22,0,0,1-.1.65.52.52,0,0,1-.45.29" transform="translate(0 0)"/><path id="Path_2397" data-name="Path 2397" class="cls-3" d="M30.81,15.67h-.12a.5.5,0,0,1-.36-.6l.1-.39a.5.5,0,0,1,.62-.33.49.49,0,0,1,.34.57l-.1.39a.49.49,0,0,1-.48.37" transform="translate(0 0)"/><path id="Path_2398" data-name="Path 2398" class="cls-3" d="M28.49,12.1a.5.5,0,0,1-.25-.92.18.18,0,0,0,.09-.13.49.49,0,0,1,.57-.37h0a.5.5,0,0,1,.37.59h0a1.14,1.14,0,0,1-.56.76.42.42,0,0,1-.24.07" transform="translate(0 0)"/><path id="Path_2399" data-name="Path 2399" class="cls-3" d="M29.76,8.9a.66.66,0,0,1-.66-.66.85.85,0,0,1,0-.22,10.15,10.15,0,0,1,2.5-4,.65.65,0,0,1,.93,0,.66.66,0,0,1,0,.93,8.76,8.76,0,0,0-2.14,3.44.66.66,0,0,1-.62.44" transform="translate(0 0)"/><path id="Path_2400" data-name="Path 2400" class="cls-3" d="M49.19,24.76a.52.52,0,0,1-.4-.21,1.83,1.83,0,0,1-.31-.84.51.51,0,0,1,.45-.54.49.49,0,0,1,.53.45.84.84,0,0,0,.14.37.49.49,0,0,1-.12.68h0a.47.47,0,0,1-.28.09" transform="translate(0 0)"/><path id="Path_2401" data-name="Path 2401" class="cls-3" d="M50.19,26.58a.5.5,0,0,1-.49-.5.49.49,0,0,1,.27-.44l.55-.27a.49.49,0,0,1,.65.25.48.48,0,0,1-.21.63l-.56.28a.5.5,0,0,1-.21,0" transform="translate(0 0)"/><path id="Path_2402" data-name="Path 2402" class="cls-3" d="M48.29,26.45a.43.43,0,0,1-.22-.06l-.17-.11a.49.49,0,0,1,.5-.84l.09,0a.52.52,0,0,1,.21.7.5.5,0,0,1-.41.26" transform="translate(0 0)"/><path id="Path_2403" data-name="Path 2403" class="cls-3" d="M47,24.54a.47.47,0,0,1-.17,0l-.44-.17a.49.49,0,0,1-.29-.63.5.5,0,0,1,.64-.29l.44.17a.49.49,0,0,1-.18.95" transform="translate(0 0)"/><path id="Path_2404" data-name="Path 2404" class="cls-3" d="M46.33,26.74a.45.45,0,0,1-.2,0,.49.49,0,0,1-.24-.66h0l.18-.38a.48.48,0,0,1,.64-.26A.49.49,0,0,1,47,26l0,0-.18.38a.49.49,0,0,1-.45.28" transform="translate(0 0)"/><path id="Path_2405" data-name="Path 2405" class="cls-3" d="M47.88,28h-.39a.49.49,0,1,1,0-1h.39a.49.49,0,0,1,0,1h0" transform="translate(0 0)"/><path id="Path_2406" data-name="Path 2406" class="cls-3" d="M50.52,29.47A.49.49,0,0,1,50,29a.51.51,0,0,1,.32-.46l.44-.16a.48.48,0,0,1,.63.28.49.49,0,0,1-.28.64h0l-.44.16a.33.33,0,0,1-.17,0" transform="translate(0 0)"/><path id="Path_2407" data-name="Path 2407" class="cls-3" d="M49.36,28a.54.54,0,0,1-.55-.49.46.46,0,0,1,.41-.49h.14a.49.49,0,1,1,0,1" transform="translate(0 0)"/><path id="Path_2408" data-name="Path 2408" class="cls-3" d="M49,30h-.06a.49.49,0,0,1-.43-.55h0a.52.52,0,0,1,.22-.68.48.48,0,0,1,.65.19h0a1,1,0,0,1,.1.6A.49.49,0,0,1,49,30" transform="translate(0 0)"/><path id="Path_2409" data-name="Path 2409" class="cls-3" d="M47.6,29.66h-.22a.49.49,0,1,1,0-1h.22a.49.49,0,0,1,0,1h0" transform="translate(0 0)"/><path id="Path_2410" data-name="Path 2410" class="cls-6" d="M14.51,22c-.4-.59-.62-1.29-1-1.86s-.89-.9-1.29-1.39A7.49,7.49,0,0,1,11,14.36a.69.69,0,0,1,.13-.59.79.79,0,0,1,.5-.14l3.87-.08c2.31,0,4.83,0,6.64,1.4a9.81,9.81,0,0,1,1.41,1.47,4.68,4.68,0,0,1,.84,1.24,4.88,4.88,0,0,1,0,2.6.37.37,0,0,1-.12.26.31.31,0,0,1-.21.05c-1,0-2.18-.25-3.09.28a5.92,5.92,0,0,0-1.33,1.36,17.31,17.31,0,0,0-1.19,1.38c-.38.55-.46.66-1.12.41A6,6,0,0,1,14.51,22" transform="translate(0 0)"/><path id="Path_2411" data-name="Path 2411" class="cls-3" d="M17.85,24.78a2.16,2.16,0,0,1-.75-.17A6.78,6.78,0,0,1,14,22.32a9.67,9.67,0,0,1-.53-.95,5.2,5.2,0,0,0-.5-.89,4.88,4.88,0,0,0-.62-.67,7.18,7.18,0,0,1-.65-.7A8.3,8.3,0,0,1,10.3,14.4a1.34,1.34,0,0,1,.33-1.1,1.36,1.36,0,0,1,.95-.33l3.86-.08c2.63-.05,5.14,0,7.07,1.55A10.53,10.53,0,0,1,24,16,5.32,5.32,0,0,1,25,17.43,5.34,5.34,0,0,1,25,20.37a1,1,0,0,1-.38.69,1.07,1.07,0,0,1-.58.18c-.31,0-.63,0-.94,0a3.4,3.4,0,0,0-1.84.21,3.35,3.35,0,0,0-.84.84l-.32.39-.42.45A7.64,7.64,0,0,0,19,24c-.34.48-.62.81-1.14.81M11.61,14.29v0a7,7,0,0,0,1.07,4,7.54,7.54,0,0,0,.55.58,7.48,7.48,0,0,1,.76.83,7.3,7.3,0,0,1,.62,1.09,7,7,0,0,0,.44.8,5.49,5.49,0,0,0,2.52,1.8l.17.06c.05-.06.1-.15.16-.23a9.28,9.28,0,0,1,.86-1l.39-.42c.1-.11.19-.23.29-.35a4.38,4.38,0,0,1,1.2-1.15,4.42,4.42,0,0,1,2.56-.38l.58,0a3.92,3.92,0,0,0,0-2A4.35,4.35,0,0,0,23,16.84a9.37,9.37,0,0,0-1.3-1.37c-1.59-1.25-3.85-1.31-6.22-1.26Z" transform="translate(0 0)"/><path id="Path_2412" data-name="Path 2412" class="cls-3" d="M20.06,19.31a.49.49,0,0,1-.49-.49.48.48,0,0,1,.31-.46,2.2,2.2,0,0,1,.71-.15h0a.49.49,0,1,1,0,1h0a1.8,1.8,0,0,0-.39.08.39.39,0,0,1-.18,0" transform="translate(0 0)"/><path id="Path_2413" data-name="Path 2413" class="cls-3" d="M19.12,20.48H19l-.6-.11a.5.5,0,0,1-.4-.58.48.48,0,0,1,.56-.39h0l.6.11a.49.49,0,0,1-.09,1" transform="translate(0 0)"/><path id="Path_2414" data-name="Path 2414" class="cls-3" d="M19,22.35h-.08a5.29,5.29,0,0,0-.8-.06h0a.49.49,0,0,1-.49-.49.5.5,0,0,1,.5-.5h0a5.86,5.86,0,0,1,.94.08.49.49,0,0,1,.41.56.5.5,0,0,1-.49.42" transform="translate(0 0)"/><path id="Path_2415" data-name="Path 2415" class="cls-3" d="M22.47,20.41H22.4a.49.49,0,0,1-.41-.56,3.19,3.19,0,0,1,.27-.91.5.5,0,0,1,.66-.23.49.49,0,0,1,.23.65A2.29,2.29,0,0,0,23,20a.5.5,0,0,1-.49.42" transform="translate(0 0)"/><path id="Path_2416" data-name="Path 2416" class="cls-3" d="M21,20.68a.5.5,0,0,1-.45-.28l-.16-.33a.49.49,0,0,1,.2-.66.48.48,0,0,1,.66.19l0,0,.17.34a.51.51,0,0,1-.23.66.54.54,0,0,1-.22.05" transform="translate(0 0)"/><path id="Path_2417" data-name="Path 2417" class="cls-6" d="M13.3,24.42a3.1,3.1,0,0,0-1.61,1.35c-.28.57-.27,1.25-.5,1.84-.37.9-1.27,1.5-1.57,2.42a.3.3,0,0,0,0,.3.27.27,0,0,0,.21.07,8.27,8.27,0,0,0,2.51-.8c1.63-.46,3.31.43,5,.59a5.86,5.86,0,0,0,2.95-.5.73.73,0,0,0,.32-.23.76.76,0,0,0,.08-.55,6.27,6.27,0,0,0-2.42-4.1,4.83,4.83,0,0,0-5-.38" transform="translate(0 0)"/><path id="Path_2418" data-name="Path 2418" class="cls-3" d="M9.93,31.06H9.82a.92.92,0,0,1-.68-.3A.9.9,0,0,1,9,29.83a4.59,4.59,0,0,1,.92-1.49,4,4,0,0,0,.66-1,3.74,3.74,0,0,0,.19-.73,4.47,4.47,0,0,1,.33-1.15A3.67,3.67,0,0,1,13,23.83a5.46,5.46,0,0,1,5.64.45,6.93,6.93,0,0,1,2.67,4.54,1.22,1.22,0,0,1-.78,1.46,6.47,6.47,0,0,1-3.28.56,12.25,12.25,0,0,1-1.88-.37,5.83,5.83,0,0,0-2.87-.24,5.85,5.85,0,0,0-.82.33,4.44,4.44,0,0,1-1.78.5m5.65-6.48a4.84,4.84,0,0,0-2,.45,2.44,2.44,0,0,0-1.29,1,3.31,3.31,0,0,0-.22.82,5.23,5.23,0,0,1-.26,1,5,5,0,0,1-.87,1.31l-.34.44c.19-.07.39-.16.59-.25a6.09,6.09,0,0,1,1-.39,6.76,6.76,0,0,1,3.54.23,12.3,12.3,0,0,0,1.69.33A5.13,5.13,0,0,0,20,29.09c0,.05,0,0,0-.1a5.57,5.57,0,0,0-2.17-3.66,3.7,3.7,0,0,0-2.29-.75" transform="translate(0 0)"/></g></g></g></g></g></svg>