<svg xmlns="http://www.w3.org/2000/svg" xmlns:xlink="http://www.w3.org/1999/xlink" viewBox="0 0 57.09 58.15"><defs><style>.cls-1{fill:none;}.cls-2{isolation:isolate;}.cls-3{fill:#004849;}.cls-4{clip-path:url(#clip-path);}.cls-5{fill:#2cdeb4;}.cls-6{fill:#fcfcfc;}</style><clipPath id="clip-path" transform="translate(0 0)"><rect class="cls-1" width="57.09" height="39.93"/></clipPath></defs><g id="Layer_2" data-name="Layer 2"><g id="Layer_1-2" data-name="Layer 1"><g id="nerolidol" class="cls-2"><g class="cls-2"><path class="cls-3" d="M9.16,53.25h1.1v.44a1.82,1.82,0,0,1,1.3-.57,1.64,1.64,0,0,1,1.29.53,2.1,2.1,0,0,1,.4,1.45V58h-1.1V55.35a1.77,1.77,0,0,0-.19-1,.8.8,0,0,0-.7-.27.84.84,0,0,0-.77.36,2.48,2.48,0,0,0-.23,1.25V58H9.16Z" transform="translate(0 0)"/><path class="cls-3" d="M19,55.89H15.56a1.42,1.42,0,0,0,.39.93,1.24,1.24,0,0,0,1.54.15,3,3,0,0,0,.6-.72l.93.52a4,4,0,0,1-.46.62,2.24,2.24,0,0,1-.51.43,2.06,2.06,0,0,1-.59.25,3,3,0,0,1-.69.08,2.23,2.23,0,0,1-1.71-.69,2.54,2.54,0,0,1-.64-1.82A2.64,2.64,0,0,1,15,53.81a2.16,2.16,0,0,1,1.67-.69,2.16,2.16,0,0,1,1.66.67A2.6,2.6,0,0,1,19,55.63ZM17.84,55a1.05,1.05,0,0,0-1.1-.88,1.16,1.16,0,0,0-.38.06,1.26,1.26,0,0,0-.32.18,1.12,1.12,0,0,0-.25.28,1.3,1.3,0,0,0-.15.36Z" transform="translate(0 0)"/><path class="cls-3" d="M20.17,53.25h1.1v.43a2.12,2.12,0,0,1,.54-.44,1.26,1.26,0,0,1,.57-.12,1.73,1.73,0,0,1,.9.29l-.5,1a1,1,0,0,0-.61-.22q-.9,0-.9,1.35V58h-1.1Z" transform="translate(0 0)"/><path class="cls-3" d="M23.6,55.6a2.36,2.36,0,0,1,.74-1.75,2.44,2.44,0,0,1,1.8-.73,2.5,2.5,0,0,1,1.8.73,2.56,2.56,0,0,1,0,3.58,2.54,2.54,0,0,1-1.82.72A2.49,2.49,0,0,1,23.6,55.6Zm1.12,0a1.6,1.6,0,0,0,.39,1.13,1.47,1.47,0,0,0,2.06,0,1.81,1.81,0,0,0,0-2.22,1.35,1.35,0,0,0-1-.42,1.31,1.31,0,0,0-1,.42A1.51,1.51,0,0,0,24.72,55.62Z" transform="translate(0 0)"/><path class="cls-3" d="M30.94,49.76V58h-1.1V49.76Z" transform="translate(0 0)"/><path class="cls-3" d="M32.16,51.28a.67.67,0,0,1,.21-.5.71.71,0,0,1,1,0,.67.67,0,0,1,.21.5.69.69,0,0,1-.21.51.66.66,0,0,1-.5.21.72.72,0,0,1-.72-.72Zm1.27,2V58h-1.1V53.25Z" transform="translate(0 0)"/><path class="cls-3" d="M38.32,49.76h1.11V58H38.32v-.5a2,2,0,0,1-1.47.64,2.08,2.08,0,0,1-1.62-.72,2.67,2.67,0,0,1-.64-1.81,2.61,2.61,0,0,1,.64-1.78,2.06,2.06,0,0,1,1.6-.72,2,2,0,0,1,1.49.69Zm-2.6,5.86a1.66,1.66,0,0,0,.36,1.11,1.21,1.21,0,0,0,1,.44,1.28,1.28,0,0,0,1-.42,1.84,1.84,0,0,0,0-2.21,1.28,1.28,0,0,0-1-.43,1.25,1.25,0,0,0-.95.43A1.59,1.59,0,0,0,35.72,55.62Z" transform="translate(0 0)"/><path class="cls-3" d="M40.59,55.6a2.32,2.32,0,0,1,.74-1.75,2.44,2.44,0,0,1,1.79-.73,2.52,2.52,0,0,1,1.81.73,2.42,2.42,0,0,1,.73,1.79,2.38,2.38,0,0,1-.74,1.79,2.5,2.5,0,0,1-1.82.72,2.41,2.41,0,0,1-1.79-.74A2.45,2.45,0,0,1,40.59,55.6Zm1.12,0a1.64,1.64,0,0,0,.38,1.13,1.35,1.35,0,0,0,1,.42,1.32,1.32,0,0,0,1-.42,1.77,1.77,0,0,0,0-2.22,1.46,1.46,0,0,0-2,0A1.55,1.55,0,0,0,41.71,55.62Z" transform="translate(0 0)"/><path class="cls-3" d="M47.92,49.76V58h-1.1V49.76Z" transform="translate(0 0)"/></g></g><g id="Group_2335" data-name="Group 2335"><g class="cls-4"><g id="Group_2334" data-name="Group 2334"><path id="Path_1982" data-name="Path 1982" class="cls-5" d="M8.32,18.94c-2.57-.15-5.2.46-7.69-.2-.06.31.25.56.52.72a14.11,14.11,0,0,0,3.9,1.85c.64.17,1.31.24,1.94.44s1.2.5,1.81.72a12.59,12.59,0,0,0,4.69.45c.5,0,1.1-.1,1.28-.55.27-.68-.61-1.41-.95-1.9s-.55-1-1.09-1.17a5.4,5.4,0,0,0-1.7-.1c-.91,0-1.8-.19-2.71-.25" transform="translate(0 0)"/><path id="Path_1983" data-name="Path 1983" class="cls-3" d="M12.2,23.57a10.58,10.58,0,0,1-3.62-.51c-.28-.1-.56-.22-.84-.34a7.69,7.69,0,0,0-.94-.38c-.35-.1-.71-.18-1.07-.25s-.56-.1-.84-.17A15,15,0,0,1,.83,20C0,19.51-.06,19,0,18.61L.16,18l.64.17a14.86,14.86,0,0,0,4.56.22,27.3,27.3,0,0,1,3,0h0l1.27.12c.47.06.95.11,1.43.13a3.61,3.61,0,0,0,.46,0,3.84,3.84,0,0,1,1.43.15,2.59,2.59,0,0,1,1.23,1.17l.15.24a3.54,3.54,0,0,0,.27.32c.43.52,1.1,1.3.75,2.16s-1.48.94-1.84.95l-1.3,0m-9.48-3.9a10.7,10.7,0,0,0,2.47,1l.77.16a10.1,10.1,0,0,1,1.21.28,9.9,9.9,0,0,1,1.07.42c.25.11.5.22.76.31a12.44,12.44,0,0,0,4.46.42c.64,0,.72-.16.72-.16.06-.17-.35-.66-.54-.89a2.88,2.88,0,0,1-.34-.43l-.18-.26c-.24-.37-.39-.59-.62-.68a2.78,2.78,0,0,0-.95-.07H11c-.51,0-1-.08-1.52-.14s-.8-.09-1.2-.11a24.78,24.78,0,0,0-2.86,0c-.89.05-1.8.09-2.7.06" transform="translate(0 0)"/><path id="Path_1984" data-name="Path 1984" class="cls-5" d="M42.35,10.94a10.7,10.7,0,0,0,3-1.17A9.45,9.45,0,0,0,47,8.84a10.32,10.32,0,0,0,1.53-1.57l1.75-2.11a5.68,5.68,0,0,1-.41,3.63c-.46,1.15-1.09,2.23-1.46,3.42a14.79,14.79,0,0,1-.6,1.85c-.17.36-.38.69-.53,1a6.61,6.61,0,0,0-.32,2.53.93.93,0,0,1-.17.67.85.85,0,0,1-.37.21,7,7,0,0,0-2,1c-.47.38-.86.86-1.29,1.27a7.29,7.29,0,0,1-1.78,1.24,1.86,1.86,0,0,1-.73.21,2.18,2.18,0,0,1-1-.37,3.31,3.31,0,0,1-1-.69,1,1,0,0,1-.21-1.15c.3-.51,1-.47,1.62-.49a8.46,8.46,0,0,0,3.45-1.16.55.55,0,0,0,.25-.2.49.49,0,0,0-.06-.44l-1.26-2.91a4.24,4.24,0,0,0-.55-1c-.47-.57-2-.86-2.05-1.69-.06-1.12,1.94-1.13,2.63-1.24" transform="translate(0 0)"/><path id="Path_1985" data-name="Path 1985" class="cls-3" d="M40.61,22.91a2.79,2.79,0,0,1-1.26-.4l-.2-.1a3.91,3.91,0,0,1-1.08-.76,1.66,1.66,0,0,1-.29-1.89,2.12,2.12,0,0,1,2-.8h.17a7.66,7.66,0,0,0,3-1l-1.22-2.82a3.81,3.81,0,0,0-.46-.84,2.75,2.75,0,0,0-.69-.43c-.65-.34-1.45-.76-1.5-1.63C39,10.69,41,10.48,41.88,10.37l.37,0A10.14,10.14,0,0,0,45.1,9.21a8.36,8.36,0,0,0,1.47-.87A9,9,0,0,0,48,6.86l2.51-3L50.83,5a6.18,6.18,0,0,1-.43,4c-.19.47-.4.93-.62,1.4a15.62,15.62,0,0,0-.83,2c-.06.19-.12.39-.17.59a8.44,8.44,0,0,1-.45,1.34c-.08.17-.17.33-.25.49a5.28,5.28,0,0,0-.27.53,5.94,5.94,0,0,0-.27,2.29,1.3,1.3,0,0,1-.94,1.46,7.21,7.21,0,0,0-1.8.95,10.09,10.09,0,0,0-.74.72c-.17.18-.33.35-.51.52a7.39,7.39,0,0,1-1.94,1.34,2.26,2.26,0,0,1-1,.28Zm1.84-11.35-.43,0c-1.13.12-1.69.3-1.67.53s.56.45.83.59a3.5,3.5,0,0,1,1.08.75,4.37,4.37,0,0,1,.63,1.14l1.27,2.91a1,1,0,0,1-.34,1.38l-.14.07A9.09,9.09,0,0,1,40,20.2h-.19c-.35,0-.82,0-.92.18a.45.45,0,0,0,.14.42,2.8,2.8,0,0,0,.74.49l.13.07c.31.17.51.34.74.29a1.25,1.25,0,0,0,.46-.15,6.51,6.51,0,0,0,1.62-1.12l.47-.48a9.66,9.66,0,0,1,.86-.83,7.69,7.69,0,0,1,2.13-1.14.52.52,0,0,0,.15-.07s0-.07,0-.22a6.86,6.86,0,0,1,.37-2.77,5.72,5.72,0,0,1,.32-.66,4.13,4.13,0,0,0,.22-.42,8.61,8.61,0,0,0,.38-1.15l.18-.63a18.06,18.06,0,0,1,.89-2.13c.21-.44.41-.88.59-1.33a6.82,6.82,0,0,0,.49-1.82L49,7.66a10.59,10.59,0,0,1-1.61,1.67,9.91,9.91,0,0,1-1.66,1,10.92,10.92,0,0,1-3.23,1.24" transform="translate(0 0)"/><path id="Path_1986" data-name="Path 1986" class="cls-5" d="M16.78,30.66c-.56.72-1.06,1.48-1.62,2.2-1.57,2-3.66,3.61-4.85,5.86a20.59,20.59,0,0,0,2.6-1.53,11,11,0,0,1,5.46-1.52c1.69,0,3.38.36,5.06.2a1.08,1.08,0,0,0,.81-.33,1,1,0,0,0,.16-.62c0-.88-.42-1.71-.5-2.58-.14-1.38.53-2.69,1-4a.47.47,0,0,0-.38-.73c-.81-.24-1.63-.46-2.45-.66a2,2,0,0,0-1.79.49,14.77,14.77,0,0,0-3.48,3.21" transform="translate(0 0)"/><path id="Path_1987" data-name="Path 1987" class="cls-3" d="M9,39.93l.8-1.51a18,18,0,0,1,3.06-3.88c.63-.67,1.29-1.35,1.85-2.07.28-.35.54-.71.79-1.07s.55-.76.84-1.13a15.59,15.59,0,0,1,3.63-3.34,2.5,2.5,0,0,1,2.28-.58c.83.2,1.66.43,2.48.67a1.25,1.25,0,0,1,.8.6,1.23,1.23,0,0,1,0,.94c-.09.27-.2.53-.3.8a6.52,6.52,0,0,0-.66,2.91,7.67,7.67,0,0,0,.22,1.06A6,6,0,0,1,25,34.91a1.57,1.57,0,0,1-.3,1,1.71,1.71,0,0,1-1.24.57,18.17,18.17,0,0,1-3-.08,18,18,0,0,0-2.07-.12,10.27,10.27,0,0,0-5.15,1.43c-.27.16-.54.33-.8.51a11.29,11.29,0,0,1-1.89,1.06ZM21.58,27.52c-.27,0-.48.13-.95.45a14,14,0,0,0-3.35,3.08c-.28.35-.54.71-.8,1.08s-.54.75-.83,1.11c-.6.77-1.27,1.47-1.92,2.16q-.63.65-1.2,1.29l.06,0A11.65,11.65,0,0,1,18.37,35c.73,0,1.48.06,2.19.13a15.51,15.51,0,0,0,2.81.08c.3,0,.37-.08.38-.09a1,1,0,0,0,0-.24,5.48,5.48,0,0,0-.24-1.27,8.82,8.82,0,0,1-.27-1.26A7.6,7.6,0,0,1,24,28.91c.09-.24.19-.47.27-.7-.79-.23-1.58-.45-2.37-.64a1.26,1.26,0,0,0-.33-.05" transform="translate(0 0)"/><path id="Path_1988" data-name="Path 1988" class="cls-5" d="M33.46,35.56A7.46,7.46,0,0,0,38.26,33c1.36.69,3.87,2.33,5.4,2.52a27.18,27.18,0,0,0,11-.43,8.86,8.86,0,0,0,1.63-.89A32.39,32.39,0,0,1,51,33.76a16.63,16.63,0,0,1-2.65-1l-3.73-1.69a7.51,7.51,0,0,1-1.66-.93A7.68,7.68,0,0,1,41.31,28c-.86-.05-1.48.75-2.15,1.29a4.14,4.14,0,0,1-3,.9c-.71-.07-1.51-.31-2.11.08a2.26,2.26,0,0,0-.53.54L32.06,32.7a9.49,9.49,0,0,1-1.8,1.89,4.16,4.16,0,0,1-.8.44c-.14,0-.69.1-.76.2-.34.41.82.39,1.06.4a16.36,16.36,0,0,0,3.7-.07" transform="translate(0 0)"/><path id="Path_1989" data-name="Path 1989" class="cls-3" d="M48.59,36.51a39.91,39.91,0,0,1-5-.35,14.7,14.7,0,0,1-4.39-1.92l-.79-.43a8.27,8.27,0,0,1-4.85,2.37h0a17,17,0,0,1-3.84.08c-.65,0-1.38,0-1.63-.59a.75.75,0,0,1,.13-.83,1.29,1.29,0,0,1,.85-.36l.19,0a2.7,2.7,0,0,0,.64-.36,8.5,8.5,0,0,0,1.68-1.76L33,30.45a2.34,2.34,0,0,1,2.77-.91l.43.06a3.55,3.55,0,0,0,2.53-.76l.41-.36a3,3,0,0,1,2.17-1.07.63.63,0,0,1,.5.3,6.77,6.77,0,0,0,1.47,1.93,6.88,6.88,0,0,0,1.52.85l3.73,1.68a15.43,15.43,0,0,0,2.55,1,15.25,15.25,0,0,0,3.37.35c.61,0,1.22,0,1.82.09a.63.63,0,0,1,.57.68.64.64,0,0,1-.32.49l-.44.27a5,5,0,0,1-1.34.68,23.52,23.52,0,0,1-6.19.8M38.26,32.4a.58.58,0,0,1,.28.07c.36.18.79.42,1.27.69a14.41,14.41,0,0,0,3.92,1.76,27.52,27.52,0,0,0,9.83-.19,13.56,13.56,0,0,1-2.76-.36,17.29,17.29,0,0,1-2.75-1l-3.73-1.69a8.32,8.32,0,0,1-1.79-1A7,7,0,0,1,41,28.7a3.17,3.17,0,0,0-1,.7c-.16.14-.31.28-.46.4a4.83,4.83,0,0,1-3.45,1l-.49-.07a1.89,1.89,0,0,0-1.22.05,1.8,1.8,0,0,0-.38.4l-1.47,1.87a9.75,9.75,0,0,1-1.88,2,13.44,13.44,0,0,0,2.69-.12,6.74,6.74,0,0,0,4.4-2.31.62.62,0,0,1,.49-.23" transform="translate(0 0)"/><path id="Path_1990" data-name="Path 1990" class="cls-6" d="M40.78,22.2a16.62,16.62,0,0,1,7.44-3.91,2.15,2.15,0,0,1,.62-.07A1.55,1.55,0,0,1,49.9,19a.35.35,0,0,1,.07.26c0,.1-.13.16-.22.2a6,6,0,0,0-2.06,1.75,20.56,20.56,0,0,1,2.21.29,7.32,7.32,0,0,1,1.5.43,11.28,11.28,0,0,1,1.91,1.3,14.42,14.42,0,0,0,2.9,1.68.36.36,0,0,1,.22.16.44.44,0,0,1,0,.23,4.41,4.41,0,0,1-2.61,3.25,8.79,8.79,0,0,1-4.27.59.69.69,0,0,0,.2.74,2.81,2.81,0,0,1,.52.62c.18.37.05.83.21,1.21.08.21.25.38.33.59a1.62,1.62,0,0,1-.32,1.33c-.15.24-.33.5-.6.54a.8.8,0,0,1-.43-.09l-2.5-1a13,13,0,0,1-2.86-1.37,13,13,0,0,1-2.9-3.21Z" transform="translate(0 0)"/><path id="Path_1991" data-name="Path 1991" class="cls-3" d="M49.85,34.77a1.74,1.74,0,0,1-.59-.13l-2.5-1a13.55,13.55,0,0,1-3-1.45,13.51,13.51,0,0,1-3.05-3.35l-.1-.14-.49-6.8.23-.2a17.14,17.14,0,0,1,7.72-4,2.83,2.83,0,0,1,.82-.09,2.12,2.12,0,0,1,1.53,1,1,1,0,0,1,.15.76,1,1,0,0,1-.53.6,5,5,0,0,0-1,.71c.34,0,.68.1,1,.16a6.84,6.84,0,0,1,1.64.48,8.12,8.12,0,0,1,1.64,1.07l.38.29a13.47,13.47,0,0,0,2.78,1.6,1,1,0,0,1,.54.46,1.06,1.06,0,0,1,.08.58,5,5,0,0,1-3,3.75,8.39,8.39,0,0,1-3.53.68,2.16,2.16,0,0,1,.29.43,2.13,2.13,0,0,1,.17.86,1.2,1.2,0,0,0,0,.38,1.62,1.62,0,0,0,.1.18,1.82,1.82,0,0,1,.24.43,2.19,2.19,0,0,1-.37,1.87,1.52,1.52,0,0,1-1.06.84h-.14m-8-6.48a12.29,12.29,0,0,0,2.65,2.92,12.81,12.81,0,0,0,2.72,1.3l2.5,1,.14.05s0-.08.13-.23.35-.6.27-.8a1.14,1.14,0,0,0-.1-.19,1.87,1.87,0,0,1-.22-.39,2.45,2.45,0,0,1-.14-.8,1.2,1.2,0,0,0-.05-.38,1.13,1.13,0,0,0-.23-.26l-.2-.21A1.31,1.31,0,0,1,49,28.83l.18-.38.43,0a8,8,0,0,0,4-.53,3.84,3.84,0,0,0,2.22-2.57,14.76,14.76,0,0,1-2.87-1.68l-.4-.3a7.44,7.44,0,0,0-1.39-.92,6.58,6.58,0,0,0-1.36-.39c-.71-.13-1.42-.22-2.14-.28l-1.13-.08.68-.91a6.54,6.54,0,0,1,2-1.77.67.67,0,0,0-.38-.2,1,1,0,0,0-.42.06,15.91,15.91,0,0,0-6.94,3.55Z" transform="translate(0 0)"/><path id="Path_1992" data-name="Path 1992" class="cls-6" d="M23.53,19.33c-.4-.77.11-1.73-.15-2.55a3.26,3.26,0,0,0-.83-1.15c-1.5-1.56-2.7-3.69-2.29-5.81q.15-.59.24-1.17a6.58,6.58,0,0,0-.56-2.43,10,10,0,0,1-.49-3.76.58.58,0,0,1,.05-.26c.12-.26.47-.28.76-.27l2,.09a6.2,6.2,0,0,1,1.91.3c.23.09.44.21.67.28.45.14.94.1,1.39.25a3.31,3.31,0,0,1,1.09.71l1.83,1.58a.51.51,0,0,0,.26.14.48.48,0,0,0,.32-.15c1.2-1,2.14-2.56,3.69-3,.72-.19,1.5-.1,2.22-.3S37.2,1,38,.71a1,1,0,0,1,.53-.07.91.91,0,0,1,.57,1c0,.4-.17.79-.18,1.2,0,1.11,1,2,1.16,3.07a4.25,4.25,0,0,1-.65,2.53,6.1,6.1,0,0,1-2.18,2.81,6.55,6.55,0,0,0,2.28,1.46,7.74,7.74,0,0,1,1.86.76,2.77,2.77,0,0,1,1.09,1.68,10.76,10.76,0,0,0,.31,1.58c.25.63.83,1.13,1,1.8a.39.39,0,0,1-.1.43.52.52,0,0,1-.37,0c-1.47-.18-2.82,1.1-4.3.95a1.12,1.12,0,0,1-.5-.15Z" transform="translate(0 0)"/><path id="Path_1993" data-name="Path 1993" class="cls-3" d="M39.28,20.53l-.3,0a1.82,1.82,0,0,1-.61-.15l-15.22-.42L23,19.61a2.87,2.87,0,0,1-.19-1.71,2.43,2.43,0,0,0,0-.93,2.55,2.55,0,0,0-.62-.83C21,14.88,19.11,12.47,19.65,9.7a3.48,3.48,0,0,1,.1-.44,3.5,3.5,0,0,0,.12-.66,4.29,4.29,0,0,0-.37-1.72l-.16-.46a10.86,10.86,0,0,1-.52-4,1.38,1.38,0,0,1,.1-.49,1.28,1.28,0,0,1,1.36-.63l2,.09a6.64,6.64,0,0,1,2.12.35l.27.12L25,2a2.62,2.62,0,0,0,.56.09,4.62,4.62,0,0,1,.84.16,3.88,3.88,0,0,1,1.3.84l1.7,1.46c.32-.29.6-.58.88-.87a6.4,6.4,0,0,1,2.95-2.12,6.94,6.94,0,0,1,1.2-.17,4.9,4.9,0,0,0,1-.13A5.37,5.37,0,0,0,36.62.71a6.72,6.72,0,0,1,1.2-.6A1.56,1.56,0,0,1,38.7,0a1.5,1.5,0,0,1,1.07,1.59,5.62,5.62,0,0,1-.1.7,2.64,2.64,0,0,0-.08.49,2.83,2.83,0,0,0,.51,1.37,5.33,5.33,0,0,1,.65,1.58A5,5,0,0,1,40,8.67a8.17,8.17,0,0,1-1.74,2.57,5.8,5.8,0,0,0,1.5.83l.5.17a5.69,5.69,0,0,1,1.49.66A3.43,3.43,0,0,1,43.13,15c0,.22.08.44.11.67a3.77,3.77,0,0,0,.17.81,3.86,3.86,0,0,0,.39.65,3.85,3.85,0,0,1,.62,1.25,1,1,0,0,1-.35,1.08,1.05,1.05,0,0,1-.79.14A4,4,0,0,0,41.4,20a5.71,5.71,0,0,1-2.11.53M24,18.71l14.74.4.15.1a.5.5,0,0,0,.21.05,4,4,0,0,0,1.83-.44,5.66,5.66,0,0,1,2.1-.53h0c-.1-.18-.2-.34-.31-.5a4.7,4.7,0,0,1-.52-.89A4.76,4.76,0,0,1,42,15.78a5.25,5.25,0,0,0-.09-.55,2.16,2.16,0,0,0-.84-1.3,4.12,4.12,0,0,0-1.16-.5l-.55-.19a7.13,7.13,0,0,1-2.51-1.6l-.59-.59.73-.4A5.65,5.65,0,0,0,38.91,8.1,3.77,3.77,0,0,0,39.51,6,3.82,3.82,0,0,0,39,4.79a3.86,3.86,0,0,1-.67-2,4.45,4.45,0,0,1,.1-.72,2.67,2.67,0,0,0,.08-.48.49.49,0,0,0-.09-.33.52.52,0,0,0-.18.06,5.49,5.49,0,0,0-1,.5,6.37,6.37,0,0,1-1.45.67,6.61,6.61,0,0,1-1.25.18,5.36,5.36,0,0,0-1,.12A5.59,5.59,0,0,0,31.2,4.54c-.35.37-.7.74-1.07,1.06a1,1,0,0,1-1.36.05l0,0L26.91,4a3,3,0,0,0-.88-.6,3.83,3.83,0,0,0-.59-.1,4.12,4.12,0,0,1-.78-.14,3.07,3.07,0,0,1-.5-.2l-.22-.1a5.86,5.86,0,0,0-1.71-.26l-1.92-.09h-.25A9.71,9.71,0,0,0,20.53,6l.15.45a5.48,5.48,0,0,1,.44,2.23,5,5,0,0,1-.16.86l-.09.38c-.44,2.3,1.34,4.44,2.13,5.26a3.67,3.67,0,0,1,1,1.39A3.5,3.5,0,0,1,24,18a3.11,3.11,0,0,0,0,.68" transform="translate(0 0)"/><path id="Path_1994" data-name="Path 1994" class="cls-6" d="M29.9,17.6c1.18-1,2.67-1.67,3.54-3a3.29,3.29,0,0,0,1.92,2.68c1,.5,2.29.72,2.85,1.7a3.31,3.31,0,0,1,.09,2.34c1.34-.1,2.37,1.15,2.94,2.37s1,2.6,2.09,3.37c-.4.34-1,.2-1.52.42a2.62,2.62,0,0,0-1,1.13,5.25,5.25,0,0,1-2.65,2.2,4,4,0,0,1-3.38-.32l-3,3.4A5.75,5.75,0,0,1,30,35.46c-1.07.48-2.46.33-3.25,1.2a3.16,3.16,0,0,1-.38.44,1.23,1.23,0,0,1-1.37.13,1.63,1.63,0,0,1-.78-1.2c-.05-.35,0-.72-.06-1.07-.08-.51-.38-1-.45-1.48a2.91,2.91,0,0,1,.17-1.31,8.76,8.76,0,0,1,1.5-2.85c-.72,0-1.33-.48-2-.73a9.52,9.52,0,0,0-1.2-.28,3.89,3.89,0,0,1-2.88-2c-.29-.66-.32-1.47-.84-2-.27-.27-.67-.42-.88-.75a1.2,1.2,0,0,1,0-1.16,3.47,3.47,0,0,1,.8-.91,6.41,6.41,0,0,1,3.33-1.93c1-.1,2,.25,2.94.14a17.29,17.29,0,0,0,1.72-.43c.58-.13,1.47.27,1.85.08s.56-.68.77-.9a9.88,9.88,0,0,1,.92-.91" transform="translate(0 0)"/><path id="Path_1995" data-name="Path 1995" class="cls-3" d="M25.57,38a1.86,1.86,0,0,1-.92-.24,2.24,2.24,0,0,1-1.09-1.65q0-.3,0-.6a3.4,3.4,0,0,0,0-.45,2.54,2.54,0,0,0-.19-.61,4.55,4.55,0,0,1-.26-.89A3.55,3.55,0,0,1,23.24,32a10.05,10.05,0,0,1,1-2.26c-.2-.08-.39-.18-.57-.27a6.28,6.28,0,0,0-.59-.27,4.13,4.13,0,0,0-.77-.19L22,28.92a4.46,4.46,0,0,1-3.33-2.35,6.64,6.64,0,0,1-.26-.79,2.18,2.18,0,0,0-.43-1,1.94,1.94,0,0,0-.29-.21A2.34,2.34,0,0,1,17,24a1.79,1.79,0,0,1,0-1.79A4,4,0,0,1,18,21.09,7,7,0,0,1,21.63,19a6.61,6.61,0,0,1,1.6.07,5.4,5.4,0,0,0,1.33.07,5.75,5.75,0,0,0,.93-.23c.25-.07.49-.14.73-.19a3.27,3.27,0,0,1,1.21.05,2.48,2.48,0,0,0,.54.06l.26-.38c.09-.13.18-.25.28-.37a11.22,11.22,0,0,1,1-1,16,16,0,0,1,1.34-1,7.6,7.6,0,0,0,2.08-1.83.63.63,0,0,1,1.15.33,2.66,2.66,0,0,0,1.58,2.14c.26.13.54.24.82.35a4.11,4.11,0,0,1,2.29,1.6A3.15,3.15,0,0,1,39,20.81a4.46,4.46,0,0,1,2.77,2.66c.11.24.22.48.32.72a5.45,5.45,0,0,0,1.56,2.4.62.62,0,0,1,.16.87.43.43,0,0,1-.11.12,2.09,2.09,0,0,1-1.18.42,1.71,1.71,0,0,0-.49.1,1.78,1.78,0,0,0-.59.71l-.12.18a5.79,5.79,0,0,1-3,2.46,4.68,4.68,0,0,1-3.45-.13l-2.7,3a6.52,6.52,0,0,1-2,1.68,7.34,7.34,0,0,1-1.44.4,2.83,2.83,0,0,0-1.6.64l-.12.14a2,2,0,0,1-.31.35,1.74,1.74,0,0,1-1.19.44m-.23-9.31a.62.62,0,0,1,.49,1,8.33,8.33,0,0,0-1.4,2.65,2.41,2.41,0,0,0-.14,1,2.54,2.54,0,0,0,.19.61,4.47,4.47,0,0,1,.26.86,4.82,4.82,0,0,1,0,.65,2.16,2.16,0,0,0,0,.44,1,1,0,0,0,.46.73.59.59,0,0,0,.66,0,1.46,1.46,0,0,0,.16-.19c.06-.07.11-.14.17-.2a3.92,3.92,0,0,1,2.29-1,5.34,5.34,0,0,0,1.17-.32,5,5,0,0,0,1.59-1.38l3-3.4a.64.64,0,0,1,.8-.11,3.4,3.4,0,0,0,2.85.26,4.54,4.54,0,0,0,2.32-1.93l.11-.18A2.73,2.73,0,0,1,41.55,27a1.86,1.86,0,0,1,.57-.16A9.57,9.57,0,0,1,41,24.69l-.3-.69c-.23-.49-1.08-2.08-2.33-2a.64.64,0,0,1-.52-.22.59.59,0,0,1-.13-.54,2.82,2.82,0,0,0,0-1.9,3,3,0,0,0-1.65-1c-.32-.13-.64-.25-.94-.4A4.29,4.29,0,0,1,33.14,16a14.39,14.39,0,0,1-1.59,1.2,13.7,13.7,0,0,0-1.24.92,8.73,8.73,0,0,0-.87.85,2.07,2.07,0,0,0-.19.25,2.33,2.33,0,0,1-.77.79,2,2,0,0,1-1.26,0,2.26,2.26,0,0,0-.73-.06c-.21,0-.43.11-.64.17a7.27,7.27,0,0,1-1.14.27,6.92,6.92,0,0,1-1.64-.07,5.73,5.73,0,0,0-1.31-.07,5.76,5.76,0,0,0-3,1.77,2.92,2.92,0,0,0-.67.73.58.58,0,0,0-.05.53,1.3,1.3,0,0,0,.34.28,3.87,3.87,0,0,1,.45.35,3.17,3.17,0,0,1,.76,1.53c.06.21.13.43.21.63a3.43,3.43,0,0,0,2.44,1.63l.31.06a5.61,5.61,0,0,1,1,.24,6.74,6.74,0,0,1,.72.34,2.48,2.48,0,0,0,1,.35h0" transform="translate(0 0)"/><path id="Path_1996" data-name="Path 1996" class="cls-3" d="M34.11,22.79h-.58a.47.47,0,1,1,0-.93h.58a.47.47,0,1,1,0,.93" transform="translate(0 0)"/><path id="Path_1997" data-name="Path 1997" class="cls-3" d="M33,25.78a.47.47,0,0,1-.12-.92l.58-.16a.47.47,0,0,1,.56.36.47.47,0,0,1-.32.55l-.58.15-.12,0" transform="translate(0 0)"/><path id="Path_1998" data-name="Path 1998" class="cls-3" d="M30.44,23.74H30a.49.49,0,0,1-.5-.45.47.47,0,0,1,.45-.49h.52a.48.48,0,0,1,.49.45.47.47,0,0,1-.45.49h0" transform="translate(0 0)"/><path id="Path_1999" data-name="Path 1999" class="cls-3" d="M29.33,25.57a.47.47,0,0,1-.16-.9,3.26,3.26,0,0,1,.86-.2.45.45,0,0,1,.5.39v.05a.47.47,0,0,1-.43.5,2.08,2.08,0,0,0-.6.13.47.47,0,0,1-.17,0" transform="translate(0 0)"/><path id="Path_2000" data-name="Path 2000" class="cls-3" d="M30.6,27.36a.45.45,0,0,1-.46-.47.46.46,0,0,1,.36-.45l.42-.1a.46.46,0,0,1,.56.34h0a.47.47,0,0,1-.35.56l-.42.1h-.1" transform="translate(0 0)"/><path id="Path_2001" data-name="Path 2001" class="cls-3" d="M31.54,24.89a.45.45,0,0,1-.47-.46.43.43,0,0,1,.07-.25l.3-.49a.48.48,0,0,1,.65-.15.47.47,0,0,1,.15.65h0l-.3.49a.46.46,0,0,1-.4.22" transform="translate(0 0)"/><path id="Path_2002" data-name="Path 2002" class="cls-3" d="M33.79,24.15a.47.47,0,0,1-.11-.92,2.23,2.23,0,0,1,.85-.06.48.48,0,0,1,.41.53.47.47,0,0,1-.51.41h0a1.31,1.31,0,0,0-.52,0h-.11" transform="translate(0 0)"/><path id="Path_2003" data-name="Path 2003" class="cls-3" d="M34.37,26.84a.47.47,0,0,1-.47-.47.47.47,0,0,1,.24-.41,1.21,1.21,0,0,0,.42-.39.47.47,0,0,1,.77.53,2.1,2.1,0,0,1-.72.67.48.48,0,0,1-.24.07" transform="translate(0 0)"/><path id="Path_2004" data-name="Path 2004" class="cls-3" d="M32.81,28.3a.48.48,0,0,1-.47-.42l-.06-.58a.48.48,0,0,1,.42-.51h0a.46.46,0,0,1,.51.41h0l.06.57a.46.46,0,0,1-.41.52h0" transform="translate(0 0)"/><path id="Path_2005" data-name="Path 2005" class="cls-3" d="M31.22,28.93H30.8a.47.47,0,0,1-.49-.45.48.48,0,0,1,.45-.49h.46a.47.47,0,0,1,0,.94h0" transform="translate(0 0)"/><path id="Path_2006" data-name="Path 2006" class="cls-3" d="M29.17,28.56a.46.46,0,0,1-.45-.38,1.79,1.79,0,0,0-.16-.44.47.47,0,1,1,.82-.44,2.23,2.23,0,0,1,.25.71.46.46,0,0,1-.36.54h-.1" transform="translate(0 0)"/><path id="Path_2007" data-name="Path 2007" class="cls-3" d="M27.6,27a.47.47,0,0,1-.47-.47.46.46,0,0,1,.11-.3l.49-.57a.47.47,0,0,1,.74.58l0,0-.48.56a.46.46,0,0,1-.36.17" transform="translate(0 0)"/><path id="Path_2008" data-name="Path 2008" class="cls-3" d="M28.32,24.48a.49.49,0,0,1-.44-.3l-.35-.9a.47.47,0,0,1,.27-.61.45.45,0,0,1,.6.26h0l.36.9a.48.48,0,0,1-.27.61.47.47,0,0,1-.17,0" transform="translate(0 0)"/><path id="Path_2009" data-name="Path 2009" class="cls-3" d="M30.94,22.17a.47.47,0,0,1-.12-.93,2.35,2.35,0,0,1,.7-.07.47.47,0,0,1,0,.93,1.61,1.61,0,0,0-.44,0l-.12,0" transform="translate(0 0)"/><path id="Path_2010" data-name="Path 2010" class="cls-3" d="M34.45,31.58a.63.63,0,0,1-.62-.63.61.61,0,0,1,.21-.47,2.9,2.9,0,0,0,.68-.76.61.61,0,0,0,.05-.57,1.27,1.27,0,0,0-.3-.27,2.68,2.68,0,0,1-.5-.45.62.62,0,1,1,1-.8,1.68,1.68,0,0,0,.29.24,2.36,2.36,0,0,1,.59.59,1.82,1.82,0,0,1,0,1.83,4.19,4.19,0,0,1-1,1.13.64.64,0,0,1-.42.15" transform="translate(0 0)"/><path id="Path_2011" data-name="Path 2011" class="cls-3" d="M26.6,30.11a7.52,7.52,0,0,1-1.83-.29.62.62,0,1,1,.31-1.21,3.55,3.55,0,0,0,2.32.1.63.63,0,0,1,.84.29.62.62,0,0,1-.29.83,3,3,0,0,1-1.35.29" transform="translate(0 0)"/><path id="Path_2012" data-name="Path 2012" class="cls-3" d="M28.76,21.68a.67.67,0,0,1-.34-.1,2,2,0,0,1-.77-2.43.62.62,0,1,1,1.17.43v0a.8.8,0,0,0,.29.92.63.63,0,0,1-.34,1.15" transform="translate(0 0)"/><path id="Path_2013" data-name="Path 2013" class="cls-3" d="M31,9.68a.46.46,0,0,1-.44-.32l-.15-.43a.47.47,0,0,1,.89-.3l.14.43a.46.46,0,0,1-.29.59h0a.32.32,0,0,1-.14,0" transform="translate(0 0)"/><path id="Path_2014" data-name="Path 2014" class="cls-3" d="M29.59,10.31a.47.47,0,0,1-.37-.19l-.52-.69a.47.47,0,0,1,.13-.65.48.48,0,0,1,.62.09l.52.69a.48.48,0,0,1-.1.66.47.47,0,0,1-.28.09" transform="translate(0 0)"/><path id="Path_2015" data-name="Path 2015" class="cls-3" d="M28.92,12.2a.47.47,0,0,1-.47-.47.49.49,0,0,1,.25-.42l.69-.35a.49.49,0,0,1,.64.19.48.48,0,0,1-.2.64h0l-.69.35a.54.54,0,0,1-.21,0" transform="translate(0 0)"/><path id="Path_2016" data-name="Path 2016" class="cls-3" d="M31.8,11.78h0a2.14,2.14,0,0,1-1.21-.47.47.47,0,1,1,.59-.73,1.15,1.15,0,0,0,.68.26.47.47,0,0,1,.45.49.46.46,0,0,1-.48.45h0" transform="translate(0 0)"/><path id="Path_2017" data-name="Path 2017" class="cls-3" d="M30.56,13.63a.47.47,0,0,1-.47-.46.43.43,0,0,1,.13-.34l.34-.34a.47.47,0,1,1,.69.63l0,0-.34.35a.47.47,0,0,1-.33.14" transform="translate(0 0)"/><path id="Path_2018" data-name="Path 2018" class="cls-3" d="M33.27,11.31a.47.47,0,0,1-.36-.77h0l.26-.31a.47.47,0,1,1,.76.54l0,.06-.26.31a.49.49,0,0,1-.36.17" transform="translate(0 0)"/><path id="Path_2019" data-name="Path 2019" class="cls-3" d="M34.47,12.52a1.09,1.09,0,0,1-.26,0,.47.47,0,0,1-.35-.56.47.47,0,0,1,.57-.35h0a.12.12,0,0,0,.1,0,.48.48,0,0,1,.61.27.48.48,0,0,1-.26.61h0a1.09,1.09,0,0,1-.4.07" transform="translate(0 0)"/><path id="Path_2020" data-name="Path 2020" class="cls-3" d="M33.06,13.72a.44.44,0,0,1-.33-.13l-.35-.33a.47.47,0,0,1,0-.67.46.46,0,0,1,.66,0h0l.35.34a.46.46,0,0,1,0,.66.45.45,0,0,1-.33.14" transform="translate(0 0)"/><path id="Path_2021" data-name="Path 2021" class="cls-3" d="M32.39,10.15a.26.26,0,0,1-.15,0,.47.47,0,0,1-.3-.59h0l.2-.63A.47.47,0,1,1,33,9.2l-.2.63a.45.45,0,0,1-.44.32" transform="translate(0 0)"/><path id="Path_2022" data-name="Path 2022" class="cls-3" d="M31.48,15.24a.4.4,0,0,1-.22-.06.48.48,0,0,1-.19-.64h0l.2-.37a.47.47,0,0,1,.82.46l-.2.37a.46.46,0,0,1-.41.24" transform="translate(0 0)"/><path id="Path_2023" data-name="Path 2023" class="cls-3" d="M27.82,13.9a.45.45,0,0,1-.2,0,.47.47,0,0,1-.23-.62.54.54,0,0,1,.41-.58.43.43,0,0,1,.53.33h0a1.09,1.09,0,0,1-.09.62.46.46,0,0,1-.42.28" transform="translate(0 0)"/><path id="Path_2024" data-name="Path 2024" class="cls-3" d="M29.34,14.93l-.11,0a.46.46,0,0,1-.34-.57h0L29,14a.47.47,0,0,1,.57-.34.45.45,0,0,1,.34.56v0l-.09.36a.48.48,0,0,1-.46.36" transform="translate(0 0)"/><path id="Path_2025" data-name="Path 2025" class="cls-3" d="M27.13,11.52a.47.47,0,0,1-.47-.47.46.46,0,0,1,.24-.4.27.27,0,0,0,.09-.12.46.46,0,0,1,.54-.36h0a.47.47,0,0,1,.35.57,1.15,1.15,0,0,1-.54.72.46.46,0,0,1-.23.06" transform="translate(0 0)"/><path id="Path_2026" data-name="Path 2026" class="cls-3" d="M28.34,8.47a.76.76,0,0,1-.21,0,.64.64,0,0,1-.38-.8h0a9.6,9.6,0,0,1,2.39-3.79.63.63,0,0,1,.88,0,.64.64,0,0,1,0,.89h0a8.4,8.4,0,0,0-2.05,3.28.63.63,0,0,1-.59.41" transform="translate(0 0)"/><path id="Path_2027" data-name="Path 2027" class="cls-3" d="M46.85,23.58a.46.46,0,0,1-.38-.2,1.66,1.66,0,0,1-.3-.8.46.46,0,0,1,.4-.53.48.48,0,0,1,.53.4v0a.71.71,0,0,0,.13.35.48.48,0,0,1-.11.66.53.53,0,0,1-.27.08" transform="translate(0 0)"/><path id="Path_2028" data-name="Path 2028" class="cls-3" d="M47.8,25.31a.47.47,0,0,1-.21-.89l.53-.26a.46.46,0,0,1,.63.19.47.47,0,0,1-.18.64h0l-.53.26a.46.46,0,0,1-.2,0" transform="translate(0 0)"/><path id="Path_2029" data-name="Path 2029" class="cls-3" d="M46,25.19a.42.42,0,0,1-.21-.06l-.16-.1a.47.47,0,0,1,.48-.81l.08.05a.52.52,0,0,1,.2.67.45.45,0,0,1-.39.24" transform="translate(0 0)"/><path id="Path_2030" data-name="Path 2030" class="cls-3" d="M44.72,23.37a.47.47,0,0,1-.17,0l-.42-.16a.47.47,0,0,1,.33-.87l.42.16a.47.47,0,0,1-.16.9" transform="translate(0 0)"/><path id="Path_2031" data-name="Path 2031" class="cls-3" d="M44.13,25.47a.48.48,0,0,1-.43-.67h0l.17-.36a.46.46,0,0,1,.62-.23.47.47,0,0,1,.23.63l-.17.36a.48.48,0,0,1-.43.27" transform="translate(0 0)"/><path id="Path_2032" data-name="Path 2032" class="cls-3" d="M45.6,26.62h-.37a.47.47,0,0,1-.49-.44.49.49,0,0,1,.45-.5h.41a.47.47,0,1,1,0,.94h0" transform="translate(0 0)"/><path id="Path_2033" data-name="Path 2033" class="cls-3" d="M48.12,28.06a.47.47,0,0,1-.47-.47.46.46,0,0,1,.3-.43l.42-.16a.47.47,0,0,1,.33.88h0l-.42.15a.47.47,0,0,1-.17,0" transform="translate(0 0)"/><path id="Path_2034" data-name="Path 2034" class="cls-3" d="M47,26.62a.51.51,0,0,1-.52-.47.42.42,0,0,1,.38-.46H47a.47.47,0,1,1,0,.94h0" transform="translate(0 0)"/><path id="Path_2035" data-name="Path 2035" class="cls-3" d="M46.64,28.56h-.06a.46.46,0,0,1-.41-.52h0a.5.5,0,0,1,.21-.65.46.46,0,0,1,.62.18h0a1.15,1.15,0,0,1,.1.58.47.47,0,0,1-.47.41" transform="translate(0 0)"/><path id="Path_2036" data-name="Path 2036" class="cls-3" d="M45.33,28.25h-.21a.47.47,0,0,1,0-.94h.21a.47.47,0,1,1,0,.94" transform="translate(0 0)"/><path id="Path_2037" data-name="Path 2037" class="cls-6" d="M13.82,20.91c-.38-.57-.6-1.23-1-1.77s-.86-.86-1.23-1.33a7.22,7.22,0,0,1-1.16-4.14.72.72,0,0,1,.12-.55A.76.76,0,0,1,11,13l3.68-.07c2.2-.05,4.6,0,6.33,1.33a9.86,9.86,0,0,1,1.34,1.4,4.36,4.36,0,0,1,.8,1.19,4.6,4.6,0,0,1,0,2.47.42.42,0,0,1-.12.25.46.46,0,0,1-.2.05c-1,0-2.07-.24-2.94.25a5.75,5.75,0,0,0-1.26,1.3,14.18,14.18,0,0,0-1.14,1.32c-.36.52-.44.63-1.06.39a5.79,5.79,0,0,1-2.7-1.95" transform="translate(0 0)"/><path id="Path_2038" data-name="Path 2038" class="cls-3" d="M17,23.6a2,2,0,0,1-.72-.16,6.48,6.48,0,0,1-3-2.18,6.73,6.73,0,0,1-.5-.91,6.3,6.3,0,0,0-.48-.84,6,6,0,0,0-.59-.64c-.22-.21-.43-.44-.63-.67a7.94,7.94,0,0,1-1.29-4.49,1.11,1.11,0,0,1,.84-1.33.93.93,0,0,1,.37,0l3.69-.08c2.5,0,4.9,0,6.72,1.47a10.08,10.08,0,0,1,1.44,1.48,5.19,5.19,0,0,1,.9,1.36,5.26,5.26,0,0,1,.08,2.81,1,1,0,0,1-.37.65,1,1,0,0,1-.55.17c-.3,0-.6,0-.9,0a3.28,3.28,0,0,0-1.75.21,3.16,3.16,0,0,0-.8.79l-.3.38-.4.43a6.75,6.75,0,0,0-.7.82c-.33.46-.59.78-1.09.78m-5.93-10v0a6.65,6.65,0,0,0,1,3.79c.17.19.35.38.53.56a6.66,6.66,0,0,1,.72.78,6.31,6.31,0,0,1,.59,1c.13.26.27.51.42.76a5.27,5.27,0,0,0,2.4,1.71l.17.06.15-.21a8.41,8.41,0,0,1,.82-1c.12-.13.24-.27.37-.4l.27-.34a4.3,4.3,0,0,1,1.15-1.1A4.27,4.27,0,0,1,22.1,19l.55,0a3.64,3.64,0,0,0,0-1.91,3.78,3.78,0,0,0-.7-1,8.54,8.54,0,0,0-1.25-1.3c-1.51-1.19-3.67-1.25-5.92-1.2Z" transform="translate(0 0)"/><path id="Path_2039" data-name="Path 2039" class="cls-3" d="M19.11,18.39a.47.47,0,0,1-.46-.48.46.46,0,0,1,.29-.42,1.91,1.91,0,0,1,.67-.14h0a.46.46,0,0,1,.46.47.47.47,0,0,1-.44.46,1.17,1.17,0,0,0-.37.08.51.51,0,0,1-.17,0" transform="translate(0 0)"/><path id="Path_2040" data-name="Path 2040" class="cls-3" d="M18.21,19.5h-.08l-.58-.11a.45.45,0,0,1-.37-.54h0a.46.46,0,0,1,.53-.38h0l.58.11a.47.47,0,0,1,.37.55.46.46,0,0,1-.46.38" transform="translate(0 0)"/><path id="Path_2041" data-name="Path 2041" class="cls-3" d="M18.06,21.28H18a4.77,4.77,0,0,0-.76-.06h0a.47.47,0,0,1-.47-.47.48.48,0,0,1,.48-.47h0a5.26,5.26,0,0,1,.89.07.47.47,0,0,1-.07.93" transform="translate(0 0)"/><path id="Path_2042" data-name="Path 2042" class="cls-3" d="M21.4,19.43a.09.09,0,0,1-.07,0,.45.45,0,0,1-.39-.53A2.86,2.86,0,0,1,21.2,18a.47.47,0,0,1,.87.35s0,0,0,.05a2.1,2.1,0,0,0-.19.6.46.46,0,0,1-.46.4" transform="translate(0 0)"/><path id="Path_2043" data-name="Path 2043" class="cls-3" d="M20,19.7a.47.47,0,0,1-.42-.26l-.16-.31a.47.47,0,0,1,.83-.46v0l.16.32a.46.46,0,0,1-.22.62h0a.46.46,0,0,1-.2.05" transform="translate(0 0)"/><path id="Path_2044" data-name="Path 2044" class="cls-6" d="M12.66,23.26a3,3,0,0,0-1.53,1.28c-.27.55-.25,1.19-.48,1.76-.35.85-1.21,1.42-1.5,2.3a.22.22,0,0,0,.06.31.21.21,0,0,0,.17,0,8,8,0,0,0,2.38-.76c1.55-.44,3.15.41,4.76.56a5.49,5.49,0,0,0,2.8-.48.58.58,0,0,0,.4-.71l0,0a6,6,0,0,0-2.3-3.9,4.63,4.63,0,0,0-4.73-.36" transform="translate(0 0)"/><path id="Path_2045" data-name="Path 2045" class="cls-3" d="M9.45,29.58h-.1a.9.9,0,0,1-.64-.28.88.88,0,0,1-.15-.89A4.34,4.34,0,0,1,9.44,27a3.76,3.76,0,0,0,.63-.92,4.5,4.5,0,0,0,.18-.7,4.21,4.21,0,0,1,.32-1.1,3.4,3.4,0,0,1,1.84-1.58,5.2,5.2,0,0,1,5.37.43,6.59,6.59,0,0,1,2.55,4.32,1.18,1.18,0,0,1-.74,1.4,6.35,6.35,0,0,1-3.13.53,12.44,12.44,0,0,1-1.8-.35,5.38,5.38,0,0,0-2.73-.23,5.28,5.28,0,0,0-.78.31,4,4,0,0,1-1.7.47m5.39-6.17a4.93,4.93,0,0,0-1.93.43,2.29,2.29,0,0,0-1.22,1,3,3,0,0,0-.22.78,4.89,4.89,0,0,1-.24.93,4.78,4.78,0,0,1-.83,1.25l-.32.41c.18-.06.37-.15.56-.23a7,7,0,0,1,.95-.38A6.53,6.53,0,0,1,15,27.8a11.18,11.18,0,0,0,1.61.32,4.82,4.82,0,0,0,2.49-.42c0,.05,0,0,0-.1A5.29,5.29,0,0,0,17,24.12a3.57,3.57,0,0,0-2.18-.72" transform="translate(0 0)"/></g></g></g></g></g></svg>