<svg xmlns="http://www.w3.org/2000/svg" xmlns:xlink="http://www.w3.org/1999/xlink" viewBox="0 0 40.53 57.62"><defs><style>.cls-1{fill:none;}.cls-2{isolation:isolate;}.cls-3{fill:#004849;}.cls-4{clip-path:url(#clip-path);}.cls-5{fill:#2cdeb4;}</style><clipPath id="clip-path"><rect class="cls-1" width="40.53" height="33.26"/></clipPath></defs><g id="Layer_2" data-name="Layer 2"><g id="Layer_1-2" data-name="Layer 1"><g id="ocimene" class="cls-2"><g class="cls-2"><path class="cls-3" d="M1.87,55.07a2.36,2.36,0,0,1,.74-1.75,2.48,2.48,0,0,1,1.79-.73,2.51,2.51,0,0,1,1.81.73,2.56,2.56,0,0,1,0,3.58,2.52,2.52,0,0,1-1.82.72,2.48,2.48,0,0,1-2.52-2.55Zm1.12,0a1.64,1.64,0,0,0,.38,1.13,1.36,1.36,0,0,0,1,.42,1.36,1.36,0,0,0,1-.42,1.8,1.8,0,0,0,0-2.21,1.36,1.36,0,0,0-1-.42,1.34,1.34,0,0,0-1,.42A1.52,1.52,0,0,0,3,55.09Z"/><path class="cls-3" d="M11.81,52.93v1.46a2.89,2.89,0,0,0-.68-.63,1.26,1.26,0,0,0-.69-.17,1.37,1.37,0,0,0-1,.43A1.54,1.54,0,0,0,9,55.11a1.58,1.58,0,0,0,.4,1.1,1.37,1.37,0,0,0,1,.43,1.45,1.45,0,0,0,.7-.17,3,3,0,0,0,.69-.65v1.45a2.91,2.91,0,0,1-1.34.35,2.59,2.59,0,0,1-1.85-.71,2.41,2.41,0,0,1-.74-1.79,2.39,2.39,0,0,1,.75-1.79,2.57,2.57,0,0,1,1.85-.74A2.83,2.83,0,0,1,11.81,52.93Z"/><path class="cls-3" d="M12.71,50.75a.69.69,0,0,1,.21-.5.67.67,0,0,1,.5-.21.71.71,0,1,1-.71.71Zm1.26,2v4.75h-1.1V52.73Z"/><path class="cls-3" d="M15.36,52.73h1.1v.44a1.92,1.92,0,0,1,.54-.45,1.33,1.33,0,0,1,.6-.13,1.46,1.46,0,0,1,1.28.71,1.64,1.64,0,0,1,1.4-.71c1.07,0,1.61.65,1.61,1.95v2.94H20.78V54.84a2.07,2.07,0,0,0-.16-1,.61.61,0,0,0-.57-.28.71.71,0,0,0-.66.34,2.17,2.17,0,0,0-.2,1.1v2.45H18.08V54.85c0-.84-.24-1.26-.73-1.26a.75.75,0,0,0-.68.34,2.2,2.2,0,0,0-.21,1.1v2.45h-1.1Z"/><path class="cls-3" d="M27.6,55.36H24.19a1.47,1.47,0,0,0,.39.94,1.18,1.18,0,0,0,.86.34,1.14,1.14,0,0,0,.68-.2,3,3,0,0,0,.6-.72l.93.52a4,4,0,0,1-.46.62,2.24,2.24,0,0,1-.51.43,1.81,1.81,0,0,1-.59.25,3,3,0,0,1-.69.08,2.23,2.23,0,0,1-1.71-.69,2.53,2.53,0,0,1-.64-1.82,2.69,2.69,0,0,1,.62-1.83,2.38,2.38,0,0,1,3.33,0,2.62,2.62,0,0,1,.61,1.84Zm-1.12-.9a1.06,1.06,0,0,0-1.11-.87,1.16,1.16,0,0,0-.38.06,1.23,1.23,0,0,0-.32.17,1.12,1.12,0,0,0-.25.28,1.44,1.44,0,0,0-.15.36Z"/><path class="cls-3" d="M28.8,52.73h1.11v.44a1.77,1.77,0,0,1,1.3-.58,1.64,1.64,0,0,1,1.29.53,2.11,2.11,0,0,1,.4,1.45v2.91H31.8V54.83a1.77,1.77,0,0,0-.2-1,.78.78,0,0,0-.69-.27.86.86,0,0,0-.78.36,2.5,2.5,0,0,0-.22,1.25v2.29H28.8Z"/><path class="cls-3" d="M38.62,55.36H35.21a1.51,1.51,0,0,0,.38.94,1.2,1.2,0,0,0,.87.34,1.09,1.09,0,0,0,.67-.2,2.62,2.62,0,0,0,.6-.72l.93.52a3.42,3.42,0,0,1-.45.62,2.24,2.24,0,0,1-.51.43,1.91,1.91,0,0,1-.59.25,3.1,3.1,0,0,1-.69.08,2.23,2.23,0,0,1-1.71-.69,2.53,2.53,0,0,1-.65-1.82,2.64,2.64,0,0,1,.63-1.83,2.38,2.38,0,0,1,3.33,0,2.66,2.66,0,0,1,.6,1.84Zm-1.13-.9a1,1,0,0,0-1.11-.87,1.1,1.1,0,0,0-.37.06,1.09,1.09,0,0,0-.32.17,1.12,1.12,0,0,0-.25.28,1.46,1.46,0,0,0-.16.36Z"/></g></g><g id="Group_2329" data-name="Group 2329"><g class="cls-4"><g id="Group_2328" data-name="Group 2328"><path id="Path_1921" data-name="Path 1921" class="cls-5" d="M27.57,3.59A22.77,22.77,0,0,1,35.46.72a18.94,18.94,0,0,1,.13,11.35A8.49,8.49,0,0,1,33.34,16a7,7,0,0,1-1.77,1.12,7.92,7.92,0,0,1-7.43-.31C18.23,13,23.4,6.19,27.57,3.59"/><path id="Path_1922" data-name="Path 1922" class="cls-3" d="M28,18.53a7.68,7.68,0,0,1-4.22-1.19,5.76,5.76,0,0,1-2.95-5c0-3.52,3.23-7.35,6.39-9.31a23,23,0,0,1,8.11-3l.53-.1.17.52a19.56,19.56,0,0,1,.14,11.73,8.82,8.82,0,0,1-2.43,4.22,7.53,7.53,0,0,1-1.93,1.23,9.26,9.26,0,0,1-3.8.83M27.9,4.12c-2.8,1.74-5.78,5.23-5.8,8.26a4.51,4.51,0,0,0,2.38,3.91,7.23,7.23,0,0,0,6.83.27,6.07,6.07,0,0,0,1.62-1A7.66,7.66,0,0,0,35,11.89,18.31,18.31,0,0,0,35,1.44,21.46,21.46,0,0,0,27.9,4.12"/><path id="Path_1923" data-name="Path 1923" class="cls-5" d="M28.33,14.62a11.76,11.76,0,0,1,7,2.81C38.12,20,39,24,39.82,27.67a16.79,16.79,0,0,1-12.18,1,8.72,8.72,0,0,1-2.83-1.36,8.2,8.2,0,0,1-2.66-4,24.28,24.28,0,0,1-.9-4.78A8.51,8.51,0,0,1,21,15.88c.21-.72.89-.7,1.57-.83a21.64,21.64,0,0,1,5.79-.43"/><path id="Path_1924" data-name="Path 1924" class="cls-3" d="M32.49,30a17.12,17.12,0,0,1-5-.75,9.6,9.6,0,0,1-3-1.46,8.76,8.76,0,0,1-2.86-4.3,25.53,25.53,0,0,1-.93-4.9c0-.19-.07-.42-.12-.67a5,5,0,0,1-.14-2.2,1.87,1.87,0,0,1,1.76-1.22l.3-.05A22.34,22.34,0,0,1,28.37,14a12.35,12.35,0,0,1,7.38,3c2.82,2.59,3.79,6.32,4.68,10.57l.1.48-.44.21A17.27,17.27,0,0,1,32.49,30M27,15.2a23.74,23.74,0,0,0-4.37.46l-.33.06c-.63.1-.7.15-.76.34a4.68,4.68,0,0,0,.16,1.58,7.72,7.72,0,0,1,.14.78,23.8,23.8,0,0,0,.88,4.66,7.53,7.53,0,0,0,2.43,3.7A8.35,8.35,0,0,0,27.82,28a16.24,16.24,0,0,0,11.28-.72c-.82-3.84-1.76-7.18-4.2-9.43a11,11,0,0,0-6.62-2.64c-.4,0-.83-.05-1.25-.05"/><path id="Path_1925" data-name="Path 1925" class="cls-3" d="M26.58,15.05a.63.63,0,0,1-.63-.62.85.85,0,0,1,0-.23,16.81,16.81,0,0,1,6.07-7.68.63.63,0,1,1,.71,1h0a15.61,15.61,0,0,0-5.61,7.1.63.63,0,0,1-.58.4"/><path id="Path_1926" data-name="Path 1926" class="cls-3" d="M31.74,22.59a.63.63,0,0,1-.56-.35,9.51,9.51,0,0,0-9.06-5.06.63.63,0,0,1-.1-1.25A10.81,10.81,0,0,1,32.3,21.68a.62.62,0,0,1-.28.84.64.64,0,0,1-.28.07"/><path id="Path_1927" data-name="Path 1927" class="cls-5" d="M12.36,3.59A22.77,22.77,0,0,0,4.47.72a18.94,18.94,0,0,0-.13,11.35A8.55,8.55,0,0,0,6.58,16a7.21,7.21,0,0,0,1.78,1.12,7.92,7.92,0,0,0,7.43-.31C21.7,13,16.53,6.19,12.36,3.59"/><path id="Path_1928" data-name="Path 1928" class="cls-3" d="M11.91,18.53A9.27,9.27,0,0,1,8.1,17.7a7.59,7.59,0,0,1-1.94-1.23,8.88,8.88,0,0,1-2.42-4.22A19.56,19.56,0,0,1,3.88.52L4.05,0l.53.1a23.21,23.21,0,0,1,8.11,2.95c3.16,2,6.37,5.8,6.39,9.32a5.78,5.78,0,0,1-2.95,5,7.77,7.77,0,0,1-4.22,1.19M4.9,1.44a18.4,18.4,0,0,0,0,10.45A7.75,7.75,0,0,0,7,15.54a6.33,6.33,0,0,0,1.62,1,7.23,7.23,0,0,0,6.83-.27,4.5,4.5,0,0,0,2.38-3.91c0-3-3-6.52-5.8-8.26A21.46,21.46,0,0,0,4.9,1.44"/><path id="Path_1929" data-name="Path 1929" class="cls-5" d="M12.2,14.62a11.74,11.74,0,0,0-7,2.81C2.41,20,1.49,24,.71,27.67a16.79,16.79,0,0,0,12.18,1,8.87,8.87,0,0,0,2.84-1.36,8.25,8.25,0,0,0,2.65-4,24.28,24.28,0,0,0,.9-4.78,8.21,8.21,0,0,0,.28-2.61c-.21-.72-.89-.7-1.57-.83a21.6,21.6,0,0,0-5.78-.43"/><path id="Path_1930" data-name="Path 1930" class="cls-3" d="M8,30a17.41,17.41,0,0,1-7.6-1.74L0,28l.1-.47C1,23.29,2,19.56,4.78,17a12.33,12.33,0,0,1,7.38-3,22.45,22.45,0,0,1,5.95.43l.29.05a1.85,1.85,0,0,1,1.76,1.22A4.92,4.92,0,0,1,20,17.89c-.05.25-.1.49-.12.68a25.53,25.53,0,0,1-.93,4.9,8.73,8.73,0,0,1-2.87,4.29,9.47,9.47,0,0,1-3,1.47A17.45,17.45,0,0,1,8,30M1.43,27.32A16.19,16.19,0,0,0,12.71,28a8.11,8.11,0,0,0,2.64-1.25,7.69,7.69,0,0,0,2.43-3.7,23.8,23.8,0,0,0,.88-4.66,7.72,7.72,0,0,1,.14-.78A4.68,4.68,0,0,0,19,16.06c-.06-.19-.13-.24-.76-.34l-.33-.06a20.79,20.79,0,0,0-5.62-.41,11,11,0,0,0-6.62,2.64c-2.44,2.24-3.38,5.59-4.2,9.43"/><path id="Path_1931" data-name="Path 1931" class="cls-3" d="M14,15.05a.63.63,0,0,1-.58-.4,15.55,15.55,0,0,0-5.61-7.1.63.63,0,0,1,.71-1h0a16.86,16.86,0,0,1,6.07,7.68.64.64,0,0,1-.36.81.59.59,0,0,1-.23,0"/><path id="Path_1932" data-name="Path 1932" class="cls-3" d="M8.54,23.19a.64.64,0,0,1-.28-.07A.62.62,0,0,1,8,22.28a10.81,10.81,0,0,1,10.28-5.75.64.64,0,0,1,.57.68.62.62,0,0,1-.66.57h0a9.48,9.48,0,0,0-9,5.06.63.63,0,0,1-.56.35"/><path id="Path_1933" data-name="Path 1933" class="cls-5" d="M15.77,23.07a8.19,8.19,0,0,0-.18,4.6,24.49,24.49,0,0,0,1.56,4.4.92.92,0,0,0,.39.52.94.94,0,0,0,.62,0c3.12-.83,5.64-2.1,6.12-5.61a11.75,11.75,0,0,0-1.11-6.9,9.27,9.27,0,0,0-1.1-1.6c-.5-.6-.57-.81-1.25-.54a10.1,10.1,0,0,0-5.05,5.15"/><path id="Path_1934" data-name="Path 1934" class="cls-3" d="M17.77,33.26a1.25,1.25,0,0,1-.5-.11,1.49,1.49,0,0,1-.7-.84,25.34,25.34,0,0,1-1.6-4.5,9,9,0,0,1,.2-5,10.81,10.81,0,0,1,5.41-5.51,1.33,1.33,0,0,1,1.81.53v0l.14.16a10.35,10.35,0,0,1,1.17,1.71,12.32,12.32,0,0,1,1.19,7.29c-.55,4-3.64,5.34-6.58,6.12a2.54,2.54,0,0,1-.54.09m3.45-14.83-.17.07a9.46,9.46,0,0,0-4.7,4.79h0a7.59,7.59,0,0,0-.16,4.25,23.22,23.22,0,0,0,1.53,4.28.65.65,0,0,0,.11.22S18,32,18,32c3.09-.81,5.24-2,5.66-5.08a11,11,0,0,0-1-6.52,9.5,9.5,0,0,0-1-1.5l-.15-.18a3,3,0,0,0-.21-.24"/><path id="Path_1935" data-name="Path 1935" class="cls-3" d="M19.24,28.7a.63.63,0,0,1-.61-.5,12.22,12.22,0,0,1,.3-5.51,35.84,35.84,0,0,1,1.87-5,.62.62,0,1,1,1.16.46v0h0A35,35,0,0,0,20.14,23,11.05,11.05,0,0,0,19.86,28a.64.64,0,0,1-.5.74h-.12"/><path id="Path_1936" data-name="Path 1936" class="cls-5" d="M24.77,12.54A8.19,8.19,0,0,0,25,7.94a24.49,24.49,0,0,0-1.56-4.4A.92.92,0,0,0,23,3a.94.94,0,0,0-.62,0c-3.13.83-5.64,2.1-6.12,5.61a11.77,11.77,0,0,0,1.11,6.9,9.27,9.27,0,0,0,1.1,1.6c.5.59.57.81,1.25.54a10.1,10.1,0,0,0,5.05-5.15"/><path id="Path_1937" data-name="Path 1937" class="cls-3" d="M19.25,18.43a1.44,1.44,0,0,1-1.12-.7L18,17.56a10,10,0,0,1-1.17-1.72,12.3,12.3,0,0,1-1.18-7.28c.55-4,3.64-5.34,6.58-6.12a1.52,1.52,0,0,1,1.05,0,1.51,1.51,0,0,1,.7.83,25.73,25.73,0,0,1,1.6,4.51,9,9,0,0,1-.2,5A10.81,10.81,0,0,1,20,18.27a2.1,2.1,0,0,1-.7.16M22.7,3.57s-.11.06-.16.07c-3.1.82-5.24,2-5.66,5.09a11,11,0,0,0,1,6.52,9.44,9.44,0,0,0,1,1.5l.15.18.21.24.18-.07a9.54,9.54,0,0,0,4.7-4.79,7.59,7.59,0,0,0,.15-4.25,24.22,24.22,0,0,0-1.52-4.28,1.51,1.51,0,0,0-.11-.22"/><path id="Path_1938" data-name="Path 1938" class="cls-3" d="M19.16,18.34a.64.64,0,0,1-.24-.05.62.62,0,0,1-.33-.82,35,35,0,0,0,1.81-4.86,11.09,11.09,0,0,0,.28-5,.64.64,0,0,1,.48-.75.63.63,0,0,1,.74.48v0a12.36,12.36,0,0,1-.3,5.51,35.84,35.84,0,0,1-1.87,5,.64.64,0,0,1-.58.38"/></g></g></g></g></g></svg>