<svg xmlns="http://www.w3.org/2000/svg" xmlns:xlink="http://www.w3.org/1999/xlink" viewBox="0 0 42.55 59.28"><defs><style>.cls-1{fill:none;}.cls-2{isolation:isolate;}.cls-3{fill:#004849;}.cls-4{clip-path:url(#clip-path);}.cls-5{fill:#2cdeb4;}</style><clipPath id="clip-path"><rect class="cls-1" width="42.56" height="34.92"/></clipPath></defs><g id="Layer_2" data-name="Layer 2"><g id="Layer_1-2" data-name="Layer 1"><g id="ocimene" class="cls-2"><g class="cls-2"><path class="cls-3" d="M2.88,56.73A2.37,2.37,0,0,1,3.62,55a2.47,2.47,0,0,1,1.8-.72A2.51,2.51,0,0,1,7.23,55,2.48,2.48,0,0,1,8,56.77a2.41,2.41,0,0,1-.74,1.79,2.5,2.5,0,0,1-1.82.72,2.41,2.41,0,0,1-1.79-.73A2.48,2.48,0,0,1,2.88,56.73Zm1.13,0a1.58,1.58,0,0,0,.38,1.13,1.33,1.33,0,0,0,1,.42,1.36,1.36,0,0,0,1-.41,1.56,1.56,0,0,0,.38-1.11,1.53,1.53,0,0,0-.38-1.11,1.33,1.33,0,0,0-1-.42,1.33,1.33,0,0,0-1,.42A1.52,1.52,0,0,0,4,56.75Z"/><path class="cls-3" d="M12.82,54.59v1.46a2.88,2.88,0,0,0-.67-.63,1.41,1.41,0,0,0-.69-.17,1.35,1.35,0,0,0-1,.43A1.51,1.51,0,0,0,10,56.77a1.57,1.57,0,0,0,.39,1.1,1.33,1.33,0,0,0,1,.43,1.42,1.42,0,0,0,.7-.17,2.64,2.64,0,0,0,.69-.65v1.45a2.77,2.77,0,0,1-1.34.35,2.57,2.57,0,0,1-1.84-.71,2.36,2.36,0,0,1-.75-1.78A2.43,2.43,0,0,1,9.65,55a2.52,2.52,0,0,1,1.84-.73A2.82,2.82,0,0,1,12.82,54.59Z"/><path class="cls-3" d="M13.72,52.41a.72.72,0,1,1,1.22.51.67.67,0,0,1-.5.21.72.72,0,0,1-.72-.72Zm1.26,2v4.75H13.89V54.39Z"/><path class="cls-3" d="M16.38,54.39h1.09v.44a2.58,2.58,0,0,1,.55-.45,1.34,1.34,0,0,1,.6-.12,1.45,1.45,0,0,1,1.27.7,1.65,1.65,0,0,1,1.4-.7c1.07,0,1.61.65,1.61,2v2.93H21.8V56.5a2,2,0,0,0-.17-1,.58.58,0,0,0-.56-.29.7.7,0,0,0-.66.34,2.18,2.18,0,0,0-.21,1.1v2.45H19.1V56.52c0-.85-.25-1.27-.74-1.27a.71.71,0,0,0-.67.35,2.14,2.14,0,0,0-.22,1.09v2.45H16.38Z"/><path class="cls-3" d="M28.62,57H25.21a1.41,1.41,0,0,0,.38.93,1.14,1.14,0,0,0,.86.34,1.12,1.12,0,0,0,.68-.2,2.62,2.62,0,0,0,.6-.72l.93.52a3.91,3.91,0,0,1-.45.63,2.64,2.64,0,0,1-.52.43,2,2,0,0,1-.59.24,2.51,2.51,0,0,1-.69.08,2.25,2.25,0,0,1-1.7-.68,2.92,2.92,0,0,1,0-3.65,2.38,2.38,0,0,1,3.33,0,2.63,2.63,0,0,1,.6,1.84Zm-1.13-.9a1,1,0,0,0-1.11-.88,1.21,1.21,0,0,0-.38.06,1.41,1.41,0,0,0-.32.17,1.31,1.31,0,0,0-.24.28,1.38,1.38,0,0,0-.16.37Z"/><path class="cls-3" d="M29.82,54.39h1.1v.44a1.82,1.82,0,0,1,1.3-.57,1.62,1.62,0,0,1,1.29.52,2.13,2.13,0,0,1,.4,1.45v2.91h-1.1V56.49a1.74,1.74,0,0,0-.19-1,.78.78,0,0,0-.7-.28.84.84,0,0,0-.77.36,2.51,2.51,0,0,0-.23,1.25v2.29h-1.1Z"/><path class="cls-3" d="M39.63,57H36.22a1.46,1.46,0,0,0,.38.93,1.18,1.18,0,0,0,.87.34,1.14,1.14,0,0,0,.68-.2,3,3,0,0,0,.6-.72l.93.52a4.67,4.67,0,0,1-.46.63,2.91,2.91,0,0,1-.51.43,2,2,0,0,1-.59.24,2.51,2.51,0,0,1-.69.08,2.26,2.26,0,0,1-1.71-.68,2.57,2.57,0,0,1-.64-1.83A2.64,2.64,0,0,1,35.7,55a2.16,2.16,0,0,1,1.67-.69,2.11,2.11,0,0,1,1.66.67,2.59,2.59,0,0,1,.61,1.84Zm-1.13-.9a1,1,0,0,0-1.1-.88,1.16,1.16,0,0,0-.38.06,1.23,1.23,0,0,0-.32.17,1.12,1.12,0,0,0-.25.28,1.37,1.37,0,0,0-.15.37Z"/></g></g><g id="Group_2353" data-name="Group 2353"><g class="cls-4"><g id="Group_2352" data-name="Group 2352"><path id="Path_2294" data-name="Path 2294" class="cls-5" d="M29,3.77a24.07,24.07,0,0,1,8.28-3,20,20,0,0,1,.14,11.92A8.92,8.92,0,0,1,35,16.81,7.71,7.71,0,0,1,33.15,18a8.32,8.32,0,0,1-7.8-.33c-6.21-4-.78-11.16,3.6-13.89"/><path id="Path_2295" data-name="Path 2295" class="cls-3" d="M29.42,19.46A8.19,8.19,0,0,1,25,18.21,6.06,6.06,0,0,1,21.89,13c0-3.69,3.4-7.71,6.71-9.78A24.29,24.29,0,0,1,37.11.11L37.68,0l.18.55A20.6,20.6,0,0,1,38,12.86a9.29,9.29,0,0,1-2.55,4.44,7.85,7.85,0,0,1-2,1.29,9.7,9.7,0,0,1-4,.87M29.3,4.32c-2.94,1.83-6.07,5.5-6.1,8.68a4.76,4.76,0,0,0,2.5,4.11,7.62,7.62,0,0,0,7.18.28,6.86,6.86,0,0,0,1.7-1.07,8.09,8.09,0,0,0,2.16-3.84,19.23,19.23,0,0,0,0-11A22.82,22.82,0,0,0,29.3,4.32"/><path id="Path_2296" data-name="Path 2296" class="cls-5" d="M29.74,15.36a12.23,12.23,0,0,1,7.35,2.94C40,21,41,25.16,41.81,29.06a17.75,17.75,0,0,1-12.79,1,9.43,9.43,0,0,1-3-1.43,8.68,8.68,0,0,1-2.78-4.2,25.25,25.25,0,0,1-.94-5,8.46,8.46,0,0,1-.3-2.74c.22-.76.93-.74,1.64-.88a22.57,22.57,0,0,1,6.08-.44"/><path id="Path_2297" data-name="Path 2297" class="cls-3" d="M34.11,31.47a17.82,17.82,0,0,1-5.28-.78,9.65,9.65,0,0,1-3.18-1.53,9.11,9.11,0,0,1-3-4.52,26.36,26.36,0,0,1-1-5.14,6.46,6.46,0,0,0-.13-.71,5.11,5.11,0,0,1-.14-2.3,2,2,0,0,1,1.85-1.28l.31-.05a23,23,0,0,1,6.24-.46,12.91,12.91,0,0,1,7.74,3.12c3,2.72,4,6.64,4.92,11.1l.1.5-.46.23a18.24,18.24,0,0,1-8,1.82M28.38,16a24.42,24.42,0,0,0-4.59.49l-.35.06c-.65.1-.73.16-.79.35a5,5,0,0,0,.17,1.67c.06.3.12.58.15.81a25.25,25.25,0,0,0,.91,4.89,7.93,7.93,0,0,0,2.56,3.88,8.75,8.75,0,0,0,2.77,1.33,17,17,0,0,0,11.85-.75c-.86-4-1.85-7.54-4.41-9.9a11.61,11.61,0,0,0-7-2.78c-.42,0-.86-.05-1.31-.05"/><path id="Path_2298" data-name="Path 2298" class="cls-3" d="M27.91,15.8a.65.65,0,0,1-.66-.65.61.61,0,0,1,0-.24,17.7,17.7,0,0,1,6.38-8.07.66.66,0,0,1,.74,1.08,16.37,16.37,0,0,0-5.89,7.46.66.66,0,0,1-.62.42"/><path id="Path_2299" data-name="Path 2299" class="cls-3" d="M33.33,23.72a.66.66,0,0,1-.59-.36A10,10,0,0,0,23.23,18a.66.66,0,0,1-.11-1.31,11.35,11.35,0,0,1,10.79,6,.65.65,0,0,1-.29.89.73.73,0,0,1-.29.07"/><path id="Path_2300" data-name="Path 2300" class="cls-5" d="M13,3.77a24.12,24.12,0,0,0-8.29-3,19.87,19.87,0,0,0-.13,11.92,8.9,8.9,0,0,0,2.35,4.14A7.58,7.58,0,0,0,8.78,18a8.32,8.32,0,0,0,7.8-.33c6.21-4,.78-11.16-3.6-13.89"/><path id="Path_2301" data-name="Path 2301" class="cls-3" d="M12.5,19.46a9.79,9.79,0,0,1-4-.88,7.87,7.87,0,0,1-2-1.28,9.36,9.36,0,0,1-2.54-4.44A20.52,20.52,0,0,1,4.07.55L4.25,0l.56.11a24.22,24.22,0,0,1,8.51,3.1C16.64,5.27,20,9.29,20,13a6.08,6.08,0,0,1-3.1,5.23,8.2,8.2,0,0,1-4.44,1.25M5.14,1.51a19.23,19.23,0,0,0,.05,11,8.14,8.14,0,0,0,2.16,3.84,6.68,6.68,0,0,0,1.7,1.07,7.6,7.6,0,0,0,7.17-.28A4.74,4.74,0,0,0,18.72,13c0-3.19-3.15-6.85-6.09-8.68A22.57,22.57,0,0,0,5.14,1.51"/><path id="Path_2302" data-name="Path 2302" class="cls-5" d="M12.81,15.36A12.2,12.2,0,0,0,5.47,18.3C2.53,21,1.57,25.16.75,29.06a17.67,17.67,0,0,0,12.78,1,9.43,9.43,0,0,0,3-1.43,8.58,8.58,0,0,0,2.79-4.2,25.84,25.84,0,0,0,.94-5,8.43,8.43,0,0,0,.3-2.74c-.22-.76-.93-.74-1.65-.87a22.91,22.91,0,0,0-6.07-.45"/><path id="Path_2303" data-name="Path 2303" class="cls-3" d="M8.44,31.47a18.24,18.24,0,0,1-8-1.82L0,29.42l.1-.5c.94-4.46,2-8.38,4.92-11.1a13,13,0,0,1,7.74-3.12,23.87,23.87,0,0,1,6.25.46l.31.05a1.94,1.94,0,0,1,1.84,1.28,5.11,5.11,0,0,1-.14,2.3c-.06.27-.1.51-.13.71a25.64,25.64,0,0,1-1,5.14,9.11,9.11,0,0,1-3,4.52,9.65,9.65,0,0,1-3.18,1.53,17.82,17.82,0,0,1-5.28.78M1.5,28.69a17,17,0,0,0,11.85.75,8.75,8.75,0,0,0,2.77-1.33,8.11,8.11,0,0,0,2.56-3.88,25.25,25.25,0,0,0,.91-4.89c0-.23.09-.51.15-.81a5,5,0,0,0,.17-1.67c-.06-.19-.14-.25-.79-.35l-.35-.06a22.08,22.08,0,0,0-5.9-.44,11.59,11.59,0,0,0-7,2.78c-2.56,2.35-3.55,5.87-4.41,9.9"/><path id="Path_2304" data-name="Path 2304" class="cls-3" d="M14.65,15.8a.66.66,0,0,1-.61-.42,16.39,16.39,0,0,0-5.9-7.46A.66.66,0,0,1,8,7a.65.65,0,0,1,.9-.19l0,0a17.75,17.75,0,0,1,6.37,8.07.65.65,0,0,1-.37.84.69.69,0,0,1-.24.05"/><path id="Path_2305" data-name="Path 2305" class="cls-3" d="M9,24.35a.73.73,0,0,1-.3-.07.65.65,0,0,1-.29-.89,11.35,11.35,0,0,1,10.79-6,.66.66,0,0,1,.6.71h0a.65.65,0,0,1-.69.6h0A10,10,0,0,0,9.55,24a.66.66,0,0,1-.58.36"/><path id="Path_2306" data-name="Path 2306" class="cls-5" d="M16.56,24.22a8.67,8.67,0,0,0-.19,4.84A25.27,25.27,0,0,0,18,33.67a.93.93,0,0,0,.41.54.91.91,0,0,0,.65,0c3.28-.86,5.92-2.2,6.43-5.88a12.24,12.24,0,0,0-1.17-7.24,9.69,9.69,0,0,0-1.15-1.69c-.52-.62-.6-.85-1.31-.56a10.67,10.67,0,0,0-5.31,5.4"/><path id="Path_2307" data-name="Path 2307" class="cls-3" d="M18.66,34.92a1.31,1.31,0,0,1-.52-.11,1.6,1.6,0,0,1-.74-.88,25.56,25.56,0,0,1-1.67-4.73,9.3,9.3,0,0,1,.21-5.2,11.33,11.33,0,0,1,5.68-5.79,1.4,1.4,0,0,1,1.9.56h0l.15.18a11.62,11.62,0,0,1,1.22,1.8,12.86,12.86,0,0,1,1.24,7.64c-.57,4.21-3.81,5.61-6.91,6.43a1.84,1.84,0,0,1-.57.09m3.63-15.57s-.08,0-.18.08a10,10,0,0,0-4.94,5h0A8,8,0,0,0,17,28.92a25.12,25.12,0,0,0,1.6,4.5.94.94,0,0,0,.12.22s.11-.06.17-.08c3.24-.85,5.5-2.1,5.94-5.34a11.56,11.56,0,0,0-1.09-6.84,10,10,0,0,0-1.08-1.58l-.16-.19a3.28,3.28,0,0,0-.22-.26"/><path id="Path_2308" data-name="Path 2308" class="cls-3" d="M20.2,30.14a.65.65,0,0,1-.64-.53,12.88,12.88,0,0,1,.31-5.79,38.14,38.14,0,0,1,2-5.29.66.66,0,1,1,1.21.52h0a36.73,36.73,0,0,0-1.9,5.1,11.71,11.71,0,0,0-.3,5.2.66.66,0,0,1-.51.77H20.2"/><path id="Path_2309" data-name="Path 2309" class="cls-5" d="M26,13.16a8.63,8.63,0,0,0,.19-4.83,25.79,25.79,0,0,0-1.64-4.61,1,1,0,0,0-.41-.55,1,1,0,0,0-.65,0c-3.28.87-5.92,2.2-6.43,5.89a12.25,12.25,0,0,0,1.17,7.24A10.27,10.27,0,0,0,19.39,18c.53.62.6.85,1.31.56A10.65,10.65,0,0,0,26,13.16"/><path id="Path_2310" data-name="Path 2310" class="cls-3" d="M20.21,19.35A1.53,1.53,0,0,1,19,18.61l-.15-.18a10.6,10.6,0,0,1-1.23-1.8A12.94,12.94,0,0,1,16.42,9c.58-4.21,3.82-5.61,6.91-6.43a1.54,1.54,0,0,1,1.1,0,1.57,1.57,0,0,1,.74.88,27.11,27.11,0,0,1,1.67,4.73,9.3,9.3,0,0,1-.22,5.2A11.31,11.31,0,0,1,21,19.18a1.93,1.93,0,0,1-.74.16m3.63-15.6s-.12.07-.17.08c-3.25.86-5.5,2.1-6,5.34A11.54,11.54,0,0,0,18.82,16a8.6,8.6,0,0,0,1.07,1.58l.16.19.22.26.19-.07a10,10,0,0,0,4.93-5,8,8,0,0,0,.17-4.46A25.34,25.34,0,0,0,24,4a1,1,0,0,0-.12-.23"/><path id="Path_2311" data-name="Path 2311" class="cls-3" d="M20.12,19.26a.66.66,0,0,1-.65-.66.75.75,0,0,1,.05-.26,35.5,35.5,0,0,0,1.9-5.1,11.72,11.72,0,0,0,.3-5.2.66.66,0,0,1,.43-.82.65.65,0,0,1,.82.43.31.31,0,0,1,0,.13,12.88,12.88,0,0,1-.32,5.79,36.9,36.9,0,0,1-2,5.29.66.66,0,0,1-.6.4"/></g></g></g></g></g></svg>