<svg xmlns="http://www.w3.org/2000/svg" xmlns:xlink="http://www.w3.org/1999/xlink" viewBox="0 0 29.45 52.59"><defs><style>.cls-1{fill:none;}.cls-2{clip-path:url(#clip-path);}.cls-3{fill:#2cdeb4;}.cls-4{fill:#004849;}.cls-5{isolation:isolate;}</style><clipPath id="clip-path" transform="translate(0 0)"><rect class="cls-1" width="29.44" height="30.49"/></clipPath></defs><g id="Layer_2" data-name="Layer 2"><g id="Layer_1-2" data-name="Layer 1"><g id="Group_1721" data-name="Group 1721"><g class="cls-2"><g id="Group_1720" data-name="Group 1720"><path id="Path_1417" data-name="Path 1417" class="cls-3" d="M26.17,22.4h0a15.26,15.26,0,0,0,2.14-7.33,23.44,23.44,0,0,0-2.36.31,16.93,16.93,0,0,0,.14-2.13,13.11,13.11,0,0,0-1.3-6.06,10.38,10.38,0,0,0-2.07.33l.55-.15a16.46,16.46,0,0,0-1.8-5.85,20.69,20.69,0,0,0-3.17,2.66A12.35,12.35,0,0,0,14.72.5a12.2,12.2,0,0,0-3.58,3.68A21.26,21.26,0,0,0,8,1.52a16.46,16.46,0,0,0-1.8,5.85l.55.15a10.38,10.38,0,0,0-2.07-.33,13.11,13.11,0,0,0-1.3,6.06,16.81,16.81,0,0,0,.14,2.13c-.79-.14-1.58-.25-2.37-.31A15.16,15.16,0,0,0,3.26,22.4,21.15,21.15,0,0,0,.5,23.5s3.88,6.53,9.16,6l-1-.77A13.11,13.11,0,0,0,14.72,30a13.11,13.11,0,0,0,6.06-1.3h0l-1,.77c5.27.57,9.16-6,9.16-6a21.29,21.29,0,0,0-2.77-1.1m-14-7.81,0,0h0v0" transform="translate(0 0)"/><path id="Path_1418" data-name="Path 1418" class="cls-4" d="M29.42,23.35a.5.5,0,0,0-.27-.3,22.31,22.31,0,0,0-2.21-.91,16.16,16.16,0,0,0,1.88-7.06.55.55,0,0,0-.16-.38.52.52,0,0,0-.38-.13c-.6,0-1.18.14-1.76.23.05-.52.08-1,.08-1.55A13.72,13.72,0,0,0,25.24,7a.56.56,0,0,0-.45-.26,7.6,7.6,0,0,0-1.07.1,17.12,17.12,0,0,0-1.8-5.52A.51.51,0,0,0,21.6,1a.47.47,0,0,0-.4.08A22,22,0,0,0,18.38,3.4,12.39,12.39,0,0,0,15,.07a.49.49,0,0,0-.52,0,12.39,12.39,0,0,0-3.4,3.33A22.94,22.94,0,0,0,8.24,1.11.51.51,0,0,0,7.84,1a.5.5,0,0,0-.32.25,17,17,0,0,0-1.8,5.51,9.45,9.45,0,0,0-1.07-.1A.59.59,0,0,0,4.2,7a13.72,13.72,0,0,0-1.36,6.3c0,.52,0,1,.08,1.55-.58-.09-1.16-.18-1.77-.23a.49.49,0,0,0-.38.14.51.51,0,0,0-.16.37A16.13,16.13,0,0,0,2.5,22.14a21.53,21.53,0,0,0-2.22.91.5.5,0,0,0-.23.67s0,0,0,0C.23,24,3.84,30,9,30a5.79,5.79,0,0,0,.72,0,.52.52,0,0,0,.3-.16,15.63,15.63,0,0,0,4.71.7,15.61,15.61,0,0,0,4.7-.7.45.45,0,0,0,.3.16,5.79,5.79,0,0,0,.72,0c5.14,0,8.77-6,8.92-6.24a.47.47,0,0,0,.05-.4m-10.11-.81c-.21-.38-.45-.74-.69-1.09a10.75,10.75,0,0,1,1.85-.87l0,0a16.32,16.32,0,0,1,2.27-.65h0a18.37,18.37,0,0,1,2.43-.4A16.67,16.67,0,0,1,24.82,22h0c-.47,2-1.47,4.55-3.6,5.85a14.7,14.7,0,0,0-1.91-5.33m-1.87-2.62c-.06-.07-.11-.14-.17-.2-.21-.23-.42-.45-.64-.66l-.26-.23-.44-.38-.28-.23-.45-.31L15,17.77a.49.49,0,0,0-.52,0l-.18.13q-.24.15-.48.33l-.32.25-.36.3c-.12.1-.23.22-.35.33a3.83,3.83,0,0,0-.28.29c-.24.24-.47.5-.7.78l-.21.24-.18.22a10.81,10.81,0,0,0-1.63-.82l0-.11c.14-.38.29-.78.47-1.17l.09-.18c.19-.41.4-.82.62-1.21h0c.23-.4.48-.79.73-1.15v0c.26-.36.52-.7.79-1l0-.05a11.19,11.19,0,0,1,2.17-2,11.19,11.19,0,0,1,2.17,2l0,0q.39.48.78,1l0,0c.25.36.49.74.72,1.13s.5.93.72,1.41c.1.22.17.43.26.65s.15.41.22.62a10.21,10.21,0,0,0-1.62.81l-.1-.12-.5-.6m-9.21,8C6.11,26.58,5.09,24,4.62,22h0a18,18,0,0,1-.39-2.53,22.16,22.16,0,0,1,2.44.4h0A14,14,0,0,1,9,20.58H9a10.32,10.32,0,0,1,1.84.87c-.23.36-.47.71-.68,1.09a14.56,14.56,0,0,0-1.91,5.34M7.6,13.53c.53.11,1,.23,1.53.38l.49.15.33.12.29.1c.22.08.42.17.6.25h0l.52.24-.07.09c-.17.23-.35.48-.52.73l-.09.13c-.2.3-.39.6-.57.92s-.46.84-.66,1.26c0,.08-.07.16-.11.23-.18.41-.34.82-.49,1.23l0,.1A16.89,16.89,0,0,0,7.11,19L7,18.75l-.25-.51c0-.09-.07-.19-.11-.28s-.16-.37-.22-.56-.07-.2-.1-.3-.13-.36-.18-.54L6,16.08a17.37,17.37,0,0,1-.48-2.87c.65.07,1.26.17,1.85.28l.22,0m2.81-1.18c.17-.34.35-.69.56-1,0,0,0,0,0-.05l0,0c.25-.44.52-.85.81-1.26l0,0a12.75,12.75,0,0,1,2.07-2.33l.1-.08a8.58,8.58,0,0,1,.7-.53,6.12,6.12,0,0,1,.7.53l.1.08a12.75,12.75,0,0,1,2.07,2.33l0,0a12.33,12.33,0,0,1,.83,1.29c.21.37.4.74.57,1.1.06.12.1.23.16.34l.19.46c-.48.16-.89.33-1.25.49l-.09,0-.48.24-.08,0-.07,0,0,0A11.12,11.12,0,0,0,15,11.87a.59.59,0,0,0-.52,0l-.61.41h0a10.12,10.12,0,0,0-1.21,1.05l0,0c-.18.19-.37.39-.55.6l0,0,0,0-.2-.1-.31-.15-.23-.1c-.34-.15-.74-.3-1.19-.46.07-.15.13-.31.2-.47l.15-.33M22,13.5h0c.61-.12,1.26-.22,1.94-.29A17,17,0,0,1,23.68,15c0,.25-.1.5-.15.76h0c-.08.31-.15.6-.24.9,0,.1-.06.2-.1.3s-.11.36-.17.53l-.18.45-.15.35-.24.48-.12.24a16.15,16.15,0,0,0-1.72.48.94.94,0,0,1-.06-.15c-.14-.39-.3-.77-.47-1.15L20,17.88c-.2-.42-.41-.83-.65-1.24s-.37-.62-.57-.92l-.11-.16c-.16-.24-.33-.48-.51-.71l-.06-.08c.14-.08.3-.15.47-.23l.17-.07.49-.2.23-.08L20,14l.2-.06A16.2,16.2,0,0,1,22,13.5m4,8.31-.08,0A15.85,15.85,0,0,0,26.23,19a.52.52,0,0,0-.16-.37.45.45,0,0,0-.38-.13,20.61,20.61,0,0,0-2.11.26l0-.08c.16-.35.3-.71.42-1.06l0-.06a12.56,12.56,0,0,0,.37-1.25c.53-.15,1.07-.28,1.63-.38l0,0q.83-.15,1.71-.24A14.69,14.69,0,0,1,26,21.81m-.37-8.56A16.51,16.51,0,0,1,25.51,15c-.29,0-.57.12-.84.18a17.26,17.26,0,0,0,.27-2.48h0a.55.55,0,0,0-.07-.25.38.38,0,0,0-.26-.22l-.06,0-.11,0h0c-.69.06-1.31.15-1.91.24l-.38.07a16.09,16.09,0,0,0-1.64.36l-.12,0c-.07-.17-.16-.36-.24-.54s-.1-.25-.17-.37c-.18-.37-.37-.75-.59-1.12l0-.07c-.17-.29-.35-.57-.53-.84a.75.75,0,0,0-.07-.12c.15-.09.28-.18.43-.26h0a13.08,13.08,0,0,1,1.34-.69h0a13,13,0,0,1,2.8-1A7.82,7.82,0,0,1,24.5,7.7a13.08,13.08,0,0,1,1.1,5.55M19,4.24a20.18,20.18,0,0,1,2.35-2A16.24,16.24,0,0,1,22.74,7h0a15.41,15.41,0,0,0-2.08.7h0c-.16-.46-.35-.93-.56-1.39l0-.08c-.21-.45-.44-.9-.69-1.34h0c-.12-.21-.24-.41-.37-.61M14.72,1.09a12.19,12.19,0,0,1,3.16,3.36s0,0,0,0a10,10,0,0,1,.55.88,16.39,16.39,0,0,1,.76,1.51,2.77,2.77,0,0,1,.1.26c.14.33.26.65.37,1l-.14.08-.9.48L18.12,9c-.23-.31-.47-.61-.72-.89l0,0c-.25-.27-.5-.54-.76-.78l-.08-.08q-.33-.3-.66-.57l-.15-.12c-.25-.19-.5-.37-.76-.53a.53.53,0,0,0-.52,0h0c-.26.16-.51.34-.75.52l-.15.13a8.38,8.38,0,0,0-.66.57l-.08.07c-.26.25-.51.51-.76.79l0,0c-.25.29-.49.58-.73.9-.17-.11-.34-.22-.52-.32s-.53-.3-.78-.42h0L9.76,8.1c.12-.33.23-.66.37-1,0-.08.06-.16.1-.25.23-.52.49-1,.77-1.52h0a9.8,9.8,0,0,1,.55-.87,0,0,0,0,0,0,0A12.26,12.26,0,0,1,14.72,1.1M6.7,7A15.94,15.94,0,0,1,8.14,2.26a20.18,20.18,0,0,1,2.35,2c-.13.2-.25.4-.37.61h0q-.37.66-.69,1.35l0,.07c-.21.46-.4.93-.56,1.39v0A14.13,14.13,0,0,0,6.75,7h0M4.94,7.7a9.58,9.58,0,0,1,1.18.17,13.4,13.4,0,0,1,2.8,1H9a14.2,14.2,0,0,1,1.34.69l.43.27a.41.41,0,0,0-.07.11c-.18.28-.36.56-.53.84s-.43.8-.62,1.19l-.17.38c-.08.18-.17.36-.24.54l-.2,0c-.46-.12-1-.23-1.52-.33l-.45-.08c-.59-.1-1.2-.18-1.88-.23H4.92a.47.47,0,0,0-.25.11h0a.52.52,0,0,0-.16.37h0a17.24,17.24,0,0,0,.27,2.49c-.27-.07-.55-.14-.84-.19a16.37,16.37,0,0,1-.09-1.72A13.06,13.06,0,0,1,4.94,7.7M3.37,15.87h0c.56.1,1.1.24,1.62.38.1.4.22.8.36,1.21l0,.15c.12.34.25.67.4,1a.42.42,0,0,1,0,.1,20.81,20.81,0,0,0-2.12-.26.48.48,0,0,0-.38.13A.52.52,0,0,0,3.2,19a17,17,0,0,0,.35,2.84l-.07,0a14.68,14.68,0,0,1-1.84-6.19c.6.06,1.17.14,1.73.25M1.23,23.71a20.72,20.72,0,0,1,2.34-.88l.2-.06C4.36,25,5.55,27.57,8,28.9,4.64,28.27,2.09,25,1.24,23.71m7.94,4.68A13.1,13.1,0,0,1,11,23a17.76,17.76,0,0,1,1.15-1.72l.27-.35.27-.32c.19-.22.38-.43.57-.62l.13-.13c.17-.17.34-.32.51-.47l.2-.17c.17-.14.35-.27.51-.39l.12-.08.15.11.46.35.22.19c.17.14.33.3.5.46l.13.12q.3.32.6.66l.16.2c.18.22.35.44.52.67a15.93,15.93,0,0,1,1,1.49,13.1,13.1,0,0,1,1.82,5.35,13,13,0,0,1-5.54,1.1,13.08,13.08,0,0,1-5.55-1.1m12.32.5c2.41-1.32,3.59-3.94,4.17-6.12l.14,0a20.36,20.36,0,0,1,2.4.9c-.85,1.24-3.41,4.56-6.71,5.18" transform="translate(0 0)"/></g></g></g><g id="pinene" class="cls-5"><g class="cls-5"><path class="cls-4" d="M1.14,52.59H0V45.24h1.1v.52a2,2,0,0,1,1.47-.65,2.05,2.05,0,0,1,1.62.72,2.63,2.63,0,0,1,.64,1.82,2.56,2.56,0,0,1-.64,1.78,2.05,2.05,0,0,1-1.6.71,2.07,2.07,0,0,1-1.49-.67Zm2.61-4.94a1.62,1.62,0,0,0-.37-1.11,1.21,1.21,0,0,0-.95-.44,1.26,1.26,0,0,0-1,.42,1.6,1.6,0,0,0-.37,1.11,1.63,1.63,0,0,0,.37,1.1,1.25,1.25,0,0,0,1,.43,1.21,1.21,0,0,0,.94-.43A1.6,1.6,0,0,0,3.75,47.65Z" transform="translate(0 0)"/><path class="cls-4" d="M5.87,43.27a.67.67,0,0,1,.21-.5.71.71,0,0,1,1,0,.67.67,0,0,1,.21.5.69.69,0,0,1-.21.51.67.67,0,0,1-.5.21.72.72,0,0,1-.72-.72Zm1.27,2V50H6V45.24Z" transform="translate(0 0)"/><path class="cls-4" d="M8.53,45.24h1.1v.44a1.8,1.8,0,0,1,1.3-.57,1.66,1.66,0,0,1,1.29.52,2.13,2.13,0,0,1,.4,1.45V50h-1.1V47.34a1.67,1.67,0,0,0-.2-1,.77.77,0,0,0-.69-.27.87.87,0,0,0-.78.36,2.62,2.62,0,0,0-.22,1.25V50H8.53Z" transform="translate(0 0)"/><path class="cls-4" d="M18.34,47.88H14.93a1.46,1.46,0,0,0,.38.93,1.18,1.18,0,0,0,.87.35,1.14,1.14,0,0,0,.68-.2,3,3,0,0,0,.6-.72l.93.51a3.67,3.67,0,0,1-.46.63,2.24,2.24,0,0,1-.51.43,2.06,2.06,0,0,1-.59.25,3,3,0,0,1-.69.08,2.23,2.23,0,0,1-1.71-.69,2.54,2.54,0,0,1-.64-1.82,2.64,2.64,0,0,1,.62-1.83,2.16,2.16,0,0,1,1.67-.69,2.13,2.13,0,0,1,1.66.67,2.65,2.65,0,0,1,.61,1.84ZM17.21,47a1.06,1.06,0,0,0-1.11-.88,1.15,1.15,0,0,0-.37.06,1.26,1.26,0,0,0-.32.18,1.12,1.12,0,0,0-.25.28A1.05,1.05,0,0,0,15,47Z" transform="translate(0 0)"/><path class="cls-4" d="M19.54,45.24h1.11v.44a1.78,1.78,0,0,1,1.29-.57,1.67,1.67,0,0,1,1.3.52,2.13,2.13,0,0,1,.4,1.45V50h-1.1V47.34a1.75,1.75,0,0,0-.2-1,.8.8,0,0,0-.69-.27.85.85,0,0,0-.78.36,2.5,2.5,0,0,0-.22,1.25V50H19.54Z" transform="translate(0 0)"/><path class="cls-4" d="M29.36,47.88H26a1.41,1.41,0,0,0,.38.93,1.15,1.15,0,0,0,.86.35,1.12,1.12,0,0,0,.68-.2,2.62,2.62,0,0,0,.6-.72l.93.51a3.19,3.19,0,0,1-.45.63,2.09,2.09,0,0,1-.52.43,2.06,2.06,0,0,1-.59.25,3,3,0,0,1-.69.08,2.22,2.22,0,0,1-1.7-.69,2.55,2.55,0,0,1-.65-1.82,2.64,2.64,0,0,1,.63-1.83,2.38,2.38,0,0,1,3.33,0,2.65,2.65,0,0,1,.6,1.84ZM28.23,47a1.06,1.06,0,0,0-1.11-.88,1,1,0,0,0-.69.24,1.12,1.12,0,0,0-.25.28A1.31,1.31,0,0,0,26,47Z" transform="translate(0 0)"/></g></g></g></g></svg>