<svg xmlns="http://www.w3.org/2000/svg" xmlns:xlink="http://www.w3.org/1999/xlink" viewBox="0 0 50.54 70.03"><defs><style>.cls-1{fill:none;}.cls-2{isolation:isolate;}.cls-3{fill:#004849;}.cls-4{clip-path:url(#clip-path);}.cls-5{fill:#2cdeb4;}</style><clipPath id="clip-path"><rect class="cls-1" x="4.46" width="41.82" height="55.13"/></clipPath></defs><g id="Layer_2" data-name="Layer 2"><g id="Layer_1-2" data-name="Layer 1"><g id="terpinolene" class="cls-2"><g class="cls-2"><path class="cls-3" d="M1.57,63.71v3.73H.47V63.71H0v-1H.47V60.94h1.1v1.75h.85v1Z"/><path class="cls-3" d="M7.59,65.32H4.18a1.47,1.47,0,0,0,.38.94,1.19,1.19,0,0,0,.86.34,1.12,1.12,0,0,0,.68-.2,2.62,2.62,0,0,0,.6-.72l.93.52a3.91,3.91,0,0,1-.45.63,2.91,2.91,0,0,1-.51.43,2.09,2.09,0,0,1-.6.24,3,3,0,0,1-.68.08,2.26,2.26,0,0,1-1.71-.68A2.57,2.57,0,0,1,3,65.07a2.64,2.64,0,0,1,.63-1.83,2.17,2.17,0,0,1,1.67-.68A2.15,2.15,0,0,1,7,63.22a2.67,2.67,0,0,1,.6,1.85Zm-1.13-.89a1,1,0,0,0-1.11-.88,1.1,1.1,0,0,0-.37.06,1.09,1.09,0,0,0-.32.17,1.12,1.12,0,0,0-.25.28,1.38,1.38,0,0,0-.16.37Z"/><path class="cls-3" d="M8.79,62.69h1.1v.42a2.21,2.21,0,0,1,.53-.43,1.26,1.26,0,0,1,.57-.12,1.77,1.77,0,0,1,.91.28l-.5,1a1.14,1.14,0,0,0-.61-.22c-.6,0-.9.45-.9,1.36v2.46H8.79Z"/><path class="cls-3" d="M13.78,70h-1.1V62.69h1.1v.52a2,2,0,0,1,1.47-.65,2.05,2.05,0,0,1,1.62.72,2.85,2.85,0,0,1,0,3.59,2.09,2.09,0,0,1-1.61.71,2,2,0,0,1-1.49-.67Zm2.61-4.94A1.64,1.64,0,0,0,16,64a1.2,1.2,0,0,0-.95-.43,1.26,1.26,0,0,0-1,.42,1.58,1.58,0,0,0-.37,1.1,1.61,1.61,0,0,0,.37,1.1,1.22,1.22,0,0,0,1,.43,1.18,1.18,0,0,0,.94-.43A1.6,1.6,0,0,0,16.39,65.09Z"/><path class="cls-3" d="M18.51,60.71a.72.72,0,1,1,1.22.51.67.67,0,0,1-.5.21.72.72,0,0,1-.72-.72Zm1.27,2v4.75h-1.1V62.69Z"/><path class="cls-3" d="M21.17,62.69h1.1v.44a1.8,1.8,0,0,1,1.3-.57,1.63,1.63,0,0,1,1.29.52,2.11,2.11,0,0,1,.4,1.45v2.91h-1.1V64.79a1.63,1.63,0,0,0-.2-1,.75.75,0,0,0-.69-.28.84.84,0,0,0-.77.36,2.51,2.51,0,0,0-.23,1.25v2.29h-1.1Z"/><path class="cls-3" d="M26.43,65a2.35,2.35,0,0,1,.73-1.75,2.47,2.47,0,0,1,1.8-.72,2.51,2.51,0,0,1,1.81.72,2.46,2.46,0,0,1,.73,1.79,2.41,2.41,0,0,1-.74,1.79,2.5,2.5,0,0,1-1.82.72,2.41,2.41,0,0,1-1.79-.73A2.47,2.47,0,0,1,26.43,65Zm1.12,0a1.62,1.62,0,0,0,.38,1.13,1.47,1.47,0,0,0,2.06,0A1.76,1.76,0,0,0,30,64a1.46,1.46,0,0,0-2,0A1.52,1.52,0,0,0,27.55,65.05Z"/><path class="cls-3" d="M33.76,59.2v8.24h-1.1V59.2Z"/><path class="cls-3" d="M39.48,65.32H36.07a1.42,1.42,0,0,0,.39.94,1.18,1.18,0,0,0,.86.34,1.14,1.14,0,0,0,.68-.2,3,3,0,0,0,.6-.72l.93.52a4.67,4.67,0,0,1-.46.63,2.91,2.91,0,0,1-.51.43,2,2,0,0,1-.59.24,3,3,0,0,1-.69.08,2.26,2.26,0,0,1-1.71-.68,2.57,2.57,0,0,1-.64-1.83,2.69,2.69,0,0,1,.62-1.83,2.18,2.18,0,0,1,1.67-.68,2.14,2.14,0,0,1,1.66.66,2.63,2.63,0,0,1,.61,1.85Zm-1.13-.89a1,1,0,0,0-1.1-.88,1.16,1.16,0,0,0-.38.06,1.23,1.23,0,0,0-.32.17,1.12,1.12,0,0,0-.25.28,1.37,1.37,0,0,0-.15.37Z"/><path class="cls-3" d="M40.68,62.69h1.11v.44a1.78,1.78,0,0,1,1.3-.57,1.63,1.63,0,0,1,1.29.52,2.11,2.11,0,0,1,.4,1.45v2.91h-1.1V64.79a1.71,1.71,0,0,0-.2-1,.77.77,0,0,0-.69-.28.85.85,0,0,0-.78.36,2.53,2.53,0,0,0-.22,1.25v2.29H40.68Z"/><path class="cls-3" d="M50.5,65.32H47.09a1.47,1.47,0,0,0,.38.94,1.19,1.19,0,0,0,.86.34,1.12,1.12,0,0,0,.68-.2,2.62,2.62,0,0,0,.6-.72l.93.52a3.91,3.91,0,0,1-.45.63,2.91,2.91,0,0,1-.51.43,2.09,2.09,0,0,1-.6.24,3,3,0,0,1-.68.08,2.26,2.26,0,0,1-1.71-.68,2.57,2.57,0,0,1-.65-1.83,2.64,2.64,0,0,1,.63-1.83,2.4,2.4,0,0,1,3.33,0,2.67,2.67,0,0,1,.6,1.85Zm-1.13-.89a1,1,0,0,0-1.11-.88,1.1,1.1,0,0,0-.37.06,1.09,1.09,0,0,0-.32.17,1.12,1.12,0,0,0-.25.28,1.38,1.38,0,0,0-.16.37Z"/></g></g><g id="Group_2331" data-name="Group 2331"><g class="cls-4"><g id="Group_2330" data-name="Group 2330"><path id="Path_1939" data-name="Path 1939" class="cls-3" d="M24.33,55.13a.62.62,0,0,1-.62-.59C23.23,46,23.21,39,23.33,31a.62.62,0,0,1,.62-.62h0a.63.63,0,0,1,.62.64C24.47,39,24.49,46,25,54.47a.63.63,0,0,1-.59.66h0"/><path id="Path_1940" data-name="Path 1940" class="cls-5" d="M18.42,42.59a21.18,21.18,0,0,0-7.23-5.82c-2.12-1-4.48-1.78-6.1-3.49,1.85,3.8,3.3,7.85,5.78,11.27s6.3,6.35,10.65,6.17c2.58-.11,3.12-1.11,1.35-2.92a64.61,64.61,0,0,1-4.44-5.21"/><path id="Path_1941" data-name="Path 1941" class="cls-3" d="M21.16,51.35c-3.86,0-7.87-2.38-10.8-6.43A45.61,45.61,0,0,1,6,36.76c-.48-1.07-1-2.15-1.48-3.2a.63.63,0,0,1,1-.7,13.12,13.12,0,0,0,4.34,2.63c.53.23,1.06.47,1.58.72a22,22,0,0,1,7.44,6l.34.42a59.15,59.15,0,0,0,4.06,4.75c1.05,1.07,1.42,2,1.12,2.71s-1.26,1.2-2.89,1.27h-.38m-14.43-16,.41.92a45.12,45.12,0,0,0,4.23,7.94C14.15,48,18,50.24,21.49,50.09c1.59-.06,1.77-.45,1.77-.47s.14-.38-.84-1.38a60,60,0,0,1-4.15-4.85L17.94,43a20.75,20.75,0,0,0-7-5.65c-.5-.24-1-.48-1.53-.71a25.92,25.92,0,0,1-2.65-1.29"/><path id="Path_1942" data-name="Path 1942" class="cls-3" d="M24,46.16a.64.64,0,0,1-.59-.42A23.39,23.39,0,0,0,21.58,42a19,19,0,0,1-2.24-4.94.63.63,0,0,1,1.22-.29,18.13,18.13,0,0,0,2.1,4.61,24,24,0,0,1,1.95,3.93.63.63,0,0,1-.39.8.64.64,0,0,1-.2,0"/><path id="Path_1943" data-name="Path 1943" class="cls-3" d="M24.13,49.77a.63.63,0,0,1-.62-.55,7.57,7.57,0,0,1,1.22-5,14.07,14.07,0,0,1,1.05-1.39,6.72,6.72,0,0,0,1.45-2.33.63.63,0,0,1,.81-.37.61.61,0,0,1,.39.72,8,8,0,0,1-1.68,2.77,11.75,11.75,0,0,0-1,1.27,6.35,6.35,0,0,0-1,4.15.63.63,0,0,1-.54.7h-.08"/><path id="Path_1944" data-name="Path 1944" class="cls-5" d="M22.74,8a15.37,15.37,0,0,0-5.19-6.68c.17,5.2-.41,10.43.06,15.61s2.19,10.53,6.08,14"/><path id="Path_1945" data-name="Path 1945" class="cls-3" d="M23.27,31.36c-4.46-4-5.88-10-6.28-14.4a76.84,76.84,0,0,1-.11-9.23c.05-2.11.11-4.29.05-6.42l0-1.31,1,.79a16,16,0,0,1,5.39,7l-1.17.42A14.29,14.29,0,0,0,18.2,2.63c0,1.72,0,3.45-.07,5.13a74.53,74.53,0,0,0,.11,9.09C18.62,21,20,26.73,24.1,30.43Z"/><path id="Path_1946" data-name="Path 1946" class="cls-5" d="M20,31.53a31.81,31.81,0,0,0-.44-4.77,19.52,19.52,0,0,0-5.13-9.57,34,34,0,0,0-8.83-6.5c.32,5.83.69,11.89,3.47,17a23.18,23.18,0,0,0,6.78,7.56c.75.55,2.92,2.52,4,1.84s.24-4.49.19-5.59"/><path id="Path_1947" data-name="Path 1947" class="cls-3" d="M19.31,37.89c-1.16,0-2.54-1.09-3.44-1.8l-.39-.3a23.54,23.54,0,0,1-7-7.77C5.63,22.66,5.29,16.32,5,10.72L4.92,9.61l1,.53a34.39,34.39,0,0,1,9,6.62,20.06,20.06,0,0,1,5.29,9.88,31.83,31.83,0,0,1,.44,4.87h0c0,.23.06.6.1,1,.29,2.4.44,4.44-.57,5.11a1.57,1.57,0,0,1-.84.24m-13-26.11c.29,5.18.76,10.88,3.34,15.65a22.23,22.23,0,0,0,6.59,7.35l.42.33c1.92,1.51,2.59,1.65,2.82,1.49s.3-1.55,0-3.92c-.05-.47-.1-.87-.11-1.13A30.48,30.48,0,0,0,19,26.88a18.94,18.94,0,0,0-5-9.27,32.12,32.12,0,0,0-7.69-5.83"/><path id="Path_1948" data-name="Path 1948" class="cls-5" d="M21.64,22.32a26.8,26.8,0,0,1,4.1-20.23c2,4,2.61,8.52,2.81,13A32.74,32.74,0,0,1,28,23.73c-.32,1.42-1.77,7-3.79,6.84-1.26-.08-2.33-6.91-2.6-8.25"/><path id="Path_1949" data-name="Path 1949" class="cls-3" d="M24.3,31.19h-.11c-1.18-.07-2-2.09-3-8-.05-.31-.1-.57-.14-.74a27.3,27.3,0,0,1,4.2-20.71l.6-.87.48.94C28.52,6.21,29,11.19,29.18,15a34,34,0,0,1-.55,8.83c-.38,1.74-1.83,7.33-4.33,7.33M25.65,3.37a26.45,26.45,0,0,0-3.4,18.83c0,.17.08.44.15.77,1,5.65,1.67,6.81,2,7h0c1,0,2.35-3.29,3-6.37a32.4,32.4,0,0,0,.52-8.51A33.37,33.37,0,0,0,25.65,3.37"/><path id="Path_1950" data-name="Path 1950" class="cls-3" d="M20,38.13a.62.62,0,0,1-.59-.42,27.1,27.1,0,0,0-3-5.69L16,31.25A98,98,0,0,1,7.82,15,.62.62,0,0,1,9,14.5a97.44,97.44,0,0,0,8,16.09l.48.77a28.32,28.32,0,0,1,3.11,6,.62.62,0,0,1-.39.79.64.64,0,0,1-.2,0"/><path id="Path_1951" data-name="Path 1951" class="cls-3" d="M23.42,49.78a.41.41,0,0,1-.16,0c-2.72-.69-6.46-1.63-8.68-4.33a16.67,16.67,0,0,1-1.39-2.14,12.81,12.81,0,0,0-1.44-2.15,13.35,13.35,0,0,0-2.4-2A9.88,9.88,0,0,1,6,35.87a.63.63,0,0,1,1.11-.58,8.89,8.89,0,0,0,3,2.87,13.9,13.9,0,0,1,2.62,2.15,13.32,13.32,0,0,1,1.58,2.36,15,15,0,0,0,1.28,2c1.81,2.2,4.7,3.08,8,3.92a.64.64,0,0,1,.45.76.62.62,0,0,1-.6.47"/><path id="Path_1952" data-name="Path 1952" class="cls-5" d="M32.39,39.61A18.38,18.38,0,0,0,42.56,29.9c1.71-3.92,2-8.28,2.81-12.47C38.67,21.94,34.28,29.08,30.1,36c-.49.81-2.69,3.73-2,4.64s3.51-.71,4.31-1"/><path id="Path_1953" data-name="Path 1953" class="cls-3" d="M28.74,41.51A1.36,1.36,0,0,1,27.58,41c-.76-1,.34-2.85,1.64-4.8.15-.22.27-.41.35-.54,4-6.6,8.52-14.08,15.46-18.76l1.25-.84L46,17.54c-.23,1.16-.42,2.34-.6,3.5a37,37,0,0,1-2.25,9.1A18.93,18.93,0,0,1,32.61,40.2c-.14,0-.34.15-.59.26a9.21,9.21,0,0,1-3.28,1M44.48,18.83c-6,4.56-10.16,11.4-13.84,17.48l-.38.59c-1.57,2.34-1.77,3.12-1.67,3.37s1.24-.19,2.91-1l.67-.29A17.65,17.65,0,0,0,42,29.65a35.63,35.63,0,0,0,2.16-8.8l.33-2"/><path id="Path_1954" data-name="Path 1954" class="cls-3" d="M16.59,31.29h0a.61.61,0,0,1-.61-.63h0l.17-8.23a.62.62,0,0,1,.62-.61h0a.62.62,0,0,1,.61.63l-.17,8.24a.63.63,0,0,1-.63.61"/><path id="Path_1955" data-name="Path 1955" class="cls-3" d="M13.43,26.07h0a.63.63,0,0,1-.61-.64L13,19.16a.63.63,0,0,1,.63-.6h0a.62.62,0,0,1,.6.64l-.16,6.26a.63.63,0,0,1-.63.61"/><path id="Path_1956" data-name="Path 1956" class="cls-3" d="M17.93,34.28a.63.63,0,0,1-.35-.11,7.31,7.31,0,0,0-3.1-1.48.62.62,0,0,1-.46-.75.63.63,0,0,1,.73-.47,8.57,8.57,0,0,1,3.54,1.67.63.63,0,0,1-.36,1.14"/><path id="Path_1957" data-name="Path 1957" class="cls-3" d="M11.68,22.94a.7.7,0,0,1-.25-.05A34.82,34.82,0,0,1,8.11,21.3a.63.63,0,1,1,.49-1.15l.09.05a34.31,34.31,0,0,0,3.24,1.54.63.63,0,0,1-.25,1.2"/><path id="Path_1958" data-name="Path 1958" class="cls-5" d="M39.6,16.92a14.46,14.46,0,0,0-6.31,4.48A26.59,26.59,0,0,0,26.7,39.24c0,.69.24,1.58.93,1.62a113.74,113.74,0,0,1,7.68-12.75c1.15-1.65,3.12-3.48,3.71-5.42.24-.8.19-5.64.58-5.77"/><path id="Path_1959" data-name="Path 1959" class="cls-3" d="M27.63,41.48h0c-.9,0-1.49-.93-1.51-2.23A27.25,27.25,0,0,1,32.82,21a14.75,14.75,0,0,1,6.59-4.65h0a.61.61,0,0,1,.78.41.64.64,0,0,1-.12.59,25.21,25.21,0,0,0-.23,2.89,15.6,15.6,0,0,1-.23,2.64,12.67,12.67,0,0,1-2.56,4c-.45.54-.88,1.06-1.23,1.57a114,114,0,0,0-7.64,12.68.62.62,0,0,1-.55.34m11.1-23.57a14.76,14.76,0,0,0-5,3.89,26,26,0,0,0-6.42,17.42,2.07,2.07,0,0,0,.1.66,115.19,115.19,0,0,1,7.36-12.13c.38-.54.82-1.08,1.29-1.65a12.07,12.07,0,0,0,2.34-3.6,20.47,20.47,0,0,0,.17-2.35c0-1,.09-1.7.14-2.24"/><path id="Path_1960" data-name="Path 1960" class="cls-3" d="M23.68,30.63h-.09a.63.63,0,0,1-.53-.71h0a211.86,211.86,0,0,0,2-23.47.63.63,0,0,1,1.25,0,214.22,214.22,0,0,1-2,23.6.62.62,0,0,1-.61.54"/><path id="Path_1961" data-name="Path 1961" class="cls-3" d="M28.49,40.85h-.12a.63.63,0,0,1-.5-.73h0c.66-3.45,3.51-6,5.91-7.78l1-.77C37,30,39.23,28.31,40.52,26a.63.63,0,0,1,1.09.62c-1.43,2.51-3.77,4.24-6,5.91l-1,.77c-2.23,1.67-4.86,4-5.44,7a.63.63,0,0,1-.62.5"/><path id="Path_1962" data-name="Path 1962" class="cls-3" d="M25,19.62h-.07a.63.63,0,0,1-.55-.7h0a3.93,3.93,0,0,0-.5-1.92l-1.36-3.09a.63.63,0,0,1,.27-.84.62.62,0,0,1,.84.27.25.25,0,0,1,0,.07L25,16.5a5,5,0,0,1,.59,2.56.63.63,0,0,1-.62.56"/><path id="Path_1963" data-name="Path 1963" class="cls-3" d="M24.33,27.63A.63.63,0,0,1,23.7,27a.73.73,0,0,1,.09-.32,34.88,34.88,0,0,1,2-3,.63.63,0,0,1,.88-.12.62.62,0,0,1,.12.88h0a33.1,33.1,0,0,0-1.93,2.85.63.63,0,0,1-.53.3"/></g></g></g></g></g></svg>