<svg viewBox="0 0 594 124" fill="none"
  xmlns="http://www.w3.org/2000/svg" width="111" height="45">
  <path d="M55.28 87H51.77C50.6634 87 49.5677 86.7819 48.5455 86.3581C47.5233 85.9343 46.5946 85.3132 45.8126 84.5303C45.0306 83.7474 44.4106 82.818 43.9881 81.7953C43.5655 80.7726 43.3487 79.6766 43.35 78.57V1.14C43.35 0.837653 43.2299 0.54769 43.0161 0.333898C42.8023 0.120107 42.5123 0 42.21 0L29.57 0C29.2676 0 28.9777 0.120107 28.7639 0.333898C28.5501 0.54769 28.43 0.837653 28.43 1.14V78.53C28.4287 81.5959 29.0314 84.632 30.2038 87.4649C31.3761 90.2978 33.0951 92.872 35.2626 95.0403C37.43 97.2087 40.0035 98.9288 42.8359 100.102C45.6682 101.276 48.7041 101.88 51.77 101.88H55.28C55.5823 101.88 55.8723 101.76 56.0861 101.546C56.2999 101.332 56.42 101.042 56.42 100.74V88.1C56.4096 87.8046 56.285 87.5248 56.0723 87.3196C55.8596 87.1144 55.5755 86.9998 55.28 87Z" fill="#2CDEB4"></path>
  <path d="M68 19.5598C62.3422 19.5547 56.8923 21.6918 52.746 25.5412C48.5996 29.3907 46.0644 34.6672 45.65 40.3098C48.74 37.4298 58.89 28.2198 64.11 25.5798C64.1434 25.5628 64.1798 25.5527 64.2172 25.5501C64.2545 25.5475 64.292 25.5524 64.3275 25.5645C64.3629 25.5766 64.3955 25.5957 64.4235 25.6207C64.4514 25.6456 64.474 25.6759 64.49 25.7098C64.5132 25.763 64.5198 25.822 64.5091 25.879C64.4984 25.9361 64.4709 25.9886 64.43 26.0298C64.43 26.0298 64.43 26.0298 64.36 26.0298C59.46 28.5598 51.36 38.9298 48.66 41.9098H58.59C62.0804 41.9125 65.4293 40.5305 67.902 38.0672C70.3748 35.6038 71.7694 32.2602 71.78 28.7698V19.5498L68 19.5598Z" fill="#2CDEB4"></path>
  <path d="M7.66997 25.5801C12.89 28.2201 23 37.4301 26.13 40.3101C25.718 34.6684 23.1849 29.3919 19.0402 25.5422C14.8955 21.6925 9.44671 19.5552 3.78997 19.5601H-2.69153e-05V28.7801C-0.00397232 30.5147 0.334286 32.2331 0.995378 33.8369C1.65647 35.4406 2.62741 36.8982 3.85261 38.1262C5.07781 39.3542 6.5332 40.3284 8.13544 40.9932C9.73768 41.6579 11.4553 42.0001 13.19 42.0001H23.12C20.42 39.0001 12.32 28.6501 7.41997 26.1201H7.34997C7.31586 26.0737 7.29746 26.0176 7.29746 25.9601C7.29746 25.9025 7.31586 25.8464 7.34997 25.8001C7.35456 25.7637 7.36679 25.7287 7.38586 25.6973C7.40493 25.666 7.43042 25.6391 7.46064 25.6183C7.49086 25.5975 7.52514 25.5834 7.56121 25.5768C7.59729 25.5702 7.63436 25.5713 7.66997 25.5801Z" fill="#2CDEB4"></path>
  <path d="M120.7 24.0001C113.97 24.0001 108.57 26.5101 102.5 32.8901V27.3101C102.5 27.1604 102.47 27.0122 102.413 26.8738C102.356 26.7355 102.272 26.6099 102.166 26.504C102.06 26.3981 101.935 26.3142 101.796 26.2569C101.658 26.1996 101.51 26.1701 101.36 26.1701H78.89C78.7403 26.1701 78.592 26.1996 78.4537 26.2569C78.3154 26.3142 78.1897 26.3981 78.0839 26.504C77.978 26.6099 77.894 26.7355 77.8368 26.8738C77.7795 27.0122 77.75 27.1604 77.75 27.3101V36.7401C77.75 37.0424 77.8701 37.3324 78.0839 37.5462C78.2977 37.76 78.5876 37.8801 78.89 37.8801H89.1V89.0001H78.89C78.5876 89.0001 78.2977 89.1202 78.0839 89.334C77.8701 89.5478 77.75 89.8378 77.75 90.1401V99.5601C77.7487 99.7106 77.7772 99.86 77.8339 99.9994C77.8906 100.139 77.9743 100.266 78.0803 100.373C78.1863 100.48 78.3124 100.564 78.4514 100.622C78.5904 100.68 78.7394 100.71 78.89 100.71H114.23C114.381 100.71 114.53 100.68 114.669 100.622C114.808 100.564 114.934 100.48 115.04 100.373C115.146 100.266 115.229 100.139 115.286 99.9994C115.343 99.86 115.371 99.7106 115.37 99.5601V90.1501C115.371 89.9996 115.343 89.8502 115.286 89.7108C115.229 89.5713 115.146 89.4444 115.04 89.3375C114.934 89.2306 114.808 89.1457 114.669 89.0878C114.53 89.0299 114.381 89.0001 114.23 89.0001H102.5V51.6101C111.11 38.6801 116.1 36.0001 120.86 36.0001H121.57C121.613 36.3551 121.633 36.7125 121.63 37.0701V50.2901C121.63 50.5924 121.75 50.8824 121.964 51.0962C122.178 51.31 122.468 51.4301 122.77 51.4301H133C133.302 51.4301 133.592 51.31 133.806 51.0962C134.02 50.8824 134.14 50.5924 134.14 50.2901V29.0001L133 28.0701C129.533 25.2597 125.159 23.8124 120.7 24.0001Z" fill="#2CDEB4"></path>
  <path d="M355.13 24C344.98 24 336.46 27.2 329.31 33.75V27.31C329.31 27.1603 329.281 27.0121 329.223 26.8737C329.166 26.7354 329.082 26.6098 328.976 26.5039C328.87 26.398 328.745 26.3141 328.606 26.2568C328.468 26.1995 328.32 26.17 328.17 26.17H305.7C305.55 26.17 305.402 26.1995 305.264 26.2568C305.125 26.3141 305 26.398 304.894 26.5039C304.788 26.6098 304.704 26.7354 304.647 26.8737C304.589 27.0121 304.56 27.1603 304.56 27.31V36.74C304.56 37.0423 304.68 37.3323 304.894 37.5461C305.108 37.7599 305.398 37.88 305.7 37.88H315.91V111.54H305.7C305.398 111.54 305.108 111.66 304.894 111.874C304.68 112.088 304.56 112.378 304.56 112.68V122.1C304.56 122.402 304.68 122.692 304.894 122.906C305.108 123.12 305.398 123.24 305.7 123.24H339.35C339.652 123.24 339.942 123.12 340.156 122.906C340.37 122.692 340.49 122.402 340.49 122.1V112.68C340.49 112.378 340.37 112.088 340.156 111.874C339.942 111.66 339.652 111.54 339.35 111.54H329.35V93.16C336.5 99.72 345.02 102.92 355.17 102.92C366.24 102.92 376.37 98.92 383.69 91.7C387.358 87.9956 390.248 83.5951 392.19 78.7574C394.133 73.9196 395.088 68.7423 395 63.53C395.083 58.2915 394.122 53.0888 392.171 48.2263C390.221 43.3637 387.32 38.9387 383.64 35.21C376.35 28 366.21 24 355.13 24ZM355 91C340.48 91 328.66 78.65 328.66 63.49C328.66 48.33 340.45 36 355 36C369.86 36 381.5 48.24 381.5 63.85C381.47 78.6 369.32 91 355 91Z" fill="#2CDEB4"></path>
  <path d="M441.86 24.0002C435.381 24.0425 429.011 25.6789 423.314 28.7651C417.616 31.8513 412.766 36.2923 409.191 41.6963C405.616 47.1003 403.426 53.3013 402.814 59.7519C402.202 66.2025 403.188 72.7046 405.683 78.6843C408.179 84.6641 412.108 89.9377 417.123 94.0399C422.139 98.142 428.087 100.947 434.443 102.206C440.799 103.466 447.367 103.142 453.568 101.262C459.769 99.383 465.413 96.0063 470 91.4302C473.703 87.8545 476.65 83.5718 478.666 78.8359C480.683 74.1001 481.728 69.0075 481.74 63.8602C481.792 58.6095 480.796 53.4012 478.81 48.5403C476.824 43.6794 473.888 39.2636 470.174 35.5515C466.461 31.8395 462.043 28.9058 457.181 26.9223C452.319 24.9388 447.111 23.9454 441.86 24.0002ZM442 91.0002C427.49 91.0002 415.67 78.5902 415.67 63.3102C415.67 48.0302 427.41 35.8002 441.83 35.8002C456.6 35.8002 468.17 48.1102 468.17 63.8002C468.2 78.6002 456.22 91.0002 442 91.0002Z" fill="#2CDEB4"></path>
  <path d="M539.74 63.6399C535.74 60.2399 531.09 58.4899 522.62 57.2099L511.75 55.6799C505.63 54.6799 502.09 51.0999 502.09 45.7499C502.09 40.0099 507.09 35.8399 514.02 35.8399C520.48 35.8399 525.92 38.9299 530.19 45.0099V52.6499C530.19 52.9523 530.31 53.2423 530.524 53.456C530.738 53.6698 531.028 53.7899 531.33 53.7899H541.6C541.903 53.79 542.194 53.6702 542.41 53.4567C542.625 53.2431 542.747 52.9532 542.75 52.6499V27.3099C542.747 27.0067 542.625 26.7167 542.41 26.5032C542.194 26.2897 541.903 26.1699 541.6 26.1699H531.33C531.028 26.1699 530.738 26.29 530.524 26.5038C530.31 26.7176 530.19 27.0076 530.19 27.3099V28.9399C525.304 25.6806 519.563 23.9408 513.69 23.9399C500.08 23.9999 489 33.9999 489 46.2499C489 58.1899 497.83 66.7799 512.05 68.6699L522.51 70.1999C529.75 71.1999 534.22 74.9699 534.22 80.1299C534.22 86.2499 528.02 91.0399 520.09 91.0399C516.362 91.0581 512.693 90.106 509.445 88.2774C506.196 86.4487 503.479 83.8064 501.56 80.6099V72.7099C501.56 72.4049 501.439 72.1124 501.223 71.8968C501.008 71.6811 500.715 71.5599 500.41 71.5599H490.17C490.017 71.5573 489.866 71.5851 489.724 71.6417C489.582 71.6983 489.453 71.7826 489.344 71.8896C489.235 71.9967 489.148 72.1243 489.089 72.2652C489.03 72.406 489 72.5572 489 72.7099V99.5699C488.999 99.7205 489.027 99.8698 489.084 100.009C489.141 100.149 489.224 100.276 489.33 100.383C489.436 100.489 489.562 100.574 489.701 100.632C489.84 100.69 489.989 100.72 490.14 100.72H500.41C500.561 100.721 500.712 100.692 500.852 100.635C500.992 100.578 501.119 100.493 501.226 100.386C501.333 100.279 501.418 100.152 501.475 100.012C501.533 99.8715 501.561 99.7213 501.56 99.5699V97.0999C506.929 100.956 513.39 102.996 520 102.92C535.09 102.92 547.36 92.4599 547.36 79.6199C547.362 76.5567 546.679 73.5318 545.36 70.7668C544.042 68.0018 542.121 65.5668 539.74 63.6399Z" fill="#2CDEB4"></path>
  <path d="M592.42 28.26H577.08V1.14C577.08 0.837653 576.96 0.54769 576.746 0.333898C576.532 0.120107 576.242 0 575.94 0L563.3 0C562.998 0 562.708 0.120107 562.494 0.333898C562.28 0.54769 562.16 0.837653 562.16 1.14V28.26H551.66C551.358 28.26 551.068 28.3801 550.854 28.5939C550.64 28.8077 550.52 29.0977 550.52 29.4V38.83C550.516 38.9822 550.543 39.1337 550.598 39.2755C550.654 39.4173 550.737 39.5465 550.843 39.6556C550.949 39.7646 551.076 39.8513 551.217 39.9104C551.357 39.9696 551.508 40.0001 551.66 40H562.16V78.53C562.159 81.5967 562.762 84.6337 563.935 87.4672C565.108 90.3008 566.828 92.8754 568.996 95.0439C571.165 97.2124 573.739 98.9323 576.573 100.105C579.406 101.278 582.443 101.881 585.51 101.88H589C589.302 101.88 589.592 101.76 589.806 101.546C590.02 101.332 590.14 101.042 590.14 100.74V88.1C590.13 87.8046 590.005 87.5248 589.792 87.3196C589.58 87.1144 589.296 86.9998 589 87H585.49C583.254 87 581.11 86.1118 579.529 84.5309C577.948 82.95 577.06 80.8058 577.06 78.57V40H592.4C592.702 40 592.992 39.8799 593.206 39.6661C593.42 39.4523 593.54 39.1623 593.54 38.86V29.4C593.54 29.1011 593.423 28.8141 593.213 28.6009C593.004 28.3877 592.719 28.2652 592.42 28.26Z" fill="#2CDEB4"></path>
  <path d="M299.39 78.7102L297.39 77.7102L292.16 75.1602L290.68 74.4402C290.439 74.3266 290.166 74.2995 289.908 74.3632C289.649 74.4269 289.421 74.5777 289.26 74.7902L288.26 76.1002C280.16 86.9202 272.99 91.1002 262.66 91.1002C251.14 91.1002 242.23 84.7602 238.42 74.5602L241.64 73.6802L248 72.0002L263.84 67.7602L300.25 58.0002C299.874 54.0949 298.86 50.2777 297.25 46.7002C296.602 45.188 295.839 43.7271 294.97 42.3302C291.544 36.7116 286.721 32.0764 280.971 28.8763C275.221 25.6762 268.74 24.0204 262.16 24.0702C256.989 24.0278 251.862 25.012 247.074 26.9657C242.286 28.9195 237.934 31.8039 234.269 35.4519C230.605 39.0999 227.7 43.4389 225.725 48.2175C223.749 52.9961 222.741 58.1193 222.76 63.2902C222.76 85.9202 239.76 103.02 262.32 103.02C277.49 103.02 290.05 95.8202 298.67 82.2402L299.88 80.3402C299.971 80.2051 300.031 80.0515 300.055 79.8905C300.08 79.7295 300.068 79.5651 300.021 79.4091C299.974 79.2532 299.893 79.1096 299.784 78.9887C299.675 78.8678 299.54 78.7727 299.39 78.7102ZM237.14 56.0502C240.14 43.7002 249.6 35.9202 261.94 35.9202C266.667 35.8471 271.313 37.147 275.316 39.6621C279.318 42.1773 282.505 45.7997 284.49 50.0902L262.21 56.0902L250.72 59.1802L236.23 63.0002C236.255 60.6555 236.56 58.3222 237.14 56.0502Z" fill="#2CDEB4"></path>
  <path d="M214.21 78.7101L212.21 77.7101L206.97 75.1601L205.5 74.4401C205.257 74.3278 204.984 74.3012 204.724 74.3648C204.464 74.4284 204.233 74.5784 204.07 74.7901L203.07 76.1001C194.97 86.9201 187.8 91.1001 177.46 91.1001C165.95 91.1001 157.04 84.7601 153.22 74.5601L156.44 73.6801L162.78 71.9801L178.61 67.7401L215.07 58.0001C214.689 54.0958 213.676 50.2793 212.07 46.7001C211.422 45.1859 210.656 43.7248 209.78 42.3301C206.36 36.7116 201.543 32.0747 195.799 28.8711C190.054 25.6676 183.577 24.0066 177 24.0501C171.829 24.0078 166.701 24.9919 161.912 26.9455C157.124 28.8992 152.771 31.7835 149.106 35.4313C145.44 39.0792 142.535 43.4181 140.558 48.1968C138.582 52.9754 137.573 58.0988 137.59 63.2701C137.59 85.9001 154.59 103 177.16 103C192.33 103 204.89 95.8001 213.51 82.2201L214.72 80.3201C214.807 80.1844 214.863 80.0312 214.884 79.8715C214.905 79.7118 214.89 79.5494 214.842 79.3958C214.793 79.2423 214.711 79.1013 214.602 78.9828C214.493 78.8643 214.359 78.7712 214.21 78.7101ZM152 56.0501C155 43.7001 164.45 35.9201 176.8 35.9201C181.527 35.8471 186.173 37.1469 190.176 39.6621C194.178 42.1773 197.365 45.7997 199.35 50.0901L177.07 56.0901L165.58 59.1801L151.05 63.0001C151.088 60.6538 151.407 58.3205 152 56.0501Z" fill="#2CDEB4"></path>
</svg>