<svg xmlns="http://www.w3.org/2000/svg" xmlns:xlink="http://www.w3.org/1999/xlink" width="1080" zoomAndPan="magnify" viewBox="0 0 810 809.999993" height="1080" preserveAspectRatio="xMidYMid meet" version="1.0"><defs><clipPath id="id1"><path d="M 87.0625 442 L 173 442 L 173 528 L 87.0625 528 Z M 87.0625 442 " clip-rule="nonzero"/></clipPath><clipPath id="id2"><path d="M 172 45 L 684 45 L 684 765.957031 L 172 765.957031 Z M 172 45 " clip-rule="nonzero"/></clipPath></defs><rect x="-81" width="972" fill="rgb(100%, 100%, 100%)" y="-80.999999" height="971.999992" fill-opacity="1"/><rect x="-81" width="972" fill="rgb(17.248535%, 87.059021%, 70.588684%)" y="-80.999999" height="971.999992" fill-opacity="1"/><rect x="-81" width="972" fill="rgb(100%, 100%, 100%)" y="-80.999999" height="971.999992" fill-opacity="1"/><rect x="-81" width="972" fill="rgb(17.248535%, 87.059021%, 70.588684%)" y="-80.999999" height="971.999992" fill-opacity="1"/><path fill="rgb(0%, 28.239441%, 28.62854%)" d="M 425.710938 111.957031 C 418.117188 120.039062 415.1875 134.425781 418.1875 137.242188 C 421.292969 140.144531 435.714844 136.542969 443.308594 128.4375 C 449.054688 122.335938 449.773438 113.644531 444.929688 109.097656 C 440.0625 104.570312 431.457031 105.832031 425.710938 111.957031 Z M 421.972656 155.410156 C 416.066406 155.410156 410.546875 153.789062 406.355469 149.851562 C 393.378906 137.691406 401.671875 112.269531 413.070312 100.113281 C 425.351562 87.050781 444.929688 85.410156 456.757812 96.488281 C 468.566406 107.566406 468.203125 127.199219 455.925781 140.28125 C 448.398438 148.296875 434.316406 155.410156 421.972656 155.410156 " fill-opacity="1" fill-rule="nonzero"/><g clip-path="url(#id1)"><path fill="rgb(0%, 28.239441%, 28.62854%)" d="M 153.402344 487.03125 L 140.21875 494.214844 C 139.792969 494.460938 139.453125 494.820312 139.207031 495.25 L 131.996094 508.398438 C 131.523438 509.300781 130.644531 509.726562 129.765625 509.726562 C 128.886719 509.726562 128.007812 509.300781 127.511719 508.398438 L 120.300781 495.25 C 120.078125 494.820312 119.738281 494.460938 119.289062 494.214844 L 106.128906 487.03125 C 104.351562 486.0625 104.351562 483.519531 106.128906 482.550781 L 119.289062 475.34375 C 119.738281 475.121094 120.078125 474.761719 120.300781 474.332031 L 127.511719 461.160156 C 128.007812 460.28125 128.886719 459.832031 129.765625 459.832031 C 130.644531 459.832031 131.523438 460.28125 131.996094 461.160156 L 139.207031 474.332031 C 139.453125 474.761719 139.792969 475.121094 140.21875 475.34375 L 153.402344 482.550781 C 155.179688 483.519531 155.179688 486.0625 153.402344 487.03125 Z M 161.691406 467.375 L 152.320312 462.242188 L 147.183594 452.851562 C 143.691406 446.503906 137.019531 442.539062 129.765625 442.539062 C 122.488281 442.539062 115.820312 446.503906 112.328125 452.851562 L 107.210938 462.242188 L 97.816406 467.375 C 91.441406 470.84375 87.496094 477.53125 87.496094 484.78125 C 87.496094 492.050781 91.441406 498.71875 97.816406 502.183594 L 107.210938 507.320312 L 112.328125 516.707031 C 115.820312 523.058594 122.488281 527.019531 129.765625 527.019531 C 137.019531 527.019531 143.710938 523.058594 147.183594 516.707031 L 152.320312 507.320312 L 161.691406 502.183594 C 168.066406 498.71875 172.035156 492.050781 172.035156 484.78125 C 172.035156 477.53125 168.066406 470.84375 161.691406 467.375 " fill-opacity="1" fill-rule="nonzero"/></g><path fill="rgb(0%, 28.239441%, 28.62854%)" d="M 704.398438 354.164062 L 695.40625 359.09375 C 695.113281 359.230469 694.890625 359.476562 694.710938 359.769531 L 689.796875 368.753906 C 689.480469 369.339844 688.875 369.652344 688.265625 369.652344 C 687.679688 369.652344 687.070312 369.339844 686.757812 368.753906 L 681.84375 359.769531 C 681.6875 359.476562 681.4375 359.230469 681.144531 359.09375 L 672.15625 354.164062 C 670.960938 353.511719 670.960938 351.777344 672.15625 351.125 L 681.144531 346.191406 C 681.4375 346.058594 681.6875 345.808594 681.84375 345.515625 L 686.757812 336.53125 C 687.070312 335.945312 687.679688 335.632812 688.265625 335.632812 C 688.875 335.632812 689.480469 335.945312 689.796875 336.53125 L 694.710938 345.515625 C 694.890625 345.808594 695.113281 346.058594 695.40625 346.191406 L 704.398438 351.125 C 705.59375 351.777344 705.59375 353.511719 704.398438 354.164062 Z M 712.6875 335.945312 L 707.710938 333.222656 L 704.984375 328.246094 C 701.648438 322.121094 695.25 318.339844 688.265625 318.339844 C 681.304688 318.339844 674.90625 322.121094 671.570312 328.246094 L 668.84375 333.222656 L 663.863281 335.945312 C 657.734375 339.28125 653.949219 345.675781 653.949219 352.632812 C 653.949219 359.589844 657.734375 366.007812 663.863281 369.339844 L 668.84375 372.0625 L 671.570312 377.039062 C 674.90625 383.164062 681.304688 386.945312 688.265625 386.945312 C 695.25 386.945312 701.648438 383.164062 704.984375 377.039062 L 707.710938 372.0625 L 712.6875 369.339844 C 718.796875 366.007812 722.601562 359.589844 722.601562 352.632812 C 722.601562 345.675781 718.796875 339.28125 712.6875 335.945312 " fill-opacity="1" fill-rule="nonzero"/><path fill="rgb(0%, 28.239441%, 28.62854%)" d="M 534.582031 253.988281 C 542.421875 255.789062 546.90625 259.144531 552.378906 273.148438 C 554.769531 279.230469 560.535156 283.125 566.777344 283.125 C 567.003906 283.125 567.25 283.125 567.476562 283.125 C 574.078125 283.125 579.824219 279.230469 582.210938 273.148438 C 587.6875 259.167969 592.171875 255.8125 599.964844 254.011719 C 604.132812 253.042969 607.445312 249.441406 607.265625 245.160156 C 607.039062 239.621094 601.925781 235.839844 596.765625 237.011719 C 582.773438 240.074219 574.617188 247.210938 567.769531 262.8125 C 567.589844 263.21875 567.003906 263.21875 566.84375 262.8125 C 559.972656 247.210938 551.816406 240.074219 537.824219 237.011719 C 532.644531 235.816406 527.550781 239.621094 527.324219 245.183594 C 527.144531 249.441406 530.433594 253.042969 534.582031 253.988281 " fill-opacity="1" fill-rule="nonzero"/><path fill="rgb(0%, 28.239441%, 28.62854%)" d="M 567.273438 290.398438 C 561.910156 290.398438 557.585938 294.742188 557.585938 300.078125 C 557.585938 305.4375 561.910156 309.785156 567.273438 309.785156 C 572.636719 309.785156 576.960938 305.4375 576.960938 300.078125 C 576.960938 294.742188 572.636719 290.398438 567.273438 290.398438 " fill-opacity="1" fill-rule="nonzero"/><g clip-path="url(#id2)"><path fill="rgb(0%, 28.239441%, 28.62854%)" d="M 608.371094 365.578125 C 597.578125 368.707031 586.761719 370.554688 575.949219 371.230469 L 575.949219 329.867188 C 575.949219 325.09375 572.074219 321.222656 567.296875 321.222656 C 562.519531 321.222656 558.644531 325.09375 558.644531 329.867188 L 558.644531 371.230469 C 547.808594 370.554688 536.992188 368.707031 526.222656 365.578125 C 524.800781 338.875 513.785156 313.070312 494.566406 292.421875 C 476.472656 272.96875 467.101562 247.503906 468.183594 220.777344 C 470.34375 167.886719 515.429688 125.058594 568.332031 125.824219 C 622.453125 126.410156 666.5 170.878906 666.5 224.941406 C 666.5 250.542969 656.8125 274.816406 639.171875 293.277344 C 620.445312 312.980469 609.699219 338.46875 608.371094 365.578125 Z M 527.980469 384.109375 C 554.09375 390.617188 580.363281 390.640625 606.566406 384.109375 C 601.8125 402.054688 586.492188 414.507812 567.273438 414.507812 C 548.03125 414.507812 532.710938 402.054688 527.980469 384.109375 Z M 614.183594 461.902344 C 607.515625 494.4375 582.300781 518.015625 546.746094 524.992188 C 540.101562 526.300781 533.925781 529.925781 529.355469 535.214844 C 517.300781 549.152344 500.785156 568.246094 452.207031 568.246094 C 421.949219 568.246094 397.683594 557.890625 383.914062 539.066406 C 372.402344 523.351562 369.539062 502.65625 375.464844 480.433594 C 392.703125 476.921875 407.347656 464.019531 412.148438 445.9375 C 415.03125 435.042969 413.996094 423.714844 409.261719 413.628906 C 413.070312 411.78125 416.832031 409.800781 420.460938 407.550781 C 424.515625 405.027344 425.757812 399.691406 423.234375 395.636719 C 420.710938 391.585938 415.371094 390.347656 411.3125 392.867188 C 385.449219 408.96875 353.226562 413.289062 329.253906 403.902344 C 312.539062 397.347656 301.160156 384.605469 296.335938 367.042969 C 286.917969 332.613281 270 292.671875 222.570312 289.226562 C 217.816406 288.886719 213.671875 292.46875 213.3125 297.21875 C 212.996094 301.476562 215.835938 305.191406 219.820312 306.203125 C 209.953125 342.363281 215.632812 370.667969 218.832031 386.429688 L 219.328125 388.949219 C 220.113281 392.867188 218.066406 397.101562 214.820312 401.355469 C 193.796875 379.605469 185.28125 349.683594 191.433594 317.890625 C 198.28125 282.5625 222.570312 252.953125 253.28125 242.4375 C 258.554688 240.636719 263.285156 237.214844 267.316406 232.28125 C 307.039062 183.828125 385.378906 165.746094 453.582031 189.34375 C 454.484375 189.636719 455.339844 190.019531 456.242188 190.355469 C 453.242188 199.835938 451.304688 209.765625 450.878906 220.078125 C 449.617188 251.464844 460.632812 281.324219 481.902344 304.175781 C 499.5 323.113281 509.324219 351.304688 509.324219 375.644531 C 511.035156 407.390625 535.84375 431.800781 567.273438 431.800781 C 583.945312 431.800781 598.726562 424.886719 609.203125 413.695312 C 615.625 428.554688 617.585938 445.285156 614.183594 461.902344 Z M 480.214844 737.683594 C 480.484375 740.765625 479.492188 743.875 477.53125 746.035156 C 476.40625 747.273438 474.445312 748.738281 471.539062 748.738281 L 324.164062 748.738281 C 320.648438 748.738281 317.515625 747.117188 315.578125 744.28125 C 313.550781 741.308594 313.167969 737.660156 314.519531 734.214844 C 329.234375 696.410156 352.980469 663.289062 381.390625 640.90625 C 399.507812 626.65625 419.648438 619.808594 433.597656 619.808594 C 439.320312 619.808594 443.984375 620.957031 447.070312 623.230469 C 459.710938 632.554688 475.503906 687.109375 480.214844 737.683594 Z M 303.636719 559.105469 C 294.894531 560.683594 286.625 562.167969 280.339844 562.414062 C 246.613281 564.171875 242.734375 548.003906 237.757812 514.230469 C 236.742188 507.339844 235.660156 500.339844 234.175781 493.246094 C 239.761719 492.90625 246.65625 491.851562 253.617188 489.171875 C 258.078125 487.4375 260.289062 482.4375 258.574219 477.980469 C 256.839844 473.523438 251.839844 471.316406 247.378906 473.027344 C 240.6875 475.617188 233.925781 476.132812 229.464844 476.109375 C 223.992188 461.207031 216.667969 454.046875 211.171875 448.6875 C 206.125 443.777344 204.75 442.449219 205.3125 437.226562 C 205.875 434.996094 211.644531 429.457031 215.449219 425.785156 C 220.65625 420.8125 226.445312 415.226562 230.683594 408.898438 C 232.800781 409.351562 234.917969 409.554688 236.96875 409.554688 C 249.226562 409.554688 259.792969 403.046875 260.402344 402.664062 C 264.457031 400.140625 265.671875 394.78125 263.148438 390.75 C 260.601562 386.699219 255.261719 385.484375 251.207031 388.027344 C 251.117188 388.074219 243.773438 392.371094 236.789062 392.238281 C 236.902344 390.097656 236.765625 387.871094 236.316406 385.550781 L 235.796875 382.984375 C 234.128906 374.832031 231.964844 363.957031 231.605469 350.71875 C 237.304688 350.402344 245.28125 350.3125 253.820312 351.394531 C 258.53125 351.980469 262.902344 348.644531 263.511719 343.917969 C 264.117188 339.191406 260.761719 334.84375 256.007812 334.234375 C 247.015625 333.109375 238.636719 333.085938 232.238281 333.402344 C 233.003906 325.972656 234.421875 318.046875 236.808594 309.601562 C 256.929688 316.742188 269.863281 335.902344 279.640625 371.613281 C 285.972656 394.648438 300.933594 411.375 322.945312 420 C 333.265625 424.054688 344.800781 426.035156 356.742188 426.035156 C 368.730469 426.035156 381.097656 423.964844 393.109375 420.113281 C 396.351562 426.507812 397.390625 434.050781 395.40625 441.503906 C 391.125 457.714844 374.476562 467.398438 358.253906 463.117188 C 353.65625 461.878906 348.902344 464.648438 347.6875 469.265625 C 346.46875 473.882812 349.21875 478.609375 353.835938 479.824219 C 355.074219 480.164062 356.316406 480.34375 357.554688 480.546875 C 351.832031 506.238281 356.066406 530.332031 369.945312 549.289062 C 383.9375 568.40625 406.132812 580.359375 433.371094 584.121094 L 439.117188 602.96875 C 423.121094 601.390625 402.773438 606.90625 383.847656 618.277344 C 382.382812 600.3125 378.441406 573.425781 367.714844 563.453125 C 353.429688 550.167969 326.980469 554.941406 303.636719 559.105469 Z M 368.933594 125.578125 C 364.832031 126.929688 358.570312 124.183594 352.148438 118.328125 C 345.320312 112.113281 339.328125 103.105469 336.847656 95.359375 C 334.640625 88.449219 334.867188 81.265625 337.480469 75.140625 C 339.933594 69.445312 344.195312 65.371094 349.488281 63.679688 C 351.289062 63.09375 353.136719 62.824219 355.007812 62.824219 C 358.679688 62.824219 362.421875 63.90625 365.9375 66.042969 C 371.613281 69.511719 375.984375 75.207031 378.191406 82.121094 C 380.648438 89.777344 380.875 100.585938 378.777344 109.703125 C 376.820312 118.191406 373.054688 124.273438 368.933594 125.578125 Z M 651.71875 305.210938 C 672.402344 283.53125 683.804688 255.023438 683.804688 224.941406 C 683.804688 161.445312 632.09375 109.207031 568.511719 108.53125 C 522.59375 107.925781 481.902344 135.101562 462.640625 174.304688 C 461.492188 173.875 460.410156 173.402344 459.238281 172.996094 C 436.796875 165.230469 413.339844 161.714844 390.292969 161.917969 C 389.683594 152.507812 387.113281 143.523438 384.117188 136.003906 C 389.4375 130.890625 393.402344 123.28125 395.632812 113.578125 C 398.472656 101.304688 398.109375 87.570312 394.664062 76.851562 C 391.195312 65.976562 384.164062 56.878906 374.925781 51.273438 C 365.261719 45.398438 354.355469 43.933594 344.214844 47.199219 C 334.078125 50.441406 326.035156 57.960938 321.574219 68.320312 C 317.3125 78.269531 316.886719 89.730469 320.355469 100.605469 C 323.804688 111.371094 331.328125 122.761719 340.476562 131.09375 C 349.21875 139.066406 358.296875 143.207031 366.746094 143.207031 C 367.289062 143.207031 367.828125 143.117188 368.371094 143.09375 C 370.734375 149.105469 372.605469 155.929688 373.101562 162.707031 C 325.652344 167.074219 281.535156 187.65625 253.933594 221.339844 C 251.953125 223.726562 249.855469 225.347656 247.671875 226.089844 C 210.652344 238.765625 182.578125 272.675781 174.445312 314.578125 C 167.234375 351.777344 177.871094 388.183594 202.878906 413.875 C 195.375 421.105469 188.953125 427.429688 188.121094 435.265625 C 186.65625 448.980469 193.257812 455.394531 199.09375 461.070312 C 204.457031 466.269531 210.515625 472.171875 214.820312 486.875 C 217.660156 496.554688 219.167969 506.824219 220.632812 516.753906 C 225.160156 547.488281 230.253906 582.230469 281.128906 579.707031 C 288.519531 579.394531 297.351562 577.816406 306.703125 576.128906 C 324.117188 573 347.980469 568.71875 355.933594 576.128906 C 361.992188 581.734375 366.339844 607.71875 367.242188 630.257812 C 337.996094 654.417969 313.617188 688.84375 298.386719 727.933594 C 294.984375 736.648438 296.066406 746.394531 301.292969 754.03125 C 306.429688 761.550781 314.972656 766.03125 324.164062 766.03125 L 471.539062 766.03125 C 478.726562 766.03125 485.417969 763.058594 490.308594 757.675781 C 495.578125 751.914062 498.171875 744.03125 497.425781 736.082031 C 494.386719 703.253906 481.296875 631.609375 459.753906 611.367188 L 451.890625 585.515625 C 451.980469 585.515625 452.09375 585.539062 452.207031 585.539062 C 508.714844 585.539062 529.828125 561.109375 542.445312 546.519531 C 544.496094 544.15625 547.222656 542.535156 550.082031 541.972656 C 592.710938 533.59375 623.015625 504.953125 631.125 465.394531 C 636.039062 441.480469 631.757812 417.367188 620.175781 397.101562 C 623.308594 389.964844 625.132812 382.039062 625.3125 373.617188 C 625.3125 348.828125 634.753906 323.046875 651.71875 305.210938 " fill-opacity="1" fill-rule="nonzero"/></g></svg>