<svg xmlns="http://www.w3.org/2000/svg" xmlns:xlink="http://www.w3.org/1999/xlink" width="1080" zoomAndPan="magnify" viewBox="0 0 810 809.999993" height="1080" preserveAspectRatio="xMidYMid meet" version="1.0"><rect x="-81" width="972" fill="rgb(100%, 100%, 100%)" y="-80.999999" height="971.999992" fill-opacity="1"/><rect x="-81" width="972" fill="rgb(17.248535%, 87.059021%, 70.588684%)" y="-80.999999" height="971.999992" fill-opacity="1"/><rect x="-81" width="972" fill="rgb(100%, 100%, 100%)" y="-80.999999" height="971.999992" fill-opacity="1"/><rect x="-81" width="972" fill="rgb(17.248535%, 87.059021%, 70.588684%)" y="-80.999999" height="971.999992" fill-opacity="1"/><path fill="rgb(0%, 28.239441%, 28.62854%)" d="M 618.0625 232.199219 C 599.171875 195.089844 546.566406 173.308594 461.691406 167.398438 L 460.878906 167.398438 L 460.878906 167.496094 C 459.910156 167.492188 458.957031 167.621094 458.019531 167.875 C 457.082031 168.132812 456.195312 168.507812 455.363281 169.003906 C 454.527344 169.503906 453.773438 170.101562 453.105469 170.800781 C 452.433594 171.503906 451.867188 172.28125 451.40625 173.136719 C 450.945312 173.992188 450.609375 174.894531 450.394531 175.839844 C 450.179688 176.789062 450.097656 177.746094 450.140625 178.714844 C 450.1875 179.6875 450.363281 180.632812 450.664062 181.554688 C 450.96875 182.476562 451.390625 183.34375 451.925781 184.152344 C 459.664062 198.039062 465.515625 212.679688 469.476562 228.074219 C 477.132812 252.546875 485.816406 280.28125 504.035156 300.714844 C 505.738281 302.800781 507.550781 304.789062 509.46875 306.679688 C 511.390625 308.566406 513.40625 310.34375 515.519531 312.011719 C 517.636719 313.679688 519.835938 315.226562 522.121094 316.65625 C 524.402344 318.082031 526.757812 319.378906 529.183594 320.550781 C 531.609375 321.71875 534.09375 322.75 536.632812 323.648438 C 539.171875 324.542969 541.753906 325.300781 544.375 325.914062 C 546.996094 326.53125 549.644531 327 552.320312 327.324219 C 554.992188 327.648438 557.675781 327.824219 560.367188 327.855469 C 567.457031 327.757812 574.421875 326.785156 581.261719 324.933594 C 588.105469 323.082031 594.609375 320.414062 600.78125 316.925781 C 607.464844 326.074219 618.15625 340.460938 631.019531 357.511719 L 648.234375 344.519531 C 634.195312 325.878906 622.78125 310.542969 616.453125 301.828125 C 617.839844 299.160156 619.070312 296.417969 620.148438 293.609375 C 621.222656 290.800781 622.136719 287.9375 622.882812 285.023438 C 623.632812 282.109375 624.210938 279.164062 624.625 276.183594 C 625.035156 273.203125 625.277344 270.207031 625.34375 267.199219 C 625.414062 264.191406 625.3125 261.191406 625.039062 258.195312 C 624.765625 255.199219 624.324219 252.226562 623.710938 249.28125 C 623.097656 246.335938 622.316406 243.4375 621.371094 240.578125 C 620.429688 237.722656 619.324219 234.929688 618.0625 232.199219 Z M 598.730469 241.84375 C 600.1875 244.894531 601.339844 248.058594 602.195312 251.332031 C 603.046875 254.605469 603.582031 257.929688 603.796875 261.304688 C 604.015625 264.679688 603.910156 268.046875 603.480469 271.402344 C 603.054688 274.757812 602.3125 278.039062 601.257812 281.253906 C 587.433594 263.953125 572.234375 247.960938 555.660156 233.273438 C 539.085938 218.582031 521.382812 205.417969 502.546875 193.773438 C 565.703125 204.023438 589.949219 224.757812 598.730469 241.824219 Z M 520.140625 286.371094 C 505.019531 269.40625 497.460938 245.128906 490.09375 221.648438 C 488.742188 217.328125 487.382812 213.105469 486.023438 208.925781 C 505.6875 220.640625 524.082031 234.089844 541.207031 249.28125 C 558.328125 264.46875 573.878906 281.128906 587.855469 299.257812 C 586.496094 300.039062 585.109375 300.757812 583.6875 301.414062 C 582.265625 302.074219 580.820312 302.667969 579.347656 303.195312 C 577.871094 303.726562 576.378906 304.1875 574.863281 304.582031 C 573.347656 304.980469 571.820312 305.308594 570.277344 305.566406 C 568.734375 305.828125 567.179688 306.019531 565.621094 306.140625 C 564.058594 306.265625 562.496094 306.316406 560.929688 306.300781 C 559.363281 306.285156 557.804688 306.199219 556.246094 306.042969 C 554.6875 305.886719 553.140625 305.664062 551.601562 305.371094 C 550.0625 305.078125 548.542969 304.714844 547.035156 304.285156 C 545.53125 303.859375 544.046875 303.363281 542.585938 302.804688 C 541.121094 302.242188 539.6875 301.621094 538.28125 300.933594 C 536.875 300.242188 535.503906 299.496094 534.164062 298.683594 C 532.824219 297.875 531.523438 297.007812 530.257812 296.082031 C 528.996094 295.15625 527.777344 294.175781 526.601562 293.144531 C 525.425781 292.109375 524.296875 291.023438 523.21875 289.890625 C 522.140625 288.757812 521.113281 287.578125 520.140625 286.351562 Z M 520.140625 286.371094 " fill-opacity="1" fill-rule="nonzero"/><path fill="rgb(0%, 28.239441%, 28.62854%)" d="M 544.847656 81 C 541.933594 81.003906 539.019531 81.078125 536.109375 81.222656 C 533.195312 81.371094 530.289062 81.589844 527.390625 81.875 C 524.488281 82.164062 521.59375 82.523438 518.710938 82.957031 C 515.828125 83.386719 512.957031 83.886719 510.097656 84.457031 C 507.238281 85.027344 504.394531 85.671875 501.570312 86.378906 C 498.742188 87.089844 495.933594 87.871094 493.144531 88.71875 C 490.355469 89.566406 487.585938 90.484375 484.84375 91.46875 C 482.097656 92.453125 479.378906 93.503906 476.6875 94.621094 C 473.996094 95.738281 471.332031 96.917969 468.695312 98.167969 C 466.0625 99.414062 463.457031 100.726562 460.886719 102.101562 C 458.316406 103.476562 455.78125 104.914062 453.28125 106.414062 C 450.78125 107.914062 448.320312 109.476562 445.894531 111.09375 C 443.472656 112.714844 441.089844 114.394531 438.75 116.132812 C 436.40625 117.867188 434.109375 119.664062 431.855469 121.511719 C 429.605469 123.363281 427.398438 125.265625 425.238281 127.222656 C 423.078125 129.183594 420.964844 131.191406 418.90625 133.253906 C 416.84375 135.316406 414.832031 137.425781 412.875 139.585938 C 410.917969 141.746094 409.011719 143.953125 407.164062 146.207031 C 405.3125 148.460938 403.519531 150.757812 401.78125 153.097656 C 400.046875 155.441406 398.367188 157.820312 396.746094 160.246094 C 395.125 162.667969 393.566406 165.132812 392.066406 167.632812 C 390.566406 170.132812 389.128906 172.667969 387.753906 175.238281 C 386.378906 177.808594 385.066406 180.410156 383.820312 183.046875 C 382.570312 185.679688 381.386719 188.34375 380.269531 191.039062 C 379.152344 193.730469 378.101562 196.449219 377.121094 199.195312 C 376.136719 201.9375 375.21875 204.703125 374.371094 207.496094 C 373.523438 210.285156 372.742188 213.09375 372.03125 215.917969 C 371.320312 218.746094 370.679688 221.589844 370.109375 224.449219 C 369.539062 227.308594 369.039062 230.179688 368.605469 233.0625 C 368.175781 235.945312 367.816406 238.839844 367.527344 241.738281 C 367.238281 244.640625 367.023438 247.546875 366.875 250.460938 C 366.730469 253.371094 366.65625 256.285156 366.652344 259.199219 C 366.640625 269.585938 367.539062 279.890625 369.355469 290.117188 C 371.167969 300.34375 373.867188 310.332031 377.453125 320.078125 L 377.453125 351 L 334.253906 351 C 333.542969 351 332.839844 351.070312 332.144531 351.207031 C 331.449219 351.347656 330.773438 351.550781 330.121094 351.820312 C 329.464844 352.09375 328.84375 352.425781 328.253906 352.820312 C 327.664062 353.214844 327.117188 353.660156 326.617188 354.164062 C 326.113281 354.664062 325.667969 355.210938 325.273438 355.800781 C 324.878906 356.390625 324.546875 357.011719 324.273438 357.667969 C 324.003906 358.320312 323.796875 358.996094 323.660156 359.691406 C 323.523438 360.386719 323.453125 361.089844 323.453125 361.800781 L 323.453125 405 C 323.453125 405.710938 323.523438 406.410156 323.660156 407.105469 C 323.796875 407.800781 324.003906 408.476562 324.273438 409.132812 C 324.546875 409.789062 324.878906 410.410156 325.273438 411 C 325.667969 411.589844 326.113281 412.136719 326.617188 412.636719 C 327.117188 413.136719 327.664062 413.585938 328.253906 413.980469 C 328.84375 414.375 329.464844 414.707031 330.121094 414.976562 C 330.773438 415.25 331.449219 415.453125 332.144531 415.59375 C 332.839844 415.730469 333.542969 415.800781 334.253906 415.800781 L 377.453125 415.800781 L 377.453125 459 C 377.453125 459.710938 377.519531 460.410156 377.660156 461.105469 C 377.796875 461.800781 378.003906 462.476562 378.273438 463.132812 C 378.546875 463.789062 378.878906 464.410156 379.273438 465 C 379.664062 465.589844 380.113281 466.136719 380.613281 466.636719 C 381.117188 467.136719 381.660156 467.585938 382.25 467.980469 C 382.839844 468.375 383.464844 468.707031 384.117188 468.976562 C 384.773438 469.25 385.449219 469.453125 386.144531 469.59375 C 386.839844 469.730469 387.542969 469.800781 388.25 469.800781 L 431.449219 469.800781 C 432.160156 469.800781 432.863281 469.730469 433.558594 469.59375 C 434.253906 469.453125 434.929688 469.25 435.582031 468.976562 C 436.238281 468.707031 436.859375 468.375 437.449219 467.980469 C 438.039062 467.585938 438.585938 467.136719 439.085938 466.636719 C 439.589844 466.136719 440.035156 465.589844 440.429688 465 C 440.824219 464.410156 441.15625 463.789062 441.429688 463.132812 C 441.699219 462.476562 441.90625 461.800781 442.042969 461.105469 C 442.179688 460.410156 442.25 459.710938 442.25 459 L 442.25 415.800781 L 460.015625 415.800781 C 462.984375 417.414062 466 418.941406 469.054688 420.382812 C 472.113281 421.824219 475.207031 423.175781 478.339844 424.441406 C 481.476562 425.707031 484.640625 426.882812 487.84375 427.964844 C 491.042969 429.050781 494.273438 430.042969 497.527344 430.945312 C 500.785156 431.847656 504.066406 432.65625 507.371094 433.371094 C 510.671875 434.085938 513.992188 434.703125 517.332031 435.230469 C 520.667969 435.757812 524.019531 436.1875 527.382812 436.519531 C 530.746094 436.855469 534.113281 437.097656 537.492188 437.238281 C 540.867188 437.382812 544.246094 437.429688 547.625 437.382812 C 551.003906 437.332031 554.378906 437.1875 557.75 436.945312 C 561.121094 436.707031 564.480469 436.371094 567.832031 435.9375 C 571.183594 435.503906 574.523438 434.980469 577.84375 434.355469 C 581.164062 433.734375 584.464844 433.019531 587.746094 432.210938 C 591.027344 431.398438 594.285156 430.496094 597.515625 429.503906 C 600.742188 428.507812 603.941406 427.421875 607.109375 426.246094 C 610.277344 425.066406 613.410156 423.800781 616.503906 422.445312 C 619.601562 421.09375 622.65625 419.648438 625.671875 418.121094 C 628.683594 416.59375 631.652344 414.980469 634.574219 413.28125 C 637.496094 411.582031 640.367188 409.804688 643.1875 407.941406 C 646.007812 406.082031 648.773438 404.140625 651.484375 402.125 C 654.195312 400.105469 656.847656 398.011719 659.4375 395.84375 C 662.027344 393.671875 664.558594 391.429688 667.019531 389.117188 C 669.484375 386.804688 671.878906 384.425781 674.207031 381.976562 C 676.535156 379.523438 678.792969 377.011719 680.980469 374.433594 C 683.164062 371.855469 685.273438 369.21875 687.308594 366.519531 C 689.34375 363.824219 691.300781 361.070312 693.179688 358.257812 C 695.058594 355.449219 696.855469 352.589844 698.574219 349.679688 C 700.289062 346.765625 701.921875 343.808594 703.46875 340.804688 C 705.015625 337.800781 706.476562 334.753906 707.851562 331.667969 C 709.226562 328.578125 710.511719 325.457031 711.707031 322.296875 C 712.902344 319.136719 714.007812 315.941406 715.023438 312.71875 C 716.039062 309.496094 716.960938 306.246094 717.792969 302.96875 C 718.621094 299.695312 719.359375 296.398438 720 293.078125 C 720.644531 289.761719 721.191406 286.429688 721.644531 283.078125 C 722.097656 279.730469 722.453125 276.371094 722.714844 273 C 722.976562 269.632812 723.144531 266.257812 723.210938 262.878906 C 723.28125 259.5 723.257812 256.121094 723.132812 252.746094 C 723.011719 249.367188 722.792969 245.996094 722.480469 242.632812 C 722.164062 239.265625 721.753906 235.914062 721.25 232.574219 C 720.746094 229.230469 720.144531 225.90625 719.453125 222.597656 C 718.757812 219.292969 717.96875 216.007812 717.089844 212.742188 C 716.207031 209.480469 715.234375 206.246094 714.167969 203.039062 C 713.105469 199.832031 711.949219 196.65625 710.703125 193.515625 C 709.457031 190.375 708.125 187.269531 706.703125 184.207031 C 705.28125 181.140625 703.769531 178.117188 702.175781 175.136719 C 700.582031 172.15625 698.90625 169.226562 697.144531 166.339844 C 695.382812 163.457031 693.542969 160.625 691.621094 157.84375 C 689.699219 155.066406 687.699219 152.34375 685.621094 149.675781 C 683.542969 147.011719 681.394531 144.40625 679.167969 141.863281 C 676.941406 139.320312 674.648438 136.839844 672.28125 134.429688 C 669.914062 132.015625 667.480469 129.671875 664.980469 127.398438 C 662.480469 125.121094 659.921875 122.921875 657.296875 120.792969 C 654.671875 118.664062 651.988281 116.613281 649.246094 114.636719 C 646.503906 112.660156 643.707031 110.761719 640.859375 108.945312 C 638.011719 107.128906 635.109375 105.394531 632.164062 103.742188 C 629.214844 102.089844 626.222656 100.523438 623.183594 99.042969 C 620.148438 97.558594 617.070312 96.164062 613.953125 94.859375 C 610.835938 93.550781 607.6875 92.335938 604.5 91.207031 C 601.316406 90.082031 598.097656 89.042969 594.855469 88.101562 C 591.609375 87.15625 588.339844 86.304688 585.046875 85.546875 C 581.753906 84.789062 578.441406 84.125 575.109375 83.554688 C 571.78125 82.984375 568.433594 82.507812 565.078125 82.128906 C 561.71875 81.75 558.351562 81.464844 554.980469 81.277344 C 551.605469 81.089844 548.226562 80.996094 544.847656 81 Z M 431.449219 394.199219 C 430.742188 394.199219 430.039062 394.269531 429.34375 394.40625 C 428.648438 394.546875 427.972656 394.75 427.316406 395.023438 C 426.664062 395.292969 426.039062 395.625 425.449219 396.019531 C 424.859375 396.414062 424.316406 396.863281 423.8125 397.363281 C 423.3125 397.863281 422.863281 398.410156 422.472656 399 C 422.078125 399.589844 421.746094 400.210938 421.472656 400.867188 C 421.203125 401.523438 420.996094 402.199219 420.859375 402.894531 C 420.71875 403.589844 420.652344 404.289062 420.652344 405 L 420.652344 448.199219 L 399.050781 448.199219 L 399.050781 405 C 399.050781 404.289062 398.980469 403.589844 398.84375 402.894531 C 398.707031 402.199219 398.5 401.523438 398.230469 400.867188 C 397.957031 400.210938 397.625 399.589844 397.230469 399 C 396.835938 398.410156 396.390625 397.863281 395.886719 397.363281 C 395.386719 396.863281 394.839844 396.414062 394.25 396.019531 C 393.660156 395.625 393.039062 395.292969 392.382812 395.023438 C 391.730469 394.75 391.054688 394.546875 390.359375 394.40625 C 389.664062 394.269531 388.960938 394.199219 388.25 394.199219 L 345.050781 394.199219 L 345.050781 372.601562 L 388.25 372.601562 C 388.960938 372.601562 389.664062 372.53125 390.359375 372.390625 C 391.054688 372.253906 391.730469 372.050781 392.382812 371.777344 C 393.039062 371.507812 393.660156 371.171875 394.25 370.78125 C 394.839844 370.386719 395.386719 369.9375 395.886719 369.4375 C 396.390625 368.933594 396.835938 368.390625 397.230469 367.800781 C 397.625 367.210938 397.957031 366.589844 398.230469 365.933594 C 398.5 365.277344 398.707031 364.601562 398.84375 363.90625 C 398.980469 363.210938 399.050781 362.507812 399.050781 361.800781 L 399.050781 318.601562 L 420.652344 318.601562 L 420.652344 361.800781 C 420.652344 362.507812 420.71875 363.210938 420.859375 363.90625 C 420.996094 364.601562 421.203125 365.277344 421.472656 365.933594 C 421.746094 366.589844 422.078125 367.210938 422.472656 367.800781 C 422.863281 368.390625 423.3125 368.933594 423.8125 369.4375 C 424.316406 369.9375 424.859375 370.386719 425.449219 370.78125 C 426.039062 371.171875 426.664062 371.507812 427.316406 371.777344 C 427.972656 372.050781 428.648438 372.253906 429.34375 372.390625 C 430.039062 372.53125 430.742188 372.601562 431.449219 372.601562 L 474.648438 372.601562 L 474.648438 394.199219 Z M 544.847656 415.800781 C 528.03125 415.792969 511.640625 413.144531 495.675781 407.851562 C 496 406.925781 496.191406 405.976562 496.25 405 L 496.25 361.800781 C 496.25 361.089844 496.179688 360.386719 496.042969 359.691406 C 495.902344 358.996094 495.699219 358.320312 495.425781 357.667969 C 495.15625 357.011719 494.824219 356.390625 494.429688 355.800781 C 494.035156 355.210938 493.585938 354.664062 493.085938 354.164062 C 492.585938 353.660156 492.039062 353.214844 491.449219 352.820312 C 490.859375 352.425781 490.238281 352.09375 489.582031 351.820312 C 488.925781 351.550781 488.253906 351.347656 487.558594 351.207031 C 486.859375 351.070312 486.160156 351 485.449219 351 L 442.25 351 L 442.25 307.800781 C 442.25 307.089844 442.179688 306.386719 442.042969 305.691406 C 441.90625 304.996094 441.699219 304.320312 441.429688 303.667969 C 441.15625 303.011719 440.824219 302.390625 440.429688 301.800781 C 440.035156 301.210938 439.589844 300.664062 439.085938 300.164062 C 438.585938 299.660156 438.039062 299.214844 437.449219 298.820312 C 436.859375 298.425781 436.238281 298.09375 435.582031 297.820312 C 434.929688 297.550781 434.253906 297.347656 433.558594 297.207031 C 432.863281 297.070312 432.160156 297 431.449219 297 L 392.972656 297 C 392.320312 294.382812 391.738281 291.753906 391.222656 289.105469 C 390.707031 286.460938 390.261719 283.800781 389.882812 281.132812 C 389.507812 278.464844 389.199219 275.785156 388.957031 273.101562 C 388.71875 270.417969 388.550781 267.726562 388.449219 265.03125 C 388.347656 262.339844 388.316406 259.644531 388.355469 256.949219 C 388.394531 254.253906 388.503906 251.558594 388.683594 248.871094 C 388.859375 246.179688 389.105469 243.496094 389.421875 240.820312 C 389.738281 238.140625 390.125 235.476562 390.578125 232.816406 C 391.03125 230.160156 391.554688 227.515625 392.144531 224.886719 C 392.738281 222.257812 393.394531 219.644531 394.121094 217.046875 C 394.847656 214.449219 395.636719 211.875 396.496094 209.320312 C 397.355469 206.761719 398.28125 204.230469 399.269531 201.722656 C 400.257812 199.214844 401.3125 196.734375 402.429688 194.28125 C 403.546875 191.828125 404.726562 189.40625 405.96875 187.015625 C 407.210938 184.621094 408.515625 182.261719 409.878906 179.9375 C 411.246094 177.613281 412.667969 175.324219 414.152344 173.074219 C 415.632812 170.820312 417.171875 168.609375 418.769531 166.4375 C 420.367188 164.265625 422.019531 162.136719 423.726562 160.050781 C 425.433594 157.964844 427.191406 155.921875 429.003906 153.925781 C 430.816406 151.929688 432.679688 149.984375 434.589844 148.082031 C 436.503906 146.183594 438.464844 144.335938 440.472656 142.535156 C 442.480469 140.738281 444.535156 138.992188 446.632812 137.300781 C 448.730469 135.609375 450.871094 133.972656 453.054688 132.390625 C 455.238281 130.808594 457.460938 129.285156 459.722656 127.816406 C 461.984375 126.347656 464.28125 124.941406 466.617188 123.59375 C 468.953125 122.246094 471.320312 120.957031 473.71875 119.730469 C 476.121094 118.507812 478.550781 117.34375 481.011719 116.242188 C 483.472656 115.140625 485.960938 114.105469 488.476562 113.132812 C 490.988281 112.160156 493.527344 111.253906 496.089844 110.414062 C 498.648438 109.574219 501.230469 108.796875 503.832031 108.089844 C 506.433594 107.382812 509.050781 106.742188 511.6875 106.171875 C 514.320312 105.597656 516.96875 105.09375 519.628906 104.660156 C 522.289062 104.222656 524.957031 103.855469 527.636719 103.558594 C 530.316406 103.261719 533.003906 103.03125 535.691406 102.875 C 538.382812 102.714844 541.078125 102.625 543.773438 102.605469 C 546.46875 102.585938 549.164062 102.632812 551.855469 102.753906 C 554.550781 102.871094 557.238281 103.0625 559.921875 103.320312 C 562.605469 103.578125 565.28125 103.902344 567.945312 104.300781 C 570.613281 104.695312 573.265625 105.160156 575.910156 105.695312 C 578.550781 106.226562 581.179688 106.828125 583.789062 107.496094 C 586.402344 108.164062 588.996094 108.902344 591.570312 109.703125 C 594.140625 110.507812 596.691406 111.375 599.222656 112.308594 C 601.75 113.246094 604.253906 114.242188 606.730469 115.308594 C 609.207031 116.371094 611.65625 117.496094 614.074219 118.6875 C 616.492188 119.878906 618.878906 121.128906 621.234375 122.445312 C 623.585938 123.757812 625.90625 125.128906 628.191406 126.5625 C 630.472656 127.996094 632.71875 129.488281 634.925781 131.035156 C 637.128906 132.585938 639.296875 134.191406 641.417969 135.851562 C 643.542969 137.511719 645.621094 139.226562 647.65625 140.996094 C 649.691406 142.765625 651.679688 144.582031 653.621094 146.453125 C 655.558594 148.324219 657.453125 150.246094 659.292969 152.214844 C 661.132812 154.183594 662.925781 156.199219 664.660156 158.257812 C 666.398438 160.320312 668.082031 162.425781 669.710938 164.570312 C 671.339844 166.71875 672.914062 168.910156 674.429688 171.136719 C 675.945312 173.367188 677.402344 175.632812 678.800781 177.9375 C 680.199219 180.242188 681.539062 182.582031 682.816406 184.957031 C 684.09375 187.328125 685.3125 189.734375 686.464844 192.171875 C 687.617188 194.605469 688.710938 197.070312 689.734375 199.5625 C 690.761719 202.058594 691.722656 204.574219 692.621094 207.117188 C 693.515625 209.660156 694.347656 212.222656 695.113281 214.808594 C 695.875 217.394531 696.574219 219.996094 697.203125 222.617188 C 697.832031 225.238281 698.394531 227.875 698.886719 230.523438 C 699.382812 233.175781 699.804688 235.835938 700.164062 238.507812 C 700.519531 241.179688 700.804688 243.859375 701.023438 246.546875 C 701.242188 249.234375 701.390625 251.925781 701.46875 254.621094 C 701.546875 257.316406 701.554688 260.007812 701.496094 262.703125 C 701.4375 265.398438 701.304688 268.09375 701.105469 270.78125 C 700.90625 273.46875 700.636719 276.148438 700.300781 278.824219 C 699.960938 281.5 699.554688 284.164062 699.082031 286.816406 C 698.605469 289.46875 698.0625 292.109375 697.449219 294.734375 C 696.839844 297.359375 696.160156 299.96875 695.414062 302.558594 C 694.667969 305.148438 693.855469 307.71875 692.972656 310.269531 C 692.09375 312.816406 691.152344 315.339844 690.140625 317.839844 C 689.132812 320.339844 688.058594 322.8125 686.921875 325.257812 C 685.785156 327.699219 684.585938 330.113281 683.324219 332.496094 C 682.0625 334.878906 680.738281 337.226562 679.355469 339.539062 C 677.972656 341.855469 676.53125 344.132812 675.03125 346.371094 C 673.53125 348.609375 671.972656 350.808594 670.359375 352.96875 C 668.746094 355.128906 667.074219 357.242188 665.351562 359.316406 C 663.628906 361.390625 661.851562 363.417969 660.023438 365.398438 C 658.195312 367.378906 656.320312 369.3125 654.390625 371.195312 C 652.464844 373.082031 650.488281 374.914062 648.464844 376.695312 C 646.441406 378.476562 644.375 380.207031 642.261719 381.882812 C 640.152344 383.558594 637.996094 385.179688 635.800781 386.742188 C 633.605469 388.304688 631.371094 389.8125 629.097656 391.261719 C 626.824219 392.710938 624.515625 394.101562 622.171875 395.429688 C 619.824219 396.757812 617.449219 398.027344 615.039062 399.234375 C 612.625 400.441406 610.1875 401.585938 607.714844 402.664062 C 605.246094 403.746094 602.75 404.761719 600.230469 405.714844 C 597.707031 406.664062 595.160156 407.550781 592.59375 408.371094 C 590.027344 409.191406 587.4375 409.945312 584.832031 410.632812 C 582.226562 411.320312 579.601562 411.9375 576.964844 412.492188 C 574.324219 413.042969 571.671875 413.523438 569.007812 413.9375 C 566.347656 414.351562 563.671875 414.699219 560.992188 414.976562 C 558.308594 415.25 555.625 415.457031 552.929688 415.597656 C 550.238281 415.734375 547.542969 415.800781 544.847656 415.800781 Z M 544.847656 415.800781 " fill-opacity="1" fill-rule="nonzero"/><path fill="rgb(0%, 28.239441%, 28.62854%)" d="M 109.140625 728.222656 C 110.429688 728.738281 111.769531 729 113.160156 729 C 115.25 728.996094 117.179688 728.4375 118.949219 727.324219 L 149.933594 707.679688 C 153.5 705.546875 157.21875 703.71875 161.089844 702.195312 C 164.960938 700.675781 168.929688 699.480469 172.996094 698.617188 C 177.0625 697.75 181.175781 697.226562 185.328125 697.039062 C 189.484375 696.851562 193.625 697.007812 197.753906 697.507812 L 323.863281 705.703125 C 343.074219 706.96875 362.234375 706.4375 381.347656 704.109375 C 400.457031 701.78125 419.183594 697.699219 437.53125 691.859375 C 454.832031 686.289062 471.390625 679.03125 487.210938 670.085938 L 633.105469 595.46875 C 633.464844 595.28125 633.816406 595.078125 634.152344 594.851562 C 634.492188 594.625 634.816406 594.378906 635.128906 594.117188 C 635.4375 593.855469 635.734375 593.578125 636.011719 593.28125 C 636.289062 592.984375 636.550781 592.675781 636.796875 592.347656 C 637.039062 592.023438 637.265625 591.6875 637.472656 591.335938 C 637.675781 590.984375 637.863281 590.625 638.027344 590.253906 C 638.191406 589.878906 638.335938 589.5 638.457031 589.113281 C 638.582031 588.726562 638.679688 588.332031 638.757812 587.933594 C 638.835938 587.535156 638.890625 587.132812 638.921875 586.726562 C 638.957031 586.320312 638.964844 585.914062 638.949219 585.507812 C 638.9375 585.101562 638.902344 584.699219 638.839844 584.296875 C 638.78125 583.894531 638.699219 583.496094 638.597656 583.101562 C 638.492188 582.710938 638.367188 582.324219 638.21875 581.945312 C 638.070312 581.566406 637.902344 581.195312 637.714844 580.835938 C 637.523438 580.476562 637.3125 580.128906 637.085938 579.792969 C 636.855469 579.457031 636.609375 579.132812 636.34375 578.824219 L 626.625 567.484375 C 625.464844 566.253906 624.257812 565.070312 623 563.933594 C 621.742188 562.800781 620.441406 561.722656 619.09375 560.695312 C 617.746094 559.667969 616.363281 558.699219 614.933594 557.789062 C 613.507812 556.878906 612.046875 556.027344 610.550781 555.234375 C 609.054688 554.445312 607.527344 553.71875 605.96875 553.050781 C 604.414062 552.386719 602.832031 551.789062 601.222656 551.253906 C 599.617188 550.722656 597.992188 550.253906 596.347656 549.855469 C 594.703125 549.453125 593.042969 549.125 591.371094 548.863281 C 589.699219 548.597656 588.019531 548.40625 586.328125 548.28125 C 584.640625 548.160156 582.949219 548.105469 581.257812 548.121094 C 579.566406 548.136719 577.875 548.222656 576.191406 548.378906 C 574.503906 548.535156 572.828125 548.757812 571.160156 549.054688 C 569.492188 549.347656 567.839844 549.710938 566.203125 550.140625 C 564.566406 550.570312 562.949219 551.066406 561.355469 551.632812 C 559.757812 552.195312 558.1875 552.824219 556.644531 553.519531 C 555.101562 554.214844 553.585938 554.96875 552.105469 555.789062 C 538.207031 563.597656 523.859375 570.476562 509.066406 576.421875 C 494.273438 582.371094 479.160156 587.335938 463.71875 591.316406 C 448.28125 595.300781 432.652344 598.269531 416.828125 600.222656 C 401.003906 602.175781 385.121094 603.09375 369.179688 602.984375 L 339.167969 603.0625 L 414.257812 580.921875 C 416.910156 580.140625 419.449219 579.097656 421.886719 577.789062 C 424.320312 576.476562 426.589844 574.933594 428.703125 573.148438 C 430.816406 571.367188 432.722656 569.386719 434.421875 567.207031 C 436.121094 565.03125 437.578125 562.699219 438.792969 560.21875 C 439.765625 558.140625 440.507812 555.984375 441.03125 553.75 C 441.550781 551.515625 441.835938 549.253906 441.882812 546.960938 C 441.929688 544.667969 441.742188 542.394531 441.316406 540.140625 C 440.890625 537.886719 440.238281 535.703125 439.355469 533.585938 C 438.523438 531.851562 437.5625 530.191406 436.46875 528.609375 C 435.375 527.027344 434.164062 525.542969 432.835938 524.152344 C 431.507812 522.761719 430.078125 521.484375 428.546875 520.320312 C 427.015625 519.15625 425.402344 518.121094 423.707031 517.210938 C 422.011719 516.304688 420.253906 515.535156 418.4375 514.902344 C 416.621094 514.273438 414.765625 513.789062 412.871094 513.453125 C 410.976562 513.117188 409.070312 512.929688 407.148438 512.898438 C 405.222656 512.863281 403.308594 512.980469 401.40625 513.25 L 287.726562 525.960938 C 261.984375 528.761719 236.5625 533.34375 211.464844 539.710938 C 186.363281 546.078125 161.832031 554.167969 137.867188 563.976562 L 79.378906 588.09375 C 78.785156 588.335938 78.21875 588.632812 77.679688 588.976562 C 77.140625 589.324219 76.636719 589.714844 76.164062 590.148438 C 75.695312 590.585938 75.265625 591.058594 74.882812 591.570312 C 74.496094 592.082031 74.15625 592.621094 73.867188 593.195312 C 73.578125 593.765625 73.34375 594.359375 73.160156 594.972656 C 72.972656 595.585938 72.847656 596.210938 72.773438 596.847656 C 72.699219 597.484375 72.683594 598.121094 72.726562 598.761719 C 72.765625 599.398438 72.863281 600.03125 73.015625 600.652344 L 102.683594 720.78125 C 102.886719 721.613281 103.1875 722.410156 103.582031 723.167969 C 103.976562 723.929688 104.453125 724.632812 105.015625 725.28125 C 105.574219 725.929688 106.207031 726.5 106.902344 726.996094 C 107.601562 727.496094 108.347656 727.902344 109.140625 728.222656 Z M 146.121094 583.914062 C 169.148438 574.488281 192.722656 566.722656 216.839844 560.605469 C 240.960938 554.492188 265.386719 550.09375 290.125 547.410156 L 403.792969 534.707031 C 404.539062 534.574219 405.292969 534.492188 406.050781 534.472656 C 406.808594 534.449219 407.566406 534.488281 408.320312 534.578125 C 409.074219 534.671875 409.816406 534.820312 410.546875 535.027344 C 411.277344 535.234375 411.988281 535.492188 412.679688 535.804688 C 413.371094 536.117188 414.035156 536.480469 414.671875 536.894531 C 415.308594 537.308594 415.910156 537.769531 416.476562 538.273438 C 417.042969 538.777344 417.570312 539.324219 418.054688 539.90625 C 418.539062 540.492188 418.976562 541.109375 419.367188 541.761719 C 420.015625 543.257812 420.324219 544.824219 420.296875 546.460938 C 420.269531 548.09375 419.90625 549.648438 419.203125 551.125 C 418.613281 552.230469 417.921875 553.265625 417.121094 554.230469 C 416.324219 555.195312 415.4375 556.074219 414.464844 556.859375 C 413.492188 557.648438 412.449219 558.332031 411.335938 558.910156 C 410.226562 559.484375 409.066406 559.949219 407.863281 560.292969 L 260.597656 603.71875 C 259.980469 603.902344 259.382812 604.136719 258.808594 604.425781 C 258.234375 604.714844 257.6875 605.054688 257.171875 605.441406 C 256.660156 605.828125 256.183594 606.257812 255.746094 606.726562 C 255.304688 607.199219 254.914062 607.707031 254.566406 608.25 C 254.21875 608.792969 253.921875 609.359375 253.675781 609.953125 C 253.429688 610.550781 253.238281 611.164062 253.101562 611.792969 C 252.96875 612.421875 252.886719 613.058594 252.867188 613.699219 C 252.84375 614.34375 252.878906 614.984375 252.96875 615.621094 C 253.0625 616.257812 253.210938 616.882812 253.414062 617.492188 C 253.617188 618.105469 253.875 618.691406 254.183594 619.257812 C 254.492188 619.820312 254.847656 620.355469 255.25 620.855469 C 255.65625 621.355469 256.101562 621.820312 256.585938 622.242188 C 257.074219 622.660156 257.59375 623.035156 258.148438 623.367188 C 258.703125 623.695312 259.28125 623.96875 259.882812 624.195312 C 260.484375 624.421875 261.105469 624.589844 261.738281 624.703125 C 262.371094 624.820312 263.011719 624.875 263.652344 624.878906 L 369.210938 624.605469 C 386.09375 624.714844 402.910156 623.734375 419.667969 621.660156 C 436.421875 619.582031 452.96875 616.433594 469.316406 612.210938 C 485.660156 607.988281 501.664062 602.722656 517.328125 596.421875 C 532.988281 590.121094 548.179688 582.832031 562.894531 574.558594 C 563.835938 574.042969 564.792969 573.566406 565.773438 573.128906 C 566.75 572.691406 567.746094 572.292969 568.753906 571.933594 C 569.765625 571.578125 570.789062 571.261719 571.824219 570.988281 C 572.863281 570.714844 573.90625 570.484375 574.960938 570.292969 C 576.015625 570.105469 577.078125 569.957031 578.144531 569.855469 C 579.210938 569.753906 580.28125 569.691406 581.351562 569.675781 C 582.425781 569.660156 583.496094 569.6875 584.566406 569.761719 C 585.636719 569.832031 586.699219 569.945312 587.761719 570.101562 C 588.820312 570.261719 589.871094 570.460938 590.917969 570.703125 C 591.960938 570.949219 592.992188 571.234375 594.011719 571.558594 C 595.035156 571.886719 596.039062 572.253906 597.03125 572.664062 C 598.023438 573.074219 598.996094 573.519531 599.949219 574.007812 C 600.902344 574.496094 601.835938 575.023438 602.746094 575.585938 C 603.660156 576.148438 604.546875 576.75 605.410156 577.386719 C 606.273438 578.023438 607.109375 578.691406 607.917969 579.394531 C 608.726562 580.097656 609.503906 580.835938 610.253906 581.601562 L 611.050781 582.53125 L 476.941406 651.089844 C 462.269531 659.394531 446.914062 666.132812 430.867188 671.304688 C 413.824219 676.738281 396.425781 680.53125 378.671875 682.691406 C 360.914062 684.851562 343.113281 685.335938 325.265625 684.148438 L 199.601562 675.992188 C 194.300781 675.363281 188.988281 675.175781 183.65625 675.4375 C 178.328125 675.699219 173.054688 676.398438 167.84375 677.542969 C 162.632812 678.6875 157.550781 680.253906 152.601562 682.25 C 147.652344 684.246094 142.902344 686.636719 138.355469 689.429688 L 120.058594 701.039062 L 96.234375 604.507812 Z M 146.121094 583.914062 " fill-opacity="1" fill-rule="nonzero"/><path fill="rgb(0%, 28.239441%, 28.62854%)" d="M 204.65625 145.800781 L 247.855469 145.800781 L 247.855469 124.199219 L 204.65625 124.199219 L 204.65625 81 L 183.054688 81 L 183.054688 124.199219 L 139.855469 124.199219 L 139.855469 145.800781 L 183.054688 145.800781 L 183.054688 189 L 204.65625 189 Z M 204.65625 145.800781 " fill-opacity="1" fill-rule="nonzero"/><path fill="rgb(0%, 28.239441%, 28.62854%)" d="M 658.246094 480.601562 L 658.246094 502.199219 L 636.648438 502.199219 L 636.648438 523.800781 L 658.246094 523.800781 L 658.246094 545.398438 L 679.847656 545.398438 L 679.847656 523.800781 L 701.445312 523.800781 L 701.445312 502.199219 L 679.847656 502.199219 L 679.847656 480.601562 Z M 658.246094 480.601562 " fill-opacity="1" fill-rule="nonzero"/><path fill="rgb(0%, 28.239441%, 28.62854%)" d="M 161.457031 469.800781 L 161.457031 437.398438 L 193.855469 437.398438 L 193.855469 415.800781 L 161.457031 415.800781 L 161.457031 383.398438 L 139.855469 383.398438 L 139.855469 415.800781 L 107.457031 415.800781 L 107.457031 437.398438 L 139.855469 437.398438 L 139.855469 469.800781 Z M 161.457031 469.800781 " fill-opacity="1" fill-rule="nonzero"/></svg>