<svg xmlns="http://www.w3.org/2000/svg" xmlns:xlink="http://www.w3.org/1999/xlink" width="1080" zoomAndPan="magnify" viewBox="0 0 810 809.999993" height="1080" preserveAspectRatio="xMidYMid meet" version="1.0"><defs><clipPath id="id1"><path d="M 56 177 L 672 177 L 672 751.1875 L 56 751.1875 Z M 56 177 " clip-rule="nonzero"/></clipPath><clipPath id="id2"><path d="M 492 58.9375 L 754 58.9375 L 754 321 L 492 321 Z M 492 58.9375 " clip-rule="nonzero"/></clipPath></defs><rect x="-81" width="972" fill="rgb(100%, 100%, 100%)" y="-80.999999" height="971.999992" fill-opacity="1"/><rect x="-81" width="972" fill="rgb(17.248535%, 87.059021%, 70.588684%)" y="-80.999999" height="971.999992" fill-opacity="1"/><rect x="-81" width="972" fill="rgb(100%, 100%, 100%)" y="-80.999999" height="971.999992" fill-opacity="1"/><rect x="-81" width="972" fill="rgb(17.248535%, 87.059021%, 70.588684%)" y="-80.999999" height="971.999992" fill-opacity="1"/><path fill="rgb(0%, 28.239441%, 28.62854%)" d="M 339.734375 457.570312 C 335.242188 457.570312 331.589844 453.914062 331.589844 449.421875 L 316.859375 449.421875 C 316.859375 462.039062 327.121094 472.300781 339.734375 472.300781 C 352.347656 472.300781 362.609375 462.039062 362.609375 449.421875 L 347.878906 449.421875 C 347.882812 453.914062 344.226562 457.570312 339.734375 457.570312 Z M 339.734375 457.570312 " fill-opacity="1" fill-rule="nonzero"/><path fill="rgb(0%, 28.239441%, 28.62854%)" d="M 452.691406 449.421875 L 437.964844 449.421875 C 437.964844 453.914062 434.308594 457.570312 429.816406 457.570312 C 425.328125 457.570312 421.671875 453.914062 421.671875 449.421875 L 406.941406 449.421875 C 406.941406 462.039062 417.203125 472.300781 429.816406 472.300781 C 442.429688 472.300781 452.691406 462.039062 452.691406 449.421875 Z M 452.691406 449.421875 " fill-opacity="1" fill-rule="nonzero"/><path fill="rgb(0%, 28.239441%, 28.62854%)" d="M 629.746094 365.84375 C 629.746094 408.011719 613.019531 447.6875 582.644531 477.5625 L 592.972656 488.066406 C 626.183594 455.398438 644.476562 411.996094 644.476562 365.84375 Z M 629.746094 365.84375 " fill-opacity="1" fill-rule="nonzero"/><path fill="rgb(0%, 28.239441%, 28.62854%)" d="M 568.667969 489.796875 C 562.152344 494.867188 555.1875 499.480469 547.960938 503.503906 L 555.125 516.375 C 563.007812 511.988281 570.609375 506.953125 577.71875 501.421875 Z M 568.667969 489.796875 " fill-opacity="1" fill-rule="nonzero"/><g clip-path="url(#id1)"><path fill="rgb(0%, 28.239441%, 28.62854%)" d="M 671.957031 370.554688 C 671.957031 356.804688 670.496094 343.078125 667.613281 329.75 L 653.21875 332.867188 C 655.878906 345.171875 657.230469 357.851562 657.230469 370.554688 C 657.230469 418.695312 638.152344 463.964844 603.519531 498.027344 C 580.792969 520.371094 552.566406 536.410156 521.714844 544.609375 C 521.699219 544.597656 521.683594 544.585938 521.671875 544.574219 C 514.625 538.957031 510.582031 530.621094 510.582031 521.703125 L 510.582031 370.71875 C 510.582031 330.890625 494.886719 293.378906 466.386719 265.097656 C 438.429688 237.347656 401.75 222.207031 362.953125 222.503906 C 362.949219 222.503906 362.945312 222.503906 362.9375 222.503906 C 362.914062 222.503906 362.890625 222.503906 362.867188 222.503906 C 324.15625 222.808594 287.765625 238.058594 260.402344 265.433594 C 232.71875 293.109375 217.476562 329.914062 217.476562 369.074219 L 217.476562 521.007812 C 217.476562 530.046875 213.351562 538.445312 206.15625 544.058594 C 205.972656 544.199219 205.800781 544.351562 205.621094 544.496094 C 126.035156 523.039062 70.8125 452.503906 70.8125 371.546875 C 70.8125 323.664062 89.933594 278.625 124.652344 244.730469 C 159.429688 210.792969 205.679688 192.101562 254.882812 192.101562 L 470.675781 192.101562 L 470.675781 177.371094 L 254.882812 177.371094 C 201.8125 177.371094 151.910156 197.546875 114.363281 234.183594 C 76.78125 270.875 56.085938 319.660156 56.085938 371.546875 C 56.085938 456.304688 111.902344 530.488281 193.378906 556.257812 C 182.074219 569.351562 174.6875 585.492188 172.269531 602.710938 C 156.574219 610.101562 142.34375 620.640625 130.585938 633.898438 C 109.59375 657.566406 98.03125 688.03125 98.03125 719.679688 L 98.03125 751.277344 L 629.992188 751.277344 L 629.992188 719.679688 C 629.992188 687.851562 618.328125 657.269531 597.144531 633.554688 C 585.214844 620.199219 570.761719 609.625 554.832031 602.28125 C 552.355469 585.316406 545.035156 569.382812 533.921875 556.425781 C 563.949219 547.015625 591.378906 530.621094 613.84375 508.535156 C 651.320312 471.679688 671.957031 422.675781 671.957031 370.554688 Z M 508.777344 736.542969 L 407.316406 736.542969 L 375.253906 704.484375 L 463.050781 616.675781 L 546.714844 698.59375 Z M 557.242188 708.898438 L 585.476562 736.542969 L 529.605469 736.542969 Z M 386.484375 736.542969 L 343.199219 736.542969 L 364.839844 714.902344 Z M 451.238281 605.105469 L 452.523438 606.367188 L 364.839844 694.066406 L 350.390625 679.617188 L 339.976562 690.035156 L 354.425781 704.484375 L 322.371094 736.542969 L 220.910156 736.542969 L 182.96875 698.589844 L 266.632812 616.675781 L 327.894531 677.957031 L 338.3125 667.542969 L 277.160156 606.371094 L 278.449219 605.109375 L 451.238281 605.109375 Z M 200.078125 736.542969 L 144.207031 736.542969 L 172.441406 708.898438 Z M 276.414062 557.875 L 276.414062 542.625 C 289.550781 555.847656 305.292969 565.785156 322.5625 571.894531 L 322.5625 590.375 L 281.941406 590.375 C 278.273438 580.011719 276.414062 569.097656 276.414062 557.875 Z M 390.742188 590.371094 L 337.292969 590.371094 L 337.292969 576.082031 C 345.964844 577.976562 354.910156 578.96875 364.023438 578.96875 C 373.125 578.96875 382.0625 577.957031 390.742188 576.054688 Z M 364.023438 564.238281 C 330.9375 564.238281 300.261719 549.597656 279.449219 523.996094 L 279.449219 449.316406 C 279.449219 405.460938 315.125 369.78125 358.972656 369.78125 L 373.164062 369.78125 C 389.078125 369.78125 403.277344 362.34375 412.496094 350.769531 C 417.21875 358.765625 425.90625 364.15625 435.84375 364.15625 C 456.363281 364.15625 473.054688 380.851562 473.054688 401.375 L 473.054688 455.175781 C 473.054688 484.3125 461.71875 511.699219 441.128906 532.292969 C 420.53125 552.890625 393.148438 564.238281 364.023438 564.238281 Z M 276.773438 403.273438 C 280.375 367.054688 311.015625 338.675781 348.160156 338.675781 L 371.488281 338.675781 C 385.980469 338.675781 399.101562 332.699219 408.535156 323.09375 C 406.722656 341.015625 391.554688 355.046875 373.164062 355.046875 L 358.972656 355.046875 C 323.714844 355.050781 292.933594 374.527344 276.773438 403.273438 Z M 215.21875 555.671875 C 226.011719 547.25 232.203125 534.613281 232.203125 521.003906 L 232.203125 369.070312 C 232.203125 333.847656 245.917969 300.742188 270.820312 275.851562 C 295.425781 251.226562 328.152344 237.515625 362.960938 237.234375 C 388.195312 237.25 408.71875 257.78125 408.71875 283.023438 L 408.71875 286.707031 C 408.71875 307.242188 392.015625 323.945312 371.488281 323.945312 L 348.160156 323.945312 C 300.476562 323.945312 261.683594 362.742188 261.683594 410.433594 L 261.683594 557.875 C 261.683594 569.027344 263.285156 579.917969 266.441406 590.375 L 227.328125 590.375 C 214.039062 590.375 200.964844 592.4375 188.53125 596.355469 C 192.671875 580.382812 202 565.988281 215.21875 555.671875 Z M 227.328125 605.105469 L 255.070312 605.105469 L 256.21875 606.257812 L 172.554688 688.171875 L 135.535156 651.144531 C 137.449219 648.582031 139.464844 646.082031 141.601562 643.671875 C 163.339844 619.164062 194.585938 605.105469 227.328125 605.105469 Z M 112.761719 719.679688 C 112.761719 699.945312 117.855469 680.742188 127.339844 663.785156 L 162.027344 698.480469 L 123.152344 736.546875 L 112.761719 736.546875 Z M 615.261719 736.542969 L 606.53125 736.542969 L 567.65625 698.480469 L 601.296875 664.832031 C 610.402344 681.523438 615.261719 700.339844 615.261719 719.675781 Z M 586.160156 643.367188 C 588.660156 646.167969 591.003906 649.085938 593.199219 652.09375 L 557.132812 688.175781 L 473.46875 606.257812 L 474.613281 605.109375 L 500.710938 605.109375 C 533.296875 605.105469 564.441406 619.050781 586.160156 643.367188 Z M 538.546875 596.058594 C 526.398438 592.335938 513.660156 590.375 500.710938 590.375 L 405.472656 590.375 L 405.472656 571.878906 C 422.605469 565.808594 438.308594 555.945312 451.542969 542.707031 C 474.914062 519.335938 487.78125 488.25 487.78125 455.175781 L 487.78125 401.375 C 487.78125 372.730469 464.480469 349.425781 435.839844 349.425781 C 429.007812 349.425781 423.445312 343.863281 423.445312 337.027344 L 423.445312 283.023438 C 423.445312 269.097656 418.707031 256.269531 410.773438 246.03125 C 427.429688 252.515625 442.804688 262.453125 456.007812 275.554688 C 481.699219 301.050781 495.847656 334.847656 495.847656 370.71875 L 495.847656 521.707031 C 495.847656 535.132812 501.914062 547.671875 512.492188 556.101562 C 525.320312 566.304688 534.414062 580.429688 538.546875 596.058594 Z M 538.546875 596.058594 " fill-opacity="1" fill-rule="nonzero"/></g><path fill="rgb(0%, 28.239441%, 28.62854%)" d="M 199.5625 247.675781 L 131.777344 247.675781 L 131.777344 262.410156 L 184.835938 262.410156 L 184.835938 262.691406 L 124.414062 298.890625 L 124.414062 320.871094 L 192.199219 320.871094 L 192.199219 306.140625 L 140.980469 306.140625 L 199.5625 271.042969 Z M 199.5625 247.675781 " fill-opacity="1" fill-rule="nonzero"/><path fill="rgb(0%, 28.239441%, 28.62854%)" d="M 164.773438 164.988281 L 129.113281 164.988281 L 172.140625 139.214844 L 172.140625 118.210938 L 116.429688 118.210938 L 116.429688 132.945312 L 153.9375 132.945312 L 109.0625 159.828125 L 109.0625 179.722656 L 164.773438 179.722656 Z M 164.773438 164.988281 " fill-opacity="1" fill-rule="nonzero"/><path fill="rgb(0%, 28.239441%, 28.62854%)" d="M 276.777344 126.054688 L 249.1875 126.054688 L 284.140625 105.113281 L 284.140625 85.335938 L 234.695312 85.335938 L 234.695312 100.070312 L 263.894531 100.070312 L 227.332031 121.972656 L 227.332031 140.785156 L 276.777344 140.785156 Z M 276.777344 126.054688 " fill-opacity="1" fill-rule="nonzero"/><path fill="rgb(0%, 28.239441%, 28.62854%)" d="M 623.15625 86.082031 C 566.0625 86.082031 519.613281 132.535156 519.613281 189.640625 L 534.339844 189.640625 C 534.339844 140.660156 574.183594 100.8125 623.15625 100.8125 C 672.128906 100.8125 711.972656 140.660156 711.972656 189.640625 C 711.972656 238.621094 672.128906 278.46875 623.15625 278.46875 L 623.15625 293.203125 C 680.25 293.203125 726.703125 246.746094 726.703125 189.640625 C 726.703125 132.535156 680.25 86.082031 623.15625 86.082031 Z M 623.15625 86.082031 " fill-opacity="1" fill-rule="nonzero"/><g clip-path="url(#id2)"><path fill="rgb(0%, 28.239441%, 28.62854%)" d="M 623.15625 58.996094 C 551.128906 58.996094 492.527344 117.601562 492.527344 189.640625 C 492.527344 226.265625 508.046875 261.4375 535.105469 286.148438 C 559.21875 308.164062 590.488281 320.289062 623.15625 320.289062 C 695.183594 320.289062 753.78125 261.679688 753.78125 189.640625 C 753.785156 117.601562 695.1875 58.996094 623.15625 58.996094 Z M 623.15625 305.554688 C 594.171875 305.554688 566.425781 294.796875 545.039062 275.269531 C 521.03125 253.34375 507.261719 222.132812 507.261719 189.640625 C 507.261719 125.722656 559.25 73.722656 623.160156 73.722656 C 687.0625 73.722656 739.054688 125.722656 739.054688 189.640625 C 739.054688 253.554688 687.0625 305.554688 623.15625 305.554688 Z M 623.15625 305.554688 " fill-opacity="1" fill-rule="nonzero"/></g><path fill="rgb(0%, 28.239441%, 28.62854%)" d="M 647.320312 189.574219 C 647.320312 178.929688 640.226562 169.921875 630.523438 167.003906 L 630.523438 106.96875 L 615.792969 106.96875 L 615.792969 167.417969 C 608.980469 169.875 603.613281 175.367188 601.359375 182.273438 L 555.371094 182.273438 L 555.371094 197.003906 L 601.40625 197.003906 C 604.527344 206.367188 613.355469 213.144531 623.753906 213.144531 C 636.75 213.144531 647.320312 202.570312 647.320312 189.574219 Z M 614.917969 189.574219 C 614.917969 184.699219 618.878906 180.734375 623.753906 180.734375 C 628.628906 180.734375 632.59375 184.699219 632.59375 189.574219 C 632.59375 194.449219 628.628906 198.414062 623.753906 198.414062 C 618.878906 198.414062 614.917969 194.449219 614.917969 189.574219 Z M 614.917969 189.574219 " fill-opacity="1" fill-rule="nonzero"/></svg>