<svg xmlns="http://www.w3.org/2000/svg" viewBox="0 0 346 352.84"><defs><style>.cls-1{opacity:0.18;}.cls-2{fill:#d4f8f0;}.cls-3{fill:#2cdeb4;}</style></defs><g id="Layer_2" data-name="Layer 2"><g id="Layer_1-2" data-name="Layer 1"><g id="Group_1341" data-name="Group 1341" class="cls-1"><g id="Group_1340" data-name="Group 1340"><path id="Path_1058" data-name="Path 1058" class="cls-2" d="M342.72,203.78a160.41,160.41,0,0,0-51.79-17c17.86-45,8.55-91.69,8.12-93.72l-.76-3.7-3.73.42a188.21,188.21,0,0,0-57.62,18C223.88,46.83,177.8,4.36,175.78,2.52L173,0l-2.79,2.54c-2,1.82-48.06,44.3-61.12,105.23a188.66,188.66,0,0,0-57.65-18l-3.73-.41L47,93.09c-.43,2-9.71,48.72,8.14,93.71a160.3,160.3,0,0,0-51.81,17L0,205.64l1.56,3.43c.82,1.85,20.18,43.83,60.06,64.94a121,121,0,0,0-18,26.95l-1.54,3.43,3.26,1.87c1,.56,24.71,13.91,53.52,13.91,22.73,0,53.4-8.7,74.16-48.74,20.73,40.05,51.4,48.76,74.14,48.76,28.8,0,52.54-13.37,53.53-13.93l3.27-1.87L302.39,301a120.41,120.41,0,0,0-18-26.93c39.87-21.12,59.22-63.11,60.06-65l1.55-3.43Z"/><path id="Path_1059" data-name="Path 1059" class="cls-3" d="M68.4,272.76a118.26,118.26,0,0,0-21,29.91S70.81,316,98.84,316c24.85,0,53.28-10.58,72.25-50.21l-4,87H178.9l-4-87c19,39.59,47.39,50.17,72.22,50.17,28.05,0,51.48-13.37,51.48-13.37a118.68,118.68,0,0,0-21-29.9c42.39-19.66,63.07-65.4,63.07-65.4A158.07,158.07,0,0,0,285,190.24c20.42-45.82,10-96.33,10-96.33A186.3,186.3,0,0,0,233.93,114C222.7,50.78,173,5.58,173,5.58S123.32,50.78,112.1,114A186.7,186.7,0,0,0,51,93.91S40.59,144.4,61,190.22A158.3,158.3,0,0,0,5.33,207.37S26,253.1,68.4,272.76M173,187.3c5.37,19.74,6.33,43.56.4,72.34a.93.93,0,0,0-.83,0c-5.93-28.78-5-52.6.43-72.34Zm46.8,16.52c-9.73,18.6-24.35,37.61-45.26,56.57a1.79,1.79,0,0,0-.6-.56c12.67-27.82,28.73-45.41,45.86-56M180.6,187.36C188,162,204,141.29,228.21,125.83c2.49,25.13-2.2,49.58-14,72.88a114.53,114.53,0,0,0-29.49,28.09,143.89,143.89,0,0,0-4.15-39.44ZM225.32,209c13.74-8.07,29.45-12.17,46.73-12.17h1.45c-10.62,18.77-26.18,33.23-46.38,43.07-1.8-.13-3.63-.19-5.45-.19a86.62,86.62,0,0,0-19,2.19A192.52,192.52,0,0,0,225.32,209ZM292.62,97.2c1.73,10.79,6.72,51.93-9.44,89.93-3.75-.33-7.48-.5-11.12-.5a102.4,102.4,0,0,0-45.58,10.16,139.71,139.71,0,0,0,10.7-81.22,188.52,188.52,0,0,1,55.43-18.36ZM173,9.64c9.15,9,47.42,49.48,57.68,102.8-28.49,15.9-47.85,37.78-57.66,65.13-9.82-27.35-29.18-49.22-57.67-65.13C125.61,59.12,163.86,18.68,173,9.64Zm-7.57,177.72a144.28,144.28,0,0,0-4.15,39.44,114.69,114.69,0,0,0-29.48-28.1c-11.79-23.3-16.46-47.75-14-72.87C142,141.29,158,161.94,165.43,187.36ZM53.4,97.21a188.61,188.61,0,0,1,55.46,18.36,139.77,139.77,0,0,0,10.7,81.21A102.16,102.16,0,0,0,74,186.62c-3.64,0-7.38.16-11.12.5C46.72,149.17,51.68,108,53.4,97.21Zm72.81,106.6c17.12,10.6,33.17,28.18,45.83,56a1.89,1.89,0,0,0-.6.56c-20.89-19-35.52-38-45.23-56.59m17.11,38.11a86.11,86.11,0,0,0-19-2.18c-1.8,0-3.62.05-5.42.18-20.19-9.85-35.75-24.3-46.37-43.06H74c17.29,0,33,4.09,46.72,12.18a193.49,193.49,0,0,0,22.63,32.9Zm-75.54,27.3C33.62,252.49,14.09,218.1,9.2,208.61a159.17,159.17,0,0,1,50-15.25,113.87,113.87,0,0,0,49,52.51C93.61,249.18,80,257,67.77,269.22ZM124.32,247c13.73,0,29.35,3.95,46.87,13.82a1.73,1.73,0,0,0-.12.64l0,.12c-21.29-2.35-38.9-7.39-53.56-14.25a65.6,65.6,0,0,1,6.79-.32ZM81.93,270.19c10.65-8.64,22.16-13.8,34.39-15.35a164.79,164.79,0,0,0,32.92,10.66c-14.2,5.82-28,8.76-41.12,8.76a85.89,85.89,0,0,1-26.19-4.06ZM98.85,313.1c-21.79,0-41-8.44-47.57-11.71a121,121,0,0,1,17.81-25.13,96.63,96.63,0,0,0,39,8.23c18.61,0,38.19-5.27,58.3-15.7-15.4,29.42-38.1,44.32-67.58,44.32Zm195.87-11.71c-6.6,3.27-25.78,11.73-47.58,11.73-29.47,0-52.17-14.9-67.55-44.32,20.11,10.43,39.69,15.71,58.32,15.71a96.52,96.52,0,0,0,39-8.22,119.8,119.8,0,0,1,17.8,25.11Zm-98-35.87a165.62,165.62,0,0,0,32.92-10.65c12.24,1.56,23.75,6.7,34.4,15.35a85.76,85.76,0,0,1-26.17,4.06C224.75,274.29,211,271.34,196.76,265.52Zm-21.84-3.91,0-.11a2,2,0,0,0-.13-.64c17.5-9.86,33.12-13.81,46.85-13.81,2.32,0,4.6.12,6.8.33C213.81,254.24,196.2,259.28,174.92,261.61Zm103.32,7.64C266,257,252.4,249.2,237.78,245.91a114,114,0,0,0,49-52.52,158.8,158.8,0,0,1,50,15.24c-4.89,9.48-24.42,43.88-58.56,60.62Z"/></g></g></g></g></svg>