<svg xmlns="http://www.w3.org/2000/svg" viewBox="0 0 708.02 16.09"><defs><style>.cls-1{fill:#004849;}</style></defs><g id="Layer_2" data-name="Layer 2"><g id="Layer_1-2" data-name="Layer 1"><path class="cls-1" d="M695.2,2.86a29.38,29.38,0,0,1-24.93,0,30.28,30.28,0,0,0-25.65,0,29.36,29.36,0,0,1-24.92,0A30.32,30.32,0,0,0,606.87,0h0a27.23,27.23,0,0,0-12.73,2.81l-.1,0a29.32,29.32,0,0,1-12.46,2.78,29.39,29.39,0,0,1-12.46-2.78,30.28,30.28,0,0,0-25.65,0A29.32,29.32,0,0,1,531,5.64a29.39,29.39,0,0,1-12.46-2.78l-.09,0A27.29,27.29,0,0,0,505.73,0h0A30.24,30.24,0,0,0,492.9,2.86a29.38,29.38,0,0,1-24.93,0,30.26,30.26,0,0,0-25.64,0,29.38,29.38,0,0,1-24.93,0A27.27,27.27,0,0,0,404.58,0h0a27.27,27.27,0,0,0-12.82,2.85,29.38,29.38,0,0,1-24.93,0,30.26,30.26,0,0,0-25.64,0,29.38,29.38,0,0,1-24.93,0,30.28,30.28,0,0,0-25.65,0,29.38,29.38,0,0,1-24.93,0,30.26,30.26,0,0,0-25.64,0,29.38,29.38,0,0,1-24.93,0,30.26,30.26,0,0,0-25.64,0,29.38,29.38,0,0,1-24.93,0,30.26,30.26,0,0,0-25.64,0,29.38,29.38,0,0,1-24.93,0,30.28,30.28,0,0,0-25.65,0,29.38,29.38,0,0,1-24.93,0,30.26,30.26,0,0,0-25.64,0,29.38,29.38,0,0,1-24.93,0A27.27,27.27,0,0,0,0,0V2.42A27.27,27.27,0,0,1,12.82,5.27a29.38,29.38,0,0,0,24.93,0,30.26,30.26,0,0,1,25.64,0,29.38,29.38,0,0,0,24.93,0,30.28,30.28,0,0,1,25.65,0,29.38,29.38,0,0,0,24.93,0,30.26,30.26,0,0,1,25.64,0,29.38,29.38,0,0,0,24.93,0,30.26,30.26,0,0,1,25.64,0,29.38,29.38,0,0,0,24.93,0,30.26,30.26,0,0,1,25.64,0,29.38,29.38,0,0,0,24.93,0,30.28,30.28,0,0,1,25.65,0,29.38,29.38,0,0,0,24.93,0,30.26,30.26,0,0,1,25.64,0,29.38,29.38,0,0,0,24.93,0,30.26,30.26,0,0,1,25.64,0,29.38,29.38,0,0,0,24.93,0,30.26,30.26,0,0,1,25.64,0,29.38,29.38,0,0,0,24.93,0,30.24,30.24,0,0,1,12.82-2.85h0a30.32,30.32,0,0,1,12.73,2.81l.08,0A29.4,29.4,0,0,0,531,8.05a29.4,29.4,0,0,0,12.47-2.78,30.24,30.24,0,0,1,25.63,0,29.4,29.4,0,0,0,12.47,2.78,29.4,29.4,0,0,0,12.47-2.78l.09,0a30.25,30.25,0,0,1,12.73-2.81h0A30.32,30.32,0,0,1,619.7,5.27a29.36,29.36,0,0,0,24.92,0,30.28,30.28,0,0,1,25.65,0,29.38,29.38,0,0,0,24.93,0A27.21,27.21,0,0,1,708,2.42V0A27.21,27.21,0,0,0,695.2,2.86Z"/><path class="cls-1" d="M670.27,10.9a30.28,30.28,0,0,0-25.65,0,29.36,29.36,0,0,1-24.92,0,30.32,30.32,0,0,0-12.83-2.85,27.23,27.23,0,0,0-12.73,2.81l-.1,0a29.32,29.32,0,0,1-12.46,2.78,29.39,29.39,0,0,1-12.46-2.78,30.28,30.28,0,0,0-25.65,0A29.32,29.32,0,0,1,531,13.68a29.39,29.39,0,0,1-12.46-2.78l-.09,0a27.26,27.26,0,0,0-12.73-2.81A30.28,30.28,0,0,0,492.9,10.9a29.38,29.38,0,0,1-24.93,0,30.26,30.26,0,0,0-25.64,0,29.38,29.38,0,0,1-24.93,0,27.27,27.27,0,0,0-12.82-2.85h0a27.27,27.27,0,0,0-12.82,2.85,29.38,29.38,0,0,1-24.93,0,30.26,30.26,0,0,0-25.64,0,29.38,29.38,0,0,1-24.93,0,30.28,30.28,0,0,0-25.65,0,29.38,29.38,0,0,1-24.93,0,30.26,30.26,0,0,0-25.64,0,29.38,29.38,0,0,1-24.93,0,30.26,30.26,0,0,0-25.64,0,29.38,29.38,0,0,1-24.93,0,30.26,30.26,0,0,0-25.64,0,29.38,29.38,0,0,1-24.93,0,30.28,30.28,0,0,0-25.65,0,29.38,29.38,0,0,1-24.93,0,30.26,30.26,0,0,0-25.64,0,29.38,29.38,0,0,1-24.93,0A27.27,27.27,0,0,0,0,8.05v2.41a27.27,27.27,0,0,1,12.82,2.85,29.38,29.38,0,0,0,24.93,0,30.26,30.26,0,0,1,25.64,0,29.38,29.38,0,0,0,24.93,0,30.28,30.28,0,0,1,25.65,0,29.38,29.38,0,0,0,24.93,0,30.26,30.26,0,0,1,25.64,0,29.38,29.38,0,0,0,24.93,0,30.26,30.26,0,0,1,25.64,0,29.38,29.38,0,0,0,24.93,0,30.26,30.26,0,0,1,25.64,0,29.38,29.38,0,0,0,24.93,0,30.28,30.28,0,0,1,25.65,0,29.38,29.38,0,0,0,24.93,0,30.26,30.26,0,0,1,25.64,0,29.38,29.38,0,0,0,24.93,0,30.26,30.26,0,0,1,25.64,0,29.38,29.38,0,0,0,24.93,0,30.26,30.26,0,0,1,25.64,0,29.38,29.38,0,0,0,24.93,0,30.25,30.25,0,0,1,12.83-2.85h0a30.32,30.32,0,0,1,12.73,2.81.2.2,0,0,1,.08,0A29.4,29.4,0,0,0,531,16.09a29.4,29.4,0,0,0,12.47-2.78,30.24,30.24,0,0,1,25.63,0,29.4,29.4,0,0,0,12.47,2.78,29.4,29.4,0,0,0,12.47-2.78l.09,0a30.28,30.28,0,0,1,12.73-2.81h0a30.32,30.32,0,0,1,12.83,2.85,29.36,29.36,0,0,0,24.92,0,30.28,30.28,0,0,1,25.65,0,29.38,29.38,0,0,0,24.93,0A27.21,27.21,0,0,1,708,10.46V8.05A27.21,27.21,0,0,0,695.2,10.9,29.38,29.38,0,0,1,670.27,10.9Z"/></g></g></svg>