<svg width="121" height="10" viewBox="0 0 121 10" fill="none" xmlns="http://www.w3.org/2000/svg">
<path d="M120.798 0.00458795V1.4436C118.146 1.38076 115.518 1.96421 113.142 3.1436C110.813 4.23687 108.272 4.80365 105.699 4.80365C103.126 4.80365 100.584 4.23687 98.255 3.1436C95.8585 2.02268 93.2452 1.44169 90.5995 1.44169C87.9539 1.44169 85.3405 2.02268 82.944 3.1436C80.6149 4.23687 78.0735 4.80365 75.5005 4.80365C72.9276 4.80365 70.3862 4.23687 68.057 3.1436C65.6595 2.02264 63.0451 1.44165 60.3985 1.44165C57.7519 1.44165 55.1376 2.02264 52.7401 3.1436C50.4109 4.23687 47.8695 4.80365 45.2965 4.80365C42.7235 4.80365 40.1822 4.23687 37.853 3.1436C35.4566 2.02268 32.8432 1.44169 30.1975 1.44169C27.5519 1.44169 24.9385 2.02268 22.542 3.1436C20.2128 4.23687 17.6715 4.80365 15.0985 4.80365C12.5255 4.80365 9.98418 4.23687 7.65503 3.1436C5.27904 1.96437 2.65179 1.38092 0 1.4436V0.00458795C2.65179 -0.0580862 5.27904 0.525356 7.65503 1.70458C9.98416 2.79792 12.5255 3.36474 15.0985 3.36474C17.6715 3.36474 20.2129 2.79792 22.542 1.70458C24.9385 0.58367 27.5519 0.00269586 30.1975 0.00269586C32.8432 0.00269586 35.4566 0.58367 37.853 1.70458C40.1822 2.79792 42.7235 3.36474 45.2965 3.36474C47.8695 3.36474 50.4109 2.79792 52.7401 1.70458C55.1376 0.583626 57.7519 0.00265009 60.3985 0.00265009C63.0451 0.00265009 65.6595 0.583626 68.057 1.70458C70.3862 2.79785 72.9276 3.36463 75.5005 3.36463C78.0735 3.36463 80.6149 2.79785 82.944 1.70458C85.3405 0.58367 87.9539 0.00269586 90.5995 0.00269586C93.2452 0.00269586 95.8585 0.58367 98.255 1.70458C100.584 2.79792 103.126 3.36474 105.699 3.36474C108.272 3.36474 110.813 2.79792 113.142 1.70458C115.518 0.525198 118.146 -0.0582491 120.798 0.00458795Z" fill="#7E35F9"/>
<path d="M120.798 4.80537V6.24436C118.146 6.18153 115.518 6.76497 113.142 7.94436C110.813 9.03763 108.272 9.60441 105.699 9.60441C103.126 9.60441 100.584 9.03763 98.255 7.94436C95.8585 6.82345 93.2452 6.24247 90.5995 6.24247C87.9539 6.24247 85.3405 6.82345 82.944 7.94436C80.6149 9.03763 78.0735 9.60441 75.5005 9.60441C72.9276 9.60441 70.3862 9.03763 68.057 7.94436C65.6595 6.8234 63.0451 6.24241 60.3985 6.24241C57.7519 6.24241 55.1376 6.8234 52.7401 7.94436C50.4109 9.03763 47.8695 9.60441 45.2965 9.60441C42.7235 9.60441 40.1822 9.03763 37.853 7.94436C35.4566 6.82345 32.8432 6.24247 30.1975 6.24247C27.5519 6.24247 24.9385 6.82345 22.542 7.94436C20.2128 9.03763 17.6715 9.60441 15.0985 9.60441C12.5255 9.60441 9.98418 9.03763 7.65503 7.94436C5.27904 6.76513 2.65179 6.18169 0 6.24436V4.80537C2.65179 4.7427 5.27904 5.32614 7.65503 6.50537C9.98418 7.59864 12.5255 8.16542 15.0985 8.16542C17.6715 8.16542 20.2128 7.59864 22.542 6.50537C24.9385 5.38445 27.5519 4.80346 30.1975 4.80346C32.8432 4.80346 35.4566 5.38445 37.853 6.50537C40.1822 7.59864 42.7235 8.16542 45.2965 8.16542C47.8695 8.16542 50.4109 7.59864 52.7401 6.50537C55.1376 5.38441 57.7519 4.80342 60.3985 4.80342C63.0451 4.80342 65.6595 5.38441 68.057 6.50537C70.3862 7.59864 72.9276 8.16542 75.5005 8.16542C78.0735 8.16542 80.6149 7.59864 82.944 6.50537C85.3405 5.38445 87.9539 4.80346 90.5995 4.80346C93.2452 4.80346 95.8585 5.38445 98.255 6.50537C100.584 7.59864 103.126 8.16542 105.699 8.16542C108.272 8.16542 110.813 7.59864 113.142 6.50537C115.518 5.32598 118.146 4.74253 120.798 4.80537Z" fill="#7E35F9"/>
</svg>
