<svg xmlns="http://www.w3.org/2000/svg" viewBox="0 0 368 9.75"><defs><style>.cls-1{fill:#004849;}</style></defs><g id="Layer_2" data-name="Layer 2"><g id="Layer_1-2" data-name="Layer 1"><path class="cls-1" d="M99.77,1.73a18.36,18.36,0,0,0-15.54,0,17.78,17.78,0,0,1-15.12,0,18.38,18.38,0,0,0-15.55,0,17.78,17.78,0,0,1-15.12,0,18.38,18.38,0,0,0-15.55,0,17.78,17.78,0,0,1-15.12,0A16.61,16.61,0,0,0,0,0V1.47A16.6,16.6,0,0,1,7.77,3.19a17.78,17.78,0,0,0,15.12,0,18.38,18.38,0,0,1,15.55,0,17.78,17.78,0,0,0,15.12,0,18.38,18.38,0,0,1,15.55,0,17.78,17.78,0,0,0,15.12,0,18.36,18.36,0,0,1,15.54,0,17.78,17.78,0,0,0,15.12,0,16.61,16.61,0,0,1,7.78-1.72V0a16.62,16.62,0,0,0-7.78,1.73A17.78,17.78,0,0,1,99.77,1.73Z"/><path class="cls-1" d="M99.77,6.61a18.29,18.29,0,0,0-15.54,0,17.78,17.78,0,0,1-15.12,0,18.31,18.31,0,0,0-15.55,0,17.78,17.78,0,0,1-15.12,0,18.31,18.31,0,0,0-15.55,0,17.78,17.78,0,0,1-15.12,0A16.61,16.61,0,0,0,0,4.88V6.34A16.61,16.61,0,0,1,7.77,8.07a17.78,17.78,0,0,0,15.12,0,18.31,18.31,0,0,1,15.55,0,17.78,17.78,0,0,0,15.12,0,18.31,18.31,0,0,1,15.55,0,17.78,17.78,0,0,0,15.12,0,18.29,18.29,0,0,1,15.54,0,17.78,17.78,0,0,0,15.12,0,16.62,16.62,0,0,1,7.78-1.73V4.88a16.62,16.62,0,0,0-7.78,1.73A17.78,17.78,0,0,1,99.77,6.61Z"/><path class="cls-1" d="M360.22,1.73a17.76,17.76,0,0,1-15.11,0,18.38,18.38,0,0,0-15.55,0,17.78,17.78,0,0,1-15.12,0,18.38,18.38,0,0,0-15.55,0,17.78,17.78,0,0,1-15.12,0,18.38,18.38,0,0,0-15.55,0,17.76,17.76,0,0,1-15.11,0,18.34,18.34,0,0,0-15.55,0,17.78,17.78,0,0,1-15.12,0,18.38,18.38,0,0,0-15.55,0,17.76,17.76,0,0,1-15.11,0,18.41,18.41,0,0,0-15.56,0,17.76,17.76,0,0,1-15.11,0,18.38,18.38,0,0,0-15.55,0,17.78,17.78,0,0,1-15.12,0A16.61,16.61,0,0,0,122.67,0V1.47a16.6,16.6,0,0,1,7.77,1.72,17.78,17.78,0,0,0,15.12,0,18.38,18.38,0,0,1,15.55,0,17.76,17.76,0,0,0,15.11,0,18.41,18.41,0,0,1,15.56,0,17.76,17.76,0,0,0,15.11,0,18.38,18.38,0,0,1,15.55,0,17.78,17.78,0,0,0,15.12,0,18.43,18.43,0,0,1,15.55,0,17.76,17.76,0,0,0,15.11,0,18.38,18.38,0,0,1,15.55,0,17.78,17.78,0,0,0,15.12,0,18.38,18.38,0,0,1,15.55,0,17.78,17.78,0,0,0,15.12,0,18.38,18.38,0,0,1,15.55,0,17.76,17.76,0,0,0,15.11,0A16.66,16.66,0,0,1,368,1.47V0A16.67,16.67,0,0,0,360.22,1.73Z"/><path class="cls-1" d="M345.11,6.61a18.31,18.31,0,0,0-15.55,0,17.78,17.78,0,0,1-15.12,0,18.31,18.31,0,0,0-15.55,0,17.78,17.78,0,0,1-15.12,0,18.31,18.31,0,0,0-15.55,0,17.76,17.76,0,0,1-15.11,0,18.34,18.34,0,0,0-15.55,0,17.78,17.78,0,0,1-15.12,0,18.31,18.31,0,0,0-15.55,0,17.76,17.76,0,0,1-15.11,0,18.33,18.33,0,0,0-15.56,0,17.76,17.76,0,0,1-15.11,0,18.31,18.31,0,0,0-15.55,0,17.78,17.78,0,0,1-15.12,0,16.61,16.61,0,0,0-7.77-1.73V6.34a16.61,16.61,0,0,1,7.77,1.73,17.78,17.78,0,0,0,15.12,0,18.31,18.31,0,0,1,15.55,0,17.76,17.76,0,0,0,15.11,0,18.33,18.33,0,0,1,15.56,0,17.76,17.76,0,0,0,15.11,0,18.31,18.31,0,0,1,15.55,0,17.78,17.78,0,0,0,15.12,0,18.34,18.34,0,0,1,15.55,0,17.76,17.76,0,0,0,15.11,0,18.31,18.31,0,0,1,15.55,0,17.78,17.78,0,0,0,15.12,0,18.31,18.31,0,0,1,15.55,0,17.78,17.78,0,0,0,15.12,0,18.31,18.31,0,0,1,15.55,0,17.76,17.76,0,0,0,15.11,0A16.67,16.67,0,0,1,368,6.34V4.88a16.67,16.67,0,0,0-7.78,1.73A17.76,17.76,0,0,1,345.11,6.61Z"/></g></g></svg>