<svg xmlns="http://www.w3.org/2000/svg" viewBox="0 0 58.44 29.79"><defs><style>.cls-1{fill:#a898e7;}.cls-2{fill:#dfd7fe;}</style></defs><g id="Layer_2" data-name="Layer 2"><g id="Layer_1-2" data-name="Layer 1"><path class="cls-1" d="M27.81,21.8a1.94,1.94,0,0,1-.14.45,27.64,27.64,0,0,1-5.36,7.29c-.56.55-1,.06-1.39-.25C15,25,9.29,20.45,3.63,15.83c-.88-.71-1.78-1.42-2.71-2.07a1.7,1.7,0,0,1-.69-2.37A19.06,19.06,0,0,1,5.07,5.17c.79-.7,1.43-.59,2.27.07,6.42,5,12.89,10,19.35,15A2.34,2.34,0,0,1,27.81,21.8Z"/><path class="cls-2" d="M58.44,6.34c0,3.53-2.17,5.69-5.67,5.7a5.92,5.92,0,0,1-6.12-6.32C46.67,2.29,49.32,0,53.14,0,56.23,0,58.46,2.7,58.44,6.34Z"/></g></g></svg>