<svg xmlns="http://www.w3.org/2000/svg" viewBox="0 0 36.26 77.91"><defs><style>.cls-1{fill:#dfd7fe;}</style></defs><g id="Layer_2" data-name="Layer 2"><g id="Layer_1-2" data-name="Layer 1"><path class="cls-1" d="M22.83,51.09C16.34,50.93,12.24,47.38,11,41c-.91-4.48.85-7.9,3.91-10.88A9,9,0,0,1,19,28.18c1.5-.4,3-.76,4.51-1.17,1.34-.37,2-1.16,1.9-2.21a2.48,2.48,0,0,0-2.28-2.15,11.63,11.63,0,0,0-4.87.46A13.24,13.24,0,0,1,2.32,15.39,33.65,33.65,0,0,1,.17,6.18a15.13,15.13,0,0,1-.17-2A3.19,3.19,0,0,1,2.8.76C4.41.45,6,.24,7.67,0,8.73-.11,9.24.29,9.49,1.37c.37,1.56.12,3.16.34,4.73a12.49,12.49,0,0,0,2.24,5.82,4,4,0,0,0,4.07,1.68c1.78-.25,3.5-.8,5.31-.91a13.33,13.33,0,0,1,7,1.17,12.28,12.28,0,0,1,5.26,5.55c1.37,2.61,2.6,5.31,2.5,8.39a8.16,8.16,0,0,1-6.12,7.73c-2.09.55-4.22.93-6.28,1.61a9,9,0,0,0-2,.87,1.71,1.71,0,0,0-.07,3.06,2.91,2.91,0,0,0,2.45.38c.83-.18,1.66-.41,2.49-.6a1.52,1.52,0,0,1,1.93.95c.86,2.06,1.45,4.21,2.14,6.32.24.71-.26,1.13-.86,1.41A18.8,18.8,0,0,1,22.83,51.09Z"/><path class="cls-1" d="M23.6,72.72c.21,3.65-2,5.07-5.06,5.19-3.19.12-5.4-2.27-5.4-5.58,0-3.09,2.28-5.12,5.67-5.21A5,5,0,0,1,23.6,72.72Z"/></g></g></svg>