<svg xmlns="http://www.w3.org/2000/svg" viewBox="0 0 98.38 95.97"><defs><style>.cls-1{fill:#ded9f1;}.cls-2{fill:#dfd7fe;}.cls-3{fill:#dfd7fd;}.cls-4{fill:#aca4ca;}</style></defs><g id="Layer_2" data-name="Layer 2"><g id="Layer_1-2" data-name="Layer 1"><path class="cls-1" d="M98.37,46.67a57.35,57.35,0,0,1-2.59,17.77c-.67,2.16-.94,2.31-3.15,2.29a91.23,91.23,0,0,1-10.57-1.1c-4.23-.53-8.44-1.13-12.67-1.69S61.2,62.87,57.1,62.32s-8.27-1.13-12.41-1.69a40.53,40.53,0,0,1-6.53-1.55,1.79,1.79,0,0,1-1.28-2c.06-7.41,1.95-14.12,7.6-19.34C49,33.65,57.26,35,60.25,40.35a16.32,16.32,0,0,1,1.39,2.85c1.12,3.34,4.2,3.8,6.94,2.7a8.8,8.8,0,0,0,3.69-3.2c1.53-2.08,2.59-4.48,4.25-6.46,2.39-2.86,5-5.4,8.86-6.22,7.36-1.59,12.06,2.92,12.76,9.85C98.35,41.94,98.35,44,98.37,46.67Z"/><path class="cls-2" d="M4,20a2.75,2.75,0,0,1-2.49-1.61,13.21,13.21,0,0,1-1.47-4.3c-.28-1.64.59-3,2.43-3.89C6.11,8.49,9.74,6.77,13.4,5.1c2.31-1,4.5-2.33,6.74-3.53A14,14,0,0,1,23.38.15a2.69,2.69,0,0,1,3.38,1.28,14.08,14.08,0,0,1,1.87,4.28A2.8,2.8,0,0,1,27.3,8.88a41.4,41.4,0,0,1-4.9,2.66C17.59,13.93,12.66,16.07,8,18.83A7.61,7.61,0,0,1,4,20Z"/><path class="cls-3" d="M73.46,74.72a5.2,5.2,0,0,1,2.4.92L94.3,87.31c2.06,1.31,2.27,2.4.8,4.32-.85,1.11-1.72,2.2-2.6,3.29s-1.73,1.31-3.21.62a45.08,45.08,0,0,1-10.36-6.79c-2.17-1.87-4.79-3-7-4.78-.83-.66-1.63-1.36-2.39-2.09a2,2,0,0,1-.26-3c.84-1.12,1.73-2.19,2.62-3.26A2.29,2.29,0,0,1,73.46,74.72Z"/><path class="cls-4" d="M29.11,35c0,3.67-2.05,5.63-5.8,5.76S17.08,38,17.1,34.32c0-3.42,2.79-5.87,6.64-5.83C26.83,28.51,29.12,31.28,29.11,35Z"/></g></g></svg>