<svg xmlns="http://www.w3.org/2000/svg" viewBox="0 0 55.64 92.28"><defs><style>.cls-1{fill:#a294d0;}.cls-2{fill:#ded9f1;}</style></defs><g id="Layer_2" data-name="Layer 2"><g id="Layer_1-2" data-name="Layer 1"><path class="cls-1" d="M55.62,63.54a40.47,40.47,0,0,1-.9,10C53,81.21,48.43,86.34,41.25,89.41c-10.9,4.65-21.28,3.75-30.6-3.48C4.27,81,.79,74.06.18,65.82c-.36-5-.33-10,1.54-14.72C5.2,42.25,11.9,37,20.89,34.57c4.89-1.33,9.94-2,14.9-.66A24.37,24.37,0,0,1,49.32,43.1,31.42,31.42,0,0,1,55.62,63.54Zm-12.79-.06c0-.82.06-1.64,0-2.44-.21-2.6-.67-5.17-2.33-7.26-3.56-4.5-8.18-6.82-14-6S16,51.14,13.79,57.26c-1.92,5.42-.15,14.51,5,17.74a16.89,16.89,0,0,0,7.28,2.75,18.16,18.16,0,0,0,11.24-2.37C41.74,72.77,43.07,68.39,42.83,63.48Z"/><path class="cls-2" d="M30,14.31a1.82,1.82,0,0,1-.11.38,23.54,23.54,0,0,1-4.49,6.09c-.47.46-.8.06-1.16-.21-5-3.56-9.73-7.39-14.47-11.25C9,8.72,8.26,8.13,7.48,7.59a1.43,1.43,0,0,1-.58-2A16,16,0,0,1,11,.4c.66-.58,1.2-.49,1.9.06C18.22,4.67,23.63,8.84,29,13A1.91,1.91,0,0,1,30,14.31Z"/></g></g></svg>