<svg xmlns="http://www.w3.org/2000/svg" viewBox="0 0 132.85 89.19"><defs><style>.cls-1{fill:#dfd7fe;}.cls-2{fill:#aca4ca;}.cls-3{fill:#a898e7;}</style></defs><g id="Layer_2" data-name="Layer 2"><g id="Layer_1-2" data-name="Layer 1"><path class="cls-1" d="M75.74,64.54c.45-8.64,5.84-17,16.9-17.32,3.63-.09,4.9-1.43,5-5.07.06-1.61,0-3.22.16-4.83A9.84,9.84,0,0,1,101.06,31c3.27-3,6.8-5.61,11.54-5.33a21.72,21.72,0,0,1,15.59,7.18c1.08,1.2,2.23,2.33,3.28,3.55a5,5,0,0,1,.16,6.72,49.06,49.06,0,0,1-3.8,4.22c-1.72,1.7-3.29,1.76-5.19.27-1-.79-1.91-1.7-2.84-2.59A17.31,17.31,0,0,0,117,42.84c-2.27-1.41-4.64-1.43-6.39-.07A6,6,0,0,0,109,49.13c.7,2.24,2.37,3.85,3.77,5.64a22.49,22.49,0,0,1,3,4.28c.92,2,.75,2.75-.72,4.32s-2.82,3.07-4.21,4.63-2.41,1.74-4.14.43A33.42,33.42,0,0,1,103.11,65a17.7,17.7,0,0,0-5.39-3.88,5.2,5.2,0,0,0-7.14,6.48c.67,2.08,2.19,3.64,3.39,5.4s2.41,3.39,3.58,5.12c1.54,2.31,1.37,3.84-.53,5.79a65.31,65.31,0,0,1-5,4.38,2.85,2.85,0,0,1-3.31.39,8.3,8.3,0,0,1-3.1-2.22c-3.69-4.66-7.18-9.44-8.84-15.28A21.19,21.19,0,0,1,75.74,64.54Z"/><path class="cls-2" d="M9,54.63a8.67,8.67,0,0,1,4,1C23.66,61.35,34.25,67.26,45.42,72a15.45,15.45,0,0,1,4,2.46,4.61,4.61,0,0,1,1.53,5.36,25.86,25.86,0,0,1-4.09,7.44,4.7,4.7,0,0,1-5.46,1.62A53.1,53.1,0,0,1,32.57,85c-6.06-3-12.08-6.12-18.12-9.2A60.61,60.61,0,0,0,8,72.91a18.66,18.66,0,0,1-5.64-3.24c-2.48-2.12-3-4.45-1.48-7.36A29.51,29.51,0,0,1,4.89,56.5,5.07,5.07,0,0,1,9,54.63Z"/><path class="cls-3" d="M122.27,6.23c0,3.7-1.82,5.77-5.13,5.79s-5.65-2.46-5.66-6.26A5.5,5.5,0,0,1,117.31,0C120.25,0,122.25,2.51,122.27,6.23Z"/></g></g></svg>