<svg xmlns="http://www.w3.org/2000/svg" viewBox="0 0 71.18 86.16"><defs><style>.cls-1{fill:#dfd7fd;}.cls-2{fill:#a898e6;}.cls-3{fill:#a094d0;}</style></defs><g id="Layer_2" data-name="Layer 2"><g id="Layer_1-2" data-name="Layer 1"><path class="cls-1" d="M39.16,79.94c-.27-.76.22-1.13.52-1.57C46.42,68.66,53.87,59.49,60.89,50a2,2,0,0,1,2.72-.66,17.59,17.59,0,0,1,7.1,5.47,1.87,1.87,0,0,1-.09,2.58Q60.29,71.12,50,84.93c-.94,1.26-1.85,1.62-3.28.77a39.46,39.46,0,0,1-6.67-4.8C39.72,80.58,39.41,80.21,39.16,79.94Z"/><path class="cls-2" d="M5.35.17A5.36,5.36,0,0,1,9.08.64c8,3.42,16,6.72,24.28,9.58,3.59,1.26,4.25,3,3,6.53-.07.19-.16.37-.24.56-2,5-3.45,5.65-8.44,3.81C20.11,18.32,12.77,14.87,5,12.54a8.8,8.8,0,0,1-1.7-.73c-3.64-2-4.21-3.95-2-7.53C2.26,2.63,2.94.56,5.35.17Z"/><path class="cls-3" d="M12.39,49.69c-1.1-5.12,1.91-9.5,7.38-10.72,6-1.34,11,1.94,12.37,8.13,1.19,5.33-2.58,10.45-8.63,11.71C18.47,59.86,13.73,56,12.39,49.69Z"/></g></g></svg>