<svg xmlns="http://www.w3.org/2000/svg" viewBox="0 0 43.17 48.64"><defs><style>.cls-1{fill:#c3bfbf;}.cls-2{fill:#dedcdc;}.cls-3{fill:none;stroke:#c3bfbf;}</style></defs><g id="Layer_2" data-name="Layer 2"><g id="Layer_1-2" data-name="Layer 1"><path id="Path_1109" data-name="Path 1109" class="cls-1" d="M8.38,27.25h1.1v3.89a1.92,1.92,0,0,1,1.29-.53,1.68,1.68,0,0,1,1.29.52,2.16,2.16,0,0,1,.41,1.45V35.5H11.38V32.69a1.36,1.36,0,0,0-.21-.83.79.79,0,0,0-.65-.26.92.92,0,0,0-.81.36,2.41,2.41,0,0,0-.23,1.24v2.3H8.38Zm9.82,6.13H14.79a1.44,1.44,0,0,0,.38.93,1.18,1.18,0,0,0,.87.35,1.26,1.26,0,0,0,.68-.2,2.82,2.82,0,0,0,.6-.73l.92.52a3.59,3.59,0,0,1-.45.63,2.33,2.33,0,0,1-.51.43,2.29,2.29,0,0,1-.59.24,2.71,2.71,0,0,1-.69.08A2.23,2.23,0,0,1,14.29,35a2.56,2.56,0,0,1-.65-1.83,2.63,2.63,0,0,1,.63-1.82,2.38,2.38,0,0,1,3.33,0,2.61,2.61,0,0,1,.6,1.84Zm-1.13-.9A1.07,1.07,0,0,0,16,31.6a1.21,1.21,0,0,0-.38.06,1.14,1.14,0,0,0-.32.18,1.22,1.22,0,0,0-.24.27,1.34,1.34,0,0,0-.16.37Zm5.84-1.74H24V35.5h-1.1V35a2.12,2.12,0,0,1-3,0l-.1-.11a2.85,2.85,0,0,1,0-3.6,2.06,2.06,0,0,1,3.09,0ZM20.3,33.11a1.62,1.62,0,0,0,.37,1.11,1.18,1.18,0,0,0,.94.43,1.24,1.24,0,0,0,1-.42,1.8,1.8,0,0,0,0-2.2,1.26,1.26,0,0,0-1-.43,1.21,1.21,0,0,0-.94.43,1.57,1.57,0,0,0-.38,1.08Zm5.78-2.37,1.23,2.68,1.22-2.68h1.25l-2.47,5.09-2.46-5.09ZM32,34.62l-2.13-3.88h1.27l1.46,2.74L34,30.74H35.2l-3.79,7.35H30.16ZM7.71,43.74h1.1v.44a2.37,2.37,0,0,1,.55-.44,1.35,1.35,0,0,1,.6-.13,1.46,1.46,0,0,1,1.27.7,1.68,1.68,0,0,1,1.4-.7c1.07,0,1.61.65,1.61,2V48.5h-1.1V45.86a2.14,2.14,0,0,0-.17-1,.6.6,0,0,0-.56-.29.71.71,0,0,0-.66.35,2.09,2.09,0,0,0-.21,1.1V48.5h-1.1V45.87c0-.84-.24-1.27-.73-1.27A.74.74,0,0,0,9,45,2.17,2.17,0,0,0,8.82,46V48.5H7.72ZM20,46.38H16.55a1.44,1.44,0,0,0,.38.93,1.17,1.17,0,0,0,.86.35,1.23,1.23,0,0,0,.68-.2,2.63,2.63,0,0,0,.6-.73l.93.52a3.59,3.59,0,0,1-.45.63,2.27,2.27,0,0,1-1.11.68,3.08,3.08,0,0,1-.68.07A2.22,2.22,0,0,1,16.05,48a2.56,2.56,0,0,1-.65-1.83A2.63,2.63,0,0,1,16,44.3a2.38,2.38,0,0,1,3.33,0,2.61,2.61,0,0,1,.6,1.84Zm-1.13-.9a1.07,1.07,0,0,0-1.11-.88,1,1,0,0,0-.38.07.9.9,0,0,0-.32.17,1.22,1.22,0,0,0-.24.27,1.34,1.34,0,0,0-.16.37Zm3.55-.71V48.5h-1.1V44.77h-.47v-1h.47V42h1.1v1.74h.86v1Zm5.2-1h1.1V48.5h-1.1V48a2.12,2.12,0,0,1-3,0l-.1-.11a2.57,2.57,0,0,1-.64-1.81,2.5,2.5,0,0,1,.64-1.79,2.07,2.07,0,0,1,1.6-.71,2,2,0,0,1,1.49.69ZM25,46.11a1.65,1.65,0,0,0,.36,1.11,1.2,1.2,0,0,0,.95.43,1.28,1.28,0,0,0,1-.41,1.82,1.82,0,0,0,0-2.21,1.28,1.28,0,0,0-1-.43,1.23,1.23,0,0,0-.95.43A1.56,1.56,0,0,0,25,46.11Zm6.2-5.86V48.5h-1.1V40.25Zm4.15,4.3-.91.49c-.14-.3-.32-.44-.53-.44a.33.33,0,0,0-.26.1.29.29,0,0,0-.1.25q0,.27.63.54a3.73,3.73,0,0,1,1.18.7,1.2,1.2,0,0,1,.3.85,1.49,1.49,0,0,1-.51,1.15A1.82,1.82,0,0,1,32.56,48a2.08,2.08,0,0,1-.32-.54l.94-.43a1.84,1.84,0,0,0,.3.43.66.66,0,0,0,.48.19c.37,0,.56-.17.56-.51s-.15-.38-.43-.55l-.33-.16-.34-.16a2.13,2.13,0,0,1-.68-.47A1.1,1.1,0,0,1,32.5,45a1.34,1.34,0,0,1,.42-1,1.48,1.48,0,0,1,1.06-.4,1.42,1.42,0,0,1,1.34,1Z"/><g id="Group_1694" data-name="Group 1694"><path id="Path_1110" data-name="Path 1110" class="cls-2" d="M7.48.5h7l7,7v7l-7,7L4,18.5.48,7.5Z"/><path id="Path_1111" data-name="Path 1111" class="cls-3" d="M21.48,7.5l-7-7h-7l-7,7m21,0-7,7m7-7v7l-7,7m0-7-14-7m14,7v7m-14-14L4,18.5l10.5,3"/><path id="Path_1112" data-name="Path 1112" class="cls-2" d="M28.62,16.67,28.69,12l4.73-4.6,4.67.07,4.6,4.73-2.1,7L33.22,21.4Z"/><path id="Path_1113" data-name="Path 1113" class="cls-3" d="M33.42,7.4,28.69,12l-.07,4.67,4.6,4.73m.2-14L38,12.13M33.42,7.4l4.67.07,4.6,4.73M38,12.13l-4.8,9.27M38,12.13l4.67.07m-9.47,9.2,7.37-2.23,2.1-7"/></g></g></g></svg>