<svg xmlns="http://www.w3.org/2000/svg" viewBox="0 0 44.88 48.14"><defs><style>.cls-1{fill:#c3bfbf;}.cls-2{fill:#dedcdc;}.cls-2,.cls-3{stroke:#c3bfbf;}.cls-3{fill:none;}</style></defs><g id="Layer_2" data-name="Layer 2"><g id="Layer_1-2" data-name="Layer 1"><path id="Path_1114" data-name="Path 1114" class="cls-1" d="M0,43.24H1.1v.44a2.93,2.93,0,0,1,.54-.45,1.57,1.57,0,0,1,.6-.12,1.47,1.47,0,0,1,1.28.7,1.67,1.67,0,0,1,1.4-.7c1.07,0,1.6.65,1.6,2V48H5.42V45.36a2,2,0,0,0-.16-1,.62.62,0,0,0-.57-.29.72.72,0,0,0-.66.35,2.3,2.3,0,0,0-.21,1.1V48H2.72V45.37c0-.84-.24-1.27-.73-1.27a.76.76,0,0,0-.68.35,2.29,2.29,0,0,0-.21,1.09V48H0Zm9,0V48H7.91V43.24Zm-1.27-2a.72.72,0,0,1,.71-.71A.71.71,0,0,1,9,41.78a.71.71,0,0,1-.5.21.72.72,0,0,1-.72-.72h0Zm6.36,2.18v1.46a2.72,2.72,0,0,0-.68-.63,1.33,1.33,0,0,0-.68-.18,1.38,1.38,0,0,0-1,.43,1.68,1.68,0,0,0,0,2.19,1.46,1.46,0,0,0,1.72.26,2.63,2.63,0,0,0,.69-.64v1.45a2.84,2.84,0,0,1-1.34.34,2.52,2.52,0,0,1-1.84-.71,2.5,2.5,0,0,1,0-3.58,2.53,2.53,0,0,1,1.84-.73,2.76,2.76,0,0,1,1.32.34Zm1.06-.21h1.1v.43a2.22,2.22,0,0,1,.54-.43,1.25,1.25,0,0,1,.57-.13,1.72,1.72,0,0,1,.9.29l-.5,1a1.08,1.08,0,0,0-.61-.22q-.9,0-.9,1.35V48h-1.1Zm3.43,2.35a2.36,2.36,0,0,1,.74-1.75,2.59,2.59,0,0,1,3.6,0,2.54,2.54,0,0,1,0,3.57,2.5,2.5,0,0,1-1.82.72,2.42,2.42,0,0,1-1.8-.73,2.45,2.45,0,0,1-.72-1.81Zm1.12,0a1.67,1.67,0,0,0,.38,1.13,1.49,1.49,0,0,0,2.06,0,1.77,1.77,0,0,0,0-2.22,1.46,1.46,0,0,0-2,0,1.55,1.55,0,0,0-.38,1.09Zm6.22-5.86v4a2,2,0,0,1,1.49-.68,2,2,0,0,1,1.6.71,2.85,2.85,0,0,1,0,3.6,2.12,2.12,0,0,1-1.62.71,2,2,0,0,1-1.47-.64V48h-1.1V39.75Zm2.61,5.9a1.61,1.61,0,0,0-.37-1.11,1.22,1.22,0,0,0-.94-.44,1.28,1.28,0,0,0-1,.43,1.54,1.54,0,0,0-.37,1.09,1.59,1.59,0,0,0,.37,1.11,1.22,1.22,0,0,0,1,.42,1.17,1.17,0,0,0,.94-.42,1.52,1.52,0,0,0,.38-1.07Zm3.38-2.41V48h-1.1V43.24Zm-1.26-2a.71.71,0,0,1,.71-.71.66.66,0,0,1,.51.21.67.67,0,0,1,.21.5.72.72,0,0,1-.71.72.72.72,0,0,1-.72-.72h0Zm6.16,2h1.1V48h-1.1v-.5a2.1,2.1,0,0,1-3,0,1.14,1.14,0,0,1-.11-.11,2.66,2.66,0,0,1-.64-1.81,2.59,2.59,0,0,1,.64-1.79,2.06,2.06,0,0,1,3.09,0Zm-2.61,2.37a1.73,1.73,0,0,0,.37,1.11,1.19,1.19,0,0,0,1,.43,1.23,1.23,0,0,0,1-.42,1.77,1.77,0,0,0,0-2.2,1.24,1.24,0,0,0-1-.43,1.21,1.21,0,0,0-.95.43,1.61,1.61,0,0,0-.37,1.08Zm6.2-5.86V48H39.32V39.75Zm4.16,4.3-.91.48c-.14-.29-.32-.43-.53-.43a.35.35,0,0,0-.26.09.36.36,0,0,0-.11.26c0,.18.22.36.64.54a3.89,3.89,0,0,1,1.18.69,1.27,1.27,0,0,1,.3.86,1.52,1.52,0,0,1-.51,1.15,1.81,1.81,0,0,1-2.57-.2,1.67,1.67,0,0,1-.32-.53l.94-.43a2.08,2.08,0,0,0,.3.43.71.71,0,0,0,.48.19c.37,0,.56-.17.56-.51s-.15-.38-.43-.55L43,45.93l-.33-.16A2,2,0,0,1,42,45.3a1.18,1.18,0,0,1-.25-.76,1.38,1.38,0,0,1,.43-1,1.46,1.46,0,0,1,1.05-.4,1.42,1.42,0,0,1,1.36,1Z"/><circle id="Ellipse_7" data-name="Ellipse 7" class="cls-2" cx="22.24" cy="16" r="6.5"/><path id="Rectangle_229" data-name="Rectangle 229" class="cls-1" d="M21.74,2h0a.5.5,0,0,1,.5.5v7a.5.5,0,0,1-.5.5h0a.5.5,0,0,1-.5-.5v-7A.5.5,0,0,1,21.74,2Z"/><circle id="Ellipse_8" data-name="Ellipse 8" class="cls-1" cx="21.74" cy="1.5" r="1.5"/><path id="Rectangle_230" data-name="Rectangle 230" class="cls-1" d="M21.74,22h0a.5.5,0,0,1,.5.5v7a.5.5,0,0,1-.5.5h0a.5.5,0,0,1-.5-.5v-7A.5.5,0,0,1,21.74,22Z"/><circle id="Ellipse_9" data-name="Ellipse 9" class="cls-1" cx="21.74" cy="30.5" r="1.5"/><path id="Rectangle_231" data-name="Rectangle 231" class="cls-1" d="M17.37,20.06h0a.5.5,0,0,1,0,.71l-5,4.95a.5.5,0,0,1-.7,0h0a.5.5,0,0,1,0-.71l5-5A.5.5,0,0,1,17.37,20.06Z"/><circle id="Ellipse_10" data-name="Ellipse 10" class="cls-1" cx="11.36" cy="26.07" r="1.5"/><path id="Rectangle_232" data-name="Rectangle 232" class="cls-1" d="M33,25.72h0a.51.51,0,0,1-.71,0L27.3,20.77a.51.51,0,0,1,0-.71h0a.51.51,0,0,1,.71,0L33,25A.51.51,0,0,1,33,25.72Z"/><circle id="Ellipse_11" data-name="Ellipse 11" class="cls-1" cx="33.31" cy="26.07" r="1.5"/><path id="Rectangle_233" data-name="Rectangle 233" class="cls-1" d="M26.3,11.13h0a.51.51,0,0,1,0-.71l4.95-4.95a.51.51,0,0,1,.71,0h0a.51.51,0,0,1,0,.71l-4.95,5A.5.5,0,0,1,26.3,11.13Z"/><circle id="Ellipse_12" data-name="Ellipse 12" class="cls-1" cx="32.31" cy="5.12" r="1.5"/><path id="Rectangle_234" data-name="Rectangle 234" class="cls-1" d="M11.72,6.47h0a.5.5,0,0,1,.7,0l5,5a.5.5,0,0,1,0,.71h0a.48.48,0,0,1-.7,0l-5-5A.5.5,0,0,1,11.72,6.47Z"/><circle id="Ellipse_13" data-name="Ellipse 13" class="cls-1" cx="11.36" cy="6.12" r="1.5"/><path id="Rectangle_235" data-name="Rectangle 235" class="cls-1" d="M36.24,15.5h0a.5.5,0,0,1-.5.5h-7a.5.5,0,0,1-.5-.5h0a.5.5,0,0,1,.5-.5h7A.5.5,0,0,1,36.24,15.5Z"/><circle id="Ellipse_14" data-name="Ellipse 14" class="cls-1" cx="36.74" cy="15.5" r="1.5"/><path id="Rectangle_236" data-name="Rectangle 236" class="cls-1" d="M16.24,15.5h0a.5.5,0,0,1-.5.5h-7a.5.5,0,0,1-.5-.5h0a.5.5,0,0,1,.5-.5h7A.5.5,0,0,1,16.24,15.5Z"/><circle id="Ellipse_15" data-name="Ellipse 15" class="cls-1" cx="7.74" cy="15.5" r="1.5"/><path id="Path_1115" data-name="Path 1115" class="cls-3" d="M19.85,12a4.32,4.32,0,0,0-2.08,5.74l.14.26"/></g></g></svg>