<svg xmlns="http://www.w3.org/2000/svg" viewBox="0 0 42.69 50.38"><defs><style>.cls-1{fill:#dedcdc;stroke:#c3bfbf;stroke-width:0.88px;}.cls-2{fill:#c3bfbf;}</style></defs><g id="Layer_2" data-name="Layer 2"><g id="Layer_1-2" data-name="Layer 1"><g id="Group_1701" data-name="Group 1701"><g id="Group_1696" data-name="Group 1696"><rect id="Rectangle_237" data-name="Rectangle 237" class="cls-1" x="2.7" y="25.78" width="37.88" height="7.05" rx="2.2"/><rect id="Rectangle_238" data-name="Rectangle 238" class="cls-1" x="5.35" y="18.73" width="33.48" height="7.93" rx="2.2"/><rect id="Rectangle_239" data-name="Rectangle 239" class="cls-1" x="7.99" y="11.69" width="27.31" height="7.93" rx="2.2"/><rect id="Rectangle_240" data-name="Rectangle 240" class="cls-1" x="11.51" y="5.52" width="21.14" height="7.05" rx="2.2"/><path id="Path_1116" data-name="Path 1116" class="cls-2" d="M25.17,32.39a5.06,5.06,0,0,0-1-3.11,3.06,3.06,0,0,0-4.26-.73,3.16,3.16,0,0,0-.73.73,5.06,5.06,0,0,0-1,3.11Z"/><ellipse id="Ellipse_16" data-name="Ellipse 16" class="cls-2" cx="7.23" cy="1.13" rx="1.02" ry="0.87" transform="matrix(0.55, -0.83, 0.83, 0.55, 2.29, 6.53)"/><ellipse id="Ellipse_17" data-name="Ellipse 17" class="cls-2" cx="8.38" cy="1.82" rx="0.34" ry="0.86" transform="translate(3.74 9.03) rotate(-69.44)"/><ellipse id="Ellipse_18" data-name="Ellipse 18" class="cls-2" cx="5.88" cy="0.6" rx="0.34" ry="0.86" transform="translate(1.8 4.87) rotate(-52.11)"/><ellipse id="Ellipse_19" data-name="Ellipse 19" class="cls-2" cx="37.18" cy="7.01" rx="1.02" ry="0.87" transform="matrix(0.55, -0.83, 0.83, 0.55, 10.78, 34.12)"/><ellipse id="Ellipse_20" data-name="Ellipse 20" class="cls-2" cx="38.34" cy="7.71" rx="0.34" ry="0.86" transform="translate(17.66 40.9) rotate(-69.44)"/><ellipse id="Ellipse_21" data-name="Ellipse 21" class="cls-2" cx="35.83" cy="6.48" rx="0.34" ry="0.86" transform="translate(8.71 30.78) rotate(-52.11)"/></g><path id="Path_1117" data-name="Path 1117" class="cls-2" d="M1.1,50.38H0V43H1.1v.52a2,2,0,0,1,1.47-.65,2,2,0,0,1,1.62.72,2.62,2.62,0,0,1,.65,1.81,2.53,2.53,0,0,1-.65,1.78,2.08,2.08,0,0,1-2.94.2l-.16-.16Zm2.61-4.93a1.63,1.63,0,0,0-.37-1.12,1.23,1.23,0,0,0-.95-.44,1.3,1.3,0,0,0-1,.42,1.82,1.82,0,0,0,0,2.2,1.24,1.24,0,0,0,1,.43,1.18,1.18,0,0,0,.94-.43,1.54,1.54,0,0,0,.38-1.06Zm6.62.23H6.92a1.48,1.48,0,0,0,.38.93,1.16,1.16,0,0,0,.86.34,1.07,1.07,0,0,0,.68-.2,2.59,2.59,0,0,0,.6-.72l.93.52a4.53,4.53,0,0,1-.45.63,2.71,2.71,0,0,1-.52.43,2,2,0,0,1-.59.24,3.1,3.1,0,0,1-.69.08,2.18,2.18,0,0,1-1.7-.69,2.54,2.54,0,0,1-.65-1.82,2.61,2.61,0,0,1,.63-1.83,2.19,2.19,0,0,1,1.67-.69,2.17,2.17,0,0,1,1.66.67,2.69,2.69,0,0,1,.6,1.84Zm-1.13-.9a1,1,0,0,0-1.11-.88,1.15,1.15,0,0,0-.37.06,1.07,1.07,0,0,0-.57.45,1.65,1.65,0,0,0-.16.36Zm5.1-.93-.91.48c-.14-.29-.32-.44-.53-.44a.35.35,0,0,0-.26.1.36.36,0,0,0-.11.25c0,.19.22.37.64.55a3.7,3.7,0,0,1,1.18.69,1.25,1.25,0,0,1,.3.85,1.56,1.56,0,0,1-.51,1.16,1.83,1.83,0,0,1-2.57-.2,1.92,1.92,0,0,1-.32-.53l.94-.44a1.9,1.9,0,0,0,.3.44.66.66,0,0,0,.48.18c.37,0,.56-.17.56-.5s-.15-.38-.43-.55l-.34-.16-.33-.16a2,2,0,0,1-.68-.47,1.19,1.19,0,0,1-.25-.77,1.35,1.35,0,0,1,.43-1,1.46,1.46,0,0,1,1-.41,1.45,1.45,0,0,1,1.36,1Zm2.43.21v3.73h-1.1V44.06h-.47V43h.47V41.29h1.1V43h.86v1Zm2.7-1v4.75h-1.1V43Zm-1.26-2a.71.71,0,0,1,.71-.71.75.75,0,0,1,.51.21.71.71,0,0,1,.21.5.69.69,0,0,1-.21.51.67.67,0,0,1-.5.21.72.72,0,0,1-.72-.72Zm6.35,2.18V44.7a2.68,2.68,0,0,0-.67-.63,1.29,1.29,0,0,0-.69-.17,1.38,1.38,0,0,0-1,.43,1.68,1.68,0,0,0,0,2.19,1.32,1.32,0,0,0,1,.43,1.3,1.3,0,0,0,.7-.17,2.63,2.63,0,0,0,.69-.64v1.45a2.84,2.84,0,0,1-1.34.34,2.52,2.52,0,0,1-1.84-.71,2.52,2.52,0,0,1,0-3.58,2.49,2.49,0,0,1,1.84-.73,2.72,2.72,0,0,1,1.32.33Zm2.17-.2v4.75h-1.1V43Zm-1.27-2a.73.73,0,0,1,.72-.71.71.71,0,0,1,.5.21.64.64,0,0,1,.21.5.66.66,0,0,1-.21.51.67.67,0,0,1-.5.21.73.73,0,0,1-.72-.71h0Zm6.16-1.51h1.1v8.24h-1.1v-.5a2,2,0,0,1-1.47.64,2.12,2.12,0,0,1-1.62-.71,2.7,2.7,0,0,1-.64-1.82,2.59,2.59,0,0,1,.64-1.78,2.06,2.06,0,0,1,2.9-.22l.19.19ZM29,45.4a1.65,1.65,0,0,0,.36,1.11,1.18,1.18,0,0,0,.95.44,1.29,1.29,0,0,0,1-.42,1.82,1.82,0,0,0,0-2.21,1.27,1.27,0,0,0-1-.42,1.2,1.2,0,0,0-.95.43A1.55,1.55,0,0,0,29,45.4Zm9.43.28H35a1.43,1.43,0,0,0,.38.93,1.16,1.16,0,0,0,.86.34,1.11,1.11,0,0,0,.68-.2,2.78,2.78,0,0,0,.6-.72l.93.52a4.53,4.53,0,0,1-.45.63,3,3,0,0,1-.52.43,2,2,0,0,1-.59.24,3.17,3.17,0,0,1-.69.08,2.22,2.22,0,0,1-1.71-.69,2.58,2.58,0,0,1-.64-1.82,2.65,2.65,0,0,1,.62-1.83,2.39,2.39,0,0,1,3.33,0,2.66,2.66,0,0,1,.61,1.85Zm-1.13-.9a1,1,0,0,0-1.11-.88,1.21,1.21,0,0,0-.38.06,1.14,1.14,0,0,0-.32.18.9.9,0,0,0-.24.27,1.28,1.28,0,0,0-.16.36Zm5.1-.93-.91.48c-.14-.29-.32-.44-.53-.44a.35.35,0,0,0-.26.1.36.36,0,0,0-.11.25c0,.19.21.37.64.55a3.55,3.55,0,0,1,1.17.69,1.16,1.16,0,0,1,.3.85,1.46,1.46,0,0,1-.51,1.16,1.81,1.81,0,0,1-2.56-.19,1.71,1.71,0,0,1-.32-.53l.94-.44a1.9,1.9,0,0,0,.3.44A.63.63,0,0,0,41,47c.38,0,.56-.17.56-.51,0-.19-.14-.37-.43-.54l-.33-.16-.34-.16a2.08,2.08,0,0,1-.67-.47,1.19,1.19,0,0,1-.25-.77,1.37,1.37,0,0,1,.42-1,1.54,1.54,0,0,1,1.06-.4,1.44,1.44,0,0,1,1.35.94Z"/></g></g></g></svg>