<svg xmlns="http://www.w3.org/2000/svg" viewBox="0 0 35.37 50.84"><defs><style>.cls-1{fill:#c3bfbf;}.cls-2,.cls-4{fill:#dedcdc;}.cls-2{stroke:#dedcdc;isolation:isolate;opacity:0.9;}.cls-3{fill:none;}.cls-3,.cls-4{stroke:#c3bfbf;}.cls-4{stroke-width:0.5px;}</style></defs><g id="Layer_2" data-name="Layer 2"><g id="Layer_1-2" data-name="Layer 1"><path id="Path_1118" data-name="Path 1118" class="cls-1" d="M1.1,50.84H0V43.49H1.1V44a2.05,2.05,0,0,1,1.48-.65,2,2,0,0,1,1.61.73,2.82,2.82,0,0,1,0,3.59,2.08,2.08,0,0,1-2.94.19,1.14,1.14,0,0,1-.16-.15ZM3.71,45.9a1.61,1.61,0,0,0-.37-1.11,1.23,1.23,0,0,0-.95-.44,1.3,1.3,0,0,0-1,.42A1.58,1.58,0,0,0,1,45.87,1.61,1.61,0,0,0,1.41,47a1.24,1.24,0,0,0,1,.43A1.18,1.18,0,0,0,3.33,47a1.56,1.56,0,0,0,.38-1.07Zm2.06-.06a2.36,2.36,0,0,1,.74-1.75,2.59,2.59,0,0,1,3.6,0,2.54,2.54,0,0,1,0,3.57,2.49,2.49,0,0,1-1.82.72,2.49,2.49,0,0,1-2.52-2.54Zm1.12,0A1.63,1.63,0,0,0,7.28,47a1.49,1.49,0,0,0,2.06,0,1.8,1.8,0,0,0,0-2.22,1.46,1.46,0,0,0-2,0,1.57,1.57,0,0,0-.4,1.09Zm6.31-1.34v3.73H12.1V44.52h-.47v-1h.47V41.75h1.1v1.74h.86v1Zm6,1.61h-3.4a1.39,1.39,0,0,0,.38.93,1.15,1.15,0,0,0,.86.35,1.26,1.26,0,0,0,.68-.2,2.82,2.82,0,0,0,.6-.73l.93.52a3.18,3.18,0,0,1-.46.63,2.33,2.33,0,0,1-.51.43,2.38,2.38,0,0,1-.59.25,3.23,3.23,0,0,1-.69.07,2.25,2.25,0,0,1-1.71-.68,3,3,0,0,1,0-3.65,2.38,2.38,0,0,1,3.33,0,2.62,2.62,0,0,1,.61,1.84Zm-1.12-.9A1.07,1.07,0,0,0,17,44.35a1.21,1.21,0,0,0-.38.06,1.14,1.14,0,0,0-.32.18,1,1,0,0,0-.24.27,1.34,1.34,0,0,0-.16.37Zm2.33-1.74h1.1v.44a1.84,1.84,0,0,1,1.3-.57,1.64,1.64,0,0,1,1.29.52,2.1,2.1,0,0,1,.4,1.45v2.92H23.43V45.59a1.84,1.84,0,0,0-.21-1,.79.79,0,0,0-.69-.27.84.84,0,0,0-.77.36A2.43,2.43,0,0,0,21.53,46v2.3h-1.1Zm9.19.21v1.46a2.67,2.67,0,0,0-.67-.63,1.39,1.39,0,0,0-.69-.18,1.34,1.34,0,0,0-1,.44,1.5,1.5,0,0,0-.41,1.09,1.55,1.55,0,0,0,.4,1.1,1.35,1.35,0,0,0,1,.43,1.57,1.57,0,0,0,.7-.17,3,3,0,0,0,.69-.65V48a3,3,0,0,1-1.34.35,2.56,2.56,0,0,1-1.85-.72,2.39,2.39,0,0,1-.74-1.78,2.44,2.44,0,0,1,.75-1.8,2.55,2.55,0,0,1,1.85-.73,2.79,2.79,0,0,1,1.32.34Zm2.56,3.67L30,43.49h1.28l1.45,2.74,1.36-2.74h1.24l-3.79,7.35H30.33Z"/><g id="Group_1697" data-name="Group 1697"><path id="Path_1119" data-name="Path 1119" class="cls-2" d="M15.22,14.75H19a2.49,2.49,0,0,1,2.27,1.45l3.71,8a2.49,2.49,0,0,1-1.21,3.32,2.55,2.55,0,0,1-1,.23H11.22a2.5,2.5,0,0,1-2.5-2.5A2.43,2.43,0,0,1,9,24.13l4-8A2.51,2.51,0,0,1,15.22,14.75Z"/><path id="Path_1120" data-name="Path 1120" class="cls-3" d="M14.84,11.31l-6.3,12.6a3,3,0,0,0,2.68,4.34H22.75a3,3,0,0,0,3-3A3,3,0,0,0,25.49,24L19.84,11.3a1.29,1.29,0,0,1,.51-1.64,1.3,1.3,0,0,0-.66-2.41H15a1.28,1.28,0,0,0-.67,2.38A1.29,1.29,0,0,1,14.84,11.31Z"/><circle id="Ellipse_22" data-name="Ellipse 22" class="cls-4" cx="15.37" cy="4.25" r="1"/><circle id="Ellipse_23" data-name="Ellipse 23" class="cls-4" cx="19.37" cy="5.25" r="1"/><circle id="Ellipse_24" data-name="Ellipse 24" class="cls-4" cx="19.37" cy="1.25" r="1"/><path id="Path_1121" data-name="Path 1121" class="cls-3" d="M12.37,22.25l1.69,3,7.31-7"/></g></g></g></svg>