<svg xmlns="http://www.w3.org/2000/svg" viewBox="0 0 42 48.64"><defs><style>.cls-1{fill:#c3bfbf;}.cls-2{fill:#dedcdc;}.cls-2,.cls-3{stroke:#c3bfbf;}.cls-3{fill:none;}</style></defs><g id="Layer_2" data-name="Layer 2"><g id="Layer_1-2" data-name="Layer 1"><path id="Path_1122" data-name="Path 1122" class="cls-1" d="M6.79,44.36l-.91.49c-.14-.3-.32-.44-.53-.44a.35.35,0,0,0-.26.1.3.3,0,0,0-.1.25q0,.27.63.54A3.92,3.92,0,0,1,6.8,46a1.2,1.2,0,0,1,.3.85A1.52,1.52,0,0,1,6.59,48,1.82,1.82,0,0,1,4,47.81a2.2,2.2,0,0,1-.32-.53l.94-.44a2.14,2.14,0,0,0,.3.44.7.7,0,0,0,.48.18c.37,0,.56-.17.56-.51s-.15-.37-.43-.54l-.34-.16-.33-.17a2.15,2.15,0,0,1-.68-.46A1.19,1.19,0,0,1,4,44.85a1.38,1.38,0,0,1,.43-1,1.46,1.46,0,0,1,1-.4A1.44,1.44,0,0,1,6.79,44.36ZM7.87,45.9a2.31,2.31,0,0,1,.73-1.75,2.59,2.59,0,0,1,3.6,0,2.54,2.54,0,0,1,0,3.57,2.47,2.47,0,0,1-1.82.72,2.41,2.41,0,0,1-1.79-.73A2.45,2.45,0,0,1,7.87,45.9Zm1.12,0a1.62,1.62,0,0,0,.38,1.13,1.49,1.49,0,0,0,2.06,0,1.8,1.8,0,0,0,0-2.22,1.46,1.46,0,0,0-2,0A1.51,1.51,0,0,0,9,45.92Zm6.21-5.86v8.25H14.1V40.06Zm2.07,3.49,1.23,2.67,1.23-2.67H21L18.5,48.64l-2.45-5.09Zm8.59,2.64h-3.4a1.44,1.44,0,0,0,.38.93,1.17,1.17,0,0,0,.86.35,1.21,1.21,0,0,0,.68-.2,2.63,2.63,0,0,0,.6-.73l.93.52a3.59,3.59,0,0,1-.45.63,2.59,2.59,0,0,1-.51.43,2.22,2.22,0,0,1-.6.24,2.58,2.58,0,0,1-.68.08A2.22,2.22,0,0,1,22,47.76a2.56,2.56,0,0,1-.65-1.83,2.63,2.63,0,0,1,.63-1.82,2.38,2.38,0,0,1,3.33,0,2.61,2.61,0,0,1,.6,1.84Zm-1.12-.9a1.07,1.07,0,0,0-1.11-.88,1.21,1.21,0,0,0-.38.06,1.14,1.14,0,0,0-.32.18,1,1,0,0,0-.24.27,1.34,1.34,0,0,0-.16.37Zm2.33-1.74h1.1V44a1.84,1.84,0,0,1,1.3-.57,1.64,1.64,0,0,1,1.29.52,2.1,2.1,0,0,1,.4,1.45v2.92h-1.1V45.65a1.74,1.74,0,0,0-.2-1,.79.79,0,0,0-.69-.27.86.86,0,0,0-.78.36A2.53,2.53,0,0,0,28.17,46v2.3h-1.1Zm6.63,1v3.73H32.6V44.58h-.47v-1h.47V41.81h1.1v1.74h.85v1Zm4.37-.22-.91.49c-.15-.3-.32-.44-.54-.44a.35.35,0,0,0-.25.1.31.31,0,0,0-.11.25q0,.27.63.54a3.8,3.8,0,0,1,1.18.7,1.16,1.16,0,0,1,.3.85A1.51,1.51,0,0,1,37.86,48a1.81,1.81,0,0,1-2.57-.2,1.87,1.87,0,0,1-.32-.53l.94-.43a2.08,2.08,0,0,0,.3.43.71.71,0,0,0,.48.19c.37,0,.56-.17.56-.51s-.15-.38-.43-.55l-.33-.16-.34-.16a2.24,2.24,0,0,1-.68-.47,1.13,1.13,0,0,1-.24-.77,1.37,1.37,0,0,1,.42-1,1.53,1.53,0,0,1,1.06-.41,1.45,1.45,0,0,1,1.35.94Z"/><circle id="Ellipse_25" data-name="Ellipse 25" class="cls-2" cx="21" cy="7" r="6.5"/><circle id="Ellipse_26" data-name="Ellipse 26" class="cls-2" cx="37" cy="19" r="4.5"/><circle id="Ellipse_27" data-name="Ellipse 27" class="cls-2" cx="5" cy="19" r="4.5"/><rect id="Rectangle_241" data-name="Rectangle 241" class="cls-1" x="7.17" y="13.02" width="9.67" height="1" transform="translate(-5.9 11.02) rotate(-40.46)"/><rect id="Rectangle_242" data-name="Rectangle 242" class="cls-1" x="29.07" y="9.13" width="1" height="9.67" transform="translate(0.36 28.66) rotate(-51.98)"/><path id="Path_1123" data-name="Path 1123" class="cls-3" d="M18.87,3.15a4.32,4.32,0,0,0-2.41,5.61,2,2,0,0,0,.11.26"/><path id="Path_1124" data-name="Path 1124" class="cls-3" d="M34.87,18A2.22,2.22,0,0,0,36,20.89l.34.11"/><path id="Path_1125" data-name="Path 1125" class="cls-3" d="M2.87,18A2.21,2.21,0,0,0,4,20.89l.34.11"/></g></g></svg>